<?xml version="1.0" encoding="UTF-8" standalone="no"?>
<!-- Created with Inkscape (http://www.inkscape.org/) -->

<svg
   xmlns:dc="http://purl.org/dc/elements/1.1/"
   xmlns:cc="http://creativecommons.org/ns#"
   xmlns:rdf="http://www.w3.org/1999/02/22-rdf-syntax-ns#"
   xmlns:svg="http://www.w3.org/2000/svg"
   xmlns="http://www.w3.org/2000/svg"
   xmlns:xlink="http://www.w3.org/1999/xlink"
   xmlns:sodipodi="http://sodipodi.sourceforge.net/DTD/sodipodi-0.dtd"
   xmlns:inkscape="http://www.inkscape.org/namespaces/inkscape"
   version="1.1"
   id="svg2"
   width="30"
   height="30"
   viewBox="0 0 30 30"
   sodipodi:docname="coin30px.svg"
   inkscape:version="0.92.3 (2405546, 2018-03-11)">
  <metadata
     id="metadata8">
    <rdf:RDF>
      <cc:Work
         rdf:about="">
        <dc:format>image/svg+xml</dc:format>
        <dc:type
           rdf:resource="http://purl.org/dc/dcmitype/StillImage" />
        <dc:title />
      </cc:Work>
    </rdf:RDF>
  </metadata>
  <defs
     id="defs6">
    <clipPath
       clipPathUnits="userSpaceOnUse"
       id="clipPath5063">
      <rect
         style="fill:#c7740a;fill-opacity:1;stroke-width:1.04407191"
         id="rect5065"
         width="97.085129"
         height="44.054543"
         x="62.990398"
         y="204.52045"
         transform="matrix(0.92122282,-0.38903536,0.32367982,0.94616667,0,0)" />
    </clipPath>
    <clipPath
       clipPathUnits="userSpaceOnUse"
       id="clipPath5142">
      <text
         transform="matrix(0.91301871,0.39793872,-0.40116473,0.92042037,0,0)"
         id="text5146"
         y="243.14816"
         x="137.67905"
         style="font-style:normal;font-weight:normal;font-size:175.24552917px;line-height:1.25;font-family:sans-serif;letter-spacing:0px;word-spacing:0px;display:inline;fill:#f7ca05;fill-opacity:1;stroke:none;stroke-width:4.38113832"
         xml:space="preserve"><tspan
           style="font-style:normal;font-variant:normal;font-weight:normal;font-stretch:normal;font-family:'BadaBoom BB';-inkscape-font-specification:'BadaBoom BB';fill:#f7ca05;fill-opacity:1;stroke-width:4.38113832"
           y="243.14816"
           x="137.67905"
           id="tspan5144"
           sodipodi:role="line">1</tspan></text>
    </clipPath>
    <linearGradient
       inkscape:collect="always"
       xlink:href="#linearGradient987"
       id="linearGradient989"
       x1="5.8013997"
       y1="362.89716"
       x2="-65.706619"
       y2="202.80698"
       gradientUnits="userSpaceOnUse"
       gradientTransform="matrix(0.8967214,0,0,0.9441529,162.09098,0.11888576)" />
    <linearGradient
       inkscape:collect="always"
       id="linearGradient987">
      <stop
         style="stop-color:#e68100;stop-opacity:1"
         offset="0"
         id="stop983" />
      <stop
         style="stop-color:#ffb21b;stop-opacity:1"
         offset="1"
         id="stop985" />
    </linearGradient>
    <filter
       inkscape:collect="always"
       style="color-interpolation-filters:sRGB"
       id="filter866-3"
       x="-0.099194847"
       width="1.1983896"
       y="-0.055043593"
       height="1.1100872">
      <feGaussianBlur
         inkscape:collect="always"
         stdDeviation="1.918191"
         id="feGaussianBlur868-6" />
    </filter>
  </defs>
  <sodipodi:namedview
     pagecolor="#ffffff"
     bordercolor="#666666"
     borderopacity="1"
     objecttolerance="10"
     gridtolerance="10"
     guidetolerance="10"
     inkscape:pageopacity="0"
     inkscape:pageshadow="2"
     inkscape:window-width="1600"
     inkscape:window-height="845"
     id="namedview4"
     showgrid="false"
     inkscape:zoom="11.313708"
     inkscape:cx="41.569419"
     inkscape:cy="7.3726984"
     inkscape:window-x="0"
     inkscape:window-y="27"
     inkscape:window-maximized="1"
     inkscape:current-layer="layer2" />
  <g
     inkscape:groupmode="layer"
     id="layer2"
     inkscape:label="Highlight"
     style="display:inline"
     transform="translate(0,-353)">
    <g
       transform="matrix(0.16008015,0,0,0.16008015,-0.84827733,322.60448)"
       style="display:inline"
       id="g1713">
      <path
         sodipodi:nodetypes="ccccc"
         style="display:inline;opacity:1;fill:url(#linearGradient989);fill-opacity:1;stroke:none;stroke-width:1.19879997;stroke-miterlimit:4;stroke-dasharray:none;stroke-dashoffset:20;stroke-opacity:1"
         d="m 107.96977,191.59968 c -22.278106,-9e-5 -36.781171,6.62983 -36.781171,6.62983 0,0 0,0 36.781171,173.55401 44.55685,1.7e-4 80.67728,-40.33593 80.6769,-90.09284 -5.3e-4,-49.75619 -36.1207,-90.09117 -80.6769,-90.091 z"
         id="path981"
         inkscape:connector-curvature="0" />
      <path
         inkscape:connector-curvature="0"
         id="path991"
         d="m 157.19055,210.31093 -78.1794,24.82273 16.934374,79.9137 92.619766,-29.40889 c 0.0506,-1.30956 0.0806,-2.62464 0.0805,-3.94811 -3e-4,-29.06251 -12.32577,-54.90586 -31.4553,-71.37943 z"
         style="display:inline;opacity:1;fill:#fabe3c;fill-opacity:1;stroke:none;stroke-width:1.19879997;stroke-miterlimit:4;stroke-dasharray:none;stroke-dashoffset:20;stroke-opacity:1" />
      <ellipse
         style="opacity:1;fill:#f4a309;fill-opacity:1;stroke:none;stroke-width:0.8670153;stroke-miterlimit:4;stroke-dasharray:none;stroke-dashoffset:20;stroke-opacity:1"
         id="ellipse838"
         cx="96.978172"
         cy="285.46729"
         rx="54.979984"
         ry="69.149628" />
      <path
         sodipodi:nodetypes="cscc"
         inkscape:connector-curvature="0"
         id="ellipse927"
         d="m 93.898576,354.90188 c -30.364606,0 -54.979985,-30.95934 -54.979985,-69.14962 0,-9.54757 4.72843,-21.60677 7.510571,-29.87971 2.018278,41.29601 10.894295,77.4065 47.469414,99.02933 z"
         style="opacity:1;fill:#e38b10;fill-opacity:1;stroke:none;stroke-width:0.8670153;stroke-miterlimit:4;stroke-dasharray:none;stroke-dashoffset:20;stroke-opacity:1" />
      <path
         d="m 111.56496,223.22034 c -2.32768,41.93945 -1.27002,78.32781 1.48173,109.95342 l -22.197083,11.77354 -6.451987,-0.27675 6.21086,-78.67096 -25.993342,4.22971 40.595702,-47.00027 z"
         style="font-style:normal;font-variant:normal;font-weight:normal;font-stretch:normal;font-size:175.24552917px;line-height:1.25;font-family:'BadaBoom BB';-inkscape-font-specification:'BadaBoom BB';letter-spacing:0px;word-spacing:0px;display:inline;fill:#b43916;fill-opacity:1;stroke:none;stroke-width:3.81098294"
         id="path5119-7"
         inkscape:connector-curvature="0"
         sodipodi:nodetypes="cccccccc" />
      <g
         id="text5055-5"
         style="font-style:normal;font-weight:normal;font-size:165.67120361px;line-height:1.25;font-family:sans-serif;letter-spacing:0px;word-spacing:0px;display:inline;fill:#f7ca05;fill-opacity:1;stroke:none;stroke-width:4.14178038"
         transform="matrix(0.86164861,-0.18550542,0.17178791,0.94559953,12.078931,14.466897)"
         aria-label="1">
        <path
           inkscape:connector-curvature="0"
           id="path5238-3"
           style="font-style:normal;font-variant:normal;font-weight:normal;font-stretch:normal;font-family:'BadaBoom BB';-inkscape-font-specification:'BadaBoom BB';fill:#f7ca05;fill-opacity:1;stroke-width:4.14178038"
           d="m 62.332244,232.57437 q -16.664193,63.25922 -21.67963,112.44285 l -27.180432,7.11869 14.237369,-83.64454 -21.194265,3.23576 4.368284,-30.73977 z" />
      </g>
      <path
         transform="matrix(0.8967214,0,0,0.9441529,9.347954,13.948811)"
         sodipodi:nodetypes="ccccccc"
         inkscape:connector-curvature="0"
         id="path5233-5"
         d="m 81.059553,264.27231 c -7.158386,2.51522 -11.9058,4.71612 -19.76882,7.26553 -0.34702,-2.32371 -0.48847,-4.10966 -0.73863,-6.60759 15.29441,-10.85106 30.86066,-21.30205 46.410267,-31.78075 -1.16044,23.69218 -0.8574,48.27032 -0.90333,67.18634 l -23.470322,16.45025 z"
         style="display:inline;fill:#f5d923;fill-opacity:1;stroke:none;stroke-width:0.287;stroke-miterlimit:4;stroke-dasharray:none;stroke-opacity:1;filter:url(#filter866-3)" />
      <path
         id="ellipse930"
         d="m 90.034519,216.317 a 61.922851,69.149627 0 0 0 -61.922819,69.14997 61.922851,69.149627 0 0 0 61.922819,69.14999 61.922851,69.149627 0 0 0 4.261178,-0.16782 54.979984,69.149627 0 0 1 -52.297074,-68.98217 54.979984,69.149627 0 0 1 51.11137,-68.97664 61.922851,69.149627 0 0 0 -3.075474,-0.17333 z m 3.075474,0.17333 a 61.922851,69.149627 0 0 1 58.847337,68.97664 54.979984,69.149627 0 0 0 -54.978474,-69.14997 54.979984,69.149627 0 0 0 -3.868863,0.17333 z m 58.847337,68.97664 a 61.922851,69.149627 0 0 1 -57.661633,68.98217 54.979984,69.149627 0 0 0 2.683159,0.16782 54.979984,69.149627 0 0 0 54.978474,-69.14999 z"
         style="display:inline;opacity:1;fill:#b43916;fill-opacity:1;stroke:none;stroke-width:0.92013156;stroke-miterlimit:4;stroke-dasharray:none;stroke-dashoffset:20;stroke-opacity:1"
         inkscape:connector-curvature="0" />
      <path
         style="opacity:1;fill:#d87900;fill-opacity:1;stroke:none;stroke-width:0.8670153;stroke-miterlimit:4;stroke-dasharray:none;stroke-dashoffset:20;stroke-opacity:1"
         d="m 157.56564,268.5598 c 13.32217,28.8626 -2.31911,65.53979 -34.93579,81.9208 -8.15417,4.09525 -20.52798,4.77327 -28.814179,5.67728 34.383659,-19.6316 61.329809,-43.55747 63.749969,-87.59808 z"
         id="path950"
         inkscape:connector-curvature="0"
         sodipodi:nodetypes="cscc" />
      <path
         inkscape:connector-curvature="0"
         id="ellipse836-3"
         d="m 90.035337,195.37629 a 80.67663,90.092084 0 0 0 -80.6769064,90.091 80.67663,90.092084 0 0 0 80.6769064,90.09285 80.67663,90.092084 0 0 0 80.676903,-90.09285 80.67663,90.092084 0 0 0 -80.676903,-90.091 z m 0,20.94287 a 61.922851,69.149627 0 0 1 61.922813,69.14813 61.922851,69.149627 0 0 1 -61.922813,69.14998 61.922851,69.149627 0 0 1 -61.922812,-69.14998 61.922851,69.149627 0 0 1 61.922812,-69.14813 z"
         style="display:inline;opacity:1;fill:#f6cf31;fill-opacity:1;stroke:none;stroke-width:1.19879997;stroke-miterlimit:4;stroke-dasharray:none;stroke-dashoffset:20;stroke-opacity:1" />
      <path
         inkscape:connector-curvature="0"
         id="rect952"
         d="m 90.034519,195.37598 a 80.67663,90.092084 0 0 0 -5.636034,0.31532 l 16.971155,21.84276 a 61.922851,69.149627 0 0 1 50.49487,64.9935 l 16.95539,21.82432 a 80.67663,90.092084 0 0 0 1.89152,-18.88491 80.67663,90.092084 0 0 0 -80.676901,-90.09099 z m -27.458588,5.49895 a 80.67663,90.092084 0 0 0 -40.22286,35.59751 l 12.970932,16.69602 A 61.922851,69.149627 0 0 1 76.033756,218.19608 Z M 16.457828,248.787 a 80.67663,90.092084 0 0 0 -7.1002134,36.67997 80.67663,90.092084 0 0 0 80.6769044,90.09285 80.67663,90.092084 0 0 0 22.162331,-3.54427 L 98.1523,353.93835 a 61.922851,69.149627 0 0 1 -8.117781,0.67861 61.922851,69.149627 0 0 1 -61.922819,-69.14999 61.922851,69.149627 0 0 1 2.357399,-18.64518 z m 131.248842,61.6613 a 61.922851,69.149627 0 0 1 -36.77083,40.04167 l 12.93765,16.65361 a 80.67663,90.092084 0 0 0 37.31026,-39.34832 z"
         style="opacity:1;fill:#f5d951;fill-opacity:1;stroke:none;stroke-width:0.92013156;stroke-miterlimit:4;stroke-dasharray:none;stroke-dashoffset:20;stroke-opacity:1" />
      <path
         sodipodi:nodetypes="cccccc"
         inkscape:connector-curvature="0"
         id="path871-6"
         d="m 81.858806,263.38231 c -7.846992,3.15672 -7.874644,3.09707 -12.573157,4.74991 11.93304,-8.6159 23.312695,-18.1483 35.493341,-26.3816 -0.5604,17.13636 -0.56931,34.966 -0.6832,48.77524 -6.837659,5.22237 -13.805663,10.25503 -20.744912,15.32626 -1.557088,-25.99602 -0.400203,-28.53898 -1.492072,-42.46981 z"
         style="display:inline;fill:#f5d951;fill-opacity:1;stroke:none;stroke-width:0;stroke-miterlimit:4;stroke-dasharray:none;stroke-opacity:1;paint-order:markers stroke fill" />
    </g>
  </g>
</svg>
