<?xml version="1.0" encoding="UTF-8" standalone="no"?>
<!-- Created with Inkscape (http://www.inkscape.org/) -->

<svg
   xmlns:dc="http://purl.org/dc/elements/1.1/"
   xmlns:cc="http://creativecommons.org/ns#"
   xmlns:rdf="http://www.w3.org/1999/02/22-rdf-syntax-ns#"
   xmlns:svg="http://www.w3.org/2000/svg"
   xmlns="http://www.w3.org/2000/svg"
   xmlns:sodipodi="http://sodipodi.sourceforge.net/DTD/sodipodi-0.dtd"
   xmlns:inkscape="http://www.inkscape.org/namespaces/inkscape"
   version="1.1"
   id="svg2"
   width="400"
   height="300"
   viewBox="0 0 800 600"
   sodipodi:docname="upgrades.svg"
   style="enable-background:new"
   inkscape:version="0.92.3 (2405546, 2018-03-11)">
  <metadata
     id="metadata8">
    <rdf:RDF>
      <cc:Work
         rdf:about="">
        <dc:format>image/svg+xml</dc:format>
        <dc:type
           rdf:resource="http://purl.org/dc/dcmitype/StillImage" />
        <dc:title></dc:title>
      </cc:Work>
    </rdf:RDF>
  </metadata>
  <defs
     id="defs6">
    <filter
       inkscape:collect="always"
       style="color-interpolation-filters:sRGB"
       id="filter4070">
      <feBlend
         inkscape:collect="always"
         mode="luminosity"
         in2="BackgroundImage"
         id="feBlend4072" />
    </filter>
    <filter
       inkscape:collect="always"
       style="color-interpolation-filters:sRGB"
       id="filter5089"
       x="-0.025767138"
       width="1.0515343"
       y="-0.032642059"
       height="1.0652841">
      <feGaussianBlur
         inkscape:collect="always"
         stdDeviation="7.4261916"
         id="feGaussianBlur5091" />
    </filter>
    <filter
       inkscape:collect="always"
       style="color-interpolation-filters:sRGB"
       id="filter5437"
       x="-0.04480283"
       width="1.0896057"
       y="-0.057595324"
       height="1.1151906">
      <feGaussianBlur
         inkscape:collect="always"
         stdDeviation="12.791583"
         id="feGaussianBlur5439" />
    </filter>
    <filter
       inkscape:collect="always"
       style="color-interpolation-filters:sRGB"
       id="filter5985"
       x="-0.05363474"
       width="1.1072695"
       y="-0.074589849"
       height="1.1491797">
      <feGaussianBlur
         inkscape:collect="always"
         stdDeviation="11.424182"
         id="feGaussianBlur5987" />
    </filter>
    <filter
       inkscape:collect="always"
       style="color-interpolation-filters:sRGB"
       id="filter6069"
       x="-0.059375219"
       width="1.1187505"
       y="-0.077400208"
       height="1.1548004">
      <feGaussianBlur
         inkscape:collect="always"
         stdDeviation="12.883461"
         id="feGaussianBlur6071" />
    </filter>
    <filter
       inkscape:collect="always"
       style="color-interpolation-filters:sRGB"
       id="filter6161"
       x="-0.016317815"
       width="1.0326356"
       y="-0.017311551"
       height="1.0346231">
      <feGaussianBlur
         inkscape:collect="always"
         stdDeviation="3.7592667"
         id="feGaussianBlur6163" />
    </filter>
    <filter
       inkscape:collect="always"
       style="color-interpolation-filters:sRGB"
       id="filter6357"
       x="-0.037223063"
       width="1.0744461"
       y="-0.048183523"
       height="1.096367">
      <feGaussianBlur
         inkscape:collect="always"
         stdDeviation="11.186718"
         id="feGaussianBlur6359" />
    </filter>
    <filter
       inkscape:collect="always"
       style="color-interpolation-filters:sRGB"
       id="filter6961"
       x="-0.025668448"
       width="1.0513369"
       y="-0.032801826"
       height="1.0656037">
      <feGaussianBlur
         inkscape:collect="always"
         stdDeviation="7.7547023"
         id="feGaussianBlur6963" />
    </filter>
  </defs>
  <sodipodi:namedview
     pagecolor="#ffffff"
     bordercolor="#666666"
     borderopacity="1"
     objecttolerance="10"
     gridtolerance="10"
     guidetolerance="10"
     inkscape:pageopacity="0"
     inkscape:pageshadow="2"
     inkscape:window-width="1600"
     inkscape:window-height="845"
     id="namedview4"
     showgrid="false"
     inkscape:pagecheckerboard="true"
     scale-x="2"
     inkscape:zoom="0.71732523"
     inkscape:cx="485.53642"
     inkscape:cy="277.63954"
     inkscape:window-x="0"
     inkscape:window-y="27"
     inkscape:window-maximized="1"
     inkscape:current-layer="layer4" />
  <g
     inkscape:groupmode="layer"
     id="layer4"
     inkscape:label="Layer 3"
     style="display:inline"
     transform="translate(0,-716)">
    <path
       style="fill:#ffffff;fill-opacity:1;stroke:none;stroke-width:1px;stroke-linecap:butt;stroke-linejoin:miter;stroke-opacity:1"
       d="M 480.69192,939.66114 C 431.22303,1100.9492 333.87923,1114.8898 333.87923,1114.8898 l 71.68516,26.2276 148.38263,-154.97541 z"
       id="path4883"
       inkscape:connector-curvature="0"
       sodipodi:nodetypes="ccccc" />
    <path
       style="display:inline;fill:#ffffff;stroke:none;stroke-width:1px;stroke-linecap:butt;stroke-linejoin:miter;stroke-opacity:1;filter:url(#filter4070)"
       d="m 665.44252,724.60305 -76.88888,7.88604 -186.30765,138.99143 76.88887,47.31623 209.7454,121.05345 82.46125,-33.416 z"
       id="path4012"
       inkscape:connector-curvature="0"
       sodipodi:nodetypes="ccccccc" />
    <path
       style="display:inline;fill:#ffffff;stroke:none;stroke-width:1px;stroke-linecap:butt;stroke-linejoin:miter;stroke-opacity:1;filter:url(#filter4070)"
       d="m 79.904173,1011.4577 -24.643869,90.6894 155.009946,-66.1688 -39.79986,-43.86604 c 0,0 -71.809527,15.26794 -90.566217,19.34544 z"
       id="path4880"
       inkscape:connector-curvature="0"
       sodipodi:nodetypes="ccccc" />
    <path
       style="display:inline;fill:#f8f0d1"
       d="m 647.75917,727.47325 c -1.85106,0.0474 -4.59898,0.32487 -8.99414,0.76758 -16.39271,1.65117 -20.3194,2.92516 -22.33789,7.25195 -5.73658,12.29688 -6.60605,13.62053 -11.13477,16.95899 -4.19216,3.09036 -4.75,3.93979 -4.75,7.23242 0,5.2066 6.18383,28.56745 17.80859,67.27344 10.40224,34.63558 11.67104,39.5 10.30274,39.5 -1.2712,0 -4.9761,-8.8153 -16.4668,-39.17969 -18.88536,-49.90493 -22.50826,-57.06262 -26.88086,-53.10547 -1.20855,1.09372 -4.11471,1.83981 -8.16406,2.09766 -5.92117,0.37703 -6.50232,0.21153 -9.96875,-2.83203 l -3.67969,-3.23047 -6.22656,3.09765 c -3.42398,1.7041 -16.31066,9.63525 -28.63867,17.625 -21.28097,13.79213 -25.87707,16.39222 -23.125,13.07618 0.66276,-0.79858 1.054,-2.1684 0.87109,-3.04297 -0.49585,-2.37076 -8.51596,2.79564 -33.26758,21.42969 -39.57438,29.79324 -40.51472,30.8654 -40.54492,46.22461 -0.0147,7.49011 0.4689,10.97307 2.15235,15.5 2.80536,7.54386 3.52935,8.33259 14.82812,16.13086 20.00346,13.80614 31.7641,22.21926 32.79297,23.45898 0.76274,0.91904 0.66043,4.00347 -0.35547,10.76953 -1.91858,12.77799 -1.86487,19.37963 0.16992,21.06836 2.37621,1.97208 1.23996,7.82678 -4.19726,21.64063 -6.7172,17.06572 -14.6333,31.99695 -20.00977,37.74025 -2.55859,2.7331 -5.78962,6.7831 -7.17969,9 -1.39007,2.2168 -4.41615,6.5062 -6.72461,9.5312 -4.3879,5.7499 -12.49609,18.6802 -12.49609,19.9278 0,0.3979 -1.16913,1.815 -2.59766,3.1484 -1.42852,1.3334 -3.48989,4.1668 -4.58203,6.2969 -2.21826,4.3264 -17.00921,19.5948 -26.54297,27.4004 -6.29154,5.1511 -15.63007,11.43 -24.77734,16.6601 -6.25317,3.5754 -6.02443,3.3464 5.06836,-5.0605 12.99045,-9.8451 16.91039,-13.2283 16.17383,-13.9649 -0.66424,-0.6642 -9.52238,5.4154 -11.6836,8.0196 -0.66303,0.7988 -4.3573,3.0559 -8.21093,5.0136 -6.60948,3.3578 -7.55546,3.5574 -16.67774,3.5391 -37.89372,-0.076 -79.21309,-16.5706 -121.86719,-48.6484 -6.79678,-5.1115 -18.01126,-14.0534 -24.91992,-19.8711 -6.90866,-5.8178 -13.54187,-10.9507 -14.74023,-11.4063 -6.40196,-2.434 -53.98093,-7.0467 -74.14258,-7.1875 -11.08461,-0.077 -13.84662,0.2319 -18.75,2.0938 -5.677817,2.1559 -8.749997,4.3017 -8.749997,6.1113 0,0.5107 -1.67269,0.9277 -3.7168,0.9277 -2.04411,0 -5.63994,0.7352 -7.99023,1.6328 -5.19717,1.9848 -6.92354,5.2684 -13.60547,25.8672 -9.207785,28.3855 -33.6875,110.3368 -33.6875,112.7774 0,0.1015 0.05414,0.2472 0.144531,0.4199 0.188109,-0.063 0.472163,-0.1383 0.626953,-0.1973 222.319563,193.1833 335.314213,162.0121 485.324213,78.9981 83.1749,-53.7968 133.82303,-197.8898 134.02539,-222.9981 2.59886,2.3877 5.33271,4.9626 8.14453,7.6446 2.5754,1.3713 5.70099,3.0651 9.20899,5.0097 l 14.77344,8.1895 9.625,-3.1563 c 9.20096,-3.0171 56.95664,-24.9676 66.54687,-30.5879 2.81656,-1.6506 4.58008,-3.394 4.58008,-4.5293 0,-3.9718 -5.56815,-20.57453 -22.3457,-66.62496 -36.35557,-99.78754 -60.08609,-162.4597 -66.6836,-176.11133 -3.97703,-8.22932 -7.41591,-12.47654 -14.28711,-17.64844 -2.05706,-1.54833 -5.074,-5.18022 -6.70507,-8.07031 -1.63106,-2.89008 -4.10512,-6.32617 -5.49805,-7.63476 -1.58245,-1.48664 -2.17858,-2.04391 -5.26367,-1.96485 z"
       id="path3773"
       inkscape:connector-curvature="0" />
    <path
       style="display:inline;fill:#f8edb0"
       d="m 639.9076,731.45763 c -1.65153,0 -5.29178,0.68078 -8.08984,1.51172 -5.83282,1.73216 -9.84657,5.71102 -13.89648,13.77539 -1.4399,2.86719 -4.92647,8.34482 -7.74805,12.17383 -4.51952,6.1332 -5.11451,7.50198 -4.98633,11.5 0.18635,5.81247 5.75488,27.37084 14.46094,55.98828 3.77317,12.40269 9.16378,30.65078 11.97851,40.55078 2.81474,9.9 5.71293,19.35 6.44141,21 1.96911,4.45997 3.71524,12.03943 3.25977,14.14844 -0.4969,2.30085 -6.78516,-9.50473 -6.78516,-12.73828 0,-1.18054 -1.74741,-6.02971 -3.88281,-10.77735 -2.1354,-4.74765 -7.97949,-19.54889 -12.98828,-32.89062 -17.52065,-46.66918 -24.02712,-61.6983 -26.42383,-61.04102 -6.50616,1.78427 -13.41184,4.52944 -14.30469,5.68555 -2.14308,2.77494 -15.40039,-1.21819 -15.40039,-4.63868 0,-1.02017 -1.56707,-3.37404 -3.48242,-5.23046 l -3.48242,-3.375 -5.25,2.42773 c -6.18096,2.86011 -70.24071,45.13861 -83.28516,54.9668 -4.95,3.72952 -10.46749,8.31102 -12.26172,10.18164 l -3.26367,3.40234 0.99805,9.61524 c 0.92611,8.93115 0.19386,21.511 -1.57618,27.08789 -0.84575,2.66474 3.68711,7.07346 19.36524,18.83398 13.04287,9.78375 16.6489,13.37719 16.07031,16.01172 -0.1607,0.73173 0.90004,2.51164 2.35742,3.95508 5.32887,5.27792 4.78625,13.56984 -2.33398,35.61328 -22.32621,69.11939 -67.5461,129.71929 -116.85547,156.60159 -18.67559,10.1814 -35.27082,15.5337 -53.5,17.2519 -8.89739,0.8387 -7.81752,-0.4289 3.5,-4.1054 20.71578,-6.7297 48,-19.2327 48,-21.9961 0,-1.2062 -1.67086,-1.4931 -8.75,-1.5079 -36.79941,-0.077 -77.14154,-15.9143 -122.25,-47.9902 -17.56644,-12.4912 -12.9329,-11.0872 -54.5,-16.5058 -32.60696,-4.2507 -58.66974,-5.2975 -69.31641,-2.7833 -2.0824,0.4918 -2.25054,0.939 -1.66211,4.4219 0.79891,4.7288 0.1473,4.821 -6.7871,0.961 -5.216387,-2.9037 -5.257307,-2.9098 -11.734377,-1.5215 -3.575,0.7662 -8.62919,1.4025 -11.23242,1.414 -4.6378,0.02 -4.78287,0.1172 -7.125,4.7715 -1.31465,2.6125 -4.89636,12.4 -7.960939,21.75 -6.828918,20.835 -28.681641,94.3303 -28.681641,96.4629 0,0.2661 0.346332,0.8081 0.986328,1.582 221.511299,192.0071 334.374749,160.8149 484.109369,77.9532 8.30446,-5.3713 16.2779,-11.6559 23.91602,-18.6192 5.3125,-4.9194 10.76236,-10.4093 16.19336,-16.2793 59.06172,-65.1452 93.74862,-167.3299 93.91601,-188.0996 2.00046,1.8379 4.0872,3.797 6.21485,5.8106 2.77194,1.3749 6.56389,3.3749 10.75976,5.709 7.89111,4.3896 14.83467,7.9804 15.42969,7.9804 6.95355,0 69.78903,-28.3144 75.49219,-34.0176 5.56788,-5.5678 3.00723,-13.62515 -47.18164,-148.48237 -12.79286,-34.37435 -33.33413,-84.60982 -39.86719,-97.5 -2.93966,-5.80014 -6.7154,-9.77546 -13.71094,-14.43555 -2.33301,-1.55414 -5.91746,-5.02367 -7.96679,-7.71094 -4.01125,-5.25989 -10.07023,-8.85351 -14.92579,-8.85351 z"
       id="path3771"
       inkscape:connector-curvature="0" />
    <path
       style="display:inline;fill:#f1d18f"
       d="m 639.05995,734.89317 c -1.52837,-0.0344 -3.11795,0.19137 -4.8711,0.63282 -2.44534,0.61574 -5.81616,2.31429 -7.49023,3.77539 -2.79725,2.44138 -4.7544,5.66041 -16.39844,26.96484 l -3.99414,7.3086 1.17188,6.1914 c 1.75985,9.29213 8.46515,33.67161 15.59179,56.69141 13.15123,42.47985 21.44795,70.98749 21.46485,73.75 0.0315,5.13524 -6.60051,-7.60396 -11.84375,-22.75 -10.51781,-30.38257 -33.98816,-89.91387 -36.99414,-93.83399 l -1.78907,-2.33398 -7.13281,2.16601 c -6.67132,2.02635 -7.26886,2.44603 -9.22851,6.49415 -1.15239,2.38052 -2.78615,4.59383 -3.63086,4.91797 -3.5692,1.36964 -10.15095,0.53997 -13.47461,-1.69922 -3.04308,-2.05017 -3.4783,-2.93351 -4.16406,-8.46485 -0.55598,-4.48432 -1.44628,-6.91116 -3.25,-8.85742 -1.36637,-1.47432 -2.48438,-3.06547 -2.48438,-3.53516 0,-1.84419 -3.69649,-0.66853 -10.44141,3.32032 -18.96163,11.21349 -69.78599,46.35592 -75.27148,52.04687 l -3.16016,3.2793 1.42188,6 c 1.89168,7.98894 1.82637,25.96207 -0.13477,37.37891 -0.87217,5.07735 -1.36562,9.80638 -1.0957,10.50976 0.26991,0.70339 5.95728,5.44443 12.63672,10.53516 6.67943,5.09072 13.96392,11.12805 16.1875,13.41601 3.92988,4.04367 4.02686,4.31387 3.5332,9.66016 -1.29028,13.97358 -13.69932,49.13925 -26.64258,75.49997 -16.37171,33.3433 -35.49552,60.2338 -58.78125,82.6563 -28.70282,27.6387 -62.58369,44.5038 -99.25195,49.4023 -11.50534,1.537 -29.58941,1.9134 -30.38086,0.6328 -0.27475,-0.4445 3.20999,-1.3444 7.74414,-2 12.10934,-1.7508 34.84835,-7.5418 46.21094,-11.7695 12.73133,-4.737 27.22399,-11.5178 30.42578,-14.2344 l 2.5,-2.1211 -6.54102,-0.033 c -10.36144,-0.053 -29.52678,-2.866 -40.95898,-6.0136 -19.54099,-5.3803 -37.88815,-13.4441 -61.5,-27.0274 l -11,-6.3281 -11,-0.7539 c -13.16349,-0.9029 -37.09618,-3.3641 -47.5,-4.8848 -15.85125,-2.3169 -29.84736,-3.9555 -38.5,-4.5078 -4.95,-0.316 -11.59272,-0.8105 -14.76172,-1.0977 -4.53693,-0.4111 -5.88341,-0.2027 -6.33594,0.9766 -0.57907,1.509 3.42535,7.3791 9.82422,14.4004 16.4494,18.0495 50.45398,39.9212 83.63282,53.791 5.14805,2.1521 8.72591,4.0404 7.94921,4.1973 -2.53864,0.5127 -21.84261,-6.7866 -33.70312,-12.7442 -19.38758,-9.7384 -28.20071,-16.0144 -63.10547,-44.9375 -9.625,-7.9755 -18.82308,-15.5788 -20.43945,-16.8964 -2.83762,-2.3133 -3.28541,-2.3687 -12.999997,-1.5957 -5.53363,0.4403 -13.88555,0.8216 -18.56055,0.8457 l -8.5,0.043 -3.17969,8 c -3.524251,8.8669 -13.119995,39.3706 -24.85156,79 l -7.697266,26 c 38.211176,33.2033 73.192463,59.7795 105.687493,80.6035 2.9541,1.8931 5.88723,3.7384 8.80079,5.5371 5.82758,3.5976 11.574,7.0065 17.24609,10.2344 2.83582,1.6138 5.65254,3.1817 8.45117,4.705 13.99365,7.6171 27.52826,14.1105 40.67578,19.5645 2.62942,1.0907 5.24288,2.1402 7.8418,3.1484 9.09679,3.529 18.00969,6.5557 26.76367,9.1094 2.50098,0.7296 4.98933,1.4213 7.46484,2.0742 2.47552,0.6529 4.93752,1.2662 7.38868,1.8438 6.1279,1.444 12.18201,2.655 18.16992,3.6425 1.19758,0.1976 2.39158,0.3867 3.58398,0.5665 3.57785,0.5393 7.13231,0.9984 10.66602,1.3808 2.35539,0.2549 4.69993,0.4753 7.03711,0.6621 42.06995,3.3632 81.27904,-4.1966 120.88476,-18.8437 4.40057,-1.6275 8.8059,-3.3435 13.22071,-5.1407 13.24493,-5.3916 26.57354,-11.5225 40.10742,-18.2519 4.5106,-2.2428 9.04491,-4.5515 13.60547,-6.9219 9.12216,-4.7412 18.35289,-9.7276 27.72851,-14.916 1.21198,-0.7839 2.41517,-1.5925 3.61328,-2.4141 0.72054,-0.4951 1.43501,-1.005 2.1504,-1.5136 0.44798,-0.3177 0.89775,-0.6304 1.34374,-0.9532 1.01714,-0.7381 2.02827,-1.4901 3.03516,-2.2539 0.0628,-0.047 0.12672,-0.093 0.18945,-0.1406 0.0181,-0.014 0.0366,-0.027 0.0547,-0.041 1.09404,-0.8327 2.1815,-1.6817 3.26367,-2.543 0.016,-0.013 0.0328,-0.024 0.0488,-0.037 0.002,0 0.005,0 0.008,-0.01 6.52903,-5.6475 13.26831,-12.1009 20.74219,-19.7675 6.68764,-6.8602 13.00631,-13.8644 19.00781,-21.0684 0.002,0 0.004,-0.01 0.006,-0.01 0.0115,-0.015 0.0217,-0.03 0.0332,-0.045 1.52012,-1.9338 3.02021,-3.8898 4.50195,-5.8633 0.0916,-0.1219 0.18397,-0.2431 0.27539,-0.3652 1.49941,-2.0026 2.97995,-4.0227 4.43945,-6.0605 0.0136,-0.019 0.0275,-0.038 0.041,-0.057 0.0299,-0.042 0.058,-0.085 0.0879,-0.127 1.47532,-2.0626 2.93123,-4.141 4.36523,-6.2344 1.45463,-2.1234 2.88718,-4.2606 4.29883,-6.4101 0.008,-0.013 0.0172,-0.025 0.0254,-0.037 0.015,-0.023 0.0299,-0.045 0.0449,-0.068 1.40418,-2.1396 2.7873,-4.2914 4.14843,-6.4512 1.35471,-2.1496 2.68645,-4.3085 3.99805,-6.4727 0.0203,-0.034 0.0422,-0.066 0.0625,-0.1 0.035,-0.058 0.0685,-0.1159 0.10352,-0.1738 2.59866,-4.2948 5.11094,-8.614 7.5371,-12.9336 0.0593,-0.1055 0.11856,-0.2108 0.17774,-0.3164 0.82336,-1.4685 1.62459,-2.9363 2.42773,-4.4043 0.85239,-1.5582 1.69205,-3.1143 2.52149,-4.6699 0.56274,-1.0554 1.12952,-2.1106 1.68164,-3.1641 1.10969,-2.1175 2.19726,-4.23 3.26367,-6.3359 0.51144,-1.0099 1.01226,-2.0152 1.51367,-3.0215 0.9361,-1.879 1.86081,-3.7533 2.76172,-5.6172 0.49127,-1.0163 0.97044,-2.0261 1.45117,-3.0371 0.76395,-1.6068 1.51477,-3.2073 2.25196,-4.7988 0.45119,-0.974 0.90459,-1.9485 1.3457,-2.916 0.7827,-1.717 1.54223,-3.4171 2.29297,-5.1114 0.47699,-1.0763 0.95396,-2.1525 1.41797,-3.2187 0.87228,-2.0047 1.72669,-3.9941 2.55273,-5.959 0.37937,-0.9023 0.74373,-1.7905 1.11328,-2.6836 0.63473,-1.5342 1.2577,-3.0574 1.86328,-4.5625 0.35288,-0.8769 0.70396,-1.7528 1.04688,-2.6191 0.64703,-1.635 1.27339,-3.2431 1.88476,-4.8379 0.25146,-0.6559 0.51438,-1.326 0.75977,-1.9746 0.81188,-2.1465 1.58703,-4.2503 2.33203,-6.3125 0.24821,-0.687 0.47996,-1.3523 0.7207,-2.0293 0.49839,-1.4019 0.98502,-2.7856 1.45118,-4.1426 0.27794,-0.809 0.54998,-1.6101 0.8164,-2.4024 0.48217,-1.4341 0.94643,-2.8401 1.39063,-4.2168 0.15763,-0.4884 0.32373,-0.9917 0.47656,-1.4726 0.58856,-1.8525 1.14143,-3.6476 1.6582,-5.3828 0.14839,-0.4982 0.27945,-0.9651 0.42188,-1.4531 0.37743,-1.2935 0.73886,-2.5617 1.07422,-3.7813 0.14214,-0.5168 0.27952,-1.0223 0.41406,-1.5254 0.3202,-1.1975 0.61765,-2.3541 0.89453,-3.4707 0.095,-0.3829 0.19728,-0.7793 0.28711,-1.1523 0.35105,-1.458 0.66909,-2.8526 0.94141,-4.1543 0.0321,-0.1533 0.055,-0.2865 0.0859,-0.4375 0.23052,-1.1243 0.42831,-2.1814 0.59766,-3.1778 0.11514,-0.6774 0.22781,-1.3471 0.31445,-1.9629 0.008,-0.06 0.0192,-0.1263 0.0274,-0.1855 0.10286,-0.7477 0.17665,-1.4308 0.23632,-2.082 0.0161,-0.1754 0.03,-0.3455 0.043,-0.5137 0.0481,-0.6267 0.0837,-1.2253 0.0879,-1.75 1.73092,1.5902 3.51923,3.2622 5.34571,4.9844 0.004,0 0.008,0.01 0.0117,0.01 2.50557,1.1927 6.30667,3.2526 12.24023,6.5605 l 14.44922,8.0547 9.66601,-3.1855 c 10.42706,-3.4361 51.08273,-22.0093 60.31641,-27.5547 l 5.64844,-3.3926 0.69531,-6.916 c 0.65996,-6.57164 0.43573,-7.68311 -4.48047,-22.2129 -5.92771,-17.5184 -40.99747,-113.14909 -49.45148,-134.84767 -8.94766,-22.96565 -32.41426,-77.33802 -35.90039,-83.18164 -2.13911,-3.58568 -4.77135,-6.29538 -8.08203,-8.31836 -2.70029,-1.65 -8.15213,-6.00371 -12.11524,-9.67578 -6.32019,-5.85605 -10.36216,-8.2856 -14.94726,-8.38868 z m -50.51758,248.56446 c 0.55,0 1,0.45 1,1 0,0.55 -0.45,1 -1,1 -0.55,0 -1,-0.45 -1,-1 0,-0.55 0.45,-1 1,-1 z"
       id="path3767"
       inkscape:connector-curvature="0" />
    <path
       style="display:inline;fill:#f1c971"
       d="m 638.97401,739.84239 c -2.99545,-0.10966 -5.76393,1.02355 -8.54687,3.36524 -3.85998,3.24796 -5.65087,6.90663 -11.38086,23.25 -2.60321,7.425 -5.41485,14.5853 -6.24805,15.91211 -3.17526,5.05639 -0.75814,15.49493 16.91797,73.08789 4.97968,16.225 10.10259,32.74454 11.38476,36.70898 3.49099,10.79409 8.72831,32.3381 8.03125,33.03516 -0.33595,0.33596 -1.25608,-0.25656 -2.04492,-1.31641 -2.01931,-2.71303 -10.18729,-21.9546 -14.61523,-34.42773 -5.40872,-15.23592 -21.0094,-56.80294 -25.83399,-68.83203 -7.41548,-18.48892 -9.7826,-22.08068 -12.65429,-19.20899 -0.52731,0.52731 -3.42906,1.59038 -6.44922,2.36329 -4.91853,1.25875 -5.59645,1.75818 -6.49219,4.79101 -1.77013,5.99333 -2.13374,6.20973 -9.39062,5.57031 -8.38478,-0.73881 -15.81243,-3.00922 -19.44532,-5.94336 -2.55628,-2.06459 -2.7486,-2.63295 -1.9414,-5.74804 0.80918,-3.12273 0.52657,-3.942 -2.91016,-8.47461 -2.09255,-2.75982 -3.80659,-5.58008 -3.80859,-6.26758 -0.0128,-3.70946 -6.95573,0.11691 -36.31836,20.01367 -17.90159,12.13051 -29.14147,20.43641 -32.46875,23.99414 -1.9682,2.10451 -2.13249,2.83458 -1.19336,5.30469 1.79915,4.73213 3.97003,21.39916 3.89844,29.9375 -0.0744,8.86885 -0.79461,14.24461 -3.44532,25.75 -2.11357,9.17395 -2.44158,8.56039 9.52344,17.79492 12.69501,9.79793 13.05154,10.25295 12.34375,15.72461 -1.5468,11.95761 -12.09682,43.50325 -22.48437,67.23047 -22.58636,51.59177 -60.70952,97.85487 -99.66602,120.94527 -3.68158,2.1822 -12.6244,6.7111 -19.87305,10.0645 -23.6291,10.9315 -56.47784,16.4335 -84.24414,14.1094 -49.31454,-4.1278 -85.50085,-20.9733 -135.57617,-63.1133 -16.65318,-14.0142 -14.82595,-13.2479 -29.5,-12.3945 -6.874997,0.3998 -17.568457,0.6287 -23.763667,0.5078 l -11.26367,-0.2188 -2.04883,4.7774 c -2.486414,5.8005 -13.156106,39.9257 -23.058596,73.7461 l -7.298828,24.9238 9.466797,8.916 c 0.240056,0.2261 0.487901,0.448 0.728516,0.6738 215.091038,182.6862 326.817058,151.195 474.333978,69.5606 1.29024,-0.8345 2.57314,-1.6912 3.84766,-2.5684 20.00601,-15.6389 40.51036,-36.6347 57.7793,-59.0019 23.18959,-32.0312 41.36872,-68.2676 53.72265,-98.6446 5.50419,-13.9996 10.49478,-28.3058 14.66016,-42.2832 0.21569,-0.7237 0.35597,-1.1718 0.56641,-1.875 2.23272,-8.3939 3.41891,-14.8649 3.44921,-18.625 1.2371,1.1366 2.51846,2.3347 3.80469,3.5391 1.43254,0.6809 3.38187,1.6799 5.52149,2.8457 4.15351,2.2632 10.99248,5.9904 15.19726,8.2812 l 7.64649,4.1641 10.10351,-3.3105 c 11.83764,-3.8781 53.12437,-22.9051 60.54492,-27.9024 1.30103,-0.8762 2.17436,-4.839 3.66016,-16.61717 0.5683,-4.50502 -3.24415,-16.43108 -17.89649,-56 -4.68428,-12.65 -12.64192,-34.25 -17.68359,-48 -11.93768,-32.55726 -22.09179,-58.05037 -31.26758,-78.5 -4.07197,-9.075 -10.06971,-22.79205 -13.32812,-30.48242 -7.77267,-18.34473 -10.32695,-22.04976 -18.29688,-26.53516 -3.50533,-1.97277 -8.68033,-5.54057 -11.5,-7.92773 -5.11712,-4.33222 -9.34401,-6.52894 -13.19531,-6.66993 z m -51.00195,241.11524 c 1.01929,0 2.33619,0.7673 2.92773,1.70508 0.8469,1.34262 0.57787,2.23508 -1.26367,4.19531 -1.87113,1.99174 -2.81866,5.24923 -4.74219,16.29488 -8.18751,47.0161 -25.41986,103.3148 -42.86914,140.0547 -2.93869,6.1875 -5.55214,11.25 -5.80664,11.25 -0.25449,0 2.44829,-7.3125 6.00586,-16.25 16.88106,-42.4094 32.22512,-96.5956 42.54688,-150.24997 1.08964,-5.66415 1.70159,-7 3.20117,-7 z m -287.63281,116.38087 -8.64844,2.0273 c -11.1546,2.6159 -26.78423,4.7866 -40.64844,5.6426 -12.28907,0.7587 -45.77974,-0.9101 -58.32422,-2.9062 -4.49628,-0.7155 -8.17578,-1.145 -8.17578,-0.9532 0,1.0661 15.79783,10.2984 25.37305,14.8282 17.48643,8.2722 38.29417,14.3093 54.62695,15.8476 2.475,0.2331 9.9,0.1628 16.5,-0.1562 6.6,-0.3191 14.09751,-0.6078 16.66211,-0.6407 2.7404,-0.035 4.18345,-0.4012 3.5,-0.8867 -0.67505,-0.4795 0.17925,-0.6619 2.03516,-0.4355 1.75845,0.2144 3.0121,0.09 2.78515,-0.2774 -0.614,-0.9934 10.2958,-3.2255 11.65625,-2.3847 0.7766,0.4799 0.90047,0.2867 0.36719,-0.5762 -0.60436,-0.9779 -0.15589,-1.1755 1.81445,-0.7988 1.622,0.31 2.38004,0.1139 1.99219,-0.5137 -0.38375,-0.6209 0.2107,-0.7931 1.5332,-0.4473 1.38267,0.3616 1.92148,0.182 1.5,-0.5 -0.42148,-0.6819 0.11733,-0.8616 1.5,-0.5 1.38267,0.3616 1.92148,0.182 1.5,-0.5 -0.42148,-0.6819 0.11733,-0.8616 1.5,-0.5 1.38267,0.3616 1.92148,0.182 1.5,-0.5 -0.42148,-0.6819 0.11733,-0.8616 1.5,-0.5 1.18676,0.3104 1.90393,0.155 1.59571,-0.3437 -0.5133,-0.8306 1.16384,-1.2886 4.29687,-1.1758 0.68198,0.024 0.99295,-0.3559 0.69141,-0.8438 -0.50275,-0.8134 1.19505,-1.2683 4.30859,-1.1562 0.68155,0.024 0.94525,-0.4323 0.58594,-1.0137 -0.40714,-0.6587 -0.0254,-0.8159 1.01172,-0.4179 0.94986,0.3644 1.66406,0.1519 1.66406,-0.4961 0,-0.6245 0.27866,-0.8581 0.61914,-0.5176 0.34047,0.3405 1.29847,-0.06 2.12891,-0.8906 0.83044,-0.8305 2.15094,-1.2633 2.93359,-0.9629 0.90198,0.3461 1.16086,0.121 0.70703,-0.6133 -0.4825,-0.7807 -0.15641,-0.9438 1,-0.5 1.15642,0.4437 1.48251,0.2807 1,-0.5 -0.4825,-0.7807 -0.15641,-0.9438 1,-0.5 0.94379,0.3621 1.48163,0.2797 1.19531,-0.1836 -0.28631,-0.4633 0.70201,-1.4666 2.19727,-2.2285 2.69137,-1.3715 2.66859,-1.3878 -2.28125,-1.6328 -10.66311,-0.5279 -27.44936,-2.5443 -27.01562,-3.2461 0.25074,-0.4057 -0.72397,-0.5136 -2.16407,-0.2383 -1.6022,0.3063 -2.37838,0.1122 -2,-0.5 0.37838,-0.6123 -0.3978,-0.8063 -2,-0.5 -1.4401,0.2753 -2.37245,0.098 -2.07226,-0.3945 0.3002,-0.4923 -1.20207,-0.9628 -3.33985,-1.045 -2.13778,-0.082 -7.08863,-1.1205 -11,-2.3086 z m -51.88086,33.2422 c -0.3474,-0.014 -0.74258,0.049 -1.10352,0.1933 -0.79773,0.3193 -0.56143,0.5575 0.60352,0.6055 1.05416,0.043 1.64479,-0.1931 1.3125,-0.5254 -0.16615,-0.1661 -0.46511,-0.2591 -0.8125,-0.2734 z m 48,1 c -0.3474,-0.014 -0.74258,0.049 -1.10352,0.1933 -0.79773,0.3193 -0.56143,0.5575 0.60352,0.6055 1.05416,0.043 1.64479,-0.1931 1.3125,-0.5254 -0.16615,-0.1661 -0.46511,-0.2591 -0.8125,-0.2734 z m -42.91602,0.01 c -0.45312,0 -0.90625,0.07 -1.25,0.209 -0.6875,0.2774 -0.125,0.5039 1.25,0.5039 1.375,0 1.9375,-0.2265 1.25,-0.5039 -0.34375,-0.1387 -0.79688,-0.209 -1.25,-0.209 z m 7,0.9922 c -0.63437,0 -1.26875,0.064 -1.75,0.1895 -0.9625,0.2515 -0.175,0.457 1.75,0.457 1.925,0 2.7125,-0.2055 1.75,-0.457 -0.48125,-0.1258 -1.11563,-0.1895 -1.75,-0.1895 z m 28.91602,0 c -0.3474,-0.014 -0.74258,0.049 -1.10352,0.1934 -0.79773,0.3192 -0.56143,0.5555 0.60352,0.6035 1.05416,0.043 1.64479,-0.1912 1.3125,-0.5235 -0.16615,-0.1661 -0.46511,-0.2591 -0.8125,-0.2734 z m -14.91602,0.9883 c -0.99687,0 -1.99375,0.057 -2.75,0.1718 -1.5125,0.2291 -0.275,0.418 2.75,0.418 3.025,0 4.2625,-0.1889 2.75,-0.418 -0.75625,-0.1145 -1.75313,-0.1718 -2.75,-0.1718 z"
       id="path3759"
       inkscape:connector-curvature="0" />
    <path
       style="display:inline;fill:#e5b155;filter:url(#filter6961)"
       d="m 639.17323,743.42052 c -4.27476,-0.0849 -8.02127,2.50067 -10.84961,7.70898 -1.44218,2.65575 -4.64693,10.7831 -7.12109,18.06055 -2.47415,7.27745 -5.43352,14.54684 -6.57813,16.1543 -1.14461,1.60745 -2.07726,4.42748 -2.07226,6.26757 0.0166,6.09792 3.95401,20.40479 19.49804,70.84571 18.3925,59.68431 22.53374,76.09689 17.11328,67.82422 -2.40887,-3.6764 -10.29544,-22.12392 -15.10156,-35.32422 -18.94369,-52.03002 -29.87278,-80.05622 -33.19141,-85.12109 l -1.46093,-2.23047 -6.1836,2.92383 c -3.40089,1.6089 -6.96626,2.9273 -7.92187,2.92773 -0.9556,4.3e-4 -2.81281,1.6875 -4.12891,3.75 -4.93304,7.73076 -9.66154,10.39171 -18.46679,10.39258 -3.92806,3.9e-4 -6.23925,-0.61073 -8.76758,-2.32031 -3.4268,-2.31711 -8.39844,-10.61118 -8.39844,-14.00977 0,-0.98725 -1.52642,-3.79543 -3.39258,-6.24023 -1.86616,-2.44481 -4.17816,-6.49786 -5.13672,-9.00782 -0.95856,-2.50995 -2.11143,-4.56445 -2.5625,-4.56445 -2.21656,0 -31.78683,19.52511 -43.17773,28.50977 -4.64405,3.66302 -5.59271,4.88479 -4.86328,6.26953 1.87867,3.56649 4.28965,18.13485 4.83593,29.2207 0.67507,13.69939 -0.85004,28.7967 -4.27539,42.29883 -1.36711,5.38888 -2.18697,10.28173 -1.82031,10.875 0.69662,1.12715 6.20435,6.2368 10.25196,9.51172 2.29593,1.85764 2.32826,2.10114 1.23242,9.16406 -0.61915,3.99047 -3.99358,15.89448 -7.49805,26.45312 -11.52253,34.71634 -24.6445,62.59114 -41.04687,87.19724 -10.4316,15.6491 -31.56099,40.751 -42.26563,50.2129 -15.4332,13.6415 -34.29035,26.3196 -47.28516,31.7891 -3.26652,1.3748 -8.53843,3.8147 -11.71679,5.4238 -5.63954,2.855 -25.16942,7.7424 -39.7793,9.9531 -12.51925,1.8944 -28.69459,2.3645 -41,1.1934 -40.77938,-3.881 -73.9453,-17.8296 -116.26758,-48.9004 -5.9033,-4.3339 -11.85742,-8.5885 -13.23242,-9.4551 -1.92495,-1.2131 -8.71051,-1.9355 -29.5,-3.1406 -14.849997,-0.8608 -29.886277,-2.0794 -33.414057,-2.707 -5.7892,-1.03 -6.542,-0.9675 -7.720706,0.6445 -1.590123,2.1746 -10.508682,29.9908 -20.814453,64.9141 l -7.65039,25.9257 2.298828,2.1817 c 4.241937,4.0223 8.523904,7.9491 12.824219,11.8281 211.651689,177.7102 322.766229,146.0991 469.072259,65.1348 0.84908,-0.5492 1.68897,-1.1237 2.53125,-1.6914 20.22844,-15.6093 43.37767,-39.3653 61.43946,-63.1621 22.41124,-31.6875 39.98479,-67.0922 51.93164,-96.7129 5.28744,-13.5417 10.11223,-27.4602 14.27929,-41.4278 0.0871,-0.2919 0.1654,-0.5356 0.25196,-0.8242 2.33303,-8.6752 3.5608,-15.3343 3.59179,-19.1797 1.10516,1.0154 2.254,2.0926 3.39844,3.1621 2.48705,1.2397 7.89268,4.0976 13.99414,7.4121 l 14.86328,8.0743 9.90625,-3.1407 c 10.02033,-3.1765 51.01377,-21.9539 57.95118,-26.5449 3.45969,-2.2895 3.76818,-2.8746 3.80078,-7.2265 0.0195,-2.6047 0.67882,-5.86137 1.46484,-7.23637 0.78602,-1.375 1.44534,-3.47492 1.46484,-4.66602 0.0593,-3.62639 -8.85599,-29.41808 -27.93945,-80.83398 -21.03854,-56.68344 -25.64835,-68.29809 -35.5332,-89.52539 -3.97632,-8.53899 -10.97042,-24.24994 -15.54297,-34.91211 -4.57255,-10.66217 -9.71213,-21.22578 -11.42188,-23.47461 -2.02507,-2.66358 -5.79882,-5.53636 -10.82617,-8.24219 -4.24455,-2.28451 -9.33875,-5.57657 -11.32031,-7.31641 -3.78059,-3.31939 -7.42519,-5.00036 -10.75,-5.0664 z m -50.86524,235.87695 c 0.56906,-0.005 1.19421,0.27589 1.91797,0.73243 3.77117,2.37879 3.95477,4.23933 0.70508,7.16015 -2.77057,2.49018 -3.30217,3.97145 -5.29101,14.76755 -9.89651,53.7219 -28.07742,111.4551 -47.10352,149.5781 -5.99421,12.0108 -14.05543,25.9712 -12.6582,21.9219 0.28468,-0.825 3.86426,-8.925 7.95508,-18 19.66614,-43.627 34.75428,-92.549 46.60742,-151.125 3.97419,-19.6397 5.40128,-25.01548 7.86718,-25.03513 z M 103.22596,1144.9029 c 0.26976,-0.031 0.63375,0.5976 1.19141,1.9571 0.65463,1.5958 1.02707,3.3933 0.82617,3.9961 -0.56466,1.6939 -2.88103,-3.2806 -2.42187,-5.2012 0.11409,-0.4772 0.24244,-0.7332 0.40429,-0.752 z m -33.898427,7.6641 c 4.22029,-0.132 9.29075,2.2024 11.70703,6.875 1.99738,3.8625 1.10581,9.4846 -1.83008,11.541 -2.67586,1.8743 -3.26131,1.8402 -8.39063,-0.4883 -4.864203,-2.2081 -8.262074,-7.0292 -8.267574,-11.7304 -0.0047,-4.045 3.057458,-6.0808 6.781254,-6.1973 z"
       id="path3755"
       inkscape:connector-curvature="0" />
    <path
       style="display:inline;fill:#ebaa2d;filter:url(#filter6357)"
       d="m 642.74549,753.59435 c -4.43849,0.18463 -6.77498,4.35715 -8.18945,13.36328 -1.67306,10.65252 -1.77918,11.17453 -3.53125,17.29297 -1.86926,6.52763 -6.48148,15.24951 -10.50586,19.86523 -2.5115,2.88052 -2.67841,3.55682 -1.90234,7.71094 1.47301,7.88465 3.66902,15.59113 13.04101,45.76953 5.01497,16.14854 10.64903,34.31133 12.51954,40.36133 5.56409,17.99658 14.36523,50.58858 14.36523,53.19531 0,1.50065 -0.41607,2.16493 -1.09375,1.7461 -2.54032,-1.57001 -14.38458,-30.58702 -30.58984,-74.94141 -13.63156,-37.31007 -19.67566,-52.85511 -21.83985,-56.16992 l -1.41797,-2.16992 -5.27929,2.8457 c -6.47273,3.48762 -22.3638,7.71583 -33.7793,8.98828 -4.675,0.52111 -11.33042,1.63492 -14.78906,2.47461 -7.52951,1.82801 -9.52368,1.21539 -18.75391,-5.75977 -7.83561,-5.92127 -9.17769,-8.35963 -7.56445,-13.74414 1.30746,-4.36393 1.15826,-14.96484 -0.21094,-14.96484 -1.20043,0 -14.45593,8.64085 -19.3457,12.61133 -3.74392,3.04007 -4.07564,3.65949 -3.28125,6.13476 1.39772,4.35514 4.94531,29.46272 4.94531,35 0,4.08976 0.3522,5.11322 1.89844,5.51758 1.04399,0.273 2.68159,1.69258 3.64062,3.15625 2.13998,3.26602 0.85598,6.98828 -3.02344,8.75586 -2.10644,0.95976 -2.51562,1.82831 -2.51562,5.35352 0,6.30099 -2.6858,20.8478 -5.67188,30.72461 -2.14532,7.09599 -2.4352,9.2172 -1.53124,11.20117 1.50231,3.29719 -0.48423,12.60793 -6.7129,31.44531 -11.3416,34.30043 -27.99894,71.33128 -39.85156,88.59958 -9.62679,14.0255 -11.87749,16.8805 -27.32226,34.6641 -20.67741,23.8086 -41.77456,40.2194 -64.81836,50.4199 -5.27595,2.3355 -11.04062,5.6355 -12.8125,7.332 -2.56273,2.4538 -4.09657,3.0878 -7.5,3.1016 -2.35312,0.01 -7.4293,0.7069 -11.2793,1.5488 -33.33009,7.2891 -56.29341,7.9265 -84,2.336 -23.17544,-4.6763 -50.19182,-16.1899 -76.66016,-32.6719 l -12.66211,-7.8848 -10.33789,-1.2363 c -5.6865,-0.6803 -12.70221,-1.6902 -15.58984,-2.2441 -2.88762,-0.5539 -14.36262,-1.8499 -25.5,-2.8789 -11.137367,-1.0291 -24.464667,-2.5656 -29.615227,-3.4161 -5.15056,-0.8504 -9.733964,-1.3181 -10.185551,-1.039 -1.206229,0.7455 -8.988826,25.337 -17.326172,54.7461 l -7.308594,25.7793 16.09375,14.8847 c 7.105197,6.5723 14.277867,12.8777 21.527347,18.9727 27.118357,21.5066 52.545827,39.4039 76.617177,54.1133 12.9212,7.5573 26.2267,14.6606 40.03125,21.3359 4.75226,2.298 8.84621,4.5849 10.81641,5.9766 121.20293,55.6061 208.84921,24.0299 314.37109,-34.0254 9.66661,-6.701 18.78526,-14.7634 31.0918,-26.7735 30.61514,-29.8776 51.01494,-58.4794 71.08789,-99.6699 13.01256,-26.7023 22.37261,-51.2725 33.56836,-88.1211 0.14876,-0.4896 0.29759,-0.9145 0.44727,-1.3828 0.7289,-3.7026 1.13717,-6.7422 1.15429,-8.8672 0.56196,0.5163 1.15633,1.0771 1.72852,1.6074 0.0596,-0.064 0.11445,-0.1074 0.15625,-0.1074 0.45518,0 5.23368,2.495 10.61914,5.5449 11.6776,6.6133 17.89395,9.4551 20.6875,9.4551 5.23565,0 18.85641,-5.0007 37.17188,-13.6484 10.99132,-5.1896 21.84761,-10.5287 24.125,-11.8633 l 4.14062,-2.4258 -0.043,-6.2812 c -0.0418,-6.10196 2.54606,-13.58376 5.2832,-15.27541 1.24067,-0.76677 0.7321,-3.25452 -3.16015,-15.50586 -3.77133,-11.87074 -6.4108,-19.16123 -24.26367,-67 -18.43286,-49.39295 -20.69028,-54.94717 -30.88477,-76 -4.66076,-9.625 -10.565,-22.45 -13.12109,-28.5 -15.76334,-37.31012 -16.73637,-38.85654 -26.77149,-42.5293 -3.45889,-1.26592 -8.46264,-3.37766 -11.11914,-4.69336 -2.99707,-1.48438 -5.4493,-2.22455 -7.4668,-2.14062 z m -117.2207,83.87305 c 1.59509,-0.0425 3.1591,0.37241 4.51953,1.36718 1.82342,1.33332 1.80395,1.4716 -0.56054,4.33789 -1.34324,1.6283 -3.79141,5.27518 -5.44141,8.10352 -1.65,2.82834 -3.49345,5.15121 -4.0957,5.16211 -1.77716,0.0322 -4.33477,-3.38084 -4.99024,-6.6582 -1.23619,-6.18098 4.87162,-12.16066 10.56836,-12.3125 z m 62.77735,139.4414 c 1.55452,-0.0846 3.95784,1.7418 12.8164,8.14258 11.52721,8.32903 12.64226,9.43429 11.46094,11.3457 -0.67567,1.09326 -2.69719,0.42589 -9.94336,-3.2832 -9.2969,-4.7588 -11.51337,-5.40537 -12.58594,-3.66992 -0.33533,0.54258 -2.37581,9.65508 -4.53515,20.25004 -11.66042,57.2125 -29.15657,110.8502 -48.53516,148.7871 -7.29481,14.2808 -22.76271,39.8962 -31.375,51.9589 -3.89032,5.449 -7.5908,10.2267 -8.22266,10.6172 -0.63186,0.3905 -0.90319,0.3022 -0.60351,-0.1953 0.29968,-0.4975 3.80116,-6.3043 7.78125,-12.9043 29.08891,-48.2368 48.75506,-96.5577 64.30664,-158 4.83357,-19.0968 10.39264,-44.6613 13.19922,-60.707 1.42465,-8.14498 2.08652,-9.96176 4.11523,-11.29102 0.88252,-0.57825 1.41449,-1.01232 2.1211,-1.05078 z m -443.41993,154.7969 c 2.13948,-0.1331 4.3761,0.7527 5.56836,2.8867 1.31845,2.3598 1.29453,2.9076 -0.24023,5.25 -3.05574,4.6636 -10.66797,2.4812 -10.66797,-3.0586 0,-3.0516 2.58909,-4.907 5.33984,-5.0781 z m -65.785147,8.8222 c 2.32395,0.016 4.53316,0.4407 6.23047,1.3184 4.52691,2.341 8.38439,7.9087 8.91601,12.8672 0.74953,6.991 -2.80526,12.3462 -11.26562,16.9707 -3.81507,2.0853 -7.97669,4.2382 -9.25,4.7832 -7.594249,3.2503 -17.18555,-3.1231 -17.18555,-11.4199 0,-3.9057 8.062967,-18.4879 11.82227,-21.3809 2.66743,-2.0527 6.85916,-3.1646 10.73242,-3.1387 z m 27.710927,0.1895 c 3.02753,-0.023 6.17788,0.3452 7.23633,1.1191 1.73735,1.2704 2.58964,6.8616 1.25,8.2012 -1.24674,1.2467 -4.85358,-1.8421 -5.41211,-4.6348 -0.32401,-1.6201 -1.03663,-2.9453 -1.58203,-2.9453 -0.55593,0 -0.70346,0.9886 -0.33593,2.25 1.58773,5.4495 1.78037,8.803 0.58593,10.2422 -1.77208,2.1352 -2.765,1.903 -6.08398,-1.416 -2.22172,-2.2217 -2.919797,-3.8413 -2.908207,-6.75 0.008,-2.1048 0.34593,-4.2828 0.749997,-4.8418 0.56852,-0.7865 3.47248,-1.2013 6.5,-1.2246 z m 27.23438,7.5898 c 0.5225,0 1.11151,0.485 1.30859,1.0762 0.19709,0.5913 -0.39192,1.0742 -1.30859,1.0742 -0.91667,0 -1.50568,-0.4829 -1.30859,-1.0742 0.19708,-0.5912 0.78609,-1.0762 1.30859,-1.0762 z"
       id="path3751"
       inkscape:connector-curvature="0" />
    <path
       style="display:inline;fill:#eaa319"
       d="m 650.41737,764.53575 c -2.05267,-0.0465 -3.68755,0.15677 -4.5,0.6875 -1.42254,0.92927 -5.375,8.27834 -5.375,9.99414 0,3.86943 -7.81813,16.24069 -15.00781,23.74805 l -7.79883,8.14453 0.86523,4.63477 c 1.49147,7.98346 3.66637,15.61504 13.06446,45.85156 18.18749,58.51464 29.9594,100.12096 29.82812,105.41992 -0.14397,5.81104 -14.07114,-27.80451 -34.48437,-83.23437 -19.70849,-53.51626 -19.64026,-53.37568 -23.79102,-49.50391 -2.19565,2.04808 -5.7633,3.62313 -22.17578,9.78907 -13.75246,5.1666 -23.89648,4.5245 -40.56445,-2.56836 -3.81462,-1.62327 -6.93555,-2.71688 -6.93555,-2.42969 0,0.28719 1.0897,1.95428 2.42188,3.70508 5.25382,6.90479 4.20357,13.17811 -3.33594,19.91992 l -4.76758,4.26367 -1.20313,15 c -1.6047,20.01566 -7.65831,45.63992 -12.99414,55 -0.9406,1.65 -2.76068,5.925 -4.04297,9.5 -2.46737,6.87903 -6.27498,14.17937 -9.1289,17.5 -0.94539,1.1 -2.05604,3.125 -2.4668,4.5 -1.53031,5.12265 -19.03276,29.39561 -20.5293,28.4707 -0.94644,-0.58493 -3.06727,4.50938 -21.46289,51.52927 -21.26775,54.3612 -23.92679,60.9063 -27.19531,66.9571 -2.78744,5.1601 -5.92456,7.8103 -11.96484,10.1074 -1.93379,0.7354 -2.13117,0.5322 -1.81641,-1.8692 0.44147,-3.368 7.05066,-24.8587 12.47656,-40.5664 2.25537,-6.5291 3.91013,-12.0605 3.67774,-12.2929 -0.2324,-0.2324 -2.97627,2.4857 -6.09766,6.041 -4.87493,5.5526 -6.44493,8.4478 -11.13672,20.5273 -6.59561,16.9811 -12.89652,31.6267 -14.96093,34.7774 -0.8355,1.2751 -2.26727,2.3183 -3.18164,2.3183 -0.91437,0 -2.59112,0.8439 -3.72657,1.875 -1.13545,1.0311 -4.53436,2.6767 -7.55273,3.6582 -3.01836,0.9816 -6.84336,2.6128 -8.5,3.6231 -1.65663,1.0102 -4.20827,1.8378 -5.67188,1.8398 -1.76194,0 -3.56894,1.0834 -5.34765,3.1973 -1.47754,1.7559 -5.11849,4.1791 -8.08985,5.3867 -5.15843,2.0965 -5.40234,2.1119 -5.40234,0.3281 0,-1.0274 0.61622,-3.565 1.36914,-5.6386 3.05964,-8.4267 5.84666,-18.3858 5.29883,-18.9336 -1.29209,-1.2921 -8.22874,2.518 -9.66797,5.3105 -0.825,1.6007 -4.35074,8.3586 -7.83398,15.0176 l -6.33204,12.1074 -6.11132,2.0859 c -3.36114,1.1477 -6.33064,1.8667 -6.59961,1.5977 -0.26898,-0.269 1.39652,-6.1772 3.70117,-13.1309 2.30465,-6.9536 4.07489,-12.7497 3.93359,-12.8789 -0.14129,-0.1291 -4.96622,0.8291 -10.7207,2.1289 -20.79615,4.6976 -42.41244,5.6581 -63.57422,2.8243 -6.57909,-0.8811 -16.68789,-1.7516 -22.46289,-1.9336 -40.13642,-1.2651 -49.45423,-2.0863 -56.34375,-4.9649 -1.97518,-0.8253 -5.11015,-1.5 -6.96484,-1.5 -3.20619,0 -17.80041,-3.3319 -19.67774,-4.4922 -0.48722,-0.3011 -3.95143,-0.9814 -7.69922,-1.5136 -15.04336,-2.1364 -27.89076,-5.2282 -39.31445,-9.459 -1.925,-0.7129 -5.524997,-1.6217 -7.999997,-2.0196 -2.475,-0.3977 -5.85,-1.3226 -7.5,-2.0566 -1.65,-0.734 -8.34002,-2.7465 -14.86719,-4.4726 -6.527174,-1.7262 -12.437892,-3.3576 -13.134763,-3.625 -0.80181,-0.3077 -1.860569,1.2537 -2.882813,4.2539 -2.562317,7.5199 -2.694418,7.3847 7.228516,7.3847 14.81443,0 23.94844,4.3184 34.79687,16.4473 4.654047,5.2034 6.071627,6.2424 7.484377,5.4863 3.26389,-1.7468 6.95164,-1.0093 9.95117,1.9903 4.81623,4.8162 3.44496,11.2039 -3.13672,14.6074 -2.71576,1.4043 -2.94462,1.9551 -3.01562,7.2441 -0.0914,6.807 -1.84472,13.1965 -3.92578,14.3106 -0.82403,0.4411 -5.548047,2.0376 -10.498047,3.5468 -9.46074,2.8846 -22.61343,8.0071 -26,10.127 -1.90383,1.1917 -1.75957,1.4752 3,5.9004 2.42132,2.2512 5.10705,4.5965 7.91016,6.9785 16.489,12.9586 32.355497,24.5827 47.669917,34.959 20.10705,13.1276 41.77268,25.6903 61.5039,35.3476 8.70416,4.2602 14.19019,7.3459 15.65235,8.7735 120.76985,55.0779 208.25621,23.5174 313.53515,-34.4043 9.66661,-6.701 18.78526,-14.7634 31.0918,-26.7735 30.61514,-29.8776 51.01494,-58.4794 71.08789,-99.6699 13.01256,-26.7023 22.37261,-51.2725 33.56836,-88.1211 0.14704,-0.4839 0.29477,-0.904 0.44336,-1.3672 0.731,-3.7101 1.14105,-6.7547 1.1582,-8.8828 0.57282,0.5263 1.17828,1.0978 1.76172,1.6387 0.0762,-0.085 0.14265,-0.1387 0.19531,-0.1387 0.49517,0 5.29163,2.422 10.66016,5.3828 5.36848,2.9609 12.201,6.4254 15.18164,7.6973 l 5.41797,2.3125 8.52539,-2.2598 c 7.79726,-2.0655 42.367,-17.5619 52.7461,-23.6445 l 4.14062,-2.4258 -0.0606,-6.4472 c -0.0482,-5.12192 0.49122,-7.51032 2.625,-11.62308 1.47716,-2.84715 2.68936,-5.92224 2.69336,-6.83399 0.0212,-4.32408 -7.56661,-26.25458 -25.83203,-74.6582 -18.73102,-49.6376 -18.56109,-49.23381 -29.89448,-71.5 -5.45898,-10.725 -13.67436,-28.05 -18.25586,-38.5 -10.67042,-24.33831 -13.26422,-29.47695 -16.30664,-32.3125 -2.76583,-2.57777 -12.68574,-4.96987 -18.84375,-5.10938 z m -61.5918,211.10743 c 0.12424,-0.0112 0.23501,-0.007 0.33008,0.0137 2.43725,0.53073 33.42405,23.004 34.50586,25.02542 0.57325,1.0711 0.73935,2.2459 0.36914,2.6113 -0.3702,0.3654 -7.49322,-2.8426 -15.83008,-7.12891 -15.29733,-7.86489 -17.04355,-8.51159 -18.15039,-6.7207 -0.33533,0.54258 -2.37581,9.65508 -4.53515,20.25001 -11.52258,56.5362 -28.61264,109.1861 -47.95313,147.7265 -11.43732,22.7916 -29.25678,51.6836 -42.56055,69.0098 -14.14867,18.4266 -15.47756,17.6977 -2.6875,-1.4726 18.33541,-27.482 31.15054,-50.5724 43.08008,-77.6211 19.05275,-43.1998 35.60941,-99.6965 44.65625,-152.37894 2.25446,-13.12844 2.89627,-15.28675 5.14844,-17.30078 1.23838,-1.10742 2.75731,-1.93506 3.62695,-2.01367 z M 145.79432,1128.3658 c 5.77027,0.1152 10.5107,7.3105 5.67578,13.4571 -1.59866,2.0323 -2.95435,2.6347 -5.92773,2.6347 -7.18693,0 -10.64422,-8.4456 -5.54492,-13.5449 1.83574,-1.8357 3.87345,-2.5853 5.79687,-2.5469 z m -11.48633,17.1875 c 1.16572,-0.066 2.37558,0.3682 3.25977,1.4336 0.97068,1.1696 1.00325,2.1111 0.14258,4 -1.75529,3.8525 -7.16797,2.6977 -7.16797,-1.5293 0,-2.2939 1.82277,-3.7945 3.76562,-3.9043 z"
       id="path3749"
       inkscape:connector-curvature="0" />
    <path
       style="display:inline;fill:#e7930b"
       d="m 651.79237,777.80333 c -1.04906,0.002 -2.13452,0.0922 -3.25586,0.27149 -4.27161,0.68305 -3.78899,0.24857 -22.75391,20.45898 l -8.04687,8.57617 0.86523,4.63477 c 1.49147,7.98346 3.66637,15.61504 13.06446,45.85156 24.79918,79.78646 36.79448,125.76909 27.48437,105.36133 -7.47459,-16.3843 -18.628,-45.04886 -38.63476,-99.30273 -5.13196,-13.91675 -9.81114,-25.95672 -10.40039,-26.75586 -0.90651,-1.22942 -2.22623,-0.85372 -8.57227,2.4414 -8.10488,4.20837 -16.60285,6.60028 -27.24023,7.66992 -5.93202,0.5965 -7.26648,1.14047 -11.12305,4.53516 -4.70209,4.13894 -6.70567,8.52548 -9.09766,19.91211 -1.34025,6.38003 -2.89927,20.5596 -2.69336,24.5 0.0575,1.1 -1.52354,8.3 -3.51367,16 -1.99013,7.7 -3.8289,15.46717 -4.08594,17.25977 -0.25703,1.7926 -0.86819,3.50622 -1.35742,3.80859 -0.48923,0.30236 -0.88867,2.01118 -0.88867,3.79687 0,1.89287 -1.04247,4.6592 -2.5,6.63477 -1.375,1.86371 -2.5,4.42521 -2.5,5.69336 0,1.26815 -0.45,2.30664 -1,2.30664 -0.55,0 -1,0.49523 -1,1.09961 0,0.60438 -0.65592,2.51688 -1.45703,4.25 -0.8011,1.73312 -2.39245,5.69619 -3.53711,8.80859 -1.14466,3.11239 -2.73874,6.2056 -3.54297,6.87305 -0.80423,0.66745 -1.46289,1.64097 -1.46289,2.16211 0,0.52114 -1.95464,4.17793 -4.34375,8.12695 -3.62226,5.98731 -9.65625,19.14156 -9.65625,21.05076 0,1.017 -5.84501,9.1783 -7.91406,11.0508 -1.1477,1.0387 -2.08971,2.3802 -2.09571,2.9824 -0.01,1.0438 -2.69226,4.4796 -9.64062,12.3438 -1.73308,1.9615 -4.12731,5.5194 -5.32031,7.9082 -1.193,2.3887 -2.5882,4.3437 -3.09961,4.3437 -0.51142,0 -0.92969,0.675 -0.92969,1.5 0,0.825 -0.45,1.5 -1,1.5 -0.55,0 -1,0.4162 -1,0.9239 0,0.5076 -1.2375,2.2223 -2.75,3.8105 -5.39056,5.6603 -8.27689,9.527 -8.86719,11.8789 -0.35115,1.3991 -1.33737,2.3867 -2.38281,2.3867 -1.02669,0 -2.02899,0.9767 -2.36133,2.3008 -0.31747,1.2649 -2.39027,4.2644 -4.60742,6.666 -2.21716,2.4016 -4.03125,4.7408 -4.03125,5.1992 0,0.4585 -0.62972,0.834 -1.40039,0.834 -0.77068,0 -2.35671,1.6183 -3.52344,3.5957 -1.16673,1.9775 -3.43538,4.0912 -5.04101,4.6973 -2.67789,1.0108 -3.83115,3.3804 -13.95313,28.6543 -12.0427,30.0698 -17.79371,43.736 -21.78515,51.7715 -2.32745,4.6855 -3.11425,5.3891 -7.69532,6.8828 -2.80628,0.915 -5.69198,2.1318 -6.41406,2.7051 -1.03137,0.8188 -1.19401,0.5219 -0.75781,-1.3828 0.30539,-1.3336 1.03253,-4.6739 1.61719,-7.4239 0.58465,-2.75 3.47356,-12.65 6.41796,-22 2.94441,-9.35 5.6298,-18.2476 5.96875,-19.7734 0.56796,-2.5568 0.4623,-2.678 -1.3457,-1.5488 -2.35745,1.4722 -6.38718,9.9454 -16.95117,35.6367 -7.20017,17.5106 -10.62204,24.0342 -11.92383,22.7324 -0.25644,-0.2564 -1.78991,0.2178 -3.4082,1.0547 -1.61829,0.8368 -6.17358,2.6072 -10.12305,3.9355 -3.94948,1.3284 -8.96379,3.3266 -11.14258,4.4395 -2.17879,1.1129 -4.51026,2.0234 -5.17968,2.0234 -0.66942,0 -1.89522,0.6784 -2.72461,1.5078 -1.91317,1.9132 -13.47492,5.559 -14.15235,4.4629 -0.27932,-0.4519 -0.0902,-1.8677 0.41992,-3.1465 0.51008,-1.2787 1.92359,-5.6992 3.14063,-9.8242 2.47277,-8.381 4.23115,-14.2416 6.35742,-21.1855 l 1.43555,-4.6875 -3.45117,1.6875 c -3.04503,1.4886 -4.66947,4.0982 -13.85352,22.2597 -5.72244,11.3162 -10.99434,21.022 -11.7168,21.5684 -3.88391,2.9372 -12.81445,3.6083 -12.81445,0.9629 0,-0.6385 2.26792,-7.8932 5.03906,-16.1211 2.77114,-8.2279 4.90864,-15.7062 4.75,-16.6191 -0.26385,-1.5185 -0.80054,-1.4907 -6.28906,0.3242 -5.62656,1.8605 -12.41214,3.5015 -17,4.1113 -1.1,0.1462 -3.8,0.7979 -6,1.4492 -7.48262,2.2153 -41.52541,6.0752 -58,6.5762 -12.4545,0.3788 -28.74754,-1.0841 -36.5,-3.2773 -9.01227,-2.5497 -12.51429,-3.1928 -19.92188,-3.6641 -6.35143,-0.4041 -14.03124,-2.2364 -17.68945,-4.2188 -5.08542,-2.7556 -11.42726,-5.2397 -15.43945,-6.0488 -10.71287,-2.1604 -15.63697,-3.4558 -18.29297,-4.8125 -1.56361,-0.7987 -2.94954,-1.3069 -3.08008,-1.1289 -0.13054,0.1781 -1.06062,3.4742 -2.06836,7.3242 -1.40413,5.3644 -2.70208,7.8763 -5.55273,10.75 -2.0459,2.0625 -4.588847,3.75 -5.650387,3.75 -1.96936,0 -16.13091,4.6317 -22.11524,7.2324 l -3.3125,1.4395 5.85157,5.4141 c 3.21842,2.978 11.23467,9.4971 17.8125,14.4863 29.574737,22.4321 58.014587,39.9851 95.958977,59.2266 9.85351,4.9966 14.77223,7.6756 16.64258,9.1386 94.15281,41.4218 168.18783,29.892 246.87109,-5.3652 4.17543,-2.0183 10.06175,-4.745 16.78711,-7.8223 14.69985,-7.1165 29.63835,-15.0015 44.9336,-23.416 9.70508,-6.7103 18.78211,-14.7436 31.1289,-26.793 30.61514,-29.8776 51.01494,-58.4794 71.08789,-99.6699 13.34773,-27.3901 27.60175,-65.255 33.69336,-89.5058 0.2632,-1.0479 0.56273,-2.0258 0.87109,-2.9395 0.38849,-2.3897 0.59305,-4.3844 0.60547,-5.9258 0.65474,0.6015 1.34507,1.2524 2.01368,1.8731 1.58493,0.3428 5.94287,2.3532 10.62109,4.9433 5.44082,3.0123 12.29619,6.5106 15.23633,7.7754 l 5.3457,2.3008 8.52539,-2.2598 c 7.79726,-2.0655 42.367,-17.5619 52.7461,-23.6445 l 4.14062,-2.4258 -0.0606,-6.4472 c -0.0482,-5.12192 0.49122,-7.51032 2.625,-11.62308 1.47721,-2.84715 2.6856,-5.95589 2.6856,-6.90821 0,-3.22945 -9.82356,-31.72187 -23.86719,-69.22265 -16.73303,-44.68229 -21.1014,-55.50836 -24.82031,-61.51563 -7.1242,-11.50793 -10.33967,-17.38536 -21.5293,-39.3457 -14.32225,-28.10828 -17.71135,-33.96265 -19.74414,-34.11328 -5.04215,-0.37363 -7.47031,-0.93688 -9.38476,-2.17578 -2.44229,-1.58049 -5.25713,-2.37112 -8.4043,-2.36524 z M 589.6537,974.73107 c 0.13683,0.0125 0.26021,0.0383 0.36914,0.0801 1.67437,0.64251 33.14985,23.1608 36.17578,25.88083 1.1857,1.0659 2.36863,2.7508 2.62891,3.7461 0.40548,1.5506 0.0763,1.6971 -2.29297,1.0176 -1.5209,-0.4362 -9.5045,-4.4401 -17.74219,-8.89649 -14.79067,-8.00131 -17.54808,-9.04734 -18.74219,-7.11523 -0.33533,0.54258 -2.37581,9.65508 -4.53515,20.25002 -12.11976,59.4663 -29.68831,112.5187 -50.58985,152.7636 -9.76841,18.8086 -26.41264,46.061 -37.23828,60.9746 -8.47756,11.6789 -29.97209,35.8018 -30.09765,33.7774 -0.0255,-0.4116 3.79586,-5.5866 8.49218,-11.5 50.47187,-63.5525 86.44254,-151.2742 103.4375,-252.25197 1.15708,-6.875 2.31024,-13.18971 2.5625,-14.0332 0.5703,-1.90701 5.51981,-4.88026 7.57227,-4.69336 z"
       id="path3743"
       inkscape:connector-curvature="0" />
    <path
       style="display:inline;fill:#e89a14;filter:url(#filter5089)"
       d="m 647.66151,764.7838 c -0.20855,0.006 -0.38134,0.0249 -0.51562,0.0586 -2.08065,0.52221 -6.60352,7.71379 -6.60352,10.5 0,3.75677 -7.91832,16.2203 -15.00781,23.62305 l -7.79883,8.14453 0.86523,4.63477 c 1.49147,7.98346 3.66637,15.61504 13.06446,45.85156 18.18749,58.51464 29.9594,100.12096 29.82812,105.41992 -0.14397,5.81104 -14.07114,-27.80451 -34.48437,-83.23437 -19.70588,-53.50915 -19.63795,-53.36944 -23.79102,-49.51367 -2.60992,2.4231 -21.11077,11.37246 -28.29297,13.68554 -4.38212,1.4113 -6.24964,1.48149 -13,0.49805 -16.2588,-2.3687 -14.65342,-2.47904 -17.05273,1.18945 -1.51361,2.31427 -2.81818,7.39785 -4.31641,16.81641 -1.18112,7.425 -2.76948,16.65 -3.52929,20.5 -0.7598,3.85 -2.09188,11.5 -2.96094,17 -0.86907,5.5 -1.9876,11.35 -2.48438,13 -4.60964,15.31036 -7.69727,24.00228 -10.48242,29.5 -1.8111,3.575 -3.63434,8.075 -4.05078,10 -1.1128,5.14401 -6.24048,16.25981 -12.22461,26.5 -2.89267,4.95 -5.26353,9.36721 -5.26953,9.81641 -0.006,0.4492 -1.13672,2.29103 -2.51172,4.09375 -1.375,1.80272 -2.5,3.58554 -2.5,3.96093 0,0.91953 -11.53594,15.99837 -13.46289,17.59767 -0.84106,0.698 -3.82944,5.5233 -6.64063,10.7226 -2.81118,5.1993 -5.68221,9.6721 -6.3789,9.9395 -0.69668,0.2673 -2.96773,2.9558 -5.04688,5.9746 -2.07914,3.0188 -4.57317,5.9146 -5.54297,6.4336 -1.00483,0.5378 -3.99697,6.6454 -6.95703,14.2012 -14.4656,36.9245 -24.56009,62.0444 -27.76562,69.0957 -3.49215,7.6817 -3.68672,7.8936 -9.94727,10.8515 -3.51219,1.6595 -6.6605,2.7438 -6.99609,2.4082 -0.33559,-0.3356 0.64529,-4.5451 2.17969,-9.3535 1.5344,-4.8083 4.95705,-15.4922 7.60547,-23.7422 4.13331,-12.8756 7.7626,-24.664 11.01367,-35.7695 0.49118,-1.6779 0.44193,-2.5418 -0.125,-2.1914 -0.51465,0.3181 -0.93555,1.2504 -0.93555,2.0703 0,2.0084 -2.78701,7.4008 -5.17773,10.0195 -1.06862,1.1706 -5.99397,11.9706 -10.94532,24 -11.60451,28.1936 -18.7978,44.4472 -20.59375,46.5313 -0.7868,0.913 -2.53365,1.9368 -3.88281,2.2754 -1.34917,0.3386 -4.80487,1.6742 -7.67773,2.9668 -2.87285,1.2925 -6.91016,2.8898 -8.97266,3.5507 -2.0625,0.661 -3.75,1.5668 -3.75,2.0118 0,0.4449 -1.2375,1.0344 -2.75,1.3105 -1.5125,0.2762 -6.43095,1.8514 -10.92969,3.502 -8.08084,2.9647 -8.17931,2.9751 -8.13281,0.8613 0.0259,-1.1768 0.66591,-4.1637 1.42188,-6.6387 7.44596,-24.378 8.2877,-28 6.50195,-28 -2.44791,0 -5.78527,5.1229 -14.65821,22.5 -10.8607,21.2701 -11.00582,21.5 -13.46679,21.5 -0.97259,0 -3.72939,0.8808 -6.12695,1.9571 -2.39756,1.0762 -4.50889,1.5277 -4.69141,1.0039 -0.18251,-0.5239 0.34275,-3.0921 1.16601,-5.7071 6.40371,-20.3403 8.79574,-28.4581 8.47852,-28.7754 -0.20286,-0.2028 -3.50752,0.766 -7.3418,2.1543 -3.83427,1.3884 -8.3207,2.8811 -9.9707,3.3164 -1.65,0.4354 -4.125,1.2801 -5.5,1.877 -1.375,0.5969 -5.09177,1.5886 -8.25977,2.2031 -3.3844,0.6565 -6.97702,2.1406 -8.71093,3.5996 -2.5123,2.114 -3.27716,2.3082 -5.14844,1.3067 -2.36497,-1.2657 -13.88097,-0.1473 -26.88086,2.6113 -3.575,0.7586 -8.75,1.3578 -11.5,1.332 -2.75,-0.026 -13.775,0.045 -24.5,0.1563 -25.32019,0.2616 -44.74003,-2.2696 -51.41992,-6.7012 -2.61209,-1.7329 -5.32783,-2.6733 -7.55078,-2.6133 -1.90935,0.052 -5.15449,-0.7653 -7.21094,-1.8144 -2.05644,-1.0491 -6.78146,-2.2439 -10.5,-2.6563 -5.59575,-0.6206 -6.9538,-1.1368 -7.87891,-2.9941 -0.61477,-1.2343 -1.38766,-1.9756 -1.71679,-1.6465 -0.32912,0.3291 -1.9815,-0.09 -3.67188,-0.9336 -3.01428,-1.5037 -3.10157,-1.4781 -4.58203,1.3848 -0.83023,1.6055 -3.24214,3.8027 -5.35937,4.8828 -3.27315,1.6698 -3.77495,2.3505 -3.35547,4.5449 0.64237,3.3603 -1.5062,14.2034 -3.38086,17.0645 -1.01156,1.5438 -2.909,2.45 -6.14649,2.9355 -2.575667,0.3862 -8.518017,1.9438 -13.205077,3.4609 -4.68706,1.5172 -10.32148,3.3107 -12.52148,3.9844 -2.2,0.6737 -4.9,1.8981 -6,2.7207 -1.93939,1.4504 -1.84847,1.6329 3,6.0742 2.42726,2.2235 5.07742,4.5205 7.82422,6.8438 16.65934,13.0954 32.683347,24.8264 48.144527,35.2871 19.98861,13.0422 41.41432,25.4434 61.11523,35.0859 8.70416,4.2602 14.19019,7.3459 15.65235,8.7735 120.76985,55.0779 208.25621,23.5174 313.53515,-34.4043 9.66661,-6.701 18.78526,-14.7634 31.0918,-26.7735 30.61514,-29.8776 51.01494,-58.4794 71.08789,-99.6699 13.01256,-26.7023 22.37261,-51.2725 33.56836,-88.1211 0.14704,-0.4839 0.29477,-0.904 0.44336,-1.3672 0.731,-3.7101 1.14105,-6.7547 1.1582,-8.8828 0.57282,0.5263 1.17828,1.0978 1.76172,1.6387 0.0762,-0.085 0.14265,-0.1387 0.19531,-0.1387 0.49517,0 5.29163,2.422 10.66016,5.3828 5.36848,2.9609 12.201,6.4254 15.18164,7.6973 l 5.41797,2.3125 8.52539,-2.2598 c 7.79726,-2.0655 42.367,-17.5619 52.7461,-23.6445 l 4.14062,-2.4258 -0.0606,-6.4472 c -0.0482,-5.12191 0.49122,-7.51031 2.625,-11.62307 1.47716,-2.84715 2.68936,-5.92224 2.69336,-6.83399 0.0212,-4.32408 -7.56661,-26.25458 -25.83203,-74.6582 -18.93846,-50.18731 -18.93722,-50.18635 -29.64057,-70.82031 -5.18667,-9.9989 -13.9548,-28.07969 -19.48438,-40.17969 -10.64673,-23.29749 -14.09801,-29.24023 -18.08398,-31.13281 -4.70844,-2.23562 -15.71945,-5.13193 -18.84766,-5.04102 z m -58.83594,210.85938 c 0.12424,-0.0112 0.23501,-0.007 0.33008,0.0137 2.43725,0.53073 33.42405,23.004 34.50586,25.02542 0.57325,1.0711 0.73935,2.2459 0.36914,2.6113 -0.3702,0.3654 -7.49322,-2.8426 -15.83008,-7.12891 -15.29733,-7.86489 -17.04355,-8.51159 -18.15039,-6.7207 -0.33533,0.54258 -2.37581,9.65508 -4.53515,20.25001 -11.52258,56.5362 -28.61264,109.1861 -47.95313,147.7265 -11.43732,22.7916 -29.25678,51.6836 -42.56055,69.0098 -14.14867,18.4266 -15.47756,17.6977 -2.6875,-1.4726 18.33541,-27.482 31.15054,-50.5724 43.08008,-77.6211 19.05275,-43.1998 35.60941,-99.6965 44.65625,-152.37894 2.25446,-13.12844 2.89627,-15.28675 5.14844,-17.30078 1.23838,-1.10742 2.75731,-1.93506 3.62695,-2.01367 z"
       id="path3747"
       inkscape:connector-curvature="0" />
    <path
       style="display:inline;fill:#d68504;filter:url(#filter5437)"
       d="m 651.59901,777.78575 c -69.40516,27.88655 33.96873,183.32943 -45.09169,96.4686 -71.21422,77.86839 -61.78207,220.88175 -167.28003,288.32365 -86.27495,103.0208 -216.75076,68.6629 -323.88238,49.2246 48.12916,83.6625 164.64477,104.6772 254.83166,93.8011 123.61097,-13.8609 226.26978,-106.194 267.38726,-221.3963 41.18726,-67.1773 169.84865,-82.8336 95.59205,-187.12506 -24.95549,-40.72176 -43.78349,-88.6412 -81.55687,-119.29659 z m -63.12695,196.67188 c 15.54127,70.22317 -95.85358,258.61037 -85.03878,234.06537 42.84981,-71.9495 62.84788,-154.1555 85.03878,-234.06537 z"
       id="path3739"
       inkscape:connector-curvature="0" />
    <path
       style="display:inline;fill:#ca7b01;filter:url(#filter6161)"
       d="m 645.47792,789.64513 c -3.79675,-0.0618 -9.87321,0.7078 -11.72852,1.70703 -0.93837,0.50538 -4.92808,4.24699 -8.86523,8.3125 l -7.15821,7.39063 0.8711,4.66211 c 1.49686,8.01231 3.66272,15.61812 13.06836,45.8789 17.46955,56.20482 30.69337,103.08836 33.45117,118.59961 0.87335,4.91219 -0.56014,3.39072 -3.52344,-3.73828 -8.78918,-21.14461 -27.30385,-68.31863 -32.02148,-81.58789 -2.13019,-5.99158 -4.83088,-11.41211 -5.68555,-11.41211 -0.3332,0 -0.39116,3.36813 -0.12695,7.48438 0.36891,5.74835 0.10519,8.12555 -1.13672,10.25 -2.20258,3.76782 -5.78438,13.03914 -6.59961,17.08203 -0.38921,1.93018 -0.15112,4.56379 0.56836,6.30078 0.98826,2.38599 0.97915,3.46098 -0.041,5.36719 -0.70174,1.31125 -1.02401,3.34471 -0.71679,4.51953 0.31667,1.21094 -0.24923,3.51383 -1.30664,5.3164 -1.02589,1.74881 -2.01699,4.34413 -2.20313,5.76758 -0.18614,1.42345 -1.09388,3.73973 -2.01563,5.14649 -0.92174,1.40676 -1.97691,3.84231 -2.3457,5.4121 -0.3688,1.56979 -2.14903,4.42852 -3.95508,6.35352 -1.80605,1.925 -4.75059,6.32802 -6.54492,9.78516 l -3.26367,6.28711 2.42187,1.69335 c 1.33182,0.93203 3.99688,3.07923 5.92188,4.77149 1.925,1.69225 7.775,6.18137 13,9.97656 17.6231,12.8006 24.19175,18.6266 22.69336,20.125 -0.58654,0.5865 -10.05861,-4.103 -29.80664,-14.75586 -14.44585,-7.79264 -17.18919,-8.82148 -18.37891,-6.89648 -0.33533,0.54258 -2.37581,9.65508 -4.53515,20.25004 -9.36157,45.9331 -22.3034,89.1656 -37.14063,124.0703 -17.80185,41.879 -45.11294,86.4517 -69.66211,113.6933 -9.60205,10.6552 -32.26147,31 -34.52734,31 -0.5434,0 4.83968,-5.9625 11.96289,-13.25 22.22484,-22.7374 36.7988,-42.4901 52.93945,-71.75 10.20311,-18.4962 21.8665,-41.9206 21.20313,-42.584 -0.8919,-0.8918 -2.78799,1.9742 -6.64649,10.043 -2.35626,4.9273 -5.1515,10.0614 -6.21094,11.4082 -1.05943,1.3469 -2.61528,4.8174 -3.45703,7.7129 -1.49691,5.1492 -1.6502,5.3023 -7.03515,6.9961 -4.11222,1.2934 -5.87904,2.4541 -6.98047,4.584 -0.81104,1.5684 -3.24931,3.9708 -5.41797,5.3398 -2.16866,1.369 -4.64326,3.8412 -5.49805,5.4942 -0.8548,1.653 -2.18457,3.0058 -2.95507,3.0058 -0.77052,0 -2.81615,2.475 -4.54688,5.5 -1.73073,3.025 -3.63501,5.5 -4.23242,5.5 -0.59741,0 -3.60301,2.3969 -6.67774,5.3262 -6.41468,6.1112 -14.76578,10.6738 -19.53713,10.6738 -4.10114,0 -8.20193,3.1287 -9.02734,6.8867 -0.78492,3.5737 -3.39646,5.9479 -10.95312,9.9629 -3.90305,2.0738 -7.34484,3.1504 -10.07618,3.1504 -4.49561,0 -6.94305,1.8888 -9.80664,7.5625 -1.26088,2.4982 -2.52316,3.2861 -6.85156,4.2852 -3.0602,0.7064 -6.44505,2.3189 -8.00195,3.8105 -1.48435,1.4221 -4.5301,2.9799 -6.76758,3.4629 -2.23747,0.483 -5.92356,1.279 -8.19141,1.7676 -2.59997,0.5601 -4.94207,1.915 -6.33984,3.668 -1.45041,1.819 -2.77701,2.5653 -3.83789,2.1582 -2.62947,-1.0091 -12.13091,0.958 -17.9707,3.7207 -2.98157,1.4105 -5.88604,2.5644 -6.45313,2.5644 -0.56708,0 -1.55251,0.6271 -2.18945,1.3946 -2.11926,2.5535 -7.56341,2.8075 -13.73438,0.6386 -6.69482,-2.353 -14.75767,-2.5876 -18.35156,-0.5332 -2.97141,1.6986 -8.0967,1.8784 -13.19336,0.4629 -3.02985,-0.8415 -4.46796,-0.6765 -8,0.9141 -4.68634,2.1104 -10.03306,3.2991 -9.26758,2.0605 0.26315,-0.4258 -0.95493,-1.0898 -2.70703,-1.4746 -2.4639,-0.5411 -3.48642,-0.2901 -4.50976,1.1094 -1.1959,1.6355 -1.32227,1.6477 -1.32227,0.1191 0,-1.1372 -0.81887,-1.6914 -2.5,-1.6914 -1.375,0 -2.5,0.45 -2.5,1 0,0.55 -0.93025,1 -2.06641,1 -1.13616,0 -2.97243,0.4863 -4.08203,1.0801 -1.57062,0.8406 -2.42258,0.7137 -3.8457,-0.5742 -2.61428,-2.3659 -11.00586,-1.1405 -11.00586,1.6074 0,2.0524 -1.63507,2.4151 -4,0.8867 -1.19626,-0.7731 -1.01129,-0.9721 0.91602,-0.9844 4.57575,-0.029 1.40778,-1.0139 -4.81836,-1.498 -3.4304,-0.2667 -6.6902,-0.7651 -7.24414,-1.1074 -2.34725,-1.4507 -23.48256,-8.4041 -25.33204,-8.334 -1.23297,0.047 0.24249,1.1794 3.7793,2.9004 l 5.80078,2.8223 -0.21679,0.025 c 89.06567,37.1715 160.30373,26.6338 235.32421,-6.1231 4.95838,-2.3486 11.87924,-5.5298 21.60938,-9.959 14.62269,-7.0797 29.4822,-14.9223 44.69336,-23.2871 10.03534,-6.7973 18.71862,-14.5854 31.35156,-26.914 30.61514,-29.8777 51.01494,-58.4795 71.08789,-99.67 13.34707,-27.3887 26.85732,-63.1606 33.15821,-87.7968 0.46643,-1.8238 0.97765,-3.5385 1.45703,-4.9883 0.35196,-2.2346 0.54287,-4.1204 0.55468,-5.586 0.71199,0.6542 1.46108,1.3604 2.18946,2.0371 1.928,0.4182 5.898,2.1385 11.95507,5.1856 6.7288,3.385 12.90938,6.4038 13.73438,6.709 0.825,0.3052 2.28606,1.118 3.24609,1.8047 3.06339,2.191 17.20391,-2.4442 39.1836,-12.8418 11.02177,-5.2139 21.9023,-10.5717 24.17969,-11.9063 l 4.14062,-2.4258 -0.0606,-6.4472 c -0.0482,-5.12191 0.49122,-7.51031 2.625,-11.62307 1.47716,-2.84715 2.68555,-5.95589 2.68555,-6.90821 0,-5.04387 -33.61805,-97.64028 -41.92188,-115.46875 -2.13556,-4.5851 -6.36128,-11.17526 -9.71484,-15.15039 -3.2646,-3.86969 -7.00995,-8.81969 -8.32226,-11 -5.00406,-8.31392 -23.66232,-31.34022 -32.38477,-39.96484 -5.00615,-4.95 -9.33909,-9.00587 -9.62891,-9.01367 -0.28983,-0.008 -1.80085,-1.13284 -3.35742,-2.5 -1.55657,-1.36717 -3.13157,-2.52477 -3.5,-2.57227 -0.36843,-0.0475 -1.46664,-0.43744 -2.43945,-0.86523 -0.51795,-0.22777 -1.52934,-0.34073 -2.79492,-0.36133 z"
       id="path3737"
       inkscape:connector-curvature="0" />
    <path
       style="display:inline;fill:#af7009"
       d="m 636.29432,790.78185 c -2.27073,-0.0266 -4.85708,2.16787 -11.00586,8.48632 l -7.5664,7.77344 0.87304,4.66993 c 1.49819,8.01943 3.66283,15.618 13.07032,45.88476 15.1031,48.59123 19.73087,64.34352 25.52148,86.86133 11.98488,46.60535 24.96313,89.61657 28.13672,93.24997 1.97268,2.2585 3.95798,2.2038 13.1543,-0.3574 7.06219,-1.9669 42.41904,-17.9806 51.67383,-23.4043 l 4.14062,-2.4258 -0.0606,-6.4472 c -0.0482,-5.12192 0.49122,-7.51032 2.625,-11.62308 1.47716,-2.84715 2.68555,-5.95589 2.68555,-6.90821 0,-4.24056 -34.49651,-100.35577 -39.51758,-110.10546 -1.3021,-2.52836 -3.68071,-4.76824 -19.48242,-18.33594 -5.35476,-4.59771 -13.35627,-13.33391 -21.62305,-23.60938 -7.21735,-8.97105 -13.85297,-16.71894 -14.74609,-17.21875 -0.89312,-0.49981 -2.67071,-2.45156 -3.95117,-4.33593 -3.8157,-5.61531 -17.62847,-19.3107 -21.64258,-21.45899 -0.80706,-0.43193 -1.52825,-0.68646 -2.28516,-0.69531 z m 27.77735,236.15235 c 7.21595,4.3452 12.5478,6.0036 13.66015,4.25 1.67043,-2.6335 -3.29368,-20.761 -6.77148,-24.7266 -1.20585,-1.375 -2.50989,-3.5446 -2.89649,-4.8222 -0.66369,-2.19346 -0.80618,-2.23066 -2.55664,-0.6465 -1.01963,0.9227 -2.02533,3.0943 -2.23437,4.8242 l -0.37891,3.1445 -0.8164,-3.3281 -0.81641,-3.3281 -2.8418,4.8281 c -3.25254,5.5243 -3.55467,8.3638 -1.26172,11.8633 1.37538,2.0991 1.39781,2.4648 0.14844,2.4648 -0.94837,2.7421 4.25094,4.0292 6.76563,5.4766 z m -1.16407,-30.13087 c -0.15156,-0.023 -0.25711,0.34222 -0.28711,1.07032 -0.0434,1.05416 0.19311,1.64479 0.5254,1.3125 0.33225,-0.33229 0.36894,-1.19415 0.0801,-1.91602 -0.1197,-0.29915 -0.22741,-0.45303 -0.31836,-0.4668 z m -0.7539,24.67777 c 0.64683,0.01 1.75328,0.7807 3.05664,2.2265 1.11556,1.2375 2.88356,2.7863 3.92969,3.4414 1.04612,0.6552 1.45234,1.1902 0.90234,1.1895 -1.44743,0 -8.5,-4.993 -8.5,-6.0156 0,-0.5722 0.22323,-0.8454 0.61133,-0.8418 z"
       id="path3735"
       inkscape:connector-curvature="0"
       sodipodi:nodetypes="ccccsssccccsssssssscccccsccccccccccccccccsccsc" />
    <path
       style="display:inline;fill:#996305"
       d="m 634.54237,822.98693 c -3.05538,0.13267 -11,1.7138 -11,2.18945 0,2.31715 4.66537,18.05602 22.3125,75.28125 4.66425,15.125 11.92541,39.875 16.13672,55 9.31409,33.45178 19.75712,67.98517 22.48437,74.34767 1.18325,2.7604 2.95383,5.0743 4.29102,5.6113 6.93806,2.7862 15.31149,0.3024 39.77539,-11.8008 l 17.5,-8.6582 0.002,-11 c 8.4e-4,-6.04997 0.40387,-14.28012 0.89649,-18.28903 0.95401,-7.76358 -0.19027,-13.82219 -3.32617,-17.60938 -1.51848,-1.83386 -1.39254,-1.87802 3.67773,-1.29687 4.73652,0.5429 5.25,0.41099 5.25,-1.33985 0,-3.53046 -23.60045,-64.28848 -26.33008,-67.78515 -0.56669,-0.72593 -4.43635,-3.59933 -8.59961,-6.38672 -15.11197,-10.11775 -34.91147,-26.56597 -50.57036,-42.01172 -8.8,-8.68023 -17.35,-17.07069 -19,-18.64453 -3.44349,-3.28454 -11.28559,-7.70362 -13.5,-7.60742 z"
       id="path3731"
       inkscape:connector-curvature="0"
       sodipodi:nodetypes="cssscccccccssccscc" />
    <path
       style="display:inline;fill:#a45000"
       d="m 636.32362,853.76622 c -1.62857,-0.11351 -2.77818,0.22649 -2.76953,1.06641 0.0138,1.34076 5.75841,20.28999 17.3164,57.125 7.28381,23.2133 13.99278,46.1161 22.70508,77.5 5.2921,19.06347 10.19335,33.11627 12.50977,35.86917 2.30241,2.7362 2.99186,2.9545 9.51367,3.0156 3.86751,0.036 7.76596,0.475 8.66211,0.9766 3.98148,2.2281 16.15998,-1.4961 17.6582,-5.4004 1.03072,-2.6861 0.70943,-4.461 -0.80859,-4.461 -1.6719,0 -2.18765,-1.5084 -3.07422,-9 -0.7586,-6.4103 -4.00983,-16.41429 -6.5,-19.99997 -3.57439,-5.1469 -6.04686,-11.48481 -5.48242,-14.05469 0.43028,-1.95905 -0.15643,-3.32432 -2.47266,-5.74804 -1.67097,-1.7485 -3.03906,-3.63249 -3.03906,-4.1875 0,-0.555 -0.39696,-1.00977 -0.88281,-1.00977 -1.00824,0 -2.42066,-3.82822 -2.15821,-5.84961 0.25358,-1.95313 -4.74254,-9.15039 -6.35156,-9.15039 -0.74986,0 -1.92273,-0.675 -2.60742,-1.5 -1.01682,-1.2252 -0.9565,-1.5 0.32812,-1.5 0.86502,0 1.97057,-0.71081 2.45704,-1.58008 0.66806,-1.19377 -0.40977,-2.90656 -4.40625,-7 -2.91012,-2.98073 -5.74612,-5.41992 -6.30079,-5.41992 -1.09614,0 -3.07812,-3.19873 -3.07812,-4.9668 0,-0.60367 4.1625,2.23913 9.25,6.31641 15.668,12.55684 29.46413,20.60112 44.75,26.09375 9.82107,3.52898 19.25839,5.69864 20.29297,4.66406 0.83934,-0.83934 -14.87813,-42.62951 -18.50781,-49.20898 -1.9968,-3.61957 -3.68642,-4.7677 -29.28516,-19.89844 -5.11781,-3.025 -11.711,-7.19936 -14.65234,-9.27734 -6.33615,-4.47633 -7.63675,-5.36759 -28.20704,-19.30469 -8.72274,-5.90997 -17.37059,-11.51578 -19.21679,-12.45703 -1.90698,-0.97223 -4.01401,-1.53883 -5.64258,-1.65235 z M 591.68299,990.0924 c -0.10507,-0.0108 -0.17378,-5e-5 -0.20507,0.0312 -0.48154,0.48154 -2.71313,9.86468 -4.95899,20.8535 -8.71351,42.6345 -21.25249,85.5903 -34.50195,118.1953 -17.22595,42.3905 -48.71799,93.8031 -74.74219,122.0215 -9.3659,10.1556 -27.29215,25.8722 -35.49023,31.1172 -2.88354,1.8448 -5.24219,3.5167 -5.24219,3.7148 0,0.4357 1.98621,-0.4243 32.5,-14.0703 12.26394,-5.4845 25.03146,-11.3586 30.13672,-13.8496 2.08389,-1.099 4.1752,-2.213 6.27148,-3.3359 13.7089,-7.9706 30.39832,-21.7656 47.64844,-39.4668 43.57687,-44.7165 71.26945,-93.1132 94.85352,-165.7696 3.64641,-11.2336 6.73281,-21.8014 6.85937,-23.4824 0.21765,-2.8909 -0.22935,-3.2907 -8.26953,-7.4082 -4.675,-2.3941 -18.78107,-9.9883 -31.3457,-16.875 -12.24811,-6.71318 -21.93761,-11.51435 -23.51368,-11.67575 z m -155.64843,297.6094 c -0.3618,0.047 -1.87265,0.658 -4.21094,1.6445 1.40289,-0.5386 2.80658,-1.0888 4.21094,-1.6445 z m -211.09375,3.0175 c 35.4925,13.7781 68.18752,19.8978 99.51758,20.0762 -28.13201,-1.5116 -59.16948,-7.6012 -91.36524,-18.0547 -3.42309,-1.1114 -5.53818,-1.7211 -8.15234,-2.0215 z"
       id="path3729"
       inkscape:connector-curvature="0" />
    <path
       style="display:inline;fill:#905401"
       d="m 636.32362,853.76622 c -1.62857,-0.11351 -2.77818,0.22649 -2.76953,1.06641 0.0138,1.34076 5.75841,20.28999 17.3164,57.125 7.28381,23.2133 13.99278,46.1161 22.70508,77.5 5.2921,19.06347 10.19335,33.11627 12.50977,35.86917 2.30241,2.7362 2.99186,2.9545 9.51367,3.0156 3.86751,0.036 7.76596,0.475 8.66211,0.9766 3.98148,2.2281 16.15998,-1.4961 17.6582,-5.4004 1.03072,-2.6861 0.70943,-4.461 -0.80859,-4.461 -1.6719,0 -2.18765,-1.5084 -3.07422,-9 -0.7586,-6.4103 -4.00983,-16.41429 -6.5,-19.99997 -3.57439,-5.1469 -6.04686,-11.48481 -5.48242,-14.05469 0.43028,-1.95905 -0.15643,-3.32432 -2.47266,-5.74804 -1.67097,-1.7485 -3.03906,-3.63249 -3.03906,-4.1875 0,-0.555 -0.39696,-1.00977 -0.88281,-1.00977 -1.00824,0 -2.42066,-3.82822 -2.15821,-5.84961 0.25358,-1.95313 -4.74254,-9.15039 -6.35156,-9.15039 -0.74986,0 -1.92273,-0.675 -2.60742,-1.5 -1.01682,-1.2252 -0.9565,-1.5 0.32812,-1.5 0.86502,0 1.97057,-0.71081 2.45704,-1.58008 0.66806,-1.19377 -0.40977,-2.90656 -4.40625,-7 -2.91012,-2.98073 -5.74612,-5.41992 -6.30079,-5.41992 -1.09614,0 -3.07812,-3.19873 -3.07812,-4.9668 0,-0.60367 4.1625,2.23913 9.25,6.31641 15.668,12.55684 29.46413,20.60112 44.75,26.09375 9.82107,3.52898 19.25839,5.69864 20.29297,4.66406 0.83934,-0.83934 -14.87813,-42.62951 -18.50781,-49.20898 -1.9968,-3.61957 -3.68642,-4.7677 -29.28516,-19.89844 -5.11781,-3.025 -11.711,-7.19936 -14.65234,-9.27734 -6.33615,-4.47633 -7.63675,-5.36759 -28.20704,-19.30469 -8.72274,-5.90997 -17.37059,-11.51578 -19.21679,-12.45703 -1.90698,-0.97223 -4.01401,-1.53883 -5.64258,-1.65235 z m -44.66211,136.33985 c -0.10361,-0.008 -0.17391,0.006 -0.20703,0.0391 -0.4936,0.4936 -2.4493,8.5287 -4.34766,17.85543 -5.14914,25.298 -9.11933,43.6983 -11.99414,55.5977 -2.80394,11.6061 -3.09125,14.4194 -1.57031,15.3594 0.55,0.3399 1,1.5544 1,2.6992 0,1.1448 0.97761,4.0384 2.17188,6.4297 1.88657,3.7775 2.02095,4.8367 1.02734,8.0742 -0.9699,3.1602 -0.86976,4.1914 0.66406,6.791 0.99469,1.6859 2.11866,4.295 2.4961,5.7988 0.68538,2.7308 0.69075,2.7322 3.91406,1.084 1.77509,-0.9076 4.85825,-3.0511 6.85351,-4.7637 9.60403,-8.2432 17.18779,-13.8781 16.59375,-12.33 -0.72022,1.8768 0.75107,2.3811 1.83399,0.6289 0.42965,-0.6952 1.01842,-0.7394 1.63281,-0.125 0.61439,0.6144 2.35803,0.2841 4.83789,-0.9141 4.10818,-1.9848 8.49302,-2.5196 7.50195,-0.916 -0.6854,1.109 3.99426,4.4629 5.17774,3.7109 0.90648,-0.576 3.9763,-6.4741 7.83789,-15.0605 3.61983,-8.0489 17.37535,-49.7643 17.69726,-53.6699 0.24837,-3.0134 -0.12175,-3.3558 -8.24023,-7.6348 -4.675,-2.464 -18.78107,-10.1122 -31.3457,-16.9961 -12.64657,-6.92877 -21.98094,-11.54506 -23.53516,-11.65819 z M 436.03456,1287.7018 c -0.3618,0.047 -1.87265,0.658 -4.21094,1.6445 1.40289,-0.5386 2.80658,-1.0888 4.21094,-1.6445 z m -211.09375,3.0175 c 35.4925,13.7781 68.18752,19.8978 99.51758,20.0762 -28.13201,-1.5116 -59.16948,-7.6012 -91.36524,-18.0547 -3.42309,-1.1114 -5.53818,-1.7211 -8.15234,-2.0215 z"
       id="path3727"
       inkscape:connector-curvature="0" />
    <path
       style="display:inline;fill:#8c3800;filter:url(#filter6069)"
       d="m 669.14979,910.66661 c -0.1035,0.006 -0.17448,0.026 -0.20898,0.0606 -0.7556,0.7556 8.37986,11.31258 16.71875,19.31836 16.90163,16.22644 36.55611,27.62471 56.88281,32.99023 4.675,1.23403 8.64177,1.8596 8.81445,1.39063 0.45832,-1.24471 -9.68836,-26.62212 -11.10937,-27.78516 -0.66255,-0.54227 -6.83008,-3.05506 -13.70508,-5.58398 -6.875,-2.52892 -13.35558,-5.09466 -14.40039,-5.70117 -2.51339,-1.45902 -23.01613,-8.83238 -28.09961,-10.10547 -2.2,-0.55096 -6.38565,-1.90705 -9.30078,-3.01367 -2.55074,-0.9683 -4.86727,-1.61003 -5.5918,-1.57032 z m -77.08398,80.14454 c -0.73147,0.2807 -2.18487,5.47785 -3.44532,12.31645 -1.19933,6.5069 -4.91732,23.53 -8.26171,37.83 -8.47979,36.2581 -8.32961,35.4475 -6.97461,37.6172 0.63717,1.0203 1.1582,2.6001 1.1582,3.5098 0,0.9097 0.97761,3.6107 2.17188,6.0019 1.88009,3.7646 2.01849,4.8434 1.0371,8.041 -0.95983,3.1275 -0.8467,4.2397 0.74024,7.2618 1.03068,1.9627 2.14262,4.4023 2.4707,5.4218 0.38031,1.1819 1.16682,1.635 2.16992,1.25 0.86534,-0.332 1.96007,-0.6035 2.43164,-0.6035 0.47156,0 2.86598,-1.6875 5.32227,-3.75 11.91157,-10.0019 17.97567,-14.527 17.37695,-12.9668 -0.72022,1.8769 0.75107,2.3811 1.83399,0.6289 0.42965,-0.6951 1.01842,-0.7394 1.63281,-0.125 0.61439,0.6144 2.35803,0.2841 4.83789,-0.914 2.13291,-1.0305 4.84222,-1.8731 6.01953,-1.8731 1.17732,0 3.28322,-0.9 4.68164,-2 1.39842,-1.1 3.34048,-2 4.31446,-2 1.20598,0 2.78277,-2.1532 4.94531,-6.75 3.27341,-6.9581 17.58123,-48.8359 18.17773,-53.2051 0.29636,-2.1707 -0.70935,-3.0245 -8.66406,-7.3437 -4.95,-2.6878 -18.83494,-10.2758 -30.85547,-16.8613 -12.02052,-6.58556 -22.42508,-11.75343 -23.12109,-11.48635 z M 230.61073,1292.8443 c 27.17196,10.0087 52.72946,15.5237 77.31836,17.3067 -16.78999,-2.0831 -40.41279,-6.8299 -55.95313,-11.3106 -8.76384,-2.5268 -16.38359,-4.6728 -16.93359,-4.7675 -0.55,-0.095 -1.51263,-0.4913 -2.13867,-0.8829 -0.25629,-0.1602 -1.08969,-0.2711 -2.29297,-0.3457 z"
       id="path3723"
       inkscape:connector-curvature="0" />
    <path
       style="display:inline;fill:#6b2a01;filter:url(#filter5985)"
       d="m 704.04237,942.34435 3.5,3 c 5.09367,4.36631 19.14177,11.52242 29.5,15.02734 8.43592,2.85446 13.5,3.80634 13.5,2.53711 0,-0.30231 -0.66698,-1.84108 -1.48242,-3.41797 -1.00514,-1.94372 -2.53488,-3.07444 -4.75,-3.51367 -6.02783,-1.19525 -24.97436,-7.22375 -28.52539,-9.07617 -1.50846,-0.78689 -3.32621,-1.4345 -4.04102,-1.4375 -0.71481,-0.003 -2.73981,-0.70614 -4.5,-1.5625 z m -111.18164,49.1289 c -1.71286,-0.0226 -2.44336,3.07664 -2.44336,10.37695 0,7.3673 0.94931,13.3811 2.23828,14.1777 0.48765,0.3014 0.88672,2.0267 0.88672,3.834 0,1.9766 0.76847,3.9823 1.92969,5.0332 1.12141,1.0149 1.89575,2.9673 1.84765,4.6582 -0.0455,1.601 0.71664,3.7921 1.69141,4.8692 1.45123,1.6035 1.64788,2.9496 1.08789,7.4316 -0.63752,5.1025 -0.51393,5.5859 1.82617,7.1191 2.32761,1.5252 2.47016,2.0667 1.97071,7.4571 -0.29627,3.1974 -0.0938,6.6488 0.44921,7.6699 0.6137,1.154 0.66292,3.894 0.13086,7.2402 -0.53255,3.3493 -0.46183,7.2223 0.1875,10.25 0.57404,2.6767 1.2991,4.8672 1.60938,4.8672 1.64293,0 10.49127,-8.4929 18.17969,-17.4492 14.94843,-17.4135 30.09393,-39.025 30.08593,-42.9297 -0.004,-1.6474 -1.8477,-3.0647 -8.25,-6.3457 -4.53502,-2.324 -18.14609,-9.6295 -30.24609,-16.2344 -12.1,-6.60484 -22.53121,-12.01634 -23.18164,-12.02535 z M 241.14198,1295.5221 c -0.19823,-0.01 -0.53143,0.079 -1.00781,0.2617 -0.19236,0.074 -0.47203,0.1206 -0.79102,0.1504 0.55867,0.1884 1.1204,0.3857 1.67774,0.5703 0.0147,-0.025 0.0209,-0.044 0.0371,-0.07 0.37191,-0.6017 0.41437,-0.8954 0.084,-0.9121 z m 3.45703,1.2597 c -0.36085,0.01 -0.89563,0.099 -1.62109,0.2813 -0.062,0.016 -0.0912,0.017 -0.15039,0.031 0.68506,0.2224 1.36966,0.4455 2.05273,0.6621 0.0309,-0.071 0.0677,-0.146 0.12109,-0.2324 0.31369,-0.5076 0.19907,-0.7499 -0.40234,-0.7422 z m 3.29492,0.8692 c -0.28121,0 -0.72643,0.1082 -1.35156,0.3066 -0.223,0.071 -0.37388,0.099 -0.55273,0.1446 0.64006,0.2003 1.28158,0.4042 1.91992,0.5996 0.0329,-0.066 0.0622,-0.1288 0.10937,-0.2051 0.35851,-0.5801 0.34369,-0.8524 -0.125,-0.8457 z m 3.70508,1.1308 c -0.36085,0.01 -0.89563,0.099 -1.62109,0.2813 -0.20832,0.052 -0.33318,0.067 -0.50977,0.1055 0.79103,0.2375 1.58267,0.4791 2.3711,0.7089 0.028,-0.1 0.0754,-0.2132 0.1621,-0.3535 0.31369,-0.5075 0.19907,-0.7498 -0.40234,-0.7422 z m 3.06836,0.9922 c -0.33506,-0.01 -0.75699,0.066 -1.25,0.2227 -0.24493,0.078 -0.41936,0.1127 -0.60742,0.1562 1.01858,0.2933 2.03646,0.5829 3.05078,0.8633 -0.206,-0.1123 -0.31836,-0.2991 -0.31836,-0.5586 0,-0.4387 -0.31657,-0.6723 -0.875,-0.6836 z m 4.24805,0.8711 c -0.26326,0 -0.67579,0.092 -1.24805,0.2735 -0.5794,0.1839 -1.05282,0.2457 -1.41016,0.205 0.86925,0.2391 1.73735,0.4774 2.60352,0.7071 0.0371,-0.1067 0.0905,-0.2257 0.18164,-0.3731 0.33679,-0.5449 0.31181,-0.8095 -0.12695,-0.8125 z m 2.75195,1.1289 c -0.33506,-0.01 -0.75699,0.066 -1.25,0.2227 -0.18711,0.059 -0.30572,0.079 -0.45898,0.1191 0.89685,0.2342 1.79192,0.4653 2.68554,0.6895 -0.0612,-0.097 -0.10156,-0.2086 -0.10156,-0.3477 0,-0.4387 -0.31657,-0.6723 -0.875,-0.6836 z m 4.22266,0.8789 c -0.2662,8e-4 -0.67212,0.091 -1.22266,0.2657 -0.30043,0.095 -0.56643,0.1513 -0.81055,0.1855 0.70525,0.1737 1.41002,0.3442 2.11328,0.5117 0.0283,-0.07 0.0614,-0.1406 0.11329,-0.2246 0.30611,-0.4953 0.2503,-0.7395 -0.19336,-0.7383 z m 3.87304,0.9082 c -0.35774,0 -0.90354,0.1021 -1.65625,0.2911 -0.24387,0.061 -0.40379,0.084 -0.60547,0.125 0.83698,0.1944 1.67358,0.3884 2.50782,0.5742 0.0265,-0.057 0.0436,-0.1105 0.084,-0.1758 0.34316,-0.5553 0.26616,-0.8186 -0.33008,-0.8145 z m 5.67969,1.0059 c -0.51122,0.01 -1.28052,0.1151 -2.35351,0.3164 -0.36398,0.068 -0.60204,0.095 -0.89844,0.1406 1.23628,0.2649 2.47073,0.5178 3.70117,0.7637 0.0325,-0.1047 0.0833,-0.2212 0.16992,-0.3613 0.36773,-0.595 0.2329,-0.8693 -0.61914,-0.8594 z m 5.07813,1.082 c -0.43963,0.01 -1.0906,0.1136 -1.97852,0.3086 -0.38267,0.084 -0.64222,0.1226 -0.9375,0.1739 1.11368,0.2151 2.22299,0.4213 3.33203,0.621 0.0144,-0.098 0.0517,-0.2066 0.13281,-0.3378 0.32944,-0.5331 0.18389,-0.7813 -0.54882,-0.7657 z m 6.05078,1.002 c -0.46908,0.01 -1.24639,0.1073 -2.37696,0.2949 -0.48546,0.081 -0.83786,0.1185 -1.20898,0.1621 1.10801,0.1907 2.21483,0.3734 3.31836,0.5488 0.0738,-0.064 0.14093,-0.1246 0.23828,-0.1992 0.73443,-0.5629 0.81109,-0.8172 0.0293,-0.8066 z m 4.64843,1.0625 c -0.53481,-7e-4 -1.30526,0.086 -2.33007,0.2558 -0.13067,0.022 -0.19118,0.026 -0.3125,0.045 1.14978,0.1725 2.29631,0.3381 3.4414,0.4942 0.0102,-0.018 0.0117,-0.032 0.0234,-0.051 0.30929,-0.5004 0.0691,-0.743 -0.82227,-0.7442 z m 6.32032,0.9414 c -0.45022,0.01 -1.20167,0.1064 -2.24414,0.2773 0.83274,0.1027 1.66377,0.195 2.49414,0.2891 0.45518,-0.3903 0.41985,-0.5768 -0.25,-0.5664 z m 6.59765,1.0019 c -0.2949,9e-4 -0.74837,0.038 -1.20312,0.076 0.69494,0.064 1.39257,0.1369 2.08594,0.1954 0.0331,-0.1857 -0.24322,-0.2735 -0.88282,-0.2715 z"
       id="path3719"
       inkscape:connector-curvature="0" />
  </g>
</svg>
