<?xml version="1.0" encoding="UTF-8" standalone="no"?>
<!-- Created with Inkscape (http://www.inkscape.org/) -->

<svg
   xmlns:dc="http://purl.org/dc/elements/1.1/"
   xmlns:cc="http://creativecommons.org/ns#"
   xmlns:rdf="http://www.w3.org/1999/02/22-rdf-syntax-ns#"
   xmlns:svg="http://www.w3.org/2000/svg"
   xmlns="http://www.w3.org/2000/svg"
   xmlns:xlink="http://www.w3.org/1999/xlink"
   xmlns:sodipodi="http://sodipodi.sourceforge.net/DTD/sodipodi-0.dtd"
   xmlns:inkscape="http://www.inkscape.org/namespaces/inkscape"
   width="108"
   height="108"
   viewBox="0 0 28.575 28.575"
   version="1.1"
   id="svg8"
   sodipodi:docname="board_size.svg"
   inkscape:version="0.92.3 (2405546, 2018-03-11)">
  <defs
     id="defs2">
    <clipPath
       id="clipPath5063"
       clipPathUnits="userSpaceOnUse">
      <rect
         transform="matrix(0.92122282,-0.38903536,0.32367982,0.94616667,0,0)"
         y="204.52045"
         x="62.990398"
         height="44.054543"
         width="97.085129"
         id="rect5065"
         style="fill:#c7740a;fill-opacity:1;stroke-width:1.04407191" />
    </clipPath>
    <clipPath
       id="clipPath5142"
       clipPathUnits="userSpaceOnUse">
      <text
         xml:space="preserve"
         style="font-style:normal;font-weight:normal;font-size:175.24552917px;line-height:1.25;font-family:sans-serif;letter-spacing:0px;word-spacing:0px;display:inline;fill:#f7ca05;fill-opacity:1;stroke:none;stroke-width:4.38113832"
         x="137.67905"
         y="243.14816"
         id="text5146"
         transform="matrix(0.91301871,0.39793872,-0.40116473,0.92042037,0,0)"><tspan
           sodipodi:role="line"
           id="tspan5144"
           x="137.67905"
           y="243.14816"
           style="font-style:normal;font-variant:normal;font-weight:normal;font-stretch:normal;font-family:'BadaBoom BB';-inkscape-font-specification:'BadaBoom BB';fill:#f7ca05;fill-opacity:1;stroke-width:4.38113832">1</tspan></text>
    </clipPath>
    <linearGradient
       inkscape:collect="always"
       xlink:href="#linearGradient1635"
       id="linearGradient1637"
       x1="709.81146"
       y1="519.99152"
       x2="709.81146"
       y2="16.105932"
       gradientUnits="userSpaceOnUse"
       gradientTransform="matrix(0.05602941,0,0,0.05602941,-24.463127,267.78042)" />
    <linearGradient
       inkscape:collect="always"
       id="linearGradient1635">
      <stop
         style="stop-color:#4563a3;stop-opacity:1"
         offset="0"
         id="stop1631" />
      <stop
         style="stop-color:#4da7a6;stop-opacity:1"
         offset="1"
         id="stop1633" />
    </linearGradient>
    <clipPath
       clipPathUnits="userSpaceOnUse"
       id="clipPath2351">
      <rect
         style="opacity:1;fill:#eeeeee;fill-opacity:1;stroke:#eeeeee;stroke-width:9.27272701;stroke-miterlimit:4;stroke-dasharray:none;stroke-opacity:1"
         id="rect2353"
         width="500.72726"
         height="500.72726"
         x="443.24863"
         y="16.140879"
         ry="184.16667" />
    </clipPath>
  </defs>
  <sodipodi:namedview
     id="base"
     pagecolor="#ffffff"
     bordercolor="#666666"
     borderopacity="1.0"
     inkscape:pageopacity="0"
     inkscape:pageshadow="2"
     inkscape:zoom="5.6568542"
     inkscape:cx="29.948612"
     inkscape:cy="47.20994"
     inkscape:document-units="px"
     inkscape:current-layer="layer1"
     showgrid="false"
     units="px"
     showguides="false"
     inkscape:guide-bbox="true"
     inkscape:pagecheckerboard="true"
     inkscape:window-width="1600"
     inkscape:window-height="845"
     inkscape:window-x="0"
     inkscape:window-y="27"
     inkscape:window-maximized="1">
    <sodipodi:guide
       position="28.575,17.991667"
       orientation="0,1"
       id="guide819"
       inkscape:locked="false"
       inkscape:label=""
       inkscape:color="rgb(0,0,255)" />
  </sodipodi:namedview>
  <metadata
     id="metadata5">
    <rdf:RDF>
      <cc:Work
         rdf:about="">
        <dc:format>image/svg+xml</dc:format>
        <dc:type
           rdf:resource="http://purl.org/dc/dcmitype/StillImage" />
        <dc:title />
      </cc:Work>
    </rdf:RDF>
  </metadata>
  <g
     inkscape:label="Layer 1"
     inkscape:groupmode="layer"
     id="layer1"
     transform="translate(0,-268.425)">
    <path
       inkscape:connector-curvature="0"
       clip-path="none"
       id="rect1621"
       d="M 7.068607e-7,268.425 H 28.575 V 297 H 7.0686071e-7 Z"
       style="fill:url(#linearGradient1637);fill-opacity:1;stroke:none;stroke-width:0.05609167;stroke-miterlimit:4;stroke-dasharray:none;stroke-opacity:1" />
    <path
       style="fill:#dbe8ed;fill-opacity:1;stroke:#dbe8ed;stroke-width:0.05609167;stroke-miterlimit:4;stroke-dasharray:none;stroke-opacity:1"
       d="m 3.8935634,281.9148 c -1.1846545,-0.26765 -2.078314,-0.892 -2.6617528,-1.85962 -0.2300315,-0.38151 -0.45160932,-1.07387 -0.50454759,-1.57655 -0.0561056,-0.53276 -0.0579456,-4.86247 -0.002409,-5.67258 0.0464826,-0.67807 0.1220427,-1.0034 0.34076979,-1.46722 0.522021,-1.10697 1.4048181,-1.83295 2.594499,-2.13363 l 0.4502338,-0.11379 h 3.0429169 3.0429175 l 0.449379,0.11654 c 0.491014,0.12734 1.072244,0.41115 1.471563,0.71856 0.581542,0.44768 1.123875,1.27811 1.329881,2.03634 0.104022,0.38286 0.105446,0.42221 0.121222,3.35001 0.01694,3.14475 0.0018,3.46254 -0.191301,4.01738 -0.214748,0.61699 -0.427481,0.96295 -0.88905,1.44585 -0.469187,0.49087 -0.967304,0.79775 -1.662901,1.02448 l -0.368133,0.11999 -3.2360643,0.007 c -1.7798358,0.004 -3.2770856,-0.002 -3.3272213,-0.0132 z"
       id="path1615"
       inkscape:connector-curvature="0" />
    <path
       style="fill:#eeeeee;fill-opacity:1;stroke:none;stroke-width:0.05609167;stroke-miterlimit:4;stroke-dasharray:none;stroke-opacity:1"
       d="m 3.6656711,282.46562 c -0.3615578,-0.0712 -1.0617355,-0.32293 -1.1534612,-0.41465 -0.033482,-0.0335 -0.07923,-0.0609 -0.101662,-0.0609 -0.1291053,0 -0.7946271,-0.51458 -1.1494905,-0.88878 -0.1571501,-0.16571 -0.6719265,-0.89621 -0.6719265,-0.9535 0,-0.0132 -0.0495406,-0.13218 -0.1100905,-0.26447 -0.14333052,-0.31316 -0.19765775,-0.49314 -0.30311015,-1.00415 -0.08030303,-0.38914 -0.08701927,-0.64834 -0.0876821,-3.38402 -6.1072e-4,-2.52044 0.0099032,-3.01021 0.07044802,-3.28164 0.11587498,-0.51949 0.21634636,-0.85236 0.32665986,-1.08226 0.057076,-0.11895 0.10377487,-0.22771 0.10377487,-0.24168 0,-0.0584 0.5125974,-0.78697 0.6719265,-0.95498 0.3548634,-0.3742 1.0203852,-0.88878 1.1494905,-0.88878 0.022432,0 0.067888,-0.027 0.1010137,-0.0601 0.1030017,-0.10278 0.8173374,-0.35402 1.1996883,-0.42194 0.5422616,-0.0963 6.3032601,-0.0945 6.8526011,0.002 1.755376,0.30893 3.213737,1.77377 3.540644,3.5564 0.09831,0.53608 0.09831,6.2551 0,6.79118 -0.326731,1.78167 -1.786214,3.24764 -3.540644,3.5564 -0.538298,0.0947 -6.4140091,0.091 -6.8981799,-0.004 z m 7.2091469,-0.66166 c 1.309797,-0.45743 2.166787,-1.33614 2.574458,-2.63973 l 0.106903,-0.34184 v -3.28164 c 0,-3.62327 0.01157,-3.46155 -0.296689,-4.14859 -0.473712,-1.05582 -1.264031,-1.75841 -2.415224,-2.14714 L 10.45685,269.1142 H 7.1296277 3.8024064 l -0.4429848,0.15342 c -1.0122951,0.35059 -1.7219003,0.95247 -2.2198309,1.88284 -0.22378929,0.41814 -0.35417813,0.8546 -0.41289527,1.38212 -0.0253051,0.22734 -0.045827,1.61141 -0.0460343,3.10475 -2.8015e-4,2.18562 0.0124727,2.76822 0.0676421,3.08458 0.26372707,1.51232 1.21819767,2.60032 2.71226557,3.0917 l 0.3874159,0.12742 3.3121954,0.002 3.3121949,0.002 0.402443,-0.14054 z"
       id="path1617"
       inkscape:connector-curvature="0" />
    <path
       inkscape:connector-curvature="0"
       id="path1639"
       d="m 18.125034,281.9148 c -1.184655,-0.26765 -2.078314,-0.892 -2.661753,-1.85962 -0.230032,-0.38151 -0.45161,-1.07387 -0.504548,-1.57655 -0.05611,-0.53276 -0.05795,-4.86247 -0.0024,-5.67258 0.04648,-0.67807 0.122043,-1.0034 0.34077,-1.46722 0.522021,-1.10697 1.404818,-1.83295 2.594499,-2.13363 l 0.450233,-0.11379 h 3.042917 3.042918 l 0.449379,0.11654 c 0.491014,0.12734 1.072244,0.41115 1.471563,0.71856 0.581543,0.44768 1.123875,1.27811 1.329881,2.03634 0.104022,0.38286 0.105446,0.42221 0.121222,3.35001 0.01694,3.14475 0.0018,3.46254 -0.191301,4.01738 -0.214748,0.61699 -0.427481,0.96295 -0.889049,1.44585 -0.469188,0.49087 -0.967304,0.79775 -1.662902,1.02448 l -0.368133,0.11999 -3.236064,0.007 c -1.779836,0.004 -3.277086,-0.002 -3.327222,-0.0132 z"
       style="fill:#dbe8ed;fill-opacity:1;stroke:#dbe8ed;stroke-width:0.05609167;stroke-miterlimit:4;stroke-dasharray:none;stroke-opacity:1" />
    <path
       inkscape:connector-curvature="0"
       id="path1641"
       d="m 17.897141,282.46562 c -0.361558,-0.0712 -1.061735,-0.32293 -1.153461,-0.41465 -0.03348,-0.0335 -0.07923,-0.0609 -0.101662,-0.0609 -0.129105,0 -0.794627,-0.51458 -1.14949,-0.88878 -0.157151,-0.16571 -0.671927,-0.89621 -0.671927,-0.9535 0,-0.0132 -0.04954,-0.13218 -0.11009,-0.26447 -0.143331,-0.31316 -0.197658,-0.49314 -0.303111,-1.00415 -0.0803,-0.38914 -0.08702,-0.64834 -0.08768,-3.38402 -6.1e-4,-2.52044 0.0099,-3.01021 0.07045,-3.28164 0.115875,-0.51949 0.216347,-0.85236 0.32666,-1.08226 0.05708,-0.11895 0.103775,-0.22771 0.103775,-0.24168 0,-0.0584 0.512597,-0.78697 0.671927,-0.95498 0.354863,-0.3742 1.020385,-0.88878 1.14949,-0.88878 0.02243,0 0.06789,-0.027 0.101014,-0.0601 0.103001,-0.10278 0.817337,-0.35402 1.199688,-0.42194 0.542262,-0.0963 6.30326,-0.0945 6.852601,0.002 1.755377,0.30893 3.213737,1.77377 3.540644,3.5564 0.09831,0.53608 0.09831,6.2551 0,6.79118 -0.326731,1.78167 -1.786214,3.24764 -3.540644,3.5564 -0.538298,0.0947 -6.414009,0.091 -6.89818,-0.004 z m 7.209147,-0.66166 c 1.309797,-0.45743 2.166787,-1.33614 2.574458,-2.63973 l 0.106903,-0.34184 v -3.28164 c 0,-3.62327 0.01157,-3.46155 -0.296689,-4.14859 -0.473712,-1.05582 -1.264031,-1.75841 -2.415224,-2.14714 L 24.68832,269.1142 h -3.327222 -3.327221 l -0.442985,0.15342 c -1.012295,0.35059 -1.721901,0.95247 -2.219831,1.88284 -0.223789,0.41814 -0.354178,0.8546 -0.412895,1.38212 -0.02531,0.22734 -0.04583,1.61141 -0.04603,3.10475 -2.8e-4,2.18562 0.01247,2.76822 0.06764,3.08458 0.263727,1.51232 1.218198,2.60032 2.712266,3.0917 l 0.387416,0.12742 3.312195,0.002 3.312196,0.002 0.402442,-0.14054 z"
       style="fill:#eeeeee;fill-opacity:1;stroke:none;stroke-width:0.05609167;stroke-miterlimit:4;stroke-dasharray:none;stroke-opacity:1" />
    <path
       inkscape:connector-curvature="0"
       id="path1643"
       d="m 3.8935634,296.14627 c -1.1846545,-0.26765 -2.078314,-0.892 -2.6617528,-1.85962 -0.2300315,-0.38151 -0.45160932,-1.07387 -0.50454759,-1.57655 -0.0561056,-0.53276 -0.0579456,-4.86247 -0.002409,-5.67258 0.0464826,-0.67807 0.1220427,-1.0034 0.34076979,-1.46722 0.522021,-1.10697 1.4048181,-1.83296 2.594499,-2.13363 l 0.4502338,-0.11379 h 3.0429169 3.0429175 l 0.449379,0.11654 c 0.491014,0.12734 1.072244,0.41115 1.471563,0.71856 0.581542,0.44768 1.123875,1.27811 1.329881,2.03634 0.104022,0.38286 0.105446,0.42221 0.121222,3.35001 0.01694,3.14475 0.0018,3.46254 -0.191301,4.01738 -0.214748,0.61699 -0.427481,0.96295 -0.88905,1.44585 -0.469187,0.49087 -0.967304,0.79775 -1.662901,1.02448 l -0.368133,0.11999 -3.2360643,0.007 c -1.7798358,0.004 -3.2770856,-0.002 -3.3272213,-0.0132 z"
       style="fill:#dbe8ed;fill-opacity:1;stroke:#dbe8ed;stroke-width:0.05609167;stroke-miterlimit:4;stroke-dasharray:none;stroke-opacity:1" />
    <path
       inkscape:connector-curvature="0"
       id="path1645"
       d="m 3.6656711,296.69709 c -0.3615578,-0.0712 -1.0617355,-0.32293 -1.1534612,-0.41465 -0.033482,-0.0335 -0.07923,-0.0609 -0.101662,-0.0609 -0.1291053,0 -0.7946271,-0.51458 -1.1494905,-0.88878 -0.1571501,-0.16571 -0.6719265,-0.89621 -0.6719265,-0.9535 0,-0.0132 -0.0495406,-0.13218 -0.1100905,-0.26447 -0.14333052,-0.31316 -0.19765775,-0.49314 -0.30311015,-1.00415 -0.08030303,-0.38914 -0.08701927,-0.64834 -0.0876821,-3.38402 -6.1072e-4,-2.52044 0.0099032,-3.01021 0.07044802,-3.28164 0.11587498,-0.51949 0.21634636,-0.85236 0.32665986,-1.08226 0.057076,-0.11895 0.10377487,-0.22771 0.10377487,-0.24168 0,-0.0584 0.5125974,-0.78697 0.6719265,-0.95498 0.3548634,-0.3742 1.0203852,-0.88878 1.1494905,-0.88878 0.022432,0 0.067888,-0.027 0.1010137,-0.0601 0.1030017,-0.10278 0.8173374,-0.35402 1.1996883,-0.42194 0.5422616,-0.0963 6.3032601,-0.0945 6.8526011,0.002 1.755376,0.30893 3.213737,1.77378 3.540644,3.5564 0.09831,0.53608 0.09831,6.2551 0,6.79118 -0.326731,1.78167 -1.786214,3.24765 -3.540644,3.5564 -0.538298,0.0947 -6.4140091,0.091 -6.8981799,-0.004 z m 7.2091469,-0.66165 c 1.309797,-0.45744 2.166787,-1.33615 2.574458,-2.63974 l 0.106903,-0.34184 v -3.28164 c 0,-3.62327 0.01157,-3.46155 -0.296689,-4.14859 -0.473712,-1.05581 -1.264031,-1.75841 -2.415224,-2.14714 L 10.45685,283.34567 H 7.1296277 3.8024064 l -0.4429848,0.15342 c -1.0122951,0.35059 -1.7219003,0.95247 -2.2198309,1.88284 -0.22378929,0.41814 -0.35417813,0.8546 -0.41289527,1.38212 -0.0253051,0.22734 -0.045827,1.61142 -0.0460343,3.10475 -2.8015e-4,2.18562 0.0124727,2.76822 0.0676421,3.08458 0.26372707,1.51232 1.21819767,2.60032 2.71226557,3.0917 l 0.3874159,0.12742 3.3121954,0.002 3.3121949,0.002 0.402443,-0.14054 z"
       style="fill:#eeeeee;fill-opacity:1;stroke:none;stroke-width:0.05609167;stroke-miterlimit:4;stroke-dasharray:none;stroke-opacity:1" />
    <path
       style="fill:#dbe8ed;fill-opacity:1;stroke:#dbe8ed;stroke-width:0.05609167;stroke-miterlimit:4;stroke-dasharray:none;stroke-opacity:1"
       d="m 18.125034,296.14627 c -1.184655,-0.26765 -2.078314,-0.892 -2.661753,-1.85962 -0.230032,-0.38151 -0.45161,-1.07387 -0.504548,-1.57655 -0.05611,-0.53276 -0.05795,-4.86247 -0.0024,-5.67258 0.04648,-0.67807 0.122043,-1.0034 0.34077,-1.46722 0.522021,-1.10697 1.404818,-1.83296 2.594499,-2.13363 l 0.450233,-0.11379 h 3.042917 3.042918 l 0.449379,0.11654 c 0.491014,0.12734 1.072244,0.41115 1.471563,0.71856 0.581543,0.44768 1.123875,1.27811 1.329881,2.03634 0.104022,0.38286 0.105446,0.42221 0.121222,3.35001 0.01694,3.14475 0.0018,3.46254 -0.191301,4.01738 -0.214748,0.61699 -0.427481,0.96295 -0.889049,1.44585 -0.469188,0.49087 -0.967304,0.79775 -1.662902,1.02448 l -0.368133,0.11999 -3.236064,0.007 c -1.779836,0.004 -3.277086,-0.002 -3.327222,-0.0132 z"
       id="path1647"
       inkscape:connector-curvature="0" />
    <path
       style="fill:#eeeeee;fill-opacity:1;stroke:none;stroke-width:0.05609167;stroke-miterlimit:4;stroke-dasharray:none;stroke-opacity:1"
       d="m 17.897141,296.69709 c -0.361558,-0.0712 -1.061735,-0.32293 -1.153461,-0.41465 -0.03348,-0.0335 -0.07923,-0.0609 -0.101662,-0.0609 -0.129105,0 -0.794627,-0.51458 -1.14949,-0.88878 -0.157151,-0.16571 -0.671927,-0.89621 -0.671927,-0.9535 0,-0.0132 -0.04954,-0.13218 -0.11009,-0.26447 -0.143331,-0.31316 -0.197658,-0.49314 -0.303111,-1.00415 -0.0803,-0.38914 -0.08702,-0.64834 -0.08768,-3.38402 -6.1e-4,-2.52044 0.0099,-3.01021 0.07045,-3.28164 0.115875,-0.51949 0.216347,-0.85236 0.32666,-1.08226 0.05708,-0.11895 0.103775,-0.22771 0.103775,-0.24168 0,-0.0584 0.512597,-0.78697 0.671927,-0.95498 0.354863,-0.3742 1.020385,-0.88878 1.14949,-0.88878 0.02243,0 0.06789,-0.027 0.101014,-0.0601 0.103001,-0.10278 0.817337,-0.35402 1.199688,-0.42194 0.542262,-0.0963 6.30326,-0.0945 6.852601,0.002 1.755377,0.30893 3.213737,1.77378 3.540644,3.5564 0.09831,0.53608 0.09831,6.2551 0,6.79118 -0.326731,1.78167 -1.786214,3.24765 -3.540644,3.5564 -0.538298,0.0947 -6.414009,0.091 -6.89818,-0.004 z m 7.209147,-0.66165 c 1.309797,-0.45744 2.166787,-1.33615 2.574458,-2.63974 l 0.106903,-0.34184 v -3.28164 c 0,-3.62327 0.01157,-3.46155 -0.296689,-4.14859 -0.473712,-1.05581 -1.264031,-1.75841 -2.415224,-2.14714 l -0.387416,-0.13082 h -3.327222 -3.327221 l -0.442985,0.15342 c -1.012295,0.35059 -1.721901,0.95247 -2.219831,1.88284 -0.223789,0.41814 -0.354178,0.8546 -0.412895,1.38212 -0.02531,0.22734 -0.04583,1.61142 -0.04603,3.10475 -2.8e-4,2.18562 0.01247,2.76822 0.06764,3.08458 0.263727,1.51232 1.218198,2.60032 2.712266,3.0917 l 0.387416,0.12742 3.312195,0.002 3.312196,0.002 0.402442,-0.14054 z"
       id="path1649"
       inkscape:connector-curvature="0" />
  </g>
</svg>
