<?xml version="1.0" encoding="UTF-8" standalone="no"?>
<!-- Created with Inkscape (http://www.inkscape.org/) -->

<svg
   xmlns:dc="http://purl.org/dc/elements/1.1/"
   xmlns:cc="http://creativecommons.org/ns#"
   xmlns:rdf="http://www.w3.org/1999/02/22-rdf-syntax-ns#"
   xmlns:svg="http://www.w3.org/2000/svg"
   xmlns="http://www.w3.org/2000/svg"
   xmlns:xlink="http://www.w3.org/1999/xlink"
   xmlns:sodipodi="http://sodipodi.sourceforge.net/DTD/sodipodi-0.dtd"
   xmlns:inkscape="http://www.inkscape.org/namespaces/inkscape"
   width="108"
   height="108"
   viewBox="0 0 28.575 28.575"
   version="1.1"
   id="svg8"
   sodipodi:docname="increment.svg"
   inkscape:version="0.92.3 (2405546, 2018-03-11)">
  <defs
     id="defs2">
    <linearGradient
       inkscape:collect="always"
       id="linearGradient2367">
      <stop
         style="stop-color:#ff6400;stop-opacity:1"
         offset="0"
         id="stop2363" />
      <stop
         style="stop-color:#ffff00;stop-opacity:1"
         offset="1"
         id="stop2365" />
    </linearGradient>
    <clipPath
       id="clipPath5063"
       clipPathUnits="userSpaceOnUse">
      <rect
         transform="matrix(0.92122282,-0.38903536,0.32367982,0.94616667,0,0)"
         y="204.52045"
         x="62.990398"
         height="44.054543"
         width="97.085129"
         id="rect5065"
         style="fill:#c7740a;fill-opacity:1;stroke-width:1.04407191" />
    </clipPath>
    <clipPath
       id="clipPath5142"
       clipPathUnits="userSpaceOnUse">
      <text
         xml:space="preserve"
         style="font-style:normal;font-weight:normal;font-size:175.24552917px;line-height:1.25;font-family:sans-serif;letter-spacing:0px;word-spacing:0px;display:inline;fill:#f7ca05;fill-opacity:1;stroke:none;stroke-width:4.38113832"
         x="137.67905"
         y="243.14816"
         id="text5146"
         transform="matrix(0.91301871,0.39793872,-0.40116473,0.92042037,0,0)"><tspan
           sodipodi:role="line"
           id="tspan5144"
           x="137.67905"
           y="243.14816"
           style="font-style:normal;font-variant:normal;font-weight:normal;font-stretch:normal;font-family:'BadaBoom BB';-inkscape-font-specification:'BadaBoom BB';fill:#f7ca05;fill-opacity:1;stroke-width:4.38113832">1</tspan></text>
    </clipPath>
    <clipPath
       clipPathUnits="userSpaceOnUse"
       id="clipPath2351">
      <rect
         style="opacity:1;fill:#eeeeee;fill-opacity:1;stroke:#eeeeee;stroke-width:9.27272701;stroke-miterlimit:4;stroke-dasharray:none;stroke-opacity:1"
         id="rect2353"
         width="500.72726"
         height="500.72726"
         x="443.24863"
         y="16.140879"
         ry="184.16667" />
    </clipPath>
    <linearGradient
       inkscape:collect="always"
       xlink:href="#linearGradient2367"
       id="linearGradient2369"
       x1="35.75"
       y1="64.25"
       x2="68.5"
       y2="23.25"
       gradientUnits="userSpaceOnUse" />
    <filter
       inkscape:collect="always"
       style="color-interpolation-filters:sRGB"
       id="filter4070">
      <feBlend
         inkscape:collect="always"
         mode="luminosity"
         in2="BackgroundImage"
         id="feBlend4072" />
    </filter>
    <filter
       inkscape:collect="always"
       style="color-interpolation-filters:sRGB"
       id="filter6961"
       x="-0.025668448"
       width="1.0513369"
       y="-0.032801826"
       height="1.0656037">
      <feGaussianBlur
         inkscape:collect="always"
         stdDeviation="7.7547023"
         id="feGaussianBlur6963" />
    </filter>
    <filter
       inkscape:collect="always"
       style="color-interpolation-filters:sRGB"
       id="filter6357"
       x="-0.037223063"
       width="1.0744461"
       y="-0.048183523"
       height="1.096367">
      <feGaussianBlur
         inkscape:collect="always"
         stdDeviation="11.186718"
         id="feGaussianBlur6359" />
    </filter>
    <filter
       inkscape:collect="always"
       style="color-interpolation-filters:sRGB"
       id="filter5089"
       x="-0.025767138"
       width="1.0515343"
       y="-0.032642059"
       height="1.0652841">
      <feGaussianBlur
         inkscape:collect="always"
         stdDeviation="7.4261916"
         id="feGaussianBlur5091" />
    </filter>
    <filter
       inkscape:collect="always"
       style="color-interpolation-filters:sRGB"
       id="filter5437"
       x="-0.04480283"
       width="1.0896057"
       y="-0.057595324"
       height="1.1151906">
      <feGaussianBlur
         inkscape:collect="always"
         stdDeviation="12.791583"
         id="feGaussianBlur5439" />
    </filter>
    <filter
       inkscape:collect="always"
       style="color-interpolation-filters:sRGB"
       id="filter6161"
       x="-0.016317815"
       width="1.0326356"
       y="-0.017311551"
       height="1.0346231">
      <feGaussianBlur
         inkscape:collect="always"
         stdDeviation="3.7592667"
         id="feGaussianBlur6163" />
    </filter>
    <filter
       inkscape:collect="always"
       style="color-interpolation-filters:sRGB"
       id="filter6069"
       x="-0.059375219"
       width="1.1187505"
       y="-0.077400208"
       height="1.1548004">
      <feGaussianBlur
         inkscape:collect="always"
         stdDeviation="12.883461"
         id="feGaussianBlur6071" />
    </filter>
    <filter
       inkscape:collect="always"
       style="color-interpolation-filters:sRGB"
       id="filter5985"
       x="-0.05363474"
       width="1.1072695"
       y="-0.074589849"
       height="1.1491797">
      <feGaussianBlur
         inkscape:collect="always"
         stdDeviation="11.424182"
         id="feGaussianBlur5987" />
    </filter>
    <linearGradient
       inkscape:collect="always"
       xlink:href="#linearGradient2367"
       id="linearGradient1740"
       gradientUnits="userSpaceOnUse"
       x1="35.75"
       y1="64.25"
       x2="68.5"
       y2="23.25" />
  </defs>
  <sodipodi:namedview
     id="base"
     pagecolor="#ffffff"
     bordercolor="#666666"
     borderopacity="1.0"
     inkscape:pageopacity="0"
     inkscape:pageshadow="2"
     inkscape:zoom="1.4142136"
     inkscape:cx="1.2066775"
     inkscape:cy="-8.956364"
     inkscape:document-units="px"
     inkscape:current-layer="g2386"
     showgrid="false"
     units="px"
     showguides="false"
     inkscape:guide-bbox="true"
     inkscape:pagecheckerboard="true"
     inkscape:window-width="1600"
     inkscape:window-height="845"
     inkscape:window-x="0"
     inkscape:window-y="27"
     inkscape:window-maximized="1">
    <sodipodi:guide
       position="28.575,17.991667"
       orientation="0,1"
       id="guide819"
       inkscape:locked="false"
       inkscape:label=""
       inkscape:color="rgb(0,0,255)" />
  </sodipodi:namedview>
  <metadata
     id="metadata5">
    <rdf:RDF>
      <cc:Work
         rdf:about="">
        <dc:format>image/svg+xml</dc:format>
        <dc:type
           rdf:resource="http://purl.org/dc/dcmitype/StillImage" />
        <dc:title />
      </cc:Work>
    </rdf:RDF>
  </metadata>
  <g
     inkscape:label="Layer 1"
     inkscape:groupmode="layer"
     id="layer1"
     transform="translate(0,-268.425)">
    <g
       id="g2386"
       style="font-style:normal;font-weight:normal;font-size:40px;line-height:1.25;font-family:sans-serif;letter-spacing:0px;word-spacing:0px;fill:url(#linearGradient2369);fill-opacity:1;stroke:#000000;stroke-width:6.00000008;stroke-miterlimit:4;stroke-dasharray:none;stroke-dashoffset:20;stroke-opacity:1"
       transform="matrix(0.26458333,0,0,0.26458333,2.0073608,270.24766)"
       aria-label="+1">
      <path
         inkscape:connector-curvature="0"
         id="path856"
         d="M 44.79272,25.541586 H 89.698049 V 16.585879 L 84.699463,8.2206571 77.488389,3.69359 h -21.14156 l -7.129131,5.3143576 -4.015257,7.1842704 z"
         style="fill:#ffffff;fill-opacity:1;stroke:none;stroke-width:0.50799906px;stroke-linecap:butt;stroke-linejoin:miter;stroke-opacity:1" />
      <path
         sodipodi:nodetypes="ccccccccc"
         inkscape:connector-curvature="0"
         id="path858"
         d="M 44.464945,25.455125 V 35.51228 l 3.933313,7.895342 6.965243,4.699633 h 23.026273 l 7.129132,-4.793622 3.277762,-6.86143 0.409718,-10.997078 z"
         style="fill:#3ca370;fill-opacity:1;stroke:none;stroke-width:0.49645478px;stroke-linecap:butt;stroke-linejoin:miter;stroke-opacity:1" />
      <rect
         style="opacity:1;fill:#3bd300;fill-opacity:1;stroke:none;stroke-width:3.32565022;stroke-miterlimit:4;stroke-dasharray:none;stroke-dashoffset:20;stroke-opacity:1"
         id="rect860"
         width="41.177788"
         height="34.060989"
         x="46.636581"
         y="7.4457893"
         ry="10.616365" />
      <rect
         ry="13.317478"
         y="4.4414725"
         x="45.389263"
         height="43.388592"
         width="43.693886"
         id="rect862"
         style="opacity:1;fill:none;fill-opacity:1;stroke:#1d585a;stroke-width:2.66027284;stroke-miterlimit:4;stroke-dasharray:none;stroke-dashoffset:20;stroke-opacity:1" />
      <g
         aria-label="2"
         style="font-style:normal;font-variant:normal;font-weight:normal;font-stretch:normal;font-size:17.20667076px;line-height:1.25;font-family:JuneBug;-inkscape-font-specification:JuneBug;letter-spacing:0px;word-spacing:0px;fill:#000000;fill-opacity:1;stroke:none;stroke-width:0.86033356;stroke-miterlimit:4;stroke-dasharray:none"
         id="text866">
        <path
           d="m 73.865504,27.436205 q 0.02065,0.392313 -0.08259,0.991105 -0.0413,0.268424 -0.144536,0.970456 -0.103241,1.114992 -0.392313,4.336081 -1.176936,0.454256 -2.044152,0.681384 -1.527952,0.392312 -3.675345,0.846568 -1.527952,0.30972 -3.675345,0.784624 -0.247776,0.06194 -0.763976,-0.10324 -0.454256,-1.13564 -1.424712,-2.828776 -0.165184,-0.247776 -0.536848,-0.82592 -0.08259,-0.144537 0.392312,-1.114993 1.466008,-2.99396 2.106096,-4.501265 0.247776,-0.557496 0.61944,-1.734432 0.433609,-1.321472 0.433609,-1.672488 0,-0.681385 -0.970457,-0.681385 -0.702032,0 -1.775728,0.702033 -0.41296,0.268424 -0.61944,0.268424 -0.227128,0 -0.536848,-0.227128 0,-0.722681 0.10324,-2.168041 0.123888,-1.44536 0.123888,-2.16804 0,-0.784625 -0.10324,-1.404065 0.02065,-0.185832 0.268424,-0.392312 0.92916,-0.743328 1.569248,-0.991104 1.899617,-0.72268 3.634049,-0.72268 3.386273,0 5.017465,2.415816 1.053048,1.548601 1.053048,2.704889 v 2.209336 q 0,1.197585 -1.631192,4.542561 0.351016,0.0413 1.053048,-0.0413 0.805272,-0.10324 1.073696,-0.10324 0.598792,0 0.929161,0.227128 z"
           style="font-size:20.64800453px;fill:#ffffff;stroke:#000000;stroke-width:0.86033356;stroke-miterlimit:4;stroke-dasharray:none;stroke-opacity:1"
           id="path1770" />
      </g>
      <g
         id="g1738"
         style="fill:url(#linearGradient1740)"
         transform="matrix(0.14011392,0,0,0.14011392,19.693439,28.975444)">
        <path
           sodipodi:nodetypes="ccccc"
           inkscape:connector-curvature="0"
           id="path4883"
           d="m 273.7673,125.33687 c -24.73445,80.64403 -73.40635,87.61433 -73.40635,87.61433 l 35.84258,13.1138 74.19132,-77.4877 z"
           style="display:inline;fill:#ffffff;fill-opacity:1;stroke:none;stroke-width:0.5px;stroke-linecap:butt;stroke-linejoin:miter;stroke-opacity:1;enable-background:new" />
        <path
           sodipodi:nodetypes="ccccccc"
           inkscape:connector-curvature="0"
           id="path4012"
           d="m 665.44252,724.60305 -76.88888,7.88604 -186.30765,138.99143 76.88887,47.31623 209.7454,121.05345 82.46125,-33.416 z"
           style="display:inline;fill:#ffffff;stroke:none;stroke-width:1px;stroke-linecap:butt;stroke-linejoin:miter;stroke-opacity:1;filter:url(#filter4070);enable-background:new"
           transform="matrix(0.50000001,0,0,0.50000001,33.421338,-344.49371)" />
        <path
           sodipodi:nodetypes="ccccc"
           inkscape:connector-curvature="0"
           id="path4880"
           d="m 79.904173,1011.4577 -24.643869,90.6894 155.009946,-66.1688 -39.79986,-43.86604 c 0,0 -71.809527,15.26794 -90.566217,19.34544 z"
           style="display:inline;fill:#ffffff;stroke:none;stroke-width:1px;stroke-linecap:butt;stroke-linejoin:miter;stroke-opacity:1;filter:url(#filter4070);enable-background:new"
           transform="matrix(0.50000001,0,0,0.50000001,33.421338,-344.49371)" />
        <path
           inkscape:connector-curvature="0"
           id="path3773"
           d="m 357.30092,19.242926 c -0.92553,0.0237 -2.29949,0.162435 -4.49707,0.38379 -8.19635,0.825585 -10.1597,1.46258 -11.16894,3.625975 -2.86829,6.148441 -3.30303,6.810266 -5.56739,8.479496 -2.09608,1.54518 -2.375,1.969895 -2.375,3.61621 0,2.6033 3.09192,14.283725 8.9043,33.63672 5.20112,17.31779 5.83552,19.75 5.15137,19.75 -0.6356,0 -2.48805,-4.40765 -8.2334,-19.589845 -9.44268,-24.952465 -11.25413,-28.53131 -13.44043,-26.552735 -0.60428,0.54686 -2.05736,0.919905 -4.08203,1.04883 -2.96059,0.188515 -3.25116,0.105765 -4.98438,-1.416015 l -1.83984,-1.615235 -3.11328,1.548825 c -1.71199,0.85205 -8.15533,4.817625 -14.31934,8.8125 -10.64048,6.896065 -12.93853,8.19611 -11.5625,6.53809 0.33138,-0.39929 0.527,-1.0842 0.43555,-1.521485 -0.24793,-1.18538 -4.25798,1.39782 -16.63379,10.714845 -19.78719,14.89662 -20.25736,15.4327 -20.27246,23.112305 -0.007,3.745055 0.23445,5.486535 1.07617,7.75 1.40268,3.771933 1.76468,4.166293 7.41406,8.065433 10.00173,6.90307 15.88205,11.10963 16.39649,11.72949 0.38137,0.45952 0.33021,2.00173 -0.17774,5.38476 -0.95929,6.389 -0.93243,9.68982 0.085,10.53418 1.18811,0.98604 0.61998,3.91339 -2.09863,10.82032 -3.3586,8.53286 -7.31665,15.99847 -10.00488,18.87012 -1.2793,1.36655 -2.89481,3.39155 -3.58985,4.5 -0.69503,1.1084 -2.20807,3.2531 -3.3623,4.7656 -2.19395,2.87495 -6.24805,9.3401 -6.24805,9.9639 0,0.19895 -0.58456,0.9075 -1.29883,1.5742 -0.71426,0.6667 -1.74494,2.0834 -2.29101,3.14845 -1.10913,2.1632 -8.50461,9.7974 -13.27149,13.7002 -3.14577,2.57555 -7.81503,5.715 -12.38867,8.33005 -3.12658,1.7877 -3.01221,1.6732 2.53418,-2.53025 6.49523,-4.92255 8.4552,-6.61415 8.08692,-6.98245 -0.33212,-0.3321 -4.76119,2.7077 -5.8418,4.0098 -0.33152,0.3994 -2.17865,1.52795 -4.10547,2.5068 -3.30474,1.6789 -3.77773,1.7787 -8.33887,1.76955 -18.94686,-0.038 -39.60654,-8.2853 -60.93359,-24.3242 -3.39839,-2.55575 -9.00563,-7.0267 -12.45996,-9.93555 -3.45433,-2.9089 -6.77094,-5.47535 -7.37012,-5.70315 -3.20098,-1.217 -26.99046,-3.52335 -37.071286,-3.59375 -5.542305,-0.0385 -6.92331,0.11595 -9.375,1.0469 -2.838909,1.07795 -4.374999,2.15085 -4.374999,3.05565 0,0.25535 -0.836345,0.46385 -1.8584,0.46385 -1.022055,0 -2.81997,0.3676 -3.995115,0.8164 -2.598585,0.9924 -3.46177,2.6342 -6.802735,12.9336 -4.603892,14.19275 -16.843751,55.1684 -16.843751,56.3887 0,0.0507 0.02707,0.1236 0.07227,0.20995 0.09405,-0.0315 0.236081,-0.0691 0.313476,-0.0986 111.15978,96.59165 167.6571,81.00605 242.6621,39.49905 41.58745,-26.8984 66.91152,-98.9449 67.0127,-111.49905 1.29943,1.19385 2.66635,2.4813 4.07226,3.8223 1.2877,0.68565 2.8505,1.53255 4.6045,2.50485 l 7.38672,4.09475 4.8125,-1.57815 c 4.60048,-1.50855 28.47832,-12.4838 33.27343,-15.29395 1.40828,-0.8253 2.29004,-1.697 2.29004,-2.26465 0,-1.9859 -2.78407,-10.28726 -11.17285,-33.31248 -18.17778,-49.893768 -30.04304,-81.229848 -33.3418,-88.055663 -1.98851,-4.11466 -3.70795,-6.23827 -7.14355,-8.82422 -1.02853,-0.774165 -2.537,-2.59011 -3.35254,-4.035156 -0.81553,-1.44504 -2.05256,-3.163085 -2.74902,-3.81738 -0.79123,-0.74332 -1.08929,-1.021955 -2.63184,-0.982425 z"
           style="display:inline;fill:#f8f0d1;stroke:none;stroke-width:0.5;enable-background:new" />
        <path
           inkscape:connector-curvature="0"
           id="path3771"
           d="m 353.37514,21.235116 c -0.82577,0 -2.64589,0.34039 -4.04492,0.75586 -2.91641,0.86608 -4.92329,2.85551 -6.94824,6.887696 -0.71995,1.433595 -2.46324,4.17241 -3.87403,6.086915 -2.25976,3.0666 -2.55725,3.75099 -2.49316,5.75 0.0932,2.906235 2.87744,13.68542 7.23047,27.99414 1.88658,6.201345 4.58189,15.32539 5.98925,20.27539 1.40737,4.95 2.85647,9.675 3.22071,10.5 0.98455,2.229983 1.85762,6.019713 1.62988,7.074223 -0.24845,1.15042 -3.39258,-4.75237 -3.39258,-6.36914 0,-0.590273 -0.8737,-3.014858 -1.9414,-5.388678 -1.0677,-2.373825 -3.98975,-9.774445 -6.49414,-16.44531 -8.76033,-23.33459 -12.01356,-30.84915 -13.21192,-30.52051 -3.25308,0.892135 -6.70592,2.26472 -7.15234,2.842775 -1.07154,1.38747 -7.7002,-0.609095 -7.7002,-2.31934 0,-0.510085 -0.78353,-1.68702 -1.74121,-2.61523 l -1.74121,-1.6875 -2.625,1.213865 c -3.09048,1.430055 -35.12035,22.569305 -41.64258,27.4834 -2.475,1.86476 -5.23374,4.15551 -6.13086,5.09082 l -1.63183,1.70117 0.49902,4.80762 c 0.46306,4.465575 0.0969,10.7555 -0.78809,13.543945 -0.42287,1.33237 1.84356,3.536733 9.68262,9.416993 6.52144,4.89187 8.32445,6.68859 8.03516,8.00586 -0.0804,0.36586 0.45002,1.25582 1.17871,1.97754 2.66443,2.63896 2.39312,6.78492 -1.16699,17.80664 -11.16311,34.55969 -33.77305,64.85964 -58.42774,78.30079 -9.33779,5.0907 -17.63541,7.76685 -26.75,8.62595 -4.44869,0.41935 -3.90876,-0.21445 1.75,-2.0527 10.35789,-3.36485 24,-9.61635 24,-10.99805 0,-0.6031 -0.83543,-0.74655 -4.375,-0.75395 -18.3997,-0.0385 -38.57077,-7.95715 -61.125,-23.9951 -8.78322,-6.2456 -6.46645,-5.5436 -27.25,-8.2529 -16.30348,-2.12535 -29.334866,-2.64875 -34.658201,-1.39165 -1.0412,0.2459 -1.12527,0.4695 -0.831055,2.21095 0.399455,2.3644 0.07365,2.4105 -3.39355,0.4805 -2.608194,-1.45185 -2.628654,-1.4549 -5.867189,-0.76075 -1.7875,0.3831 -4.314595,0.70125 -5.61621,0.707 -2.3189,0.01 -2.391435,0.0586 -3.5625,2.38575 -0.657325,1.30625 -2.44818,6.2 -3.980469,10.875 -3.414459,10.4175 -14.340822,47.16515 -14.340822,48.23145 0,0.13305 0.173166,0.40405 0.493164,0.791 110.755652,96.00355 167.187372,80.40745 242.054682,38.9766 4.15223,-2.68565 8.13895,-5.82795 11.95801,-9.3096 2.65625,-2.4597 5.38118,-5.20465 8.09668,-8.13965 29.53086,-32.5726 46.87431,-83.66495 46.95801,-94.0498 1.00023,0.91895 2.0436,1.8985 3.10742,2.9053 1.38597,0.68745 3.28195,1.68745 5.37988,2.8545 3.94556,2.1948 7.41734,3.9902 7.71485,3.9902 3.47677,0 34.89451,-14.1572 37.74609,-17.0088 2.78394,-2.7839 1.50362,-6.81257 -23.59082,-74.241183 -6.39643,-17.187175 -16.66706,-42.30491 -19.93359,-48.75 -1.46983,-2.90007 -3.3577,-4.88773 -6.85547,-7.217775 -1.16651,-0.77707 -2.95873,-2.511835 -3.9834,-3.85547 -2.00562,-2.629946 -5.03511,-4.426756 -7.46289,-4.426756 z"
           style="display:inline;fill:#f8edb0;stroke:none;stroke-width:0.5;enable-background:new" />
        <path
           inkscape:connector-curvature="0"
           id="path3767"
           d="m 352.95131,22.952886 c -0.76418,-0.0172 -1.55897,0.09568 -2.43555,0.31641 -1.22267,0.30787 -2.90808,1.157145 -3.74511,1.887696 -1.39863,1.22069 -2.3772,2.830205 -8.19922,13.48242 l -1.99707,3.6543 0.58594,3.0957 c 0.87992,4.646065 4.23257,16.835805 7.79589,28.345705 6.57562,21.239925 10.72398,35.493743 10.73243,36.875003 0.0158,2.56762 -3.30026,-3.80198 -5.92188,-11.375003 -5.2589,-15.191285 -16.99408,-44.956935 -18.49707,-46.916995 l -0.89453,-1.16699 -3.56641,1.083005 c -3.33566,1.013175 -3.63443,1.223015 -4.61425,3.247075 -0.5762,1.19026 -1.39308,2.296915 -1.81543,2.458985 -1.7846,0.68482 -5.07548,0.269985 -6.73731,-0.84961 -1.52154,-1.025085 -1.73915,-1.466755 -2.08203,-4.232425 -0.27799,-2.24216 -0.72314,-3.45558 -1.625,-4.42871 -0.68318,-0.73716 -1.24219,-1.532735 -1.24219,-1.76758 0,-0.922095 -1.84824,-0.334265 -5.2207,1.66016 -9.48082,5.606745 -34.893,23.17796 -37.63574,26.023435 l -1.58008,1.63965 0.71094,3 c 0.94584,3.99447 0.91318,12.981035 -0.0674,18.689455 -0.43608,2.538678 -0.68281,4.903188 -0.54785,5.254878 0.13496,0.3517 2.97864,2.72222 6.31836,5.26758 3.33972,2.54536 6.98196,5.56403 8.09375,6.70801 1.96494,2.02183 2.01343,2.15693 1.7666,4.83008 -0.64514,6.98679 -6.84966,24.56962 -13.32129,37.74998 -8.18585,16.67165 -17.74776,30.1169 -29.39062,41.32815 -14.35141,13.81935 -31.29185,22.2519 -49.62598,24.70115 -5.75267,0.7685 -14.7947,0.9567 -15.19043,0.3164 -0.13737,-0.22225 1.605,-0.6722 3.87207,-1 6.05467,-0.8754 17.42418,-3.7709 23.10547,-5.88475 6.36567,-2.3685 13.612,-5.7589 15.21289,-7.1172 l 1.25,-1.06055 -3.27051,-0.0165 c -5.18072,-0.0265 -14.76339,-1.433 -20.47949,-3.0068 -9.77049,-2.69015 -18.94407,-6.72205 -30.75,-13.5137 l -5.5,-3.16405 -5.5,-0.37695 c -6.58174,-0.45145 -18.54809,-1.68205 -23.75,-2.4424 -7.92562,-1.15845 -14.92368,-1.97775 -19.25,-2.2539 -2.475,-0.158 -5.79636,-0.40525 -7.38086,-0.54885 -2.268461,-0.20555 -2.941701,-0.10135 -3.167966,0.4883 -0.289535,0.7545 1.712675,3.68955 4.912106,7.2002 8.2247,9.02475 25.22699,19.9606 41.81641,26.8955 2.57403,1.07605 4.36296,2.0202 3.97461,2.09865 -1.26932,0.25635 -10.92131,-3.3933 -16.85156,-6.3721 -9.69379,-4.8692 -14.10036,-8.0072 -31.552736,-22.46875 -4.8125,-3.98775 -9.41154,-7.7894 -10.219725,-8.4482 -1.41881,-1.15665 -1.642705,-1.18435 -6.499999,-0.79785 -2.766815,0.22015 -6.942775,0.4108 -9.280275,0.42285 l -4.25,0.0215 -1.589845,4 c -1.762125,4.43345 -6.559997,19.6853 -12.425781,39.5 l -3.848633,13 C 70.683845,255.5869 88.174489,268.875 104.422,279.287 c 1.47705,0.94655 2.94362,1.8692 4.4004,2.76855 2.91379,1.7988 5.787,3.50325 8.62304,5.1172 1.41791,0.8069 2.82627,1.59085 4.22559,2.3525 6.99682,3.80855 13.76413,7.05525 20.33789,9.78225 1.31471,0.54535 2.62144,1.0701 3.9209,1.5742 4.54839,1.7645 9.00484,3.27785 13.38183,4.5547 1.25049,0.3648 2.49467,0.71065 3.73242,1.0371 1.23776,0.32645 2.46876,0.6331 3.69434,0.9219 3.06395,0.722 6.09101,1.3275 9.08496,1.82125 0.59879,0.0988 1.19579,0.19335 1.79199,0.28325 1.78893,0.26965 3.56616,0.4992 5.33301,0.6904 1.1777,0.12745 2.34997,0.23765 3.51856,0.33105 21.03497,1.6816 40.63952,-2.0983 60.44238,-9.42185 2.20028,-0.81375 4.40295,-1.67175 6.61035,-2.57035 6.62247,-2.6958 13.28677,-5.76125 20.05371,-9.12595 2.2553,-1.1214 4.52246,-2.27575 6.80274,-3.46095 4.56108,-2.3706 9.17644,-4.8638 13.86425,-7.458 0.60599,-0.39195 1.20759,-0.79625 1.80664,-1.20705 0.36027,-0.24755 0.71751,-0.5025 1.0752,-0.7568 0.22399,-0.15885 0.44888,-0.3152 0.67187,-0.4766 0.50857,-0.36905 1.01414,-0.74505 1.51758,-1.12695 0.0314,-0.0235 0.0634,-0.0465 0.0947,-0.0703 0.009,-0.007 0.0183,-0.0135 0.0274,-0.0205 0.54702,-0.41635 1.09075,-0.84085 1.63183,-1.2715 0.008,-0.006 0.0164,-0.012 0.0244,-0.0185 10e-4,0 0.002,0 0.004,-0.005 3.26452,-2.82375 6.63416,-6.05045 10.3711,-9.88375 3.34382,-3.4301 6.50315,-6.9322 9.5039,-10.5342 0.001,0 0.002,-0.005 0.003,-0.005 0.006,-0.008 0.0108,-0.015 0.0166,-0.0225 0.76006,-0.9669 1.51011,-1.9449 2.25098,-2.93165 0.0458,-0.0609 0.092,-0.12155 0.13769,-0.1826 0.74971,-1.0013 1.48998,-2.01135 2.21973,-3.03025 0.007,-0.01 0.0137,-0.019 0.0205,-0.0285 0.0149,-0.021 0.029,-0.0425 0.0439,-0.0635 0.73766,-1.0313 1.46561,-2.0705 2.18261,-3.1172 0.72732,-1.0617 1.44359,-2.1303 2.14942,-3.20505 0.004,-0.006 0.009,-0.0125 0.0127,-0.0185 0.007,-0.0115 0.0149,-0.0225 0.0224,-0.034 0.70209,-1.0698 1.39365,-2.1457 2.07421,-3.2256 0.67736,-1.0748 1.34323,-2.15425 1.99903,-3.23635 0.0102,-0.017 0.0211,-0.033 0.0312,-0.05 0.0175,-0.029 0.0342,-0.058 0.0518,-0.0869 1.29933,-2.1474 2.55547,-4.307 3.76855,-6.4668 0.0297,-0.0527 0.0593,-0.1054 0.0889,-0.1582 0.41168,-0.73425 0.81229,-1.46815 1.21386,-2.20215 0.4262,-0.7791 0.84603,-1.55715 1.26075,-2.33495 0.28137,-0.5277 0.56476,-1.0553 0.84082,-1.58205 0.55484,-1.05875 1.09863,-2.115 1.63183,-3.16795 0.25572,-0.50495 0.50613,-1.0076 0.75684,-1.51075 0.46805,-0.9395 0.9304,-1.87665 1.38086,-2.8086 0.24563,-0.50815 0.48522,-1.01305 0.72558,-1.51855 0.38198,-0.8034 0.75739,-1.60365 1.12598,-2.3994 0.2256,-0.487 0.4523,-0.97425 0.67285,-1.458 0.39135,-0.8585 0.77112,-1.70855 1.14649,-2.5557 0.23849,-0.53815 0.47698,-1.07625 0.70898,-1.60935 0.43614,-1.00235 0.86335,-1.99705 1.27637,-2.9795 0.18968,-0.45115 0.37186,-0.89525 0.55664,-1.3418 0.31736,-0.7671 0.62885,-1.5287 0.93164,-2.28125 0.17644,-0.43845 0.35198,-0.8764 0.52344,-1.30955 0.32351,-0.8175 0.63669,-1.62155 0.94238,-2.41895 0.12573,-0.32795 0.25719,-0.663 0.37988,-0.9873 0.40594,-1.07325 0.79352,-2.12515 1.16602,-3.15625 0.1241,-0.3435 0.23998,-0.67615 0.36035,-1.01465 0.24919,-0.70095 0.49251,-1.3928 0.72559,-2.0713 0.13897,-0.4045 0.27499,-0.80505 0.4082,-1.2012 0.24108,-0.71705 0.47321,-1.42005 0.69531,-2.1084 0.0788,-0.2442 0.16187,-0.49585 0.23828,-0.7363 0.29428,-0.92625 0.57072,-1.8238 0.8291,-2.6914 0.0742,-0.2491 0.13973,-0.48255 0.21094,-0.72655 0.18872,-0.64675 0.36943,-1.28085 0.53711,-1.89065 0.0711,-0.2584 0.13976,-0.51115 0.20703,-0.7627 0.1601,-0.59875 0.30883,-1.17705 0.44727,-1.73535 0.0475,-0.19145 0.0986,-0.38965 0.14355,-0.57615 0.17553,-0.729 0.33455,-1.4263 0.47071,-2.07715 0.0161,-0.0767 0.0275,-0.14325 0.0429,-0.21875 0.11526,-0.56215 0.21415,-1.0907 0.29883,-1.5889 0.0576,-0.3387 0.1139,-0.67355 0.15722,-0.98145 0.004,-0.03 0.01,-0.0632 0.0137,-0.0927 0.0514,-0.37385 0.0883,-0.7154 0.11816,-1.041 0.008,-0.0877 0.015,-0.17275 0.0215,-0.25685 0.024,-0.31335 0.0419,-0.61265 0.0439,-0.875 0.86546,0.7951 1.75962,1.6311 2.67286,2.4922 0.002,0 0.004,0.005 0.006,0.005 1.25278,0.59635 3.15333,1.6263 6.12011,3.28025 l 7.22461,4.02735 4.83301,-1.59275 c 5.21353,-1.71805 25.54136,-11.00465 30.1582,-13.77735 l 2.82422,-1.6963 0.34766,-3.458 c 0.32998,-3.28582 0.21786,-3.84155 -2.24024,-11.10645 -2.96385,-8.7592 -20.49873,-56.574543 -24.72574,-67.423833 -4.47383,-11.482825 -16.20713,-38.66901 -17.95019,-41.59082 -1.06956,-1.79284 -2.38568,-3.14769 -4.04102,-4.15918 -1.35014,-0.825 -4.07606,-3.001855 -6.05762,-4.83789 -3.16009,-2.928026 -5.18108,-4.142801 -7.47363,-4.194341 z M 327.69252,147.23512 c 0.275,0 0.5,0.225 0.5,0.5 0,0.275 -0.225,0.5 -0.5,0.5 -0.275,0 -0.5,-0.225 -0.5,-0.5 0,-0.275 0.225,-0.5 0.5,-0.5 z"
           style="display:inline;fill:#f1d18f;stroke:none;stroke-width:0.5;enable-background:new" />
        <path
           inkscape:connector-curvature="0"
           id="path3759"
           d="m 352.90834,25.427497 c -1.49772,-0.05483 -2.88196,0.511775 -4.27343,1.68262 -1.92999,1.62398 -2.82544,3.453315 -5.69043,11.625 -1.30161,3.7125 -2.70743,7.29265 -3.12403,7.956055 -1.58763,2.528195 -0.37907,7.747465 8.45899,36.543945 2.48984,8.1125 5.05129,16.37227 5.69238,18.354493 1.74549,5.39704 4.36415,16.16905 4.01562,16.51758 -0.16797,0.16798 -0.62804,-0.12828 -1.02246,-0.65821 -1.00965,-1.35651 -5.09364,-10.9773 -7.30761,-17.21386 -2.70436,-7.617963 -10.5047,-28.401473 -12.917,-34.416018 -3.70774,-9.24446 -4.8913,-11.04034 -6.32714,-9.604495 -0.26366,0.263655 -1.71453,0.79519 -3.22461,1.181645 -2.45927,0.629375 -2.79823,0.87909 -3.2461,2.395505 -0.88506,2.996665 -1.06687,3.104865 -4.69531,2.785155 -4.19239,-0.369405 -7.90621,-1.50461 -9.72266,-2.97168 -1.27814,-1.032295 -1.3743,-1.316475 -0.9707,-2.87402 0.40459,-1.561365 0.26329,-1.971 -1.45508,-4.237305 -1.04627,-1.37991 -1.90329,-2.79004 -1.90429,-3.13379 -0.006,-1.85473 -3.47787,0.05846 -18.15918,10.006835 -8.9508,6.065255 -14.57074,10.218205 -16.23438,11.99707 -0.9841,1.052255 -1.06624,1.41729 -0.59668,2.652345 0.89958,2.366065 1.98502,10.69958 1.94922,14.96875 -0.0372,4.434425 -0.3973,7.122305 -1.72266,12.875003 -1.05678,4.58697 -1.22079,4.28019 4.76172,8.89746 6.34751,4.89896 6.52577,5.12647 6.17188,7.8623 -0.7734,5.97881 -6.04841,21.75163 -11.24219,33.61524 -11.29318,25.79588 -30.35476,48.92743 -49.83301,60.47263 -1.84079,1.0911 -6.3122,3.35555 -9.93652,5.03225 -11.81455,5.46575 -28.23892,8.21675 -42.12207,7.0547 -24.65727,-2.0639 -42.75043,-10.48665 -67.78809,-31.55665 -8.326586,-7.0071 -7.412971,-6.62395 -14.749996,-6.19725 -3.437499,0.1999 -8.784229,0.31435 -11.881834,0.2539 l -5.631835,-0.1094 -1.024415,2.3887 c -1.243207,2.90025 -6.578053,19.96285 -11.529299,36.87305 l -3.649414,12.4619 4.733399,4.458 c 0.120028,0.11305 0.24395,0.224 0.364259,0.3369 107.545515,91.3431 163.408525,75.5975 237.166985,34.7803 0.64512,-0.41725 1.28657,-0.8456 1.92383,-1.2842 10.00301,-7.81945 20.25518,-18.31735 28.88965,-29.50095 11.5948,-16.0156 20.68436,-34.1338 26.86133,-49.3223 2.75209,-6.9998 5.24739,-14.1529 7.33008,-21.1416 0.10784,-0.36185 0.17798,-0.5859 0.2832,-0.9375 1.11636,-4.19695 1.70946,-7.43245 1.72461,-9.3125 0.61855,0.5683 1.25923,1.16735 1.90234,1.76955 0.71627,0.34045 1.69094,0.83995 2.76075,1.42285 2.07675,1.1316 5.49624,2.9952 7.59863,4.1406 l 3.82324,2.08205 5.05176,-1.65525 c 5.91882,-1.93905 26.56218,-11.45255 30.27246,-13.9512 0.65051,-0.4381 1.08718,-2.4195 1.83008,-8.30858 0.28415,-2.25251 -1.62208,-8.21554 -8.94825,-28 -2.34214,-6.325 -6.32096,-17.125 -8.84179,-24 -5.96884,-16.278633 -11.0459,-29.025188 -15.63379,-39.250003 -2.03599,-4.5375 -5.03486,-11.396025 -6.66406,-15.24121 -3.88634,-9.172365 -5.16348,-11.02488 -9.14844,-13.26758 -1.75267,-0.986385 -4.34017,-2.770285 -5.75,-3.963865 -2.55856,-2.16611 -4.67201,-3.26447 -6.59766,-3.334965 z M 327.40737,145.98512 c 0.50964,0 1.16809,0.38365 1.46386,0.85254 0.42345,0.67131 0.28894,1.11754 -0.63183,2.09765 -0.93557,0.99587 -1.40933,2.62462 -2.3711,8.14744 -4.09375,23.50805 -12.70993,51.6574 -21.43457,70.02735 -1.46934,3.09375 -2.77607,5.625 -2.90332,5.625 -0.12724,0 1.22415,-3.65625 3.00293,-8.125 8.44053,-21.2047 16.11256,-48.2978 21.27344,-75.12498 0.54482,-2.83208 0.8508,-3.5 1.60059,-3.5 z m -143.81641,58.19043 -4.32422,1.01365 c -5.5773,1.30795 -13.39211,2.3933 -20.32422,2.8213 -6.14453,0.37935 -22.88987,-0.45505 -29.16211,-1.4531 -2.24814,-0.35775 -4.08789,-0.5725 -4.08789,-0.4766 0,0.53305 7.89892,5.1492 12.68653,7.4141 8.74321,4.1361 19.14708,7.15465 27.31347,7.9238 1.2375,0.11655 4.95,0.0814 8.25,-0.0781 3.3,-0.15955 7.04876,-0.3039 8.33106,-0.32035 1.3702,-0.0175 2.09172,-0.2006 1.75,-0.44335 -0.33753,-0.23975 0.0896,-0.33095 1.01758,-0.21775 0.87922,0.1072 1.50605,0.045 1.39257,-0.1387 -0.307,-0.4967 5.1479,-1.61275 5.82813,-1.19235 0.3883,0.23995 0.45023,0.14335 0.18359,-0.2881 -0.30218,-0.48895 -0.0779,-0.58775 0.90723,-0.3994 0.811,0.155 1.19002,0.057 0.99609,-0.25685 -0.19187,-0.31045 0.10535,-0.39655 0.7666,-0.22365 0.69134,0.1808 0.96074,0.091 0.75,-0.25 -0.21074,-0.34095 0.0587,-0.4308 0.75,-0.25 0.69134,0.1808 0.96074,0.091 0.75,-0.25 -0.21074,-0.34095 0.0587,-0.4308 0.75,-0.25 0.69134,0.1808 0.96074,0.091 0.75,-0.25 -0.21074,-0.34095 0.0587,-0.4308 0.75,-0.25 0.59338,0.1552 0.95197,0.0775 0.79786,-0.17185 -0.25665,-0.4153 0.58192,-0.6443 2.14843,-0.5879 0.34099,0.012 0.49648,-0.17795 0.34571,-0.4219 -0.25138,-0.4067 0.59752,-0.63415 2.15429,-0.5781 0.34078,0.012 0.47263,-0.21615 0.29297,-0.50685 -0.20357,-0.32935 -0.0127,-0.40795 0.50586,-0.20895 0.47493,0.1822 0.83203,0.076 0.83203,-0.24805 0,-0.31225 0.13933,-0.42905 0.30957,-0.2588 0.17024,0.17025 0.64924,-0.03 1.06446,-0.4453 0.41522,-0.41525 1.07547,-0.63165 1.46679,-0.48145 0.45099,0.17305 0.58043,0.0605 0.35352,-0.30665 -0.24125,-0.39035 -0.0782,-0.4719 0.5,-0.25 0.57821,0.22185 0.74125,0.14035 0.5,-0.25 -0.24125,-0.39035 -0.0782,-0.4719 0.5,-0.25 0.47189,0.18105 0.74081,0.13985 0.59765,-0.0918 -0.14315,-0.23165 0.35101,-0.7333 1.09864,-1.11425 1.34568,-0.68575 1.33429,-0.6939 -1.14063,-0.8164 -5.33155,-0.26395 -13.72468,-1.27215 -13.50781,-1.62305 0.12537,-0.20285 -0.36198,-0.2568 -1.08203,-0.11915 -0.8011,0.15315 -1.18919,0.0561 -1,-0.25 0.18919,-0.30615 -0.1989,-0.40315 -1,-0.25 -0.72005,0.13765 -1.18623,0.049 -1.03613,-0.19725 0.1501,-0.24615 -0.60104,-0.4814 -1.66993,-0.5225 -1.06889,-0.041 -3.54431,-0.56025 -5.5,-1.1543 z m -25.94043,16.6211 c -0.1737,-0.007 -0.37129,0.0245 -0.55176,0.0966 -0.39886,0.15965 -0.28071,0.27875 0.30176,0.30275 0.52708,0.0215 0.8224,-0.0965 0.65625,-0.2627 -0.0831,-0.083 -0.23255,-0.12955 -0.40625,-0.1367 z m 24,0.5 c -0.1737,-0.007 -0.37129,0.0245 -0.55176,0.0966 -0.39886,0.15965 -0.28071,0.27875 0.30176,0.30275 0.52708,0.0215 0.8224,-0.0965 0.65625,-0.2627 -0.0831,-0.083 -0.23255,-0.12955 -0.40625,-0.1367 z m -21.45801,0.005 c -0.22656,0 -0.45312,0.035 -0.625,0.1045 -0.34375,0.1387 -0.0625,0.25195 0.625,0.25195 0.6875,0 0.96875,-0.11325 0.625,-0.25195 -0.17187,-0.0694 -0.39844,-0.1045 -0.625,-0.1045 z m 3.5,0.4961 c -0.31718,0 -0.63437,0.032 -0.875,0.0947 -0.48125,0.12575 -0.0875,0.2285 0.875,0.2285 0.9625,0 1.35625,-0.10275 0.875,-0.2285 -0.24062,-0.0629 -0.55781,-0.0947 -0.875,-0.0947 z m 14.45801,0 c -0.1737,-0.007 -0.37129,0.0245 -0.55176,0.0967 -0.39886,0.1596 -0.28071,0.27775 0.30176,0.30175 0.52708,0.0215 0.8224,-0.0956 0.65625,-0.26175 -0.0831,-0.0831 -0.23255,-0.12955 -0.40625,-0.1367 z m -7.45801,0.49415 c -0.49843,0 -0.99687,0.0285 -1.375,0.0859 -0.75625,0.11455 -0.1375,0.209 1.375,0.209 1.5125,0 2.13125,-0.0944 1.375,-0.209 -0.37812,-0.0573 -0.87656,-0.0859 -1.375,-0.0859 z"
           style="display:inline;fill:#f1c971;stroke:none;stroke-width:0.5;enable-background:new" />
        <path
           inkscape:connector-curvature="0"
           id="path3755"
           d="m 639.17323,743.42052 c -4.27476,-0.0849 -8.02127,2.50067 -10.84961,7.70898 -1.44218,2.65575 -4.64693,10.7831 -7.12109,18.06055 -2.47415,7.27745 -5.43352,14.54684 -6.57813,16.1543 -1.14461,1.60745 -2.07726,4.42748 -2.07226,6.26757 0.0166,6.09792 3.95401,20.40479 19.49804,70.84571 18.3925,59.68431 22.53374,76.09689 17.11328,67.82422 -2.40887,-3.6764 -10.29544,-22.12392 -15.10156,-35.32422 -18.94369,-52.03002 -29.87278,-80.05622 -33.19141,-85.12109 l -1.46093,-2.23047 -6.1836,2.92383 c -3.40089,1.6089 -6.96626,2.9273 -7.92187,2.92773 -0.9556,4.3e-4 -2.81281,1.6875 -4.12891,3.75 -4.93304,7.73076 -9.66154,10.39171 -18.46679,10.39258 -3.92806,3.9e-4 -6.23925,-0.61073 -8.76758,-2.32031 -3.4268,-2.31711 -8.39844,-10.61118 -8.39844,-14.00977 0,-0.98725 -1.52642,-3.79543 -3.39258,-6.24023 -1.86616,-2.44481 -4.17816,-6.49786 -5.13672,-9.00782 -0.95856,-2.50995 -2.11143,-4.56445 -2.5625,-4.56445 -2.21656,0 -31.78683,19.52511 -43.17773,28.50977 -4.64405,3.66302 -5.59271,4.88479 -4.86328,6.26953 1.87867,3.56649 4.28965,18.13485 4.83593,29.2207 0.67507,13.69939 -0.85004,28.7967 -4.27539,42.29883 -1.36711,5.38888 -2.18697,10.28173 -1.82031,10.875 0.69662,1.12715 6.20435,6.2368 10.25196,9.51172 2.29593,1.85764 2.32826,2.10114 1.23242,9.16406 -0.61915,3.99047 -3.99358,15.89448 -7.49805,26.45312 -11.52253,34.71634 -24.6445,62.59114 -41.04687,87.19724 -10.4316,15.6491 -31.56099,40.751 -42.26563,50.2129 -15.4332,13.6415 -34.29035,26.3196 -47.28516,31.7891 -3.26652,1.3748 -8.53843,3.8147 -11.71679,5.4238 -5.63954,2.855 -25.16942,7.7424 -39.7793,9.9531 -12.51925,1.8944 -28.69459,2.3645 -41,1.1934 -40.77938,-3.881 -73.9453,-17.8296 -116.26758,-48.9004 -5.9033,-4.3339 -11.85742,-8.5885 -13.23242,-9.4551 -1.92495,-1.2131 -8.71051,-1.9355 -29.5,-3.1406 -14.849997,-0.8608 -29.886277,-2.0794 -33.414057,-2.707 -5.7892,-1.03 -6.542,-0.9675 -7.720706,0.6445 -1.590123,2.1746 -10.508682,29.9908 -20.814453,64.9141 l -7.65039,25.9257 2.298828,2.1817 c 4.241937,4.0223 8.523904,7.9491 12.824219,11.8281 211.651689,177.7102 322.766229,146.0991 469.072259,65.1348 0.84908,-0.5492 1.68897,-1.1237 2.53125,-1.6914 20.22844,-15.6093 43.37767,-39.3653 61.43946,-63.1621 22.41124,-31.6875 39.98479,-67.0922 51.93164,-96.7129 5.28744,-13.5417 10.11223,-27.4602 14.27929,-41.4278 0.0871,-0.2919 0.1654,-0.5356 0.25196,-0.8242 2.33303,-8.6752 3.5608,-15.3343 3.59179,-19.1797 1.10516,1.0154 2.254,2.0926 3.39844,3.1621 2.48705,1.2397 7.89268,4.0976 13.99414,7.4121 l 14.86328,8.0743 9.90625,-3.1407 c 10.02033,-3.1765 51.01377,-21.9539 57.95118,-26.5449 3.45969,-2.2895 3.76818,-2.8746 3.80078,-7.2265 0.0195,-2.6047 0.67882,-5.86137 1.46484,-7.23637 0.78602,-1.375 1.44534,-3.47492 1.46484,-4.66602 0.0593,-3.62639 -8.85599,-29.41808 -27.93945,-80.83398 -21.03854,-56.68344 -25.64835,-68.29809 -35.5332,-89.52539 -3.97632,-8.53899 -10.97042,-24.24994 -15.54297,-34.91211 -4.57255,-10.66217 -9.71213,-21.22578 -11.42188,-23.47461 -2.02507,-2.66358 -5.79882,-5.53636 -10.82617,-8.24219 -4.24455,-2.28451 -9.33875,-5.57657 -11.32031,-7.31641 -3.78059,-3.31939 -7.42519,-5.00036 -10.75,-5.0664 z m -50.86524,235.87695 c 0.56906,-0.005 1.19421,0.27589 1.91797,0.73243 3.77117,2.37879 3.95477,4.23933 0.70508,7.16015 -2.77057,2.49018 -3.30217,3.97145 -5.29101,14.76755 -9.89651,53.7219 -28.07742,111.4551 -47.10352,149.5781 -5.99421,12.0108 -14.05543,25.9712 -12.6582,21.9219 0.28468,-0.825 3.86426,-8.925 7.95508,-18 19.66614,-43.627 34.75428,-92.549 46.60742,-151.125 3.97419,-19.6397 5.40128,-25.01548 7.86718,-25.03513 z M 103.22596,1144.9029 c 0.26976,-0.031 0.63375,0.5976 1.19141,1.9571 0.65463,1.5958 1.02707,3.3933 0.82617,3.9961 -0.56466,1.6939 -2.88103,-3.2806 -2.42187,-5.2012 0.11409,-0.4772 0.24244,-0.7332 0.40429,-0.752 z m -33.898427,7.6641 c 4.22029,-0.132 9.29075,2.2024 11.70703,6.875 1.99738,3.8625 1.10581,9.4846 -1.83008,11.541 -2.67586,1.8743 -3.26131,1.8402 -8.39063,-0.4883 -4.864203,-2.2081 -8.262074,-7.0292 -8.267574,-11.7304 -0.0047,-4.045 3.057458,-6.0808 6.781254,-6.1973 z"
           style="display:inline;fill:#e5b155;stroke:none;filter:url(#filter6961);enable-background:new"
           transform="matrix(0.50000001,0,0,0.50000001,33.421338,-344.49371)" />
        <path
           inkscape:connector-curvature="0"
           id="path3751"
           d="m 642.74549,753.59435 c -4.43849,0.18463 -6.77498,4.35715 -8.18945,13.36328 -1.67306,10.65252 -1.77918,11.17453 -3.53125,17.29297 -1.86926,6.52763 -6.48148,15.24951 -10.50586,19.86523 -2.5115,2.88052 -2.67841,3.55682 -1.90234,7.71094 1.47301,7.88465 3.66902,15.59113 13.04101,45.76953 5.01497,16.14854 10.64903,34.31133 12.51954,40.36133 5.56409,17.99658 14.36523,50.58858 14.36523,53.19531 0,1.50065 -0.41607,2.16493 -1.09375,1.7461 -2.54032,-1.57001 -14.38458,-30.58702 -30.58984,-74.94141 -13.63156,-37.31007 -19.67566,-52.85511 -21.83985,-56.16992 l -1.41797,-2.16992 -5.27929,2.8457 c -6.47273,3.48762 -22.3638,7.71583 -33.7793,8.98828 -4.675,0.52111 -11.33042,1.63492 -14.78906,2.47461 -7.52951,1.82801 -9.52368,1.21539 -18.75391,-5.75977 -7.83561,-5.92127 -9.17769,-8.35963 -7.56445,-13.74414 1.30746,-4.36393 1.15826,-14.96484 -0.21094,-14.96484 -1.20043,0 -14.45593,8.64085 -19.3457,12.61133 -3.74392,3.04007 -4.07564,3.65949 -3.28125,6.13476 1.39772,4.35514 4.94531,29.46272 4.94531,35 0,4.08976 0.3522,5.11322 1.89844,5.51758 1.04399,0.273 2.68159,1.69258 3.64062,3.15625 2.13998,3.26602 0.85598,6.98828 -3.02344,8.75586 -2.10644,0.95976 -2.51562,1.82831 -2.51562,5.35352 0,6.30099 -2.6858,20.8478 -5.67188,30.72461 -2.14532,7.09599 -2.4352,9.2172 -1.53124,11.20117 1.50231,3.29719 -0.48423,12.60793 -6.7129,31.44531 -11.3416,34.30043 -27.99894,71.33128 -39.85156,88.59958 -9.62679,14.0255 -11.87749,16.8805 -27.32226,34.6641 -20.67741,23.8086 -41.77456,40.2194 -64.81836,50.4199 -5.27595,2.3355 -11.04062,5.6355 -12.8125,7.332 -2.56273,2.4538 -4.09657,3.0878 -7.5,3.1016 -2.35312,0.01 -7.4293,0.7069 -11.2793,1.5488 -33.33009,7.2891 -56.29341,7.9265 -84,2.336 -23.17544,-4.6763 -50.19182,-16.1899 -76.66016,-32.6719 l -12.66211,-7.8848 -10.33789,-1.2363 c -5.6865,-0.6803 -12.70221,-1.6902 -15.58984,-2.2441 -2.88762,-0.5539 -14.36262,-1.8499 -25.5,-2.8789 -11.137367,-1.0291 -24.464667,-2.5656 -29.615227,-3.4161 -5.15056,-0.8504 -9.733964,-1.3181 -10.185551,-1.039 -1.206229,0.7455 -8.988826,25.337 -17.326172,54.7461 l -7.308594,25.7793 16.09375,14.8847 c 7.105197,6.5723 14.277867,12.8777 21.527347,18.9727 27.118357,21.5066 52.545827,39.4039 76.617177,54.1133 12.9212,7.5573 26.2267,14.6606 40.03125,21.3359 4.75226,2.298 8.84621,4.5849 10.81641,5.9766 121.20293,55.6061 208.84921,24.0299 314.37109,-34.0254 9.66661,-6.701 18.78526,-14.7634 31.0918,-26.7735 30.61514,-29.8776 51.01494,-58.4794 71.08789,-99.6699 13.01256,-26.7023 22.37261,-51.2725 33.56836,-88.1211 0.14876,-0.4896 0.29759,-0.9145 0.44727,-1.3828 0.7289,-3.7026 1.13717,-6.7422 1.15429,-8.8672 0.56196,0.5163 1.15633,1.0771 1.72852,1.6074 0.0596,-0.064 0.11445,-0.1074 0.15625,-0.1074 0.45518,0 5.23368,2.495 10.61914,5.5449 11.6776,6.6133 17.89395,9.4551 20.6875,9.4551 5.23565,0 18.85641,-5.0007 37.17188,-13.6484 10.99132,-5.1896 21.84761,-10.5287 24.125,-11.8633 l 4.14062,-2.4258 -0.043,-6.2812 c -0.0418,-6.10196 2.54606,-13.58376 5.2832,-15.27541 1.24067,-0.76677 0.7321,-3.25452 -3.16015,-15.50586 -3.77133,-11.87074 -6.4108,-19.16123 -24.26367,-67 -18.43286,-49.39295 -20.69028,-54.94717 -30.88477,-76 -4.66076,-9.625 -10.565,-22.45 -13.12109,-28.5 -15.76334,-37.31012 -16.73637,-38.85654 -26.77149,-42.5293 -3.45889,-1.26592 -8.46264,-3.37766 -11.11914,-4.69336 -2.99707,-1.48438 -5.4493,-2.22455 -7.4668,-2.14062 z m -117.2207,83.87305 c 1.59509,-0.0425 3.1591,0.37241 4.51953,1.36718 1.82342,1.33332 1.80395,1.4716 -0.56054,4.33789 -1.34324,1.6283 -3.79141,5.27518 -5.44141,8.10352 -1.65,2.82834 -3.49345,5.15121 -4.0957,5.16211 -1.77716,0.0322 -4.33477,-3.38084 -4.99024,-6.6582 -1.23619,-6.18098 4.87162,-12.16066 10.56836,-12.3125 z m 62.77735,139.4414 c 1.55452,-0.0846 3.95784,1.7418 12.8164,8.14258 11.52721,8.32903 12.64226,9.43429 11.46094,11.3457 -0.67567,1.09326 -2.69719,0.42589 -9.94336,-3.2832 -9.2969,-4.7588 -11.51337,-5.40537 -12.58594,-3.66992 -0.33533,0.54258 -2.37581,9.65508 -4.53515,20.25004 -11.66042,57.2125 -29.15657,110.8502 -48.53516,148.7871 -7.29481,14.2808 -22.76271,39.8962 -31.375,51.9589 -3.89032,5.449 -7.5908,10.2267 -8.22266,10.6172 -0.63186,0.3905 -0.90319,0.3022 -0.60351,-0.1953 0.29968,-0.4975 3.80116,-6.3043 7.78125,-12.9043 29.08891,-48.2368 48.75506,-96.5577 64.30664,-158 4.83357,-19.0968 10.39264,-44.6613 13.19922,-60.707 1.42465,-8.14498 2.08652,-9.96176 4.11523,-11.29102 0.88252,-0.57825 1.41449,-1.01232 2.1211,-1.05078 z m -443.41993,154.7969 c 2.13948,-0.1331 4.3761,0.7527 5.56836,2.8867 1.31845,2.3598 1.29453,2.9076 -0.24023,5.25 -3.05574,4.6636 -10.66797,2.4812 -10.66797,-3.0586 0,-3.0516 2.58909,-4.907 5.33984,-5.0781 z m -65.785147,8.8222 c 2.32395,0.016 4.53316,0.4407 6.23047,1.3184 4.52691,2.341 8.38439,7.9087 8.91601,12.8672 0.74953,6.991 -2.80526,12.3462 -11.26562,16.9707 -3.81507,2.0853 -7.97669,4.2382 -9.25,4.7832 -7.594249,3.2503 -17.18555,-3.1231 -17.18555,-11.4199 0,-3.9057 8.062967,-18.4879 11.82227,-21.3809 2.66743,-2.0527 6.85916,-3.1646 10.73242,-3.1387 z m 27.710927,0.1895 c 3.02753,-0.023 6.17788,0.3452 7.23633,1.1191 1.73735,1.2704 2.58964,6.8616 1.25,8.2012 -1.24674,1.2467 -4.85358,-1.8421 -5.41211,-4.6348 -0.32401,-1.6201 -1.03663,-2.9453 -1.58203,-2.9453 -0.55593,0 -0.70346,0.9886 -0.33593,2.25 1.58773,5.4495 1.78037,8.803 0.58593,10.2422 -1.77208,2.1352 -2.765,1.903 -6.08398,-1.416 -2.22172,-2.2217 -2.919797,-3.8413 -2.908207,-6.75 0.008,-2.1048 0.34593,-4.2828 0.749997,-4.8418 0.56852,-0.7865 3.47248,-1.2013 6.5,-1.2246 z m 27.23438,7.5898 c 0.5225,0 1.11151,0.485 1.30859,1.0762 0.19709,0.5913 -0.39192,1.0742 -1.30859,1.0742 -0.91667,0 -1.50568,-0.4829 -1.30859,-1.0742 0.19708,-0.5912 0.78609,-1.0762 1.30859,-1.0762 z"
           style="display:inline;fill:#ebaa2d;stroke:none;filter:url(#filter6357);enable-background:new"
           transform="matrix(0.50000001,0,0,0.50000001,33.421338,-344.49371)" />
        <path
           inkscape:connector-curvature="0"
           id="path3749"
           d="m 358.63002,37.774177 c -1.02633,-0.02325 -1.84377,0.07839 -2.25,0.34375 -0.71127,0.464635 -2.6875,4.13917 -2.6875,4.99707 0,1.934715 -3.90906,8.120345 -7.5039,11.874025 l -3.89942,4.072265 0.43262,2.317385 c 0.74573,3.99173 1.83318,7.80752 6.53223,22.92578 9.09374,29.257318 14.9797,50.060478 14.91406,52.709958 -0.072,2.90552 -7.03557,-13.90225 -17.24219,-41.617183 -9.85424,-26.75813 -9.82013,-26.68784 -11.89551,-24.751955 -1.09782,1.02404 -2.88165,1.811565 -11.08789,4.894535 -6.87623,2.5833 -11.94824,2.26225 -20.28222,-1.28418 -1.90731,-0.811635 -3.46778,-1.35844 -3.46778,-1.214845 0,0.143595 0.54485,0.97714 1.21094,1.85254 2.62691,3.452395 2.10179,6.589055 -1.66797,9.95996 l -2.38379,2.131835 -0.60156,7.5 c -0.80235,10.007833 -3.82916,22.819963 -6.49707,27.500003 -0.4703,0.825 -1.38034,2.9625 -2.02149,4.75 -1.23368,3.43951 -3.13749,7.08968 -4.56445,8.75 -0.47269,0.55 -1.02802,1.5625 -1.2334,2.25 -0.76515,2.56132 -9.51638,14.6978 -10.26465,14.23535 -0.47322,-0.29247 -1.53363,2.25469 -10.73144,25.76463 -10.63388,27.1806 -11.9634,30.45315 -13.59766,33.47855 -1.39372,2.58005 -2.96228,3.90515 -5.98242,5.0537 -0.96689,0.3677 -1.06558,0.2661 -0.9082,-0.9346 0.22073,-1.684 3.52533,-12.42935 6.23828,-20.2832 1.12768,-3.26455 1.95506,-6.03025 1.83887,-6.14645 -0.1162,-0.1162 -1.48814,1.24285 -3.04883,3.0205 -2.43747,2.7763 -3.22247,4.2239 -5.56836,10.26365 -3.29781,8.49055 -6.44826,15.81335 -7.48047,17.3887 -0.41775,0.63755 -1.13363,1.15915 -1.59082,1.15915 -0.45718,0 -1.29556,0.42195 -1.86328,0.9375 -0.56773,0.51555 -2.26718,1.33835 -3.77637,1.8291 -1.50918,0.4908 -3.42168,1.3064 -4.25,1.81155 -0.82831,0.5051 -2.10413,0.9189 -2.83594,0.9199 -0.88097,0 -1.78447,0.5417 -2.67382,1.59865 -0.73877,0.87795 -2.55925,2.08955 -4.04493,2.69335 -2.57921,1.04825 -2.70117,1.05595 -2.70117,0.16405 0,-0.5137 0.30811,-1.7825 0.68457,-2.8193 1.52982,-4.21335 2.92333,-9.1929 2.64942,-9.4668 -0.64605,-0.64605 -4.11437,1.259 -4.83399,2.65525 -0.4125,0.80035 -2.17537,4.1793 -3.91699,7.5088 l -3.16602,6.0537 -3.05566,1.04295 c -1.68057,0.57385 -3.16532,0.93335 -3.2998,0.79885 -0.13449,-0.1345 0.69826,-3.0886 1.85058,-6.56545 1.15233,-3.4768 2.03745,-6.37485 1.9668,-6.43945 -0.0707,-0.0645 -2.48311,0.41455 -5.36035,1.06445 -10.39808,2.3488 -21.20622,2.82905 -31.78711,1.41215 -3.28955,-0.44055 -8.34395,-0.8758 -11.23145,-0.9668 -20.06821,-0.63255 -24.72711,-1.04315 -28.17187,-2.48245 -0.98759,-0.41265 -2.55508,-0.75 -3.48242,-0.75 -1.6031,0 -8.90021,-1.66595 -9.83887,-2.2461 -0.24361,-0.15055 -1.97572,-0.4907 -3.84961,-0.7568 -7.521681,-1.0682 -13.945381,-2.6141 -19.657226,-4.7295 -0.9625,-0.35645 -2.762499,-0.81085 -3.999999,-1.0098 -1.2375,-0.19885 -2.925,-0.6613 -3.75,-1.0283 -0.825,-0.367 -4.17001,-1.37325 -7.433595,-2.2363 -3.263587,-0.8631 -6.218946,-1.6788 -6.567381,-1.8125 -0.400905,-0.15385 -0.930285,0.62685 -1.441407,2.12695 -1.281158,3.75995 -1.347209,3.69235 3.614258,3.69235 7.407215,0 11.97422,2.1592 17.398435,8.22365 2.327024,2.6017 3.035814,3.1212 3.742189,2.74315 1.631945,-0.8734 3.47582,-0.50465 4.975585,0.99515 2.408115,2.4081 1.72248,5.60195 -1.56836,7.3037 -1.35788,0.70215 -1.47231,0.97755 -1.50781,3.62205 -0.0457,3.4035 -0.92236,6.59825 -1.96289,7.1553 -0.412015,0.22055 -2.774024,1.0188 -5.249024,1.7734 -4.73037,1.4423 -11.306715,4.00355 -13,5.0635 -0.951915,0.59585 -0.879785,0.7376 1.5,2.9502 1.21066,1.1256 2.553525,2.29825 3.95508,3.48925 8.2445,6.4793 16.177749,12.29135 23.834959,17.4795 10.053526,6.5638 20.886336,12.84515 30.751946,17.6738 4.35208,2.1301 7.0951,3.67295 7.82618,4.38675 60.38492,27.53895 104.1281,11.7587 156.76757,-17.20215 4.83331,-3.3505 9.39263,-7.3817 15.5459,-13.38675 15.30757,-14.9388 25.50747,-29.2397 35.54395,-49.83495 6.50628,-13.35115 11.1863,-25.63625 16.78418,-44.06055 0.0735,-0.24195 0.14738,-0.452 0.22168,-0.6836 0.3655,-1.85505 0.57052,-3.37735 0.5791,-4.4414 0.28641,0.26315 0.58914,0.5489 0.88086,0.81935 0.0381,-0.0425 0.0713,-0.0694 0.0976,-0.0694 0.24759,0 2.64582,1.211 5.33008,2.6914 2.68424,1.48045 6.1005,3.2127 7.59082,3.84865 l 2.70899,1.15625 4.26269,-1.1299 c 3.89863,-1.03275 21.1835,-8.78095 26.37305,-11.82225 l 2.07031,-1.2129 -0.0303,-3.2236 c -0.0241,-2.56096 0.24561,-3.75516 1.3125,-5.81154 0.73858,-1.42357 1.34468,-2.96112 1.34668,-3.41699 0.0106,-2.16204 -3.7833,-13.12729 -12.91601,-37.3291 -9.36551,-24.818803 -9.28055,-24.616908 -14.94724,-35.750003 -2.72949,-5.3625 -6.83718,-14.025 -9.12793,-19.25 -5.33521,-12.169155 -6.63211,-14.738475 -8.15332,-16.15625 -1.38292,-1.288885 -6.34287,-2.484935 -9.42188,-2.55469 z m -30.7959,105.553713 c 0.0621,-0.006 0.11751,-0.004 0.16504,0.007 1.21863,0.26537 16.71203,11.502 17.25293,12.51271 0.28663,0.53555 0.36968,1.12295 0.18457,1.30565 -0.1851,0.1827 -3.74661,-1.4213 -7.91504,-3.56445 -7.64866,-3.93245 -8.52177,-4.2558 -9.07519,-3.36035 -0.16767,0.27129 -1.18791,4.82754 -2.26758,10.125 -5.76129,28.2681 -14.30632,54.59305 -23.97656,73.86325 -5.71866,11.3958 -14.62839,25.8418 -21.28028,34.5049 -7.07433,9.2133 -7.73878,8.84885 -1.34375,-0.7363 9.16771,-13.741 15.57527,-25.2862 21.54004,-38.81055 9.52638,-21.5999 17.80471,-49.84825 22.32813,-76.18947 1.12723,-6.56422 1.44813,-7.64337 2.57422,-8.65039 0.61919,-0.55371 1.37865,-0.96753 1.81347,-1.00683 z M 106.3185,219.6892 c 2.88513,0.0576 5.25535,3.65525 2.83789,6.72855 -0.79933,1.01615 -1.47718,1.31735 -2.96387,1.31735 -3.59346,0 -5.32211,-4.2228 -2.77246,-6.77245 0.91787,-0.91785 1.93673,-1.29265 2.89844,-1.27345 z m -5.74317,8.59375 c 0.58286,-0.033 1.18779,0.1841 1.62989,0.7168 0.48534,0.5848 0.50162,1.05555 0.0713,2 -0.87765,1.92625 -3.583986,1.34885 -3.583986,-0.76465 0,-1.14695 0.911385,-1.89725 1.882806,-1.95215 z"
           style="display:inline;fill:#eaa319;stroke:none;stroke-width:0.5;enable-background:new" />
        <path
           inkscape:connector-curvature="0"
           id="path3743"
           d="m 359.31752,44.407967 c -0.52453,10e-4 -1.06726,0.0461 -1.62793,0.135745 -2.1358,0.341525 -1.89449,0.124285 -11.37695,10.22949 l -4.02344,4.288085 0.43262,2.317385 c 0.74573,3.99173 1.83318,7.80752 6.53223,22.92578 12.39959,39.893228 18.39724,62.884548 13.74218,52.680668 -3.73729,-8.19215 -9.314,-22.52443 -19.31738,-49.651368 -2.56598,-6.958375 -4.90557,-12.97836 -5.20019,-13.37793 -0.45326,-0.61471 -1.11312,-0.42686 -4.28614,1.2207 -4.05244,2.104185 -8.30142,3.30014 -13.62011,3.83496 -2.96601,0.29825 -3.63324,0.570235 -5.56153,2.26758 -2.35104,2.06947 -3.35283,4.26274 -4.54883,9.956055 -0.67012,3.190015 -1.44963,10.279803 -1.34668,12.250003 0.0288,0.55 -0.76177,4.15 -1.75683,8 -0.99507,3.85 -1.91445,7.73358 -2.04297,8.62988 -0.12852,0.8963 -0.4341,1.75311 -0.67871,1.9043 -0.24462,0.15118 -0.44434,1.00559 -0.44434,1.89843 0,0.94644 -0.52123,2.3296 -1.25,3.31739 -0.6875,0.93185 -1.25,2.2126 -1.25,2.84668 0,0.63407 -0.225,1.15332 -0.5,1.15332 -0.275,0 -0.5,0.24761 -0.5,0.5498 0,0.30219 -0.32796,1.25844 -0.72851,2.125 -0.40055,0.86656 -1.19623,2.8481 -1.76856,4.4043 -0.57233,1.55619 -1.36937,3.1028 -1.77148,3.43652 -0.40212,0.33373 -0.73145,0.82049 -0.73145,1.08106 0,0.26057 -0.97732,2.08896 -2.17187,4.06347 -1.81113,2.99366 -4.82813,9.57078 -4.82813,10.52538 0,0.5085 -2.9225,4.58915 -3.95703,5.5254 -0.57385,0.51935 -1.04485,1.1901 -1.04785,1.4912 -0.005,0.5219 -1.34613,2.2398 -4.82031,6.1719 -0.86654,0.98075 -2.06366,2.7597 -2.66016,3.9541 -0.5965,1.19435 -1.2941,2.17185 -1.5498,2.17185 -0.25571,0 -0.46485,0.3375 -0.46485,0.75 0,0.4125 -0.225,0.75 -0.5,0.75 -0.275,0 -0.5,0.2081 -0.5,0.46195 0,0.2538 -0.61875,1.11115 -1.375,1.90525 -2.69528,2.83015 -4.13844,4.7635 -4.43359,5.93945 -0.17558,0.69955 -0.66869,1.19335 -1.19141,1.19335 -0.51334,0 -1.01449,0.48835 -1.18066,1.1504 -0.15874,0.63245 -1.19514,2.1322 -2.30371,3.333 -1.10858,1.2008 -2.01563,2.3704 -2.01563,2.5996 0,0.22925 -0.31486,0.417 -0.70019,0.417 -0.38534,0 -1.17836,0.80915 -1.76172,1.79785 -0.58337,0.98875 -1.71769,2.0456 -2.52051,2.34865 -1.33894,0.5054 -1.91557,1.6902 -6.97656,14.32715 -6.02135,15.0349 -8.89686,21.868 -10.89258,25.88575 -1.16372,2.34275 -1.55712,2.69455 -3.84766,3.4414 -1.40314,0.4575 -2.84599,1.0659 -3.20703,1.35255 -0.51568,0.4094 -0.597,0.26095 -0.3789,-0.6914 0.15269,-0.6668 0.51626,-2.33695 0.80859,-3.71195 0.29233,-1.375 1.73678,-6.325 3.20898,-11 1.47221,-4.675 2.8149,-9.1238 2.98438,-9.8867 0.28398,-1.2784 0.23115,-1.339 -0.67285,-0.7744 -1.17873,0.7361 -3.19359,4.9727 -8.47559,17.81835 -3.60008,8.7553 -5.31102,12.0171 -5.96191,11.3662 -0.12822,-0.1282 -0.89496,0.1089 -1.7041,0.52735 -0.80915,0.4184 -3.08679,1.3036 -5.06153,1.96775 -1.97474,0.6642 -4.48189,1.6633 -5.57129,2.21975 -1.08939,0.55645 -2.25513,1.0117 -2.58984,1.0117 -0.33471,0 -0.94761,0.3392 -1.3623,0.7539 -0.95659,0.9566 -6.73746,2.7795 -7.07618,2.23145 -0.13966,-0.22595 -0.0451,-0.93385 0.20996,-1.57325 0.25504,-0.63935 0.9618,-2.8496 1.57032,-4.9121 1.23638,-4.1905 2.11557,-7.1208 3.17871,-10.59275 l 0.71777,-2.34375 -1.72558,0.84375 c -1.52252,0.7443 -2.33474,2.0491 -6.92676,11.12985 -2.86122,5.6581 -5.49717,10.511 -5.8584,10.7842 -1.94196,1.4686 -6.40723,1.80415 -6.40723,0.48145 0,-0.31925 1.13396,-3.9466 2.51953,-8.06055 1.38557,-4.11395 2.45432,-7.8531 2.375,-8.30955 -0.13192,-0.75925 -0.40027,-0.74535 -3.14453,0.1621 -2.81328,0.93025 -6.20607,1.75075 -8.5,2.05565 -0.55,0.0731 -1.9,0.39895 -3,0.7246 -3.74131,1.10765 -20.7627,3.0376 -29,3.2881 -6.22725,0.1894 -14.37377,-0.54205 -18.25,-1.63865 -4.50613,-1.27485 -6.25714,-1.5964 -9.96094,-1.83205 -3.17571,-0.20205 -7.01562,-1.1182 -8.84472,-2.1094 -2.54271,-1.3778 -5.71363,-2.61985 -7.71973,-3.0244 -5.356431,-1.0802 -7.818481,-1.7279 -9.146481,-2.40625 -0.781805,-0.39935 -1.47477,-0.65345 -1.54004,-0.56445 -0.06527,0.089 -0.53031,1.7371 -1.03418,3.6621 -0.702065,2.6822 -1.35104,3.93815 -2.776365,5.375 -1.02295,1.03125 -2.294424,1.875 -2.825194,1.875 -0.98468,0 -8.065455,2.31585 -11.05762,3.6162 l -1.65625,0.71975 2.925785,2.70705 c 1.60921,1.489 5.617335,4.74855 8.90625,7.24315 14.787369,11.21605 29.007295,19.99255 47.979485,29.6133 4.92676,2.4983 7.38612,3.8378 8.32129,4.5693 47.07641,20.7109 84.09392,14.946 123.43555,-2.6826 2.08771,-1.00915 5.03087,-2.3725 8.39355,-3.91115 7.34993,-3.55825 14.81918,-7.50075 22.4668,-11.708 4.85254,-3.35515 9.39106,-7.3718 15.56445,-13.3965 15.30757,-14.9388 25.50747,-29.2397 35.54395,-49.83495 6.67386,-13.69505 13.80087,-32.6275 16.84668,-44.7529 0.1316,-0.52395 0.28136,-1.0129 0.43554,-1.46975 0.19425,-1.19485 0.29653,-2.1922 0.30274,-2.9629 0.32737,0.30075 0.67253,0.6262 1.00684,0.93655 0.79246,0.1714 2.97143,1.1766 5.31054,2.47165 2.72041,1.50615 6.1481,3.2553 7.61817,3.8877 l 2.67285,1.1504 4.26269,-1.1299 c 3.89863,-1.03275 21.1835,-8.78095 26.37305,-11.82225 l 2.07031,-1.2129 -0.0303,-3.2236 c -0.0241,-2.56096 0.24561,-3.75516 1.3125,-5.81154 0.73861,-1.42357 1.3428,-2.97794 1.3428,-3.4541 0,-1.61473 -4.91178,-15.86094 -11.93359,-34.61133 -8.36652,-22.341143 -10.5507,-27.754178 -12.41016,-30.757813 -3.5621,-5.753965 -5.16983,-8.69268 -10.76465,-19.67285 -7.16112,-14.05414 -8.85567,-16.981325 -9.87207,-17.05664 -2.52107,-0.186815 -3.73515,-0.46844 -4.69238,-1.08789 -1.22114,-0.790245 -2.62856,-1.18556 -4.20215,-1.18262 z m -31.06933,98.463873 c 0.0684,0.006 0.1301,0.0191 0.18457,0.0401 0.83718,0.32125 16.57492,11.5804 18.08789,12.94041 0.59285,0.53295 1.18431,1.3754 1.31445,1.87305 0.20274,0.7753 0.0382,0.84855 -1.14648,0.5088 -0.76045,-0.2181 -4.75225,-2.22005 -8.8711,-4.44824 -7.39533,-4.00066 -8.77404,-4.52367 -9.37109,-3.55762 -0.16767,0.27129 -1.18791,4.82754 -2.26758,10.12501 -6.05988,29.73315 -14.84415,56.25935 -25.29492,76.3818 -4.88421,9.4043 -13.20632,23.0305 -18.61914,30.4873 -4.23878,5.83945 -14.98605,17.9009 -15.04883,16.8887 -0.0127,-0.2058 1.89793,-2.7933 4.24609,-5.75 25.23594,-31.77625 43.22127,-75.6371 51.71875,-126.12598 0.57854,-3.4375 1.15512,-6.59486 1.28125,-7.0166 0.28515,-0.95351 2.75991,-2.44013 3.78614,-2.34668 z"
           style="display:inline;fill:#e7930b;stroke:none;stroke-width:0.5;enable-background:new" />
        <path
           inkscape:connector-curvature="0"
           id="path3747"
           d="m 647.66151,764.7838 c -0.20855,0.006 -0.38134,0.0249 -0.51562,0.0586 -2.08065,0.52221 -6.60352,7.71379 -6.60352,10.5 0,3.75677 -7.91832,16.2203 -15.00781,23.62305 l -7.79883,8.14453 0.86523,4.63477 c 1.49147,7.98346 3.66637,15.61504 13.06446,45.85156 18.18749,58.51464 29.9594,100.12096 29.82812,105.41992 -0.14397,5.81104 -14.07114,-27.80451 -34.48437,-83.23437 -19.70588,-53.50915 -19.63795,-53.36944 -23.79102,-49.51367 -2.60992,2.4231 -21.11077,11.37246 -28.29297,13.68554 -4.38212,1.4113 -6.24964,1.48149 -13,0.49805 -16.2588,-2.3687 -14.65342,-2.47904 -17.05273,1.18945 -1.51361,2.31427 -2.81818,7.39785 -4.31641,16.81641 -1.18112,7.425 -2.76948,16.65 -3.52929,20.5 -0.7598,3.85 -2.09188,11.5 -2.96094,17 -0.86907,5.5 -1.9876,11.35 -2.48438,13 -4.60964,15.31036 -7.69727,24.00228 -10.48242,29.5 -1.8111,3.575 -3.63434,8.075 -4.05078,10 -1.1128,5.14401 -6.24048,16.25981 -12.22461,26.5 -2.89267,4.95 -5.26353,9.36721 -5.26953,9.81641 -0.006,0.4492 -1.13672,2.29103 -2.51172,4.09375 -1.375,1.80272 -2.5,3.58554 -2.5,3.96093 0,0.91953 -11.53594,15.99837 -13.46289,17.59767 -0.84106,0.698 -3.82944,5.5233 -6.64063,10.7226 -2.81118,5.1993 -5.68221,9.6721 -6.3789,9.9395 -0.69668,0.2673 -2.96773,2.9558 -5.04688,5.9746 -2.07914,3.0188 -4.57317,5.9146 -5.54297,6.4336 -1.00483,0.5378 -3.99697,6.6454 -6.95703,14.2012 -14.4656,36.9245 -24.56009,62.0444 -27.76562,69.0957 -3.49215,7.6817 -3.68672,7.8936 -9.94727,10.8515 -3.51219,1.6595 -6.6605,2.7438 -6.99609,2.4082 -0.33559,-0.3356 0.64529,-4.5451 2.17969,-9.3535 1.5344,-4.8083 4.95705,-15.4922 7.60547,-23.7422 4.13331,-12.8756 7.7626,-24.664 11.01367,-35.7695 0.49118,-1.6779 0.44193,-2.5418 -0.125,-2.1914 -0.51465,0.3181 -0.93555,1.2504 -0.93555,2.0703 0,2.0084 -2.78701,7.4008 -5.17773,10.0195 -1.06862,1.1706 -5.99397,11.9706 -10.94532,24 -11.60451,28.1936 -18.7978,44.4472 -20.59375,46.5313 -0.7868,0.913 -2.53365,1.9368 -3.88281,2.2754 -1.34917,0.3386 -4.80487,1.6742 -7.67773,2.9668 -2.87285,1.2925 -6.91016,2.8898 -8.97266,3.5507 -2.0625,0.661 -3.75,1.5668 -3.75,2.0118 0,0.4449 -1.2375,1.0344 -2.75,1.3105 -1.5125,0.2762 -6.43095,1.8514 -10.92969,3.502 -8.08084,2.9647 -8.17931,2.9751 -8.13281,0.8613 0.0259,-1.1768 0.66591,-4.1637 1.42188,-6.6387 7.44596,-24.378 8.2877,-28 6.50195,-28 -2.44791,0 -5.78527,5.1229 -14.65821,22.5 -10.8607,21.2701 -11.00582,21.5 -13.46679,21.5 -0.97259,0 -3.72939,0.8808 -6.12695,1.9571 -2.39756,1.0762 -4.50889,1.5277 -4.69141,1.0039 -0.18251,-0.5239 0.34275,-3.0921 1.16601,-5.7071 6.40371,-20.3403 8.79574,-28.4581 8.47852,-28.7754 -0.20286,-0.2028 -3.50752,0.766 -7.3418,2.1543 -3.83427,1.3884 -8.3207,2.8811 -9.9707,3.3164 -1.65,0.4354 -4.125,1.2801 -5.5,1.877 -1.375,0.5969 -5.09177,1.5886 -8.25977,2.2031 -3.3844,0.6565 -6.97702,2.1406 -8.71093,3.5996 -2.5123,2.114 -3.27716,2.3082 -5.14844,1.3067 -2.36497,-1.2657 -13.88097,-0.1473 -26.88086,2.6113 -3.575,0.7586 -8.75,1.3578 -11.5,1.332 -2.75,-0.026 -13.775,0.045 -24.5,0.1563 -25.32019,0.2616 -44.74003,-2.2696 -51.41992,-6.7012 -2.61209,-1.7329 -5.32783,-2.6733 -7.55078,-2.6133 -1.90935,0.052 -5.15449,-0.7653 -7.21094,-1.8144 -2.05644,-1.0491 -6.78146,-2.2439 -10.5,-2.6563 -5.59575,-0.6206 -6.9538,-1.1368 -7.87891,-2.9941 -0.61477,-1.2343 -1.38766,-1.9756 -1.71679,-1.6465 -0.32912,0.3291 -1.9815,-0.09 -3.67188,-0.9336 -3.01428,-1.5037 -3.10157,-1.4781 -4.58203,1.3848 -0.83023,1.6055 -3.24214,3.8027 -5.35937,4.8828 -3.27315,1.6698 -3.77495,2.3505 -3.35547,4.5449 0.64237,3.3603 -1.5062,14.2034 -3.38086,17.0645 -1.01156,1.5438 -2.909,2.45 -6.14649,2.9355 -2.575667,0.3862 -8.518017,1.9438 -13.205077,3.4609 -4.68706,1.5172 -10.32148,3.3107 -12.52148,3.9844 -2.2,0.6737 -4.9,1.8981 -6,2.7207 -1.93939,1.4504 -1.84847,1.6329 3,6.0742 2.42726,2.2235 5.07742,4.5205 7.82422,6.8438 16.65934,13.0954 32.683347,24.8264 48.144527,35.2871 19.98861,13.0422 41.41432,25.4434 61.11523,35.0859 8.70416,4.2602 14.19019,7.3459 15.65235,8.7735 120.76985,55.0779 208.25621,23.5174 313.53515,-34.4043 9.66661,-6.701 18.78526,-14.7634 31.0918,-26.7735 30.61514,-29.8776 51.01494,-58.4794 71.08789,-99.6699 13.01256,-26.7023 22.37261,-51.2725 33.56836,-88.1211 0.14704,-0.4839 0.29477,-0.904 0.44336,-1.3672 0.731,-3.7101 1.14105,-6.7547 1.1582,-8.8828 0.57282,0.5263 1.17828,1.0978 1.76172,1.6387 0.0762,-0.085 0.14265,-0.1387 0.19531,-0.1387 0.49517,0 5.29163,2.422 10.66016,5.3828 5.36848,2.9609 12.201,6.4254 15.18164,7.6973 l 5.41797,2.3125 8.52539,-2.2598 c 7.79726,-2.0655 42.367,-17.5619 52.7461,-23.6445 l 4.14062,-2.4258 -0.0606,-6.4472 c -0.0482,-5.12191 0.49122,-7.51031 2.625,-11.62307 1.47716,-2.84715 2.68936,-5.92224 2.69336,-6.83399 0.0212,-4.32408 -7.56661,-26.25458 -25.83203,-74.6582 -18.93846,-50.18731 -18.93722,-50.18635 -29.64057,-70.82031 -5.18667,-9.9989 -13.9548,-28.07969 -19.48438,-40.17969 -10.64673,-23.29749 -14.09801,-29.24023 -18.08398,-31.13281 -4.70844,-2.23562 -15.71945,-5.13193 -18.84766,-5.04102 z m -58.83594,210.85938 c 0.12424,-0.0112 0.23501,-0.007 0.33008,0.0137 2.43725,0.53073 33.42405,23.004 34.50586,25.02542 0.57325,1.0711 0.73935,2.2459 0.36914,2.6113 -0.3702,0.3654 -7.49322,-2.8426 -15.83008,-7.12891 -15.29733,-7.86489 -17.04355,-8.51159 -18.15039,-6.7207 -0.33533,0.54258 -2.37581,9.65508 -4.53515,20.25001 -11.52258,56.5362 -28.61264,109.1861 -47.95313,147.7265 -11.43732,22.7916 -29.25678,51.6836 -42.56055,69.0098 -14.14867,18.4266 -15.47756,17.6977 -2.6875,-1.4726 18.33541,-27.482 31.15054,-50.5724 43.08008,-77.6211 19.05275,-43.1998 35.60941,-99.6965 44.65625,-152.37894 2.25446,-13.12844 2.89627,-15.28675 5.14844,-17.30078 1.23838,-1.10742 2.75731,-1.93506 3.62695,-2.01367 z"
           style="display:inline;fill:#e89a14;stroke:none;filter:url(#filter5089);enable-background:new"
           transform="matrix(0.50000001,0,0,0.50000001,33.421338,-344.49371)" />
        <path
           inkscape:connector-curvature="0"
           id="path3739"
           d="m 651.59901,777.78575 c -69.40516,27.88655 33.96873,183.32943 -45.09169,96.4686 -71.21422,77.86839 -61.78207,220.88175 -167.28003,288.32365 -86.27495,103.0208 -216.75076,68.6629 -323.88238,49.2246 48.12916,83.6625 164.64477,104.6772 254.83166,93.8011 123.61097,-13.8609 226.26978,-106.194 267.38726,-221.3963 41.18726,-67.1773 169.84865,-82.8336 95.59205,-187.12506 -24.95549,-40.72176 -43.78349,-88.6412 -81.55687,-119.29659 z m -63.12695,196.67188 c 15.54127,70.22317 -95.85358,258.61037 -85.03878,234.06537 42.84981,-71.9495 62.84788,-154.1555 85.03878,-234.06537 z"
           style="display:inline;fill:#d68504;stroke:none;filter:url(#filter5437);enable-background:new"
           transform="matrix(0.50000001,0,0,0.50000001,33.421338,-344.49371)" />
        <path
           inkscape:connector-curvature="0"
           id="path3737"
           d="m 645.47792,789.64513 c -3.79675,-0.0618 -9.87321,0.7078 -11.72852,1.70703 -0.93837,0.50538 -4.92808,4.24699 -8.86523,8.3125 l -7.15821,7.39063 0.8711,4.66211 c 1.49686,8.01231 3.66272,15.61812 13.06836,45.8789 17.46955,56.20482 30.69337,103.08836 33.45117,118.59961 0.87335,4.91219 -0.56014,3.39072 -3.52344,-3.73828 -8.78918,-21.14461 -27.30385,-68.31863 -32.02148,-81.58789 -2.13019,-5.99158 -4.83088,-11.41211 -5.68555,-11.41211 -0.3332,0 -0.39116,3.36813 -0.12695,7.48438 0.36891,5.74835 0.10519,8.12555 -1.13672,10.25 -2.20258,3.76782 -5.78438,13.03914 -6.59961,17.08203 -0.38921,1.93018 -0.15112,4.56379 0.56836,6.30078 0.98826,2.38599 0.97915,3.46098 -0.041,5.36719 -0.70174,1.31125 -1.02401,3.34471 -0.71679,4.51953 0.31667,1.21094 -0.24923,3.51383 -1.30664,5.3164 -1.02589,1.74881 -2.01699,4.34413 -2.20313,5.76758 -0.18614,1.42345 -1.09388,3.73973 -2.01563,5.14649 -0.92174,1.40676 -1.97691,3.84231 -2.3457,5.4121 -0.3688,1.56979 -2.14903,4.42852 -3.95508,6.35352 -1.80605,1.925 -4.75059,6.32802 -6.54492,9.78516 l -3.26367,6.28711 2.42187,1.69335 c 1.33182,0.93203 3.99688,3.07923 5.92188,4.77149 1.925,1.69225 7.775,6.18137 13,9.97656 17.6231,12.8006 24.19175,18.6266 22.69336,20.125 -0.58654,0.5865 -10.05861,-4.103 -29.80664,-14.75586 -14.44585,-7.79264 -17.18919,-8.82148 -18.37891,-6.89648 -0.33533,0.54258 -2.37581,9.65508 -4.53515,20.25004 -9.36157,45.9331 -22.3034,89.1656 -37.14063,124.0703 -17.80185,41.879 -45.11294,86.4517 -69.66211,113.6933 -9.60205,10.6552 -32.26147,31 -34.52734,31 -0.5434,0 4.83968,-5.9625 11.96289,-13.25 22.22484,-22.7374 36.7988,-42.4901 52.93945,-71.75 10.20311,-18.4962 21.8665,-41.9206 21.20313,-42.584 -0.8919,-0.8918 -2.78799,1.9742 -6.64649,10.043 -2.35626,4.9273 -5.1515,10.0614 -6.21094,11.4082 -1.05943,1.3469 -2.61528,4.8174 -3.45703,7.7129 -1.49691,5.1492 -1.6502,5.3023 -7.03515,6.9961 -4.11222,1.2934 -5.87904,2.4541 -6.98047,4.584 -0.81104,1.5684 -3.24931,3.9708 -5.41797,5.3398 -2.16866,1.369 -4.64326,3.8412 -5.49805,5.4942 -0.8548,1.653 -2.18457,3.0058 -2.95507,3.0058 -0.77052,0 -2.81615,2.475 -4.54688,5.5 -1.73073,3.025 -3.63501,5.5 -4.23242,5.5 -0.59741,0 -3.60301,2.3969 -6.67774,5.3262 -6.41468,6.1112 -14.76578,10.6738 -19.53713,10.6738 -4.10114,0 -8.20193,3.1287 -9.02734,6.8867 -0.78492,3.5737 -3.39646,5.9479 -10.95312,9.9629 -3.90305,2.0738 -7.34484,3.1504 -10.07618,3.1504 -4.49561,0 -6.94305,1.8888 -9.80664,7.5625 -1.26088,2.4982 -2.52316,3.2861 -6.85156,4.2852 -3.0602,0.7064 -6.44505,2.3189 -8.00195,3.8105 -1.48435,1.4221 -4.5301,2.9799 -6.76758,3.4629 -2.23747,0.483 -5.92356,1.279 -8.19141,1.7676 -2.59997,0.5601 -4.94207,1.915 -6.33984,3.668 -1.45041,1.819 -2.77701,2.5653 -3.83789,2.1582 -2.62947,-1.0091 -12.13091,0.958 -17.9707,3.7207 -2.98157,1.4105 -5.88604,2.5644 -6.45313,2.5644 -0.56708,0 -1.55251,0.6271 -2.18945,1.3946 -2.11926,2.5535 -7.56341,2.8075 -13.73438,0.6386 -6.69482,-2.353 -14.75767,-2.5876 -18.35156,-0.5332 -2.97141,1.6986 -8.0967,1.8784 -13.19336,0.4629 -3.02985,-0.8415 -4.46796,-0.6765 -8,0.9141 -4.68634,2.1104 -10.03306,3.2991 -9.26758,2.0605 0.26315,-0.4258 -0.95493,-1.0898 -2.70703,-1.4746 -2.4639,-0.5411 -3.48642,-0.2901 -4.50976,1.1094 -1.1959,1.6355 -1.32227,1.6477 -1.32227,0.1191 0,-1.1372 -0.81887,-1.6914 -2.5,-1.6914 -1.375,0 -2.5,0.45 -2.5,1 0,0.55 -0.93025,1 -2.06641,1 -1.13616,0 -2.97243,0.4863 -4.08203,1.0801 -1.57062,0.8406 -2.42258,0.7137 -3.8457,-0.5742 -2.61428,-2.3659 -11.00586,-1.1405 -11.00586,1.6074 0,2.0524 -1.63507,2.4151 -4,0.8867 -1.19626,-0.7731 -1.01129,-0.9721 0.91602,-0.9844 4.57575,-0.029 1.40778,-1.0139 -4.81836,-1.498 -3.4304,-0.2667 -6.6902,-0.7651 -7.24414,-1.1074 -2.34725,-1.4507 -23.48256,-8.4041 -25.33204,-8.334 -1.23297,0.047 0.24249,1.1794 3.7793,2.9004 l 5.80078,2.8223 -0.21679,0.025 c 89.06567,37.1715 160.30373,26.6338 235.32421,-6.1231 4.95838,-2.3486 11.87924,-5.5298 21.60938,-9.959 14.62269,-7.0797 29.4822,-14.9223 44.69336,-23.2871 10.03534,-6.7973 18.71862,-14.5854 31.35156,-26.914 30.61514,-29.8777 51.01494,-58.4795 71.08789,-99.67 13.34707,-27.3887 26.85732,-63.1606 33.15821,-87.7968 0.46643,-1.8238 0.97765,-3.5385 1.45703,-4.9883 0.35196,-2.2346 0.54287,-4.1204 0.55468,-5.586 0.71199,0.6542 1.46108,1.3604 2.18946,2.0371 1.928,0.4182 5.898,2.1385 11.95507,5.1856 6.7288,3.385 12.90938,6.4038 13.73438,6.709 0.825,0.3052 2.28606,1.118 3.24609,1.8047 3.06339,2.191 17.20391,-2.4442 39.1836,-12.8418 11.02177,-5.2139 21.9023,-10.5717 24.17969,-11.9063 l 4.14062,-2.4258 -0.0606,-6.4472 c -0.0482,-5.12191 0.49122,-7.51031 2.625,-11.62307 1.47716,-2.84715 2.68555,-5.95589 2.68555,-6.90821 0,-5.04387 -33.61805,-97.64028 -41.92188,-115.46875 -2.13556,-4.5851 -6.36128,-11.17526 -9.71484,-15.15039 -3.2646,-3.86969 -7.00995,-8.81969 -8.32226,-11 -5.00406,-8.31392 -23.66232,-31.34022 -32.38477,-39.96484 -5.00615,-4.95 -9.33909,-9.00587 -9.62891,-9.01367 -0.28983,-0.008 -1.80085,-1.13284 -3.35742,-2.5 -1.55657,-1.36717 -3.13157,-2.52477 -3.5,-2.57227 -0.36843,-0.0475 -1.46664,-0.43744 -2.43945,-0.86523 -0.51795,-0.22777 -1.52934,-0.34073 -2.79492,-0.36133 z"
           style="display:inline;fill:#ca7b01;stroke:none;filter:url(#filter6161);enable-background:new"
           transform="matrix(0.50000001,0,0,0.50000001,33.421338,-344.49371)" />
        <path
           sodipodi:nodetypes="ccccsssccccsssssssscccccsccccccccccccccccsccsc"
           inkscape:connector-curvature="0"
           id="path3735"
           d="m 351.5685,50.897227 c -1.13537,-0.0133 -2.42854,1.083935 -5.50293,4.24316 l -3.7832,3.88672 0.43652,2.334965 c 0.74909,4.009715 1.83141,7.809 6.53516,22.94238 7.55155,24.295618 9.86543,32.171758 12.76074,43.430668 5.99244,23.30267 12.48156,44.80828 14.06836,46.62498 0.98634,1.12925 1.97899,1.1019 6.57715,-0.1787 3.53109,-0.98345 21.20952,-8.9903 25.83691,-11.70215 l 2.07031,-1.2129 -0.0303,-3.2236 c -0.0241,-2.56096 0.24561,-3.75516 1.3125,-5.81154 0.73858,-1.42357 1.34278,-2.97794 1.34278,-3.4541 0,-2.12028 -17.24826,-50.177888 -19.75879,-55.052733 -0.65105,-1.26418 -1.84036,-2.38412 -9.74121,-9.16797 -2.67738,-2.298855 -6.67814,-6.666955 -10.81153,-11.80469 -3.60867,-4.485525 -6.92648,-8.35947 -7.37304,-8.609375 -0.44656,-0.249905 -1.33536,-1.22578 -1.97559,-2.167965 -1.90785,-2.807655 -8.81423,-9.65535 -10.82129,-10.729495 -0.40353,-0.215965 -0.76412,-0.34323 -1.14258,-0.347655 z M 365.45717,168.9734 c 3.60798,2.1726 6.2739,3.0018 6.83008,2.125 0.83521,-1.31675 -1.64684,-10.3805 -3.38574,-12.3633 -0.60293,-0.6875 -1.25495,-1.7723 -1.44825,-2.4111 -0.33184,-1.09673 -0.40309,-1.11533 -1.27832,-0.32325 -0.50981,0.46135 -1.01266,1.54715 -1.11718,2.4121 l -0.18946,1.57225 -0.4082,-1.66405 -0.4082,-1.66405 -1.4209,2.41405 c -1.62627,2.76215 -1.77734,4.1819 -0.63086,5.93165 0.68769,1.04955 0.6989,1.2324 0.0742,1.2324 -0.47419,1.37105 2.12547,2.0146 3.38281,2.7383 z m -0.58203,-15.06543 c -0.0758,-0.0115 -0.12856,0.17111 -0.14356,0.53516 -0.0217,0.52708 0.0966,0.82239 0.2627,0.65625 0.16613,-0.16615 0.18447,-0.59708 0.0401,-0.95801 -0.0598,-0.14958 -0.1137,-0.22652 -0.15918,-0.2334 z m -0.37695,12.33888 c 0.32341,0.005 0.87664,0.39035 1.52832,1.11325 0.55778,0.61875 1.44178,1.39315 1.96484,1.7207 0.52306,0.3276 0.72617,0.5951 0.45117,0.59475 -0.72371,0 -4.25,-2.4965 -4.25,-3.0078 0,-0.2861 0.11162,-0.4227 0.30567,-0.4209 z"
           style="display:inline;fill:#af7009;stroke:none;stroke-width:0.5;enable-background:new" />
        <path
           sodipodi:nodetypes="cssscccccccssccscc"
           inkscape:connector-curvature="0"
           id="path3731"
           d="m 350.69252,66.999767 c -1.52769,0.06634 -5.5,0.8569 -5.5,1.094725 0,1.158575 2.33269,9.02801 11.15625,37.640628 2.33213,7.5625 5.96271,19.9375 8.06836,27.5 4.65705,16.72589 9.87856,33.99258 11.24219,37.17383 0.59162,1.3802 1.47691,2.53715 2.14551,2.80565 3.46903,1.3931 7.65574,0.1512 19.88769,-5.9004 l 8.75,-4.3291 10e-4,-5.5 c 4.2e-4,-3.02498 0.20194,-7.14006 0.44825,-9.14451 0.477,-3.88179 -0.0951,-6.9111 -1.66309,-8.80469 -0.75924,-0.91693 -0.69627,-0.93901 1.83887,-0.64844 2.36826,0.27145 2.625,0.2055 2.625,-0.66992 0,-1.76523 -11.80023,-32.14424 -13.16504,-33.89258 -0.28335,-0.36296 -2.21818,-1.79966 -4.29981,-3.19336 -7.55598,-5.058873 -17.45573,-13.282983 -25.28518,-21.005858 -4.4,-4.340115 -8.675,-8.535345 -9.5,-9.322265 -1.72174,-1.64227 -5.64279,-3.85181 -6.75,-3.80371 z"
           style="display:inline;fill:#996305;stroke:none;stroke-width:0.5;enable-background:new" />
        <path
           inkscape:connector-curvature="0"
           id="path3729"
           d="m 351.58315,82.389412 c -0.81429,-0.05675 -1.38909,0.113245 -1.38477,0.533205 0.007,0.67038 2.87921,10.144995 8.6582,28.562503 3.64191,11.60665 6.99639,23.05805 11.35254,38.75 2.64605,9.53173 5.09668,16.55813 6.25489,17.93458 1.1512,1.3681 1.49593,1.47725 4.75683,1.5078 1.93376,0.018 3.88298,0.2375 4.33106,0.4883 1.99074,1.11405 8.07999,-0.74805 8.8291,-2.7002 0.51536,-1.34305 0.35471,-2.2305 -0.4043,-2.2305 -0.83595,0 -1.09382,-0.7542 -1.53711,-4.5 -0.3793,-3.20515 -2.00491,-8.20714 -3.25,-9.99998 -1.78719,-2.57345 -3.02343,-5.74241 -2.74121,-7.02735 0.21514,-0.97952 -0.0782,-1.66216 -1.23633,-2.87402 -0.83548,-0.87425 -1.51953,-1.81624 -1.51953,-2.09375 0,-0.2775 -0.19848,-0.50488 -0.4414,-0.50488 -0.50412,0 -1.21033,-1.91411 -1.07911,-2.92481 0.12679,-0.97656 -2.37127,-4.57519 -3.17578,-4.57519 -0.37493,0 -0.96136,-0.3375 -1.30371,-0.75 -0.50841,-0.6126 -0.47825,-0.75 0.16406,-0.75 0.43251,0 0.98529,-0.35541 1.22852,-0.79004 0.33403,-0.59689 -0.20488,-1.45328 -2.20312,-3.5 -1.45506,-1.49037 -2.87306,-2.70996 -3.1504,-2.70996 -0.54807,0 -1.53906,-1.59937 -1.53906,-2.4834 0,-0.30184 2.08125,1.11956 4.625,3.1582 7.834,6.27842 14.73207,10.30056 22.375,13.04688 4.91054,1.76449 9.6292,2.84932 10.14649,2.33203 0.41967,-0.41967 -7.43907,-21.31476 -9.25391,-24.60449 -0.9984,-1.80979 -1.84321,-2.38385 -14.64258,-9.94922 -2.5589,-1.5125 -5.8555,-3.59968 -7.32617,-4.638673 -3.16807,-2.238165 -3.81837,-2.683795 -14.10352,-9.652345 -4.36137,-2.954985 -8.68529,-5.75789 -9.60839,-6.228515 -0.95349,-0.486115 -2.00701,-0.769415 -2.82129,-0.826175 z M 329.26283,150.5525 c -0.0525,-0.005 -0.0869,-2e-5 -0.10253,0.0156 -0.24077,0.24077 -1.35657,4.93234 -2.4795,10.42675 -4.35675,21.31725 -10.62624,42.79515 -17.25097,59.09765 -8.61298,21.19525 -24.359,46.90155 -37.3711,61.01075 -4.68295,5.0778 -13.64607,12.9361 -17.74511,15.5586 -1.44177,0.9224 -2.6211,1.75835 -2.6211,1.8574 0,0.21785 0.99311,-0.21215 16.25,-7.03515 6.13197,-2.74225 12.51573,-5.6793 15.06836,-6.9248 1.04195,-0.5495 2.0876,-1.1065 3.13574,-1.66795 6.85445,-3.9853 15.19916,-10.8828 23.82422,-19.7334 21.78844,-22.35825 35.63473,-46.5566 47.42676,-82.8848 1.82321,-5.6168 3.36641,-10.9007 3.42969,-11.7412 0.10882,-1.44545 -0.11468,-1.64535 -4.13477,-3.7041 -2.3375,-1.19705 -9.39053,-4.99415 -15.67285,-8.4375 -6.12405,-3.35659 -10.9688,-5.75717 -11.75684,-5.83787 z m -77.82421,148.8047 c -0.1809,0.0235 -0.93633,0.329 -2.10547,0.82225 0.70144,-0.2693 1.40329,-0.5444 2.10547,-0.82225 z m -105.54688,1.50875 c 17.74625,6.88905 34.09376,9.9489 49.75879,10.0381 -14.066,-0.7558 -29.58474,-3.8006 -45.68262,-9.02735 -1.71154,-0.5557 -2.76909,-0.86055 -4.07617,-1.01075 z"
           style="display:inline;fill:#a45000;stroke:none;stroke-width:0.5;enable-background:new" />
        <path
           inkscape:connector-curvature="0"
           id="path3727"
           d="m 351.58315,82.389412 c -0.81429,-0.05675 -1.38909,0.113245 -1.38477,0.533205 0.007,0.67038 2.87921,10.144995 8.6582,28.562503 3.64191,11.60665 6.99639,23.05805 11.35254,38.75 2.64605,9.53173 5.09668,16.55813 6.25489,17.93458 1.1512,1.3681 1.49593,1.47725 4.75683,1.5078 1.93376,0.018 3.88298,0.2375 4.33106,0.4883 1.99074,1.11405 8.07999,-0.74805 8.8291,-2.7002 0.51536,-1.34305 0.35471,-2.2305 -0.4043,-2.2305 -0.83595,0 -1.09382,-0.7542 -1.53711,-4.5 -0.3793,-3.20515 -2.00491,-8.20714 -3.25,-9.99998 -1.78719,-2.57345 -3.02343,-5.74241 -2.74121,-7.02735 0.21514,-0.97952 -0.0782,-1.66216 -1.23633,-2.87402 -0.83548,-0.87425 -1.51953,-1.81624 -1.51953,-2.09375 0,-0.2775 -0.19848,-0.50488 -0.4414,-0.50488 -0.50412,0 -1.21033,-1.91411 -1.07911,-2.92481 0.12679,-0.97656 -2.37127,-4.57519 -3.17578,-4.57519 -0.37493,0 -0.96136,-0.3375 -1.30371,-0.75 -0.50841,-0.6126 -0.47825,-0.75 0.16406,-0.75 0.43251,0 0.98529,-0.35541 1.22852,-0.79004 0.33403,-0.59689 -0.20488,-1.45328 -2.20312,-3.5 -1.45506,-1.49037 -2.87306,-2.70996 -3.1504,-2.70996 -0.54807,0 -1.53906,-1.59937 -1.53906,-2.4834 0,-0.30184 2.08125,1.11956 4.625,3.1582 7.834,6.27842 14.73207,10.30056 22.375,13.04688 4.91054,1.76449 9.6292,2.84932 10.14649,2.33203 0.41967,-0.41967 -7.43907,-21.31476 -9.25391,-24.60449 -0.9984,-1.80979 -1.84321,-2.38385 -14.64258,-9.94922 -2.5589,-1.5125 -5.8555,-3.59968 -7.32617,-4.638673 -3.16807,-2.238165 -3.81837,-2.683795 -14.10352,-9.652345 -4.36137,-2.954985 -8.68529,-5.75789 -9.60839,-6.228515 -0.95349,-0.486115 -2.00701,-0.769415 -2.82129,-0.826175 z m -22.33106,68.169928 c -0.0518,-0.004 -0.087,0.003 -0.10351,0.0196 -0.2468,0.2468 -1.22465,4.26435 -2.17383,8.92771 -2.57457,12.649 -4.55967,21.84915 -5.99707,27.79885 -1.40197,5.80305 -1.54563,7.2097 -0.78516,7.6797 0.275,0.16995 0.5,0.7772 0.5,1.3496 0,0.5724 0.48881,2.0192 1.08594,3.21485 0.94329,1.88875 1.01048,2.41835 0.51367,4.0371 -0.48495,1.5801 -0.43488,2.0957 0.33203,3.3955 0.49735,0.84295 1.05933,2.1475 1.24805,2.8994 0.34269,1.3654 0.34538,1.3661 1.95703,0.542 0.88755,-0.4538 2.42913,-1.52555 3.42676,-2.38185 4.80201,-4.1216 8.59389,-6.93905 8.29687,-6.165 -0.36011,0.9384 0.37554,1.19055 0.917,0.31445 0.21482,-0.3476 0.50921,-0.3697 0.8164,-0.0625 0.3072,0.3072 1.17902,0.14205 2.41895,-0.45705 2.05409,-0.9924 4.24651,-1.2598 3.75097,-0.458 -0.3427,0.5545 1.99713,2.23145 2.58887,1.85545 0.45324,-0.288 1.98815,-3.23705 3.91895,-7.53025 1.80991,-4.02445 8.68767,-24.88215 8.84863,-26.83495 0.12418,-1.5067 -0.0609,-1.6779 -4.12012,-3.8174 -2.3375,-1.232 -9.39053,-5.0561 -15.67285,-8.49805 -6.32328,-3.46438 -10.99047,-5.77253 -11.76758,-5.82909 z M 251.43862,299.3572 c -0.1809,0.0235 -0.93633,0.329 -2.10547,0.82225 0.70144,-0.2693 1.40329,-0.5444 2.10547,-0.82225 z m -105.54688,1.50875 c 17.74625,6.88905 34.09376,9.9489 49.75879,10.0381 -14.066,-0.7558 -29.58474,-3.8006 -45.68262,-9.02735 -1.71154,-0.5557 -2.76909,-0.86055 -4.07617,-1.01075 z"
           style="display:inline;fill:#905401;stroke:none;stroke-width:0.5;enable-background:new" />
        <path
           inkscape:connector-curvature="0"
           id="path3723"
           d="m 669.14979,910.66661 c -0.1035,0.006 -0.17448,0.026 -0.20898,0.0606 -0.7556,0.7556 8.37986,11.31258 16.71875,19.31836 16.90163,16.22644 36.55611,27.62471 56.88281,32.99023 4.675,1.23403 8.64177,1.8596 8.81445,1.39063 0.45832,-1.24471 -9.68836,-26.62212 -11.10937,-27.78516 -0.66255,-0.54227 -6.83008,-3.05506 -13.70508,-5.58398 -6.875,-2.52892 -13.35558,-5.09466 -14.40039,-5.70117 -2.51339,-1.45902 -23.01613,-8.83238 -28.09961,-10.10547 -2.2,-0.55096 -6.38565,-1.90705 -9.30078,-3.01367 -2.55074,-0.9683 -4.86727,-1.61003 -5.5918,-1.57032 z m -77.08398,80.14454 c -0.73147,0.2807 -2.18487,5.47785 -3.44532,12.31645 -1.19933,6.5069 -4.91732,23.53 -8.26171,37.83 -8.47979,36.2581 -8.32961,35.4475 -6.97461,37.6172 0.63717,1.0203 1.1582,2.6001 1.1582,3.5098 0,0.9097 0.97761,3.6107 2.17188,6.0019 1.88009,3.7646 2.01849,4.8434 1.0371,8.041 -0.95983,3.1275 -0.8467,4.2397 0.74024,7.2618 1.03068,1.9627 2.14262,4.4023 2.4707,5.4218 0.38031,1.1819 1.16682,1.635 2.16992,1.25 0.86534,-0.332 1.96007,-0.6035 2.43164,-0.6035 0.47156,0 2.86598,-1.6875 5.32227,-3.75 11.91157,-10.0019 17.97567,-14.527 17.37695,-12.9668 -0.72022,1.8769 0.75107,2.3811 1.83399,0.6289 0.42965,-0.6951 1.01842,-0.7394 1.63281,-0.125 0.61439,0.6144 2.35803,0.2841 4.83789,-0.914 2.13291,-1.0305 4.84222,-1.8731 6.01953,-1.8731 1.17732,0 3.28322,-0.9 4.68164,-2 1.39842,-1.1 3.34048,-2 4.31446,-2 1.20598,0 2.78277,-2.1532 4.94531,-6.75 3.27341,-6.9581 17.58123,-48.8359 18.17773,-53.2051 0.29636,-2.1707 -0.70935,-3.0245 -8.66406,-7.3437 -4.95,-2.6878 -18.83494,-10.2758 -30.85547,-16.8613 -12.02052,-6.58556 -22.42508,-11.75343 -23.12109,-11.48635 z M 230.61073,1292.8443 c 27.17196,10.0087 52.72946,15.5237 77.31836,17.3067 -16.78999,-2.0831 -40.41279,-6.8299 -55.95313,-11.3106 -8.76384,-2.5268 -16.38359,-4.6728 -16.93359,-4.7675 -0.55,-0.095 -1.51263,-0.4913 -2.13867,-0.8829 -0.25629,-0.1602 -1.08969,-0.2711 -2.29297,-0.3457 z"
           style="display:inline;fill:#8c3800;stroke:none;filter:url(#filter6069);enable-background:new"
           transform="matrix(0.50000001,0,0,0.50000001,33.421338,-344.49371)" />
        <path
           inkscape:connector-curvature="0"
           id="path3719"
           d="m 704.04237,942.34435 3.5,3 c 5.09367,4.36631 19.14177,11.52242 29.5,15.02734 8.43592,2.85446 13.5,3.80634 13.5,2.53711 0,-0.30231 -0.66698,-1.84108 -1.48242,-3.41797 -1.00514,-1.94372 -2.53488,-3.07444 -4.75,-3.51367 -6.02783,-1.19525 -24.97436,-7.22375 -28.52539,-9.07617 -1.50846,-0.78689 -3.32621,-1.4345 -4.04102,-1.4375 -0.71481,-0.003 -2.73981,-0.70614 -4.5,-1.5625 z m -111.18164,49.1289 c -1.71286,-0.0226 -2.44336,3.07664 -2.44336,10.37695 0,7.3673 0.94931,13.3811 2.23828,14.1777 0.48765,0.3014 0.88672,2.0267 0.88672,3.834 0,1.9766 0.76847,3.9823 1.92969,5.0332 1.12141,1.0149 1.89575,2.9673 1.84765,4.6582 -0.0455,1.601 0.71664,3.7921 1.69141,4.8692 1.45123,1.6035 1.64788,2.9496 1.08789,7.4316 -0.63752,5.1025 -0.51393,5.5859 1.82617,7.1191 2.32761,1.5252 2.47016,2.0667 1.97071,7.4571 -0.29627,3.1974 -0.0938,6.6488 0.44921,7.6699 0.6137,1.154 0.66292,3.894 0.13086,7.2402 -0.53255,3.3493 -0.46183,7.2223 0.1875,10.25 0.57404,2.6767 1.2991,4.8672 1.60938,4.8672 1.64293,0 10.49127,-8.4929 18.17969,-17.4492 14.94843,-17.4135 30.09393,-39.025 30.08593,-42.9297 -0.004,-1.6474 -1.8477,-3.0647 -8.25,-6.3457 -4.53502,-2.324 -18.14609,-9.6295 -30.24609,-16.2344 -12.1,-6.60484 -22.53121,-12.01634 -23.18164,-12.02535 z M 241.14198,1295.5221 c -0.19823,-0.01 -0.53143,0.079 -1.00781,0.2617 -0.19236,0.074 -0.47203,0.1206 -0.79102,0.1504 0.55867,0.1884 1.1204,0.3857 1.67774,0.5703 0.0147,-0.025 0.0209,-0.044 0.0371,-0.07 0.37191,-0.6017 0.41437,-0.8954 0.084,-0.9121 z m 3.45703,1.2597 c -0.36085,0.01 -0.89563,0.099 -1.62109,0.2813 -0.062,0.016 -0.0912,0.017 -0.15039,0.031 0.68506,0.2224 1.36966,0.4455 2.05273,0.6621 0.0309,-0.071 0.0677,-0.146 0.12109,-0.2324 0.31369,-0.5076 0.19907,-0.7499 -0.40234,-0.7422 z m 3.29492,0.8692 c -0.28121,0 -0.72643,0.1082 -1.35156,0.3066 -0.223,0.071 -0.37388,0.099 -0.55273,0.1446 0.64006,0.2003 1.28158,0.4042 1.91992,0.5996 0.0329,-0.066 0.0622,-0.1288 0.10937,-0.2051 0.35851,-0.5801 0.34369,-0.8524 -0.125,-0.8457 z m 3.70508,1.1308 c -0.36085,0.01 -0.89563,0.099 -1.62109,0.2813 -0.20832,0.052 -0.33318,0.067 -0.50977,0.1055 0.79103,0.2375 1.58267,0.4791 2.3711,0.7089 0.028,-0.1 0.0754,-0.2132 0.1621,-0.3535 0.31369,-0.5075 0.19907,-0.7498 -0.40234,-0.7422 z m 3.06836,0.9922 c -0.33506,-0.01 -0.75699,0.066 -1.25,0.2227 -0.24493,0.078 -0.41936,0.1127 -0.60742,0.1562 1.01858,0.2933 2.03646,0.5829 3.05078,0.8633 -0.206,-0.1123 -0.31836,-0.2991 -0.31836,-0.5586 0,-0.4387 -0.31657,-0.6723 -0.875,-0.6836 z m 4.24805,0.8711 c -0.26326,0 -0.67579,0.092 -1.24805,0.2735 -0.5794,0.1839 -1.05282,0.2457 -1.41016,0.205 0.86925,0.2391 1.73735,0.4774 2.60352,0.7071 0.0371,-0.1067 0.0905,-0.2257 0.18164,-0.3731 0.33679,-0.5449 0.31181,-0.8095 -0.12695,-0.8125 z m 2.75195,1.1289 c -0.33506,-0.01 -0.75699,0.066 -1.25,0.2227 -0.18711,0.059 -0.30572,0.079 -0.45898,0.1191 0.89685,0.2342 1.79192,0.4653 2.68554,0.6895 -0.0612,-0.097 -0.10156,-0.2086 -0.10156,-0.3477 0,-0.4387 -0.31657,-0.6723 -0.875,-0.6836 z m 4.22266,0.8789 c -0.2662,8e-4 -0.67212,0.091 -1.22266,0.2657 -0.30043,0.095 -0.56643,0.1513 -0.81055,0.1855 0.70525,0.1737 1.41002,0.3442 2.11328,0.5117 0.0283,-0.07 0.0614,-0.1406 0.11329,-0.2246 0.30611,-0.4953 0.2503,-0.7395 -0.19336,-0.7383 z m 3.87304,0.9082 c -0.35774,0 -0.90354,0.1021 -1.65625,0.2911 -0.24387,0.061 -0.40379,0.084 -0.60547,0.125 0.83698,0.1944 1.67358,0.3884 2.50782,0.5742 0.0265,-0.057 0.0436,-0.1105 0.084,-0.1758 0.34316,-0.5553 0.26616,-0.8186 -0.33008,-0.8145 z m 5.67969,1.0059 c -0.51122,0.01 -1.28052,0.1151 -2.35351,0.3164 -0.36398,0.068 -0.60204,0.095 -0.89844,0.1406 1.23628,0.2649 2.47073,0.5178 3.70117,0.7637 0.0325,-0.1047 0.0833,-0.2212 0.16992,-0.3613 0.36773,-0.595 0.2329,-0.8693 -0.61914,-0.8594 z m 5.07813,1.082 c -0.43963,0.01 -1.0906,0.1136 -1.97852,0.3086 -0.38267,0.084 -0.64222,0.1226 -0.9375,0.1739 1.11368,0.2151 2.22299,0.4213 3.33203,0.621 0.0144,-0.098 0.0517,-0.2066 0.13281,-0.3378 0.32944,-0.5331 0.18389,-0.7813 -0.54882,-0.7657 z m 6.05078,1.002 c -0.46908,0.01 -1.24639,0.1073 -2.37696,0.2949 -0.48546,0.081 -0.83786,0.1185 -1.20898,0.1621 1.10801,0.1907 2.21483,0.3734 3.31836,0.5488 0.0738,-0.064 0.14093,-0.1246 0.23828,-0.1992 0.73443,-0.5629 0.81109,-0.8172 0.0293,-0.8066 z m 4.64843,1.0625 c -0.53481,-7e-4 -1.30526,0.086 -2.33007,0.2558 -0.13067,0.022 -0.19118,0.026 -0.3125,0.045 1.14978,0.1725 2.29631,0.3381 3.4414,0.4942 0.0102,-0.018 0.0117,-0.032 0.0234,-0.051 0.30929,-0.5004 0.0691,-0.743 -0.82227,-0.7442 z m 6.32032,0.9414 c -0.45022,0.01 -1.20167,0.1064 -2.24414,0.2773 0.83274,0.1027 1.66377,0.195 2.49414,0.2891 0.45518,-0.3903 0.41985,-0.5768 -0.25,-0.5664 z m 6.59765,1.0019 c -0.2949,9e-4 -0.74837,0.038 -1.20312,0.076 0.69494,0.064 1.39257,0.1369 2.08594,0.1954 0.0331,-0.1857 -0.24322,-0.2735 -0.88282,-0.2715 z"
           style="display:inline;fill:#6b2a01;stroke:none;filter:url(#filter5985);enable-background:new"
           transform="matrix(0.50000001,0,0,0.50000001,33.421338,-344.49371)" />
      </g>
      <path
         style="fill:#ffffff;fill-opacity:1;stroke:none;stroke-width:0.50799906px;stroke-linecap:butt;stroke-linejoin:miter;stroke-opacity:1"
         d="M 3.1467199,67.492586 H 48.052049 V 58.536879 L 43.053462,50.171657 35.842389,45.64459 H 14.700828 L 7.5716973,50.958948 3.55644,58.143218 Z"
         id="path881"
         inkscape:connector-curvature="0" />
      <path
         style="fill:#3bd300;fill-opacity:1;stroke:none;stroke-width:0.49645478px;stroke-linecap:butt;stroke-linejoin:miter;stroke-opacity:1"
         d="M 2.8189441,67.406125 V 77.46328 l 3.9333134,7.895342 6.9652425,4.699633 h 23.026273 l 7.129132,-4.793622 3.277762,-6.86143 0.409718,-10.997078 z"
         id="path883"
         inkscape:connector-curvature="0"
         sodipodi:nodetypes="ccccccccc" />
      <rect
         ry="10.616365"
         y="49.39679"
         x="4.9905806"
         height="34.060989"
         width="41.177788"
         id="rect840"
         style="opacity:1;fill:#8fff2f;fill-opacity:1;stroke:none;stroke-width:3.32565022;stroke-miterlimit:4;stroke-dasharray:none;stroke-dashoffset:20;stroke-opacity:1" />
      <rect
         style="opacity:1;fill:none;fill-opacity:1;stroke:#0f773e;stroke-width:2.66027284;stroke-miterlimit:4;stroke-dasharray:none;stroke-dashoffset:20;stroke-opacity:1"
         id="rect838"
         width="43.693886"
         height="43.388592"
         x="3.7432609"
         y="46.392471"
         ry="13.317478" />
      <g
         aria-label="1"
         style="font-style:normal;font-variant:normal;font-weight:normal;font-stretch:normal;font-size:17.20667076px;line-height:1.25;font-family:JuneBug;-inkscape-font-specification:JuneBug;letter-spacing:0px;word-spacing:0px;fill:#000000;fill-opacity:1;stroke:none;stroke-width:0.86033356;stroke-miterlimit:4;stroke-dasharray:none"
         id="text840">
        <path
           d="m 30.402479,58.774133 q 0,1.527953 -0.247776,3.634049 l -0.268424,2.291929 v 1.85832 q 0,0.30972 -0.08259,0.92916 -0.06194,0.598792 -0.06194,0.887864 -0.06194,2.477761 -0.41296,9.353546 -0.330368,0.30972 -0.660736,0.247776 -2.601649,-0.454256 -5.120705,-0.867216 -1.548601,-0.247776 -1.858321,-0.557496 0,-1.011752 0.06194,-3.035257 0.06194,-2.023504 0.06194,-3.035256 v -3.468865 q -0.20648,-0.0413 -0.887864,0.330368 -0.681384,0.351016 -0.92916,0.351016 -0.887864,0 -0.887864,-1.486656 v -4.129601 q 0,-0.763976 0.702032,-1.259528 0.41296,-0.289072 1.383416,-0.61944 1.094344,-0.371665 1.486657,-0.598793 1.362768,-0.805272 2.766832,-2.0648 0.20648,-0.185832 0.61944,-0.185832 0.30972,0 1.899617,0.433608 0.5162,0.20648 1.713784,0.61944 0.185832,0.0413 0.392312,0.06194 0.30972,0.08259 0.330368,0.30972 z"
           style="font-size:20.64800453px;fill:#ffffff;stroke:#000000;stroke-width:0.86033356;stroke-miterlimit:4;stroke-dasharray:none;stroke-opacity:1"
           id="path1767" />
      </g>
    </g>
  </g>
</svg>
