<?xml version="1.0" encoding="UTF-8" standalone="no"?>
<!-- Created with Inkscape (http://www.inkscape.org/) -->

<svg
   xmlns:dc="http://purl.org/dc/elements/1.1/"
   xmlns:cc="http://creativecommons.org/ns#"
   xmlns:rdf="http://www.w3.org/1999/02/22-rdf-syntax-ns#"
   xmlns:svg="http://www.w3.org/2000/svg"
   xmlns="http://www.w3.org/2000/svg"
   xmlns:xlink="http://www.w3.org/1999/xlink"
   xmlns:sodipodi="http://sodipodi.sourceforge.net/DTD/sodipodi-0.dtd"
   xmlns:inkscape="http://www.inkscape.org/namespaces/inkscape"
   width="108"
   height="108"
   viewBox="0 0 28.575 28.575"
   version="1.1"
   id="svg8"
   sodipodi:docname="tile_base.svg"
   inkscape:version="0.92.3 (2405546, 2018-03-11)">
  <defs
     id="defs2">
    <linearGradient
       inkscape:collect="always"
       id="linearGradient2367">
      <stop
         style="stop-color:#ff6400;stop-opacity:1"
         offset="0"
         id="stop2363" />
      <stop
         style="stop-color:#ffff00;stop-opacity:1"
         offset="1"
         id="stop2365" />
    </linearGradient>
    <clipPath
       id="clipPath5063"
       clipPathUnits="userSpaceOnUse">
      <rect
         transform="matrix(0.92122282,-0.38903536,0.32367982,0.94616667,0,0)"
         y="204.52045"
         x="62.990398"
         height="44.054543"
         width="97.085129"
         id="rect5065"
         style="fill:#c7740a;fill-opacity:1;stroke-width:1.04407191" />
    </clipPath>
    <clipPath
       id="clipPath5142"
       clipPathUnits="userSpaceOnUse">
      <text
         xml:space="preserve"
         style="font-style:normal;font-weight:normal;font-size:175.24552917px;line-height:1.25;font-family:sans-serif;letter-spacing:0px;word-spacing:0px;display:inline;fill:#f7ca05;fill-opacity:1;stroke:none;stroke-width:4.38113832"
         x="137.67905"
         y="243.14816"
         id="text5146"
         transform="matrix(0.91301871,0.39793872,-0.40116473,0.92042037,0,0)"><tspan
           sodipodi:role="line"
           id="tspan5144"
           x="137.67905"
           y="243.14816"
           style="font-style:normal;font-variant:normal;font-weight:normal;font-stretch:normal;font-family:'BadaBoom BB';-inkscape-font-specification:'BadaBoom BB';fill:#f7ca05;fill-opacity:1;stroke-width:4.38113832">1</tspan></text>
    </clipPath>
    <clipPath
       clipPathUnits="userSpaceOnUse"
       id="clipPath2351">
      <rect
         style="opacity:1;fill:#eeeeee;fill-opacity:1;stroke:#eeeeee;stroke-width:9.27272701;stroke-miterlimit:4;stroke-dasharray:none;stroke-opacity:1"
         id="rect2353"
         width="500.72726"
         height="500.72726"
         x="443.24863"
         y="16.140879"
         ry="184.16667" />
    </clipPath>
    <linearGradient
       inkscape:collect="always"
       xlink:href="#linearGradient2367"
       id="linearGradient2369"
       x1="35.75"
       y1="64.25"
       x2="68.5"
       y2="23.25"
       gradientUnits="userSpaceOnUse" />
    <linearGradient
       inkscape:collect="always"
       xlink:href="#linearGradient2367"
       id="linearGradient2375"
       gradientUnits="userSpaceOnUse"
       x1="35.75"
       y1="64.25"
       x2="68.5"
       y2="23.25" />
    <linearGradient
       inkscape:collect="always"
       xlink:href="#linearGradient2367"
       id="linearGradient1005"
       gradientUnits="userSpaceOnUse"
       x1="35.75"
       y1="64.25"
       x2="68.5"
       y2="23.25" />
    <linearGradient
       inkscape:collect="always"
       xlink:href="#linearGradient2367"
       id="linearGradient1007"
       gradientUnits="userSpaceOnUse"
       x1="35.75"
       y1="64.25"
       x2="68.5"
       y2="23.25" />
    <linearGradient
       inkscape:collect="always"
       xlink:href="#linearGradient2367"
       id="linearGradient1009"
       gradientUnits="userSpaceOnUse"
       x1="35.75"
       y1="64.25"
       x2="68.5"
       y2="23.25" />
  </defs>
  <sodipodi:namedview
     id="base"
     pagecolor="#ffffff"
     bordercolor="#666666"
     borderopacity="1.0"
     inkscape:pageopacity="0"
     inkscape:pageshadow="2"
     inkscape:zoom="4"
     inkscape:cx="52.645402"
     inkscape:cy="26.429713"
     inkscape:document-units="px"
     inkscape:current-layer="layer1"
     showgrid="false"
     units="px"
     showguides="false"
     inkscape:guide-bbox="true"
     inkscape:pagecheckerboard="true"
     inkscape:window-width="1600"
     inkscape:window-height="845"
     inkscape:window-x="0"
     inkscape:window-y="27"
     inkscape:window-maximized="1">
    <sodipodi:guide
       position="28.575,17.991667"
       orientation="0,1"
       id="guide819"
       inkscape:locked="false"
       inkscape:label=""
       inkscape:color="rgb(0,0,255)" />
  </sodipodi:namedview>
  <metadata
     id="metadata5">
    <rdf:RDF>
      <cc:Work
         rdf:about="">
        <dc:format>image/svg+xml</dc:format>
        <dc:type
           rdf:resource="http://purl.org/dc/dcmitype/StillImage" />
        <dc:title />
      </cc:Work>
    </rdf:RDF>
  </metadata>
  <g
     inkscape:label="Layer 1"
     inkscape:groupmode="layer"
     id="layer1"
     transform="translate(0,-268.425)">
    <path
       style="fill:#ffffff;fill-opacity:1;stroke:none;stroke-width:0.31245574px;stroke-linecap:butt;stroke-linejoin:miter;stroke-opacity:1"
       d="M 0.50140844,282.3785 H 28.121397 v -5.5084 l -3.074488,-5.14521 -4.435326,-2.78447 H 7.6080114 l -4.3849254,3.26871 -2.4696704,4.41884 z"
       id="path881"
       inkscape:connector-curvature="0" />
    <path
       style="fill:#3bd300;fill-opacity:1;stroke:none;stroke-width:0.30535519px;stroke-linecap:butt;stroke-linejoin:miter;stroke-opacity:1"
       d="m 0.29980287,282.32532 v 6.18587 l 2.41926903,4.8562 4.2841225,2.89061 H 21.165999 l 4.384926,-2.94842 2.016058,-4.22027 0.252006,-6.76399 z"
       id="path883"
       inkscape:connector-curvature="0"
       sodipodi:nodetypes="ccccccccc" />
    <rect
       ry="6.5298238"
       y="271.24829"
       x="1.6355147"
       height="20.949944"
       width="25.327284"
       id="rect840"
       style="opacity:1;fill:#8fff2f;fill-opacity:1;stroke:none;stroke-width:2.04551268;stroke-miterlimit:4;stroke-dasharray:none;stroke-dashoffset:20;stroke-opacity:1" />
    <rect
       style="opacity:1;fill:none;fill-opacity:1;stroke:#0f773e;stroke-width:1.63625801;stroke-miterlimit:4;stroke-dasharray:none;stroke-dashoffset:20;stroke-opacity:1"
       id="rect838"
       width="26.874865"
       height="26.687088"
       x="0.86832386"
       y="269.40042"
       ry="8.1912012" />
    <g
       id="g2386"
       style="font-style:normal;font-weight:normal;font-size:40px;line-height:1.25;font-family:sans-serif;letter-spacing:0px;word-spacing:0px;fill:url(#linearGradient2369);fill-opacity:1;stroke:#000000;stroke-width:6.00000008;stroke-miterlimit:4;stroke-dasharray:none;stroke-dashoffset:20;stroke-opacity:1"
       transform="matrix(0.26458333,0,0,0.26458333,2.0073608,270.24766)"
       aria-label="+1">
      <path
         id="path2382"
         style="font-style:normal;font-variant:normal;font-weight:normal;font-stretch:normal;font-family:junebug;-inkscape-font-specification:junebug;fill:url(#linearGradient2375);fill-opacity:1;stroke:#000000;stroke-width:6;stroke-miterlimit:4;stroke-dasharray:none;stroke-dashoffset:20;stroke-opacity:1"
         d="m 47.93,50.281191 c 0,0.16 -0.146667,0.306667 -0.44,0.44 -0.293333,0.133333 -0.52,0.173333 -0.68,0.12 -0.986667,-0.293333 -2.6,-0.4 -4.84,-0.32 0.08,0.746667 0.266667,1.826667 0.56,3.24 0.266667,1.306667 0.346667,2.28 0.24,2.92 -0.133333,0.08 -1.266667,0.28 -3.4,0.6 -1.946667,0.533333 -4.426667,1.173333 -7.44,1.92 -0.08,0.02667 -0.2,0.01333 -0.36,-0.04 -0.760446,-1.120259 -0.601962,-3.365927 -0.68,-4.4 -0.133333,-1.733333 -0.373333,-2.946667 -0.72,-3.64 -0.56,0 -1.386667,0.05333 -2.48,0.16 -1.093333,0.106667 -1.92,0.16 -2.48,0.16 -0.826667,0 -1.586667,-0.08 -2.28,-0.24 -0.186667,-0.02667 -0.4,-0.186667 -0.64,-0.48 0.4,-2.293333 0.76,-4.76 1.08,-7.4 0.02667,-0.24 0.05333,-0.946667 0.08,-2.12 0.24,-0.186667 0.64,-0.28 1.2,-0.28 0.586667,0 1.306667,0.09333 2.16,0.28 0.106667,0.02667 0.84,0.106667 2.2,0.24 0.16,-0.24 0.24,-0.546667 0.24,-0.92 v -2.4 c 0,-0.8 0.02667,-1.8 0.08,-3 0.08,-0.266667 0.64,-0.426667 1.68,-0.48 0.64,-0.02667 1.293333,-0.04 1.96,-0.04 2.442922,0.229774 6.432933,-1.940742 7,0.6 v 0.8 0.84 l 0.04,2.56 c 0,0.56 -0.01333,1.133333 -0.04,1.72 l -0.04,0.92 h 1.16 c 1.293619,-0.140145 2.592582,0.164073 4.16,0.36 0.48,0.05333 0.866667,0.106667 1.16,0.16 0.48,0.08 0.733333,0.2 0.76,0.36 0.133333,0.746667 0.386667,3.2 0.76,7.36 z"
         inkscape:connector-curvature="0"
         sodipodi:nodetypes="cscccccccccssccccsccsscccccccccccccc" />
      <path
         id="path2384"
         style="font-style:normal;font-variant:normal;font-weight:normal;font-stretch:normal;font-family:junebug;-inkscape-font-specification:junebug;fill:url(#linearGradient2375);fill-opacity:1;stroke:#000000;stroke-width:6.00000008;stroke-miterlimit:4;stroke-dasharray:none;stroke-dashoffset:20;stroke-opacity:1"
         d="m 70.53625,29.881191 q 0,2.96 -0.48,7.04 l -0.52,4.44 v 3.6 q 0,0.6 -0.16,1.8 -0.12,1.16 -0.12,1.72 -0.12,4.8 -0.8,18.12 -0.64,0.6 -1.28,0.48 -5.04,-0.88 -9.92,-1.68 -3,-0.48 -3.6,-1.08 0,-1.96 0.12,-5.88 0.12,-3.92 0.12,-5.88 v -6.72 q -0.4,-0.08 -1.72,0.64 -1.32,0.68 -1.8,0.68 -1.72,0 -1.72,-2.88 v -8 q 0,-1.48 1.36,-2.44 0.8,-0.56 2.68,-1.2 2.12,-0.72 2.88,-1.16 2.64,-1.56 5.36,-4 0.4,-0.36 1.2,-0.36 0.6,0 3.68,0.84 1,0.4 3.32,1.2 0.36,0.08 0.76,0.12 0.6,0.16 0.64,0.6 z" />
    </g>
    <g
       aria-label="+1"
       transform="matrix(0.26458333,0,0,0.26458333,2.0073607,270.24766)"
       style="font-style:normal;font-weight:normal;font-size:40px;line-height:1.25;font-family:sans-serif;letter-spacing:0px;word-spacing:0px;fill:url(#linearGradient1009);fill-opacity:1;stroke:#ffffff;stroke-width:2;stroke-miterlimit:4;stroke-dasharray:none;stroke-dashoffset:20;stroke-opacity:1"
       id="flowRoot2355">
      <path
         d="m 47.93,50.281191 c 0,0.16 -0.146667,0.306667 -0.44,0.44 -0.293333,0.133333 -0.52,0.173333 -0.68,0.12 -0.986667,-0.293333 -2.6,-0.4 -4.84,-0.32 0.08,0.746667 0.266667,1.826667 0.56,3.24 0.266667,1.306667 0.346667,2.28 0.24,2.92 -0.133333,0.08 -1.266667,0.28 -3.4,0.6 -1.946667,0.533333 -4.426667,1.173333 -7.44,1.92 -0.08,0.02667 -0.2,0.01333 -0.36,-0.04 -0.760444,-1.120259 -0.601962,-3.365927 -0.68,-4.4 -0.133333,-1.733333 -0.373333,-2.946667 -0.72,-3.64 -0.56,0 -1.386667,0.05333 -2.48,0.16 -1.093333,0.106667 -1.92,0.16 -2.48,0.16 -0.826667,0 -1.586667,-0.08 -2.28,-0.24 -0.186667,-0.02667 -0.4,-0.186667 -0.64,-0.48 0.4,-2.293333 0.76,-4.76 1.08,-7.4 0.02667,-0.24 0.05333,-0.946667 0.08,-2.12 0.24,-0.186667 0.64,-0.28 1.2,-0.28 0.586667,0 1.306667,0.09333 2.16,0.28 0.106667,0.02667 0.84,0.106667 2.2,0.24 0.16,-0.24 0.24,-0.546667 0.24,-0.92 v -2.4 c 0,-0.8 0.02667,-1.8 0.08,-3 0.08,-0.266667 0.64,-0.426667 1.68,-0.48 0.64,-0.02667 1.293333,-0.04 1.96,-0.04 2.693333,-0.133333 4.866667,-0.386667 6.52,-0.76 0.293333,0.213333 0.453333,0.666667 0.48,1.36 v 0.8 0.84 l 0.04,2.56 c 0,0.56 -0.01333,1.133333 -0.04,1.72 l -0.04,0.92 c 1.97832,-0.124682 3.2278,0.09848 5.32,0.36 0.48,0.05333 0.866667,0.106667 1.16,0.16 0.48,0.08 0.733333,0.2 0.76,0.36 0.133333,0.746667 0.386667,3.2 0.76,7.36 z"
         style="font-style:normal;font-variant:normal;font-weight:normal;font-stretch:normal;font-family:junebug;-inkscape-font-specification:junebug;fill:url(#linearGradient1005);fill-opacity:1;stroke:#ffffff;stroke-width:2;stroke-miterlimit:4;stroke-dasharray:none;stroke-dashoffset:20;stroke-opacity:1"
         id="path2377"
         inkscape:connector-curvature="0"
         sodipodi:nodetypes="cscccccccccssccccsccsscccccccccccccc" />
      <path
         inkscape:connector-curvature="0"
         d="m 70.53625,29.881191 q 0,2.96 -0.48,7.04 l -0.52,4.44 v 3.6 q 0,0.6 -0.16,1.8 -0.12,1.16 -0.12,1.72 -0.12,4.8 -0.8,18.12 -0.64,0.6 -1.28,0.48 -5.04,-0.88 -9.92,-1.68 -3,-0.48 -3.6,-1.08 0,-1.96 0.12,-5.88 0.12,-3.92 0.12,-5.88 v -6.72 q -0.4,-0.08 -1.72,0.64 -1.32,0.68 -1.8,0.68 -1.72,0 -1.72,-2.88 v -8 q 0,-1.48 1.36,-2.44 0.8,-0.56 2.68,-1.2 2.12,-0.72 2.88,-1.16 2.64,-1.56 5.36,-4 0.4,-0.36 1.2,-0.36 0.6,0 3.68,0.84 1,0.4 3.32,1.2 0.36,0.08 0.76,0.12 0.6,0.16 0.64,0.6 z"
         style="font-style:normal;font-variant:normal;font-weight:normal;font-stretch:normal;font-family:junebug;-inkscape-font-specification:junebug;fill:url(#linearGradient1007);fill-opacity:1;stroke:#ffffff;stroke-width:2;stroke-miterlimit:4;stroke-dasharray:none;stroke-dashoffset:20;stroke-opacity:1"
         id="path2379" />
    </g>
  </g>
</svg>
