<?xml version="1.0" encoding="UTF-8" standalone="no"?>
<!-- Created with Inkscape (http://www.inkscape.org/) -->

<svg
   xmlns:dc="http://purl.org/dc/elements/1.1/"
   xmlns:cc="http://creativecommons.org/ns#"
   xmlns:rdf="http://www.w3.org/1999/02/22-rdf-syntax-ns#"
   xmlns:svg="http://www.w3.org/2000/svg"
   xmlns="http://www.w3.org/2000/svg"
   xmlns:xlink="http://www.w3.org/1999/xlink"
   xmlns:sodipodi="http://sodipodi.sourceforge.net/DTD/sodipodi-0.dtd"
   xmlns:inkscape="http://www.inkscape.org/namespaces/inkscape"
   width="108"
   height="108"
   viewBox="0 0 28.575 28.575"
   version="1.1"
   id="svg8"
   sodipodi:docname="tile.svg"
   inkscape:version="0.92.3 (2405546, 2018-03-11)">
  <defs
     id="defs2">
    <linearGradient
       inkscape:collect="always"
       id="linearGradient2367">
      <stop
         style="stop-color:#ff6400;stop-opacity:1"
         offset="0"
         id="stop2363" />
      <stop
         style="stop-color:#ffff00;stop-opacity:1"
         offset="1"
         id="stop2365" />
    </linearGradient>
    <clipPath
       id="clipPath5063"
       clipPathUnits="userSpaceOnUse">
      <rect
         transform="matrix(0.92122282,-0.38903536,0.32367982,0.94616667,0,0)"
         y="204.52045"
         x="62.990398"
         height="44.054543"
         width="97.085129"
         id="rect5065"
         style="fill:#c7740a;fill-opacity:1;stroke-width:1.04407191" />
    </clipPath>
    <clipPath
       id="clipPath5142"
       clipPathUnits="userSpaceOnUse">
      <text
         xml:space="preserve"
         style="font-style:normal;font-weight:normal;font-size:175.24552917px;line-height:1.25;font-family:sans-serif;letter-spacing:0px;word-spacing:0px;display:inline;fill:#f7ca05;fill-opacity:1;stroke:none;stroke-width:4.38113832"
         x="137.67905"
         y="243.14816"
         id="text5146"
         transform="matrix(0.91301871,0.39793872,-0.40116473,0.92042037,0,0)"><tspan
           sodipodi:role="line"
           id="tspan5144"
           x="137.67905"
           y="243.14816"
           style="font-style:normal;font-variant:normal;font-weight:normal;font-stretch:normal;font-family:'BadaBoom BB';-inkscape-font-specification:'BadaBoom BB';fill:#f7ca05;fill-opacity:1;stroke-width:4.38113832">1</tspan></text>
    </clipPath>
    <clipPath
       clipPathUnits="userSpaceOnUse"
       id="clipPath2351">
      <rect
         style="opacity:1;fill:#eeeeee;fill-opacity:1;stroke:#eeeeee;stroke-width:9.27272701;stroke-miterlimit:4;stroke-dasharray:none;stroke-opacity:1"
         id="rect2353"
         width="500.72726"
         height="500.72726"
         x="443.24863"
         y="16.140879"
         ry="184.16667" />
    </clipPath>
    <linearGradient
       inkscape:collect="always"
       xlink:href="#linearGradient2367"
       id="linearGradient2369"
       x1="35.75"
       y1="64.25"
       x2="68.5"
       y2="23.25"
       gradientUnits="userSpaceOnUse" />
    <linearGradient
       inkscape:collect="always"
       xlink:href="#linearGradient2367"
       id="linearGradient2375"
       gradientUnits="userSpaceOnUse"
       x1="35.75"
       y1="64.25"
       x2="68.5"
       y2="23.25" />
    <linearGradient
       inkscape:collect="always"
       xlink:href="#linearGradient2367"
       id="linearGradient1005"
       gradientUnits="userSpaceOnUse"
       x1="35.75"
       y1="64.25"
       x2="68.5"
       y2="23.25" />
    <linearGradient
       inkscape:collect="always"
       xlink:href="#linearGradient2367"
       id="linearGradient1007"
       gradientUnits="userSpaceOnUse"
       x1="35.75"
       y1="64.25"
       x2="68.5"
       y2="23.25" />
    <linearGradient
       inkscape:collect="always"
       xlink:href="#linearGradient2367"
       id="linearGradient1009"
       gradientUnits="userSpaceOnUse"
       x1="35.75"
       y1="64.25"
       x2="68.5"
       y2="23.25" />
  </defs>
  <sodipodi:namedview
     id="base"
     pagecolor="#ffffff"
     bordercolor="#666666"
     borderopacity="1.0"
     inkscape:pageopacity="0"
     inkscape:pageshadow="2"
     inkscape:zoom="5.6568542"
     inkscape:cx="89.522358"
     inkscape:cy="28.806091"
     inkscape:document-units="px"
     inkscape:current-layer="layer1"
     showgrid="false"
     units="px"
     showguides="false"
     inkscape:guide-bbox="true"
     inkscape:pagecheckerboard="true"
     inkscape:window-width="1600"
     inkscape:window-height="845"
     inkscape:window-x="0"
     inkscape:window-y="27"
     inkscape:window-maximized="1">
    <sodipodi:guide
       position="28.575,17.991667"
       orientation="0,1"
       id="guide819"
       inkscape:locked="false"
       inkscape:label=""
       inkscape:color="rgb(0,0,255)" />
  </sodipodi:namedview>
  <metadata
     id="metadata5">
    <rdf:RDF>
      <cc:Work
         rdf:about="">
        <dc:format>image/svg+xml</dc:format>
        <dc:type
           rdf:resource="http://purl.org/dc/dcmitype/StillImage" />
        <dc:title></dc:title>
      </cc:Work>
    </rdf:RDF>
  </metadata>
  <g
     inkscape:label="Layer 1"
     inkscape:groupmode="layer"
     id="layer1"
     transform="translate(0,-268.425)">
    <g
       id="g923"
       transform="matrix(1.0775947,0,0,1.0775947,-1.0610362,-21.721169)">
      <path
         inkscape:connector-curvature="0"
         id="path881"
         d="M 1.4499372,280.11525 H 27.081085 v -4.25627 l -2.853103,-3.97563 -4.11595,-2.15152 H 8.0448128 l -4.0691787,2.52569 -2.2918361,3.41437 z"
         style="fill:#ffffff;fill-opacity:1;stroke:none;stroke-width:0.26458332px;stroke-linecap:butt;stroke-linejoin:miter;stroke-opacity:1" />
      <path
         sodipodi:nodetypes="ccccccccc"
         inkscape:connector-curvature="0"
         id="path883"
         d="m 1.2628487,283.81026 v 5.00461 l 2.245064,3.92886 3.9756343,2.33861 h 13.142979 l 4.069179,-2.38538 1.870887,-3.41437 0.23386,-5.47233 z"
         style="fill:#8fde5d;fill-opacity:1;stroke:none;stroke-width:0.26458332px;stroke-linecap:butt;stroke-linejoin:miter;stroke-opacity:1" />
      <path
         sodipodi:nodetypes="cssssccscssccsscsccsssscscsscscscccscsssscc"
         transform="matrix(0.26458333,0,0,0.26458333,0,268.425)"
         inkscape:connector-curvature="0"
         id="path861"
         d="M 35.712092,86.744126 C 25.856442,85.799674 16.718672,79.423646 12.138443,70.295231 11.118719,68.262916 10.165239,65.599654 9.7937362,63.745989 9.6421721,62.989739 9.3983311,61.771781 9.2518675,61.039416 c -0.1611906,-0.806005 -0.2627979,-5.049 -0.2574309,-10.75 0.00872,-9.26245 0.028536,-9.58649 0.8970304,-14.668427 0.070496,-0.4125 0.22427,-0.975 0.341722,-1.25 0.117451,-0.275 0.404614,-1.0625 0.638138,-1.75 0.5758,-1.695164 2.337521,-5.291601 2.766497,-5.647619 0.19126,-0.158732 0.347746,-0.443578 0.347746,-0.632992 0,-0.189414 0.09444,-0.344389 0.209871,-0.344389 0.115429,0 0.326589,-0.253125 0.469245,-0.5625 0.692291,-1.501364 5.50702,-6.316093 7.008384,-7.008384 0.309375,-0.142656 0.5625,-0.353816 0.5625,-0.469245 0,-0.115429 0.154975,-0.209871 0.344389,-0.209871 0.189414,0 0.47426,-0.156486 0.632992,-0.347746 0.356018,-0.428976 3.952455,-2.190697 5.647619,-2.766497 0.6875,-0.233524 1.475,-0.520687 1.75,-0.638138 0.275,-0.117452 0.89375,-0.281723 1.375,-0.365048 0.48125,-0.08333 1.4375,-0.270531 2.125,-0.416012 1.886907,-0.399287 32.832125,-0.583499 37.375,-0.222487 1.99375,0.158439 3.731875,0.393338 3.8625,0.521999 0.130625,0.128661 0.58625,0.233929 1.0125,0.233929 0.42625,0 0.881875,0.09294 1.0125,0.20653 0.130625,0.113591 0.74375,0.355903 1.3625,0.538471 1.641985,0.484482 5.19186,2.196677 6.563077,3.165539 0.653445,0.461703 1.24897,0.83946 1.323393,0.83946 0.07442,0 0.590297,0.421875 1.14639,0.9375 0.556092,0.515625 1.198067,1.042713 1.42661,1.171307 0.499632,0.281129 0.550227,0.333982 2.288975,2.391193 0.755395,0.89375 1.430395,1.68125 1.5,1.75 0.235297,0.232406 2.501555,3.742949 2.501555,3.875031 0,0.07206 0.378192,0.945286 0.840425,1.940496 0.462235,0.99521 1.035102,2.484473 1.27304,3.309473 0.237935,0.825 0.534745,1.845487 0.659572,2.267749 0.12483,0.422263 0.226963,1.118748 0.226963,1.547746 0,0.428997 0.1125,0.849525 0.25,0.934505 0.1604,0.09913 0.25,4.01034 0.25,10.912982 0,9.722068 -0.04748,10.991465 -0.492868,13.17702 -1.43183,7.026108 -4.887622,12.856288 -10.257132,17.304548 -4.554153,3.772792 -10.13201,6.116295 -15.98791,6.717225 -2.88387,0.29594 -33.466648,0.305452 -36.535568,0.01138 z"
         style="opacity:1;fill:#c6f65d;fill-opacity:1;stroke:#c6f65d;stroke-width:2;stroke-miterlimit:4;stroke-dasharray:none;stroke-dashoffset:20;stroke-opacity:1" />
      <path
         transform="matrix(0.26458333,0,0,0.26458333,0,268.425)"
         inkscape:connector-curvature="0"
         id="path865"
         d="m 30.98557,103.113 c -0.75625,-0.19021 -1.733985,-0.35059 -2.172745,-0.35642 -0.43876,-0.006 -0.867275,-0.12309 -0.952255,-0.26059 -0.08498,-0.1375 -0.406619,-0.25 -0.714754,-0.25 -0.308136,0 -0.667121,-0.0895 -0.797746,-0.19897 -0.130625,-0.10943 -0.6875,-0.3465 -1.2375,-0.52682 C 19.453844,99.665579 13.282527,94.846101 9.4875997,89.319471 8.5239835,87.916139 7.73557,86.705401 7.73557,86.628944 c 0,-0.07646 -0.3865218,-0.953273 -0.858937,-1.948483 -0.9631465,-2.029005 -1.8335741,-4.49843 -2.1799151,-6.184472 -0.1271014,-0.61875 -0.3672307,-1.8 -0.5336207,-2.625 -0.4318007,-2.140968 -0.4318007,-42.859033 0,-45 0.16639,-0.825 0.4065193,-2.00625 0.5336207,-2.625 0.346341,-1.686044 1.2167686,-4.155468 2.1799151,-6.184473 0.4724152,-0.99521 0.858937,-1.872028 0.858937,-1.948483 0,-0.07646 0.8008255,-1.306761 1.7796122,-2.734012 C 13.281087,11.88764 19.45235,7.0768882 25.11057,5.2217792 c 0.55,-0.1803235 1.106875,-0.417395 1.2375,-0.5268255 0.130625,-0.1094306 0.48961,-0.1989647 0.797746,-0.1989647 0.308135,0 0.629774,-0.1125 0.714754,-0.25 0.08498,-0.1375 0.513495,-0.2540074 0.952255,-0.2589054 0.43876,-0.0049 1.472745,-0.1718906 2.297745,-0.3710948 2.254547,-0.544382 43.425212,-0.5360216 45.999907,0.00934 0.962448,0.2038625 2.0046,0.3706591 2.315893,0.3706591 0.31129,0 0.761332,0.099375 1.000092,0.2208321 0.77482,0.3941541 1.658368,0.7353722 2.98077,1.1511476 0.713163,0.2242253 2.223295,0.9072583 3.355848,1.5178513 1.132552,0.610593 2.152177,1.110169 2.265837,1.110169 0.11366,0 0.206653,0.088244 0.206653,0.196098 0,0.107854 0.365625,0.4087565 0.8125,0.668672 0.446875,0.2599155 0.86875,0.5379365 0.9375,0.6178242 0.06875,0.079888 0.57348,0.480003 1.121622,0.8891449 1.764163,1.3168 4.879405,4.693745 6.348445,6.881757 1.37248,2.044192 3.123313,5.407971 3.771773,7.246504 0.16974,0.48125 0.40307,1.1 0.51852,1.375 0.19598,0.466863 0.41997,1.413228 1.06508,4.5 0.35907,1.718052 0.35907,44.281947 0,46 -0.64511,3.086772 -0.8691,4.033137 -1.06508,4.5 -0.11545,0.275 -0.34878,0.89375 -0.51852,1.375 -0.64846,1.838532 -2.399293,5.202312 -3.771773,7.246502 -1.467617,2.185895 -4.580665,5.561158 -6.348445,6.88318 -0.548142,0.409925 -1.145282,0.885943 -1.32698,1.057818 -0.181695,0.171875 -0.413607,0.3125 -0.51536,0.3125 -0.10175,0 -0.40309,0.20042 -0.669642,0.44538 -0.634918,0.583482 -5.204028,2.899452 -6.48464,3.286902 -0.55,0.16641 -1.253125,0.40722 -1.5625,0.53514 -3.209313,1.32698 -3.313918,1.33233 -27.1875,1.39118 -18.03816,0.0445 -22.247615,-0.008 -23.375,-0.29159 z m 41.875,-4.076501 c 3.1738,-0.462848 5.99415,-1.150885 6.4875,-1.582655 0.130625,-0.11432 0.42514,-0.207855 0.654475,-0.207855 0.795262,0 6.08277,-2.912783 8.019885,-4.417993 0.752372,-0.584622 4.68582,-4.510295 5.342565,-5.332007 1.87815,-2.349918 4.240892,-6.791375 4.98726,-9.375 0.23833,-0.825 0.527597,-1.725 0.642817,-2 0.77084,-1.839785 0.993355,-6.719545 1.054478,-23.125 0.0571,-15.31516 -0.08318,-20.07785 -0.600663,-20.397673 -0.117325,-0.07251 -0.213317,-0.568557 -0.213317,-1.102327 0,-0.53377 -0.09952,-1.031998 -0.221153,-1.107173 -0.121635,-0.07517 -0.296885,-0.64169 -0.389445,-1.258925 -0.09256,-0.617237 -0.274292,-1.187759 -0.403847,-1.267829 -0.129555,-0.08007 -0.235555,-0.341514 -0.235555,-0.580986 0,-0.54695 -0.56209,-1.780532 -0.8125,-1.783137 -0.103125,-0.0011 -0.1875,-0.177175 -0.1875,-0.391339 0,-0.694197 -2.479528,-4.77672 -3.852713,-6.343462 -1.247645,-1.423506 -4.945145,-5.017149 -5.162147,-5.017149 -0.109683,0 -0.357788,-0.158362 -0.55134,-0.351915 -0.515625,-0.515624 -3.116053,-2.148085 -3.42179,-2.148085 -0.144105,0 -0.26201,-0.1125 -0.26201,-0.25 0,-0.1375 -0.113053,-0.25 -0.251225,-0.25 -0.138175,0 -0.83423,-0.28125 -1.54679,-0.625 -0.712558,-0.34375 -1.499508,-0.625 -1.748773,-0.625 -0.249267,0 -0.453212,-0.1125 -0.453212,-0.25 0,-0.1375 -0.25875,-0.25 -0.575,-0.25 -0.31625,0 -0.681875,-0.096643 -0.8125,-0.2147625 -0.282458,-0.255416 -2.554538,-0.7581225 -4.9875,-1.103504 -2.388975,-0.339137 -36.45295,-0.337709 -38.75,0.00163 -2.843423,0.4200465 -5.688768,1.1579782 -6.2375,1.617677 -0.130625,0.1094305 -0.49625,0.1989645 -0.8125,0.1989645 -0.31625,0 -0.575,0.1125 -0.575,0.25 0,0.1375 -0.169574,0.25 -0.376832,0.25 -0.43176,0 -2.955894,1.279882 -3.081501,1.5625 -0.04583,0.103125 -0.203965,0.1875 -0.351403,0.1875 -0.147438,0 -0.636806,0.28125 -1.087486,0.625 -0.450679,0.34375 -0.939423,0.625 -1.086098,0.625 -0.146674,0 -0.26668,0.08824 -0.26668,0.196098 0,0.107854 -0.309375,0.386478 -0.6875,0.619165 -1.393133,0.857292 -6.312121,5.958877 -6.312805,6.547141 -1.68e-4,0.144428 -0.283633,0.592046 -0.629921,0.994708 -0.963983,1.120911 -3.369774,6.228849 -3.369774,7.15465 0,0.26853 -0.1125,0.488238 -0.25,0.488238 -0.1375,0 -0.25,0.27461 -0.25,0.610245 0,0.335635 -0.097961,0.67079 -0.2176918,0.744787 -0.1197305,0.074 -0.2883955,0.671263 -0.374811,1.327255 -0.086416,0.655993 -0.2602112,1.867713 -0.3862125,2.692713 -0.3238695,2.120552 -0.3357857,34.45372 -0.013528,36.701842 0.6725675,4.691918 1.0947708,6.557268 1.75012,7.732265 0.1331663,0.23876 0.2394573,0.57626 0.2362013,0.75 -0.0085,0.453088 2.513305,5.35454 3.0529,5.933725 0.249161,0.267445 0.45302,0.563753 0.45302,0.658465 0,0.312143 1.840952,2.44327 3.68741,4.268633 2.058948,2.03542 5.655029,4.604872 8.06259,5.760837 3.531076,1.69541 5.959448,2.360123 10.357737,2.8352 1.228002,0.132643 2.292585,0.30102 2.36574,0.374173 0.24141,0.241412 32.855152,-0.08766 34.651524,-0.34963 z"
         style="opacity:1;fill:#3ca370;fill-opacity:1;stroke:none;stroke-width:1.5;stroke-miterlimit:4;stroke-dasharray:none;stroke-dashoffset:20;stroke-opacity:1" />
    </g>
    <g
       id="g2386"
       style="font-style:normal;font-weight:normal;font-size:40px;line-height:1.25;font-family:sans-serif;letter-spacing:0px;word-spacing:0px;fill:url(#linearGradient2369);fill-opacity:1;stroke:#000000;stroke-width:6.00000008;stroke-miterlimit:4;stroke-dasharray:none;stroke-dashoffset:20;stroke-opacity:1"
       transform="matrix(0.26458333,0,0,0.26458333,2.0073608,270.24766)"
       aria-label="+1">
      <path
         id="path2382"
         style="font-style:normal;font-variant:normal;font-weight:normal;font-stretch:normal;font-family:junebug;-inkscape-font-specification:junebug;fill:url(#linearGradient2375);fill-opacity:1;stroke:#000000;stroke-width:6;stroke-miterlimit:4;stroke-dasharray:none;stroke-dashoffset:20;stroke-opacity:1"
         d="m 47.93,50.281191 c 0,0.16 -0.146667,0.306667 -0.44,0.44 -0.293333,0.133333 -0.52,0.173333 -0.68,0.12 -0.986667,-0.293333 -2.6,-0.4 -4.84,-0.32 0.08,0.746667 0.266667,1.826667 0.56,3.24 0.266667,1.306667 0.346667,2.28 0.24,2.92 -0.133333,0.08 -1.266667,0.28 -3.4,0.6 -1.946667,0.533333 -4.426667,1.173333 -7.44,1.92 -0.08,0.02667 -0.2,0.01333 -0.36,-0.04 -0.760446,-1.120259 -0.601962,-3.365927 -0.68,-4.4 -0.133333,-1.733333 -0.373333,-2.946667 -0.72,-3.64 -0.56,0 -1.386667,0.05333 -2.48,0.16 -1.093333,0.106667 -1.92,0.16 -2.48,0.16 -0.826667,0 -1.586667,-0.08 -2.28,-0.24 -0.186667,-0.02667 -0.4,-0.186667 -0.64,-0.48 0.4,-2.293333 0.76,-4.76 1.08,-7.4 0.02667,-0.24 0.05333,-0.946667 0.08,-2.12 0.24,-0.186667 0.64,-0.28 1.2,-0.28 0.586667,0 1.306667,0.09333 2.16,0.28 0.106667,0.02667 0.84,0.106667 2.2,0.24 0.16,-0.24 0.24,-0.546667 0.24,-0.92 v -2.4 c 0,-0.8 0.02667,-1.8 0.08,-3 0.08,-0.266667 0.64,-0.426667 1.68,-0.48 0.64,-0.02667 1.293333,-0.04 1.96,-0.04 2.442922,0.229774 6.432933,-1.940742 7,0.6 v 0.8 0.84 l 0.04,2.56 c 0,0.56 -0.01333,1.133333 -0.04,1.72 l -0.04,0.92 h 1.16 c 1.293619,-0.140145 2.592582,0.164073 4.16,0.36 0.48,0.05333 0.866667,0.106667 1.16,0.16 0.48,0.08 0.733333,0.2 0.76,0.36 0.133333,0.746667 0.386667,3.2 0.76,7.36 z"
         inkscape:connector-curvature="0"
         sodipodi:nodetypes="cscccccccccssccccsccsscccccccccccccc" />
      <path
         id="path2384"
         style="font-style:normal;font-variant:normal;font-weight:normal;font-stretch:normal;font-family:junebug;-inkscape-font-specification:junebug;fill:url(#linearGradient2375);fill-opacity:1;stroke:#000000;stroke-width:6.00000008;stroke-miterlimit:4;stroke-dasharray:none;stroke-dashoffset:20;stroke-opacity:1"
         d="m 70.53625,29.881191 q 0,2.96 -0.48,7.04 l -0.52,4.44 v 3.6 q 0,0.6 -0.16,1.8 -0.12,1.16 -0.12,1.72 -0.12,4.8 -0.8,18.12 -0.64,0.6 -1.28,0.48 -5.04,-0.88 -9.92,-1.68 -3,-0.48 -3.6,-1.08 0,-1.96 0.12,-5.88 0.12,-3.92 0.12,-5.88 v -6.72 q -0.4,-0.08 -1.72,0.64 -1.32,0.68 -1.8,0.68 -1.72,0 -1.72,-2.88 v -8 q 0,-1.48 1.36,-2.44 0.8,-0.56 2.68,-1.2 2.12,-0.72 2.88,-1.16 2.64,-1.56 5.36,-4 0.4,-0.36 1.2,-0.36 0.6,0 3.68,0.84 1,0.4 3.32,1.2 0.36,0.08 0.76,0.12 0.6,0.16 0.64,0.6 z" />
    </g>
    <g
       aria-label="+1"
       transform="matrix(0.26458333,0,0,0.26458333,2.0073607,270.24766)"
       style="font-style:normal;font-weight:normal;font-size:40px;line-height:1.25;font-family:sans-serif;letter-spacing:0px;word-spacing:0px;fill:url(#linearGradient1009);fill-opacity:1;stroke:#ffffff;stroke-width:2;stroke-miterlimit:4;stroke-dasharray:none;stroke-dashoffset:20;stroke-opacity:1"
       id="flowRoot2355">
      <path
         d="m 47.93,50.281191 c 0,0.16 -0.146667,0.306667 -0.44,0.44 -0.293333,0.133333 -0.52,0.173333 -0.68,0.12 -0.986667,-0.293333 -2.6,-0.4 -4.84,-0.32 0.08,0.746667 0.266667,1.826667 0.56,3.24 0.266667,1.306667 0.346667,2.28 0.24,2.92 -0.133333,0.08 -1.266667,0.28 -3.4,0.6 -1.946667,0.533333 -4.426667,1.173333 -7.44,1.92 -0.08,0.02667 -0.2,0.01333 -0.36,-0.04 -0.760444,-1.120259 -0.601962,-3.365927 -0.68,-4.4 -0.133333,-1.733333 -0.373333,-2.946667 -0.72,-3.64 -0.56,0 -1.386667,0.05333 -2.48,0.16 -1.093333,0.106667 -1.92,0.16 -2.48,0.16 -0.826667,0 -1.586667,-0.08 -2.28,-0.24 -0.186667,-0.02667 -0.4,-0.186667 -0.64,-0.48 0.4,-2.293333 0.76,-4.76 1.08,-7.4 0.02667,-0.24 0.05333,-0.946667 0.08,-2.12 0.24,-0.186667 0.64,-0.28 1.2,-0.28 0.586667,0 1.306667,0.09333 2.16,0.28 0.106667,0.02667 0.84,0.106667 2.2,0.24 0.16,-0.24 0.24,-0.546667 0.24,-0.92 v -2.4 c 0,-0.8 0.02667,-1.8 0.08,-3 0.08,-0.266667 0.64,-0.426667 1.68,-0.48 0.64,-0.02667 1.293333,-0.04 1.96,-0.04 2.693333,-0.133333 4.866667,-0.386667 6.52,-0.76 0.293333,0.213333 0.453333,0.666667 0.48,1.36 v 0.8 0.84 l 0.04,2.56 c 0,0.56 -0.01333,1.133333 -0.04,1.72 l -0.04,0.92 c 1.97832,-0.124682 3.2278,0.09848 5.32,0.36 0.48,0.05333 0.866667,0.106667 1.16,0.16 0.48,0.08 0.733333,0.2 0.76,0.36 0.133333,0.746667 0.386667,3.2 0.76,7.36 z"
         style="font-style:normal;font-variant:normal;font-weight:normal;font-stretch:normal;font-family:junebug;-inkscape-font-specification:junebug;fill:url(#linearGradient1005);fill-opacity:1;stroke:#ffffff;stroke-width:2;stroke-miterlimit:4;stroke-dasharray:none;stroke-dashoffset:20;stroke-opacity:1"
         id="path2377"
         inkscape:connector-curvature="0"
         sodipodi:nodetypes="cscccccccccssccccsccsscccccccccccccc" />
      <path
         inkscape:connector-curvature="0"
         d="m 70.53625,29.881191 q 0,2.96 -0.48,7.04 l -0.52,4.44 v 3.6 q 0,0.6 -0.16,1.8 -0.12,1.16 -0.12,1.72 -0.12,4.8 -0.8,18.12 -0.64,0.6 -1.28,0.48 -5.04,-0.88 -9.92,-1.68 -3,-0.48 -3.6,-1.08 0,-1.96 0.12,-5.88 0.12,-3.92 0.12,-5.88 v -6.72 q -0.4,-0.08 -1.72,0.64 -1.32,0.68 -1.8,0.68 -1.72,0 -1.72,-2.88 v -8 q 0,-1.48 1.36,-2.44 0.8,-0.56 2.68,-1.2 2.12,-0.72 2.88,-1.16 2.64,-1.56 5.36,-4 0.4,-0.36 1.2,-0.36 0.6,0 3.68,0.84 1,0.4 3.32,1.2 0.36,0.08 0.76,0.12 0.6,0.16 0.64,0.6 z"
         style="font-style:normal;font-variant:normal;font-weight:normal;font-stretch:normal;font-family:junebug;-inkscape-font-specification:junebug;fill:url(#linearGradient1007);fill-opacity:1;stroke:#ffffff;stroke-width:2;stroke-miterlimit:4;stroke-dasharray:none;stroke-dashoffset:20;stroke-opacity:1"
         id="path2379" />
    </g>
  </g>
</svg>
