<?xml version="1.0" encoding="UTF-8" standalone="no"?>
<!-- Created with Inkscape (http://www.inkscape.org/) -->

<svg
   xmlns:dc="http://purl.org/dc/elements/1.1/"
   xmlns:cc="http://creativecommons.org/ns#"
   xmlns:rdf="http://www.w3.org/1999/02/22-rdf-syntax-ns#"
   xmlns:svg="http://www.w3.org/2000/svg"
   xmlns="http://www.w3.org/2000/svg"
   xmlns:sodipodi="http://sodipodi.sourceforge.net/DTD/sodipodi-0.dtd"
   xmlns:inkscape="http://www.inkscape.org/namespaces/inkscape"
   version="1.1"
   id="svg2"
   width="200"
   height="200"
   viewBox="0 0 200 200"
   sodipodi:docname="coin.svg"
   inkscape:version="0.92.4 (f8dce91, 2019-08-02)">
  <metadata
     id="metadata8">
    <rdf:RDF>
      <cc:Work
         rdf:about="">
        <dc:format>image/svg+xml</dc:format>
        <dc:type
           rdf:resource="http://purl.org/dc/dcmitype/StillImage" />
        <dc:title></dc:title>
      </cc:Work>
    </rdf:RDF>
  </metadata>
  <defs
     id="defs6">
    <clipPath
       clipPathUnits="userSpaceOnUse"
       id="clipPath5063">
      <rect
         style="fill:#c7740a;fill-opacity:1;stroke-width:1.04407191"
         id="rect5065"
         width="97.085129"
         height="44.054543"
         x="62.990398"
         y="204.52045"
         transform="matrix(0.92122282,-0.38903536,0.32367982,0.94616667,0,0)" />
    </clipPath>
    <clipPath
       clipPathUnits="userSpaceOnUse"
       id="clipPath5142">
      <text
         transform="matrix(0.91301871,0.39793872,-0.40116473,0.92042037,0,0)"
         id="text5146"
         y="243.14816"
         x="137.67905"
         style="font-style:normal;font-weight:normal;font-size:175.24552917px;line-height:1.25;font-family:sans-serif;letter-spacing:0px;word-spacing:0px;display:inline;fill:#f7ca05;fill-opacity:1;stroke:none;stroke-width:4.38113832"
         xml:space="preserve"><tspan
           style="font-style:normal;font-variant:normal;font-weight:normal;font-stretch:normal;font-family:'BadaBoom BB';-inkscape-font-specification:'BadaBoom BB';fill:#f7ca05;fill-opacity:1;stroke-width:4.38113832"
           y="243.14816"
           x="137.67905"
           id="tspan5144"
           sodipodi:role="line">1</tspan></text>
    </clipPath>
  </defs>
  <sodipodi:namedview
     pagecolor="#ffffff"
     bordercolor="#666666"
     borderopacity="1"
     objecttolerance="10"
     gridtolerance="10"
     guidetolerance="10"
     inkscape:pageopacity="0"
     inkscape:pageshadow="2"
     inkscape:window-width="1533"
     inkscape:window-height="845"
     id="namedview4"
     showgrid="false"
     inkscape:zoom="2"
     inkscape:cx="193.52338"
     inkscape:cy="100"
     inkscape:window-x="67"
     inkscape:window-y="27"
     inkscape:window-maximized="1"
     inkscape:current-layer="layer2" />
  <g
     inkscape:groupmode="layer"
     id="layer2"
     inkscape:label="Highlight"
     style="display:inline"
     transform="translate(0,-183)">
    <path
       style="display:inline;fill:#f4a309;fill-opacity:1;stroke-width:0.38355431"
       d="M 67.064938,378.38844 C 64.546269,377.8893 57.804354,374.25327 51.403743,370.01299 45.295588,365.96645 38.04154,360.44212 32.119759,355.32723 26.951627,350.8633 16.03431,341.67392 13.781693,338.58484 8.6522748,331.5507 4.9163002,319.40545 4.022457,306.85866 3.4329054,298.58311 0.81365845,243.18625 1.2834514,242.12373 32.951561,213.25322 39.358327,208.76275 55.910632,190.56226 c 17.82863,-8.76894 34.792805,-8.48842 54.722138,-6.19692 l 16.78588,4.75084 c 8.70889,2.46484 41.00735,17.39179 46.18418,24.28788 8.29324,21.28799 25.06233,50.34568 26.02207,66.18385 0.98648,24.12319 -24.414,64.88085 -34.36289,80.96337 -2.99316,4.83848 -12.89427,10.91603 -12.89427,10.91603 0,0 -6.6086,5.46571 -22.66524,7.35963 l -9.5451,1.12587 -23.838045,2.65976 c -15.156332,-0.0235 -28.320819,-4.03916 -29.254417,-4.22418 z"
       id="path5027"
       inkscape:connector-curvature="0"
       sodipodi:nodetypes="csscscccsccscscccc" />
    <path
       sodipodi:nodetypes="cccccccc"
       inkscape:connector-curvature="0"
       id="path5119"
       style="font-style:normal;font-variant:normal;font-weight:normal;font-stretch:normal;font-size:175.24552917px;line-height:1.25;font-family:'BadaBoom BB';-inkscape-font-specification:'BadaBoom BB';letter-spacing:0px;word-spacing:0px;fill:#8c3c17;fill-opacity:1;stroke:none;stroke-width:4.14178038"
       d="m 110.94418,221.10131 c -2.59576,44.42019 -1.41629,82.96094 1.65239,116.45722 l -24.753596,12.46995 -7.195086,-0.29312 6.926187,-83.32439 -28.987085,4.4799 45.27125,-49.78036 z" />
    <path
       sodipodi:nodetypes="cscccscscccc"
       inkscape:connector-curvature="0"
       id="path5122"
       d="M 67.064938,378.38844 C 64.546269,377.8893 57.804354,374.25327 51.403743,370.01299 45.295588,365.96645 38.04154,360.44212 32.119759,355.32723 141.05142,369.9073 170.63822,284.76807 173.60283,213.40406 c 8.29324,21.28799 25.06233,50.34568 26.02207,66.18385 0.98648,24.12319 -24.414,64.88085 -34.36289,80.96337 -2.99316,4.83848 -12.89427,10.91603 -12.89427,10.91603 0,0 -6.6086,5.46571 -22.66524,7.35963 l -9.5451,1.12587 -23.838045,2.65976 c -15.156332,-0.0235 -28.320819,-4.03916 -29.254417,-4.22418 z"
       style="display:inline;fill:#c46e00;fill-opacity:1;stroke-width:0.38355431" />
    <g
       aria-label="1"
       transform="matrix(0.96088775,-0.19647815,0.19157334,1.0015322,0,0)"
       style="font-style:normal;font-weight:normal;font-size:165.67120361px;line-height:1.25;font-family:sans-serif;letter-spacing:0px;word-spacing:0px;display:inline;fill:#f7ca05;fill-opacity:1;stroke:none;stroke-width:4.14178038"
       id="text5055">
      <path
         d="m 62.332244,232.57437 q -16.664193,63.25922 -21.67963,112.44285 l -27.180432,7.11869 14.237369,-83.64454 -21.194265,3.23576 4.368284,-30.73977 z"
         style="font-style:normal;font-variant:normal;font-weight:normal;font-stretch:normal;font-family:'BadaBoom BB';-inkscape-font-specification:'BadaBoom BB';fill:#f7ca05;fill-opacity:1;stroke-width:4.14178038"
         id="path5238"
         inkscape:connector-curvature="0" />
    </g>
    <path
       style="fill:#e38b10;fill-opacity:1;stroke-width:0.54242772"
       d="M 42.535682,343.45869 C 34.31212,334.49797 30.251558,310.4176 30.242093,273.98367 l -0.0056,-21.2006 3.800358,-5.15942 c 2.090193,-2.83768 3.889697,-5.06705 3.998875,-4.95416 0.109188,0.11289 -0.56047,1.65411 -1.488127,3.42495 -1.62609,3.10407 -1.664906,3.33025 -1.081063,6.29897 0.333066,1.6936 1.32468,9.07704 2.203583,16.40762 2.089272,17.22553 5.994737,34.51506 11.029052,49.92367 3.756894,11.90995 20.276435,24.89511 30.71376,37.26514 2.405697,1.19519 -5.902489,2.77265 -14.442522,-0.98509 -8.540024,-3.75773 -18.632131,-8.56063 -22.434749,-11.54606 z"
       id="path5051"
       inkscape:connector-curvature="0"
       sodipodi:nodetypes="ccccccccccsc" />
    <path
       style="fill:#8c3c17;fill-opacity:1;stroke-width:0.54242772"
       d="m 76.442082,211.5495 c -1.203741,-0.0203 -19.791106,7.07568 -22.522366,8.57252 -3.367904,1.84576 -31.940801,27.54163 -34.180318,31.49269 -1.746164,3.08067 -2.296109,7.72822 -2.711113,22.88635 -0.61696,22.53433 1.680116,40.51733 6.128599,47.98438 3.033405,5.09175 6.968565,12.22888 18.758045,20.95444 8.477583,5.00477 21.262367,13.819 30.761018,14.09649 2.84334,0.0148 10.1319,1.1835 8.847979,-0.25372 3.928205,3.24891 -12.852516,-7.74342 -15.99865,-9.47733 -10.604677,-5.8445 -14.829421,-11.5056 -24.009843,-20.91346 -8.012588,-8.21109 -9.603004,-12.6649 -10.541186,-29.50068 -0.28737,-5.157 -0.528292,-17.26109 -0.53387,-26.89664 l -0.0093,-17.51867 4.988219,-6.7495 c 5.091467,-6.88786 41.829241,-34.11318 41.374835,-34.583 -0.05941,-0.0614 -0.180312,-0.091 -0.352275,-0.0939 z"
       id="path5045"
       inkscape:connector-curvature="0"
       sodipodi:nodetypes="cscssccccsccccccc" />
    <path
       style="display:inline;fill:#fabe3c;fill-opacity:1;stroke:#f5d951;stroke-width:0.44032034;stroke-miterlimit:4;stroke-dasharray:none;stroke-opacity:1"
       d="m 118.55201,202.69902 c -12.83534,-5.31587 -25.646245,-8.49851 -38.683805,-9.61033 -7.917922,-0.67522 -10.304113,-1.12577 -10.019755,-1.89191 16.297019,-6.50268 16.400042,-5.94242 31.72167,-7.2581 0.26051,0.43582 2.25594,0.79241 4.43427,0.79241 2.3145,0 4.56924,0.47596 5.42502,1.1452 0.80544,0.62987 2.48291,1.17186 3.7277,1.20444 2.35223,0.0616 8.49337,1.58872 9.80747,2.43889 0.41494,0.26844 1.9291,0.74894 3.36482,1.06778 1.43571,0.31884 4.01017,1.20008 5.72103,1.95831 3.6453,1.61555 4.25034,3.88551 1.03566,3.88551 -1.14124,0 -3.71571,0.73892 -5.72103,1.64205 -2.00533,0.90312 -5.00401,2.06627 -6.66374,2.58478 l -3.01768,0.94273 2.26326,1.28404 c 2.99744,1.70056 0.87996,1.58467 -3.39489,-0.1858 z"
       id="path5128"
       inkscape:connector-curvature="0"
       sodipodi:nodetypes="ssccscsccssssccs" />
    <path
       style="display:inline;fill:#fabe3c;fill-opacity:1;stroke:#f5d951;stroke-width:0.44032034;stroke-miterlimit:4;stroke-dasharray:none;stroke-opacity:1"
       d="m 181.27626,282.73096 c -0.8318,-4.02312 -4.28107,-13.83943 -6.24004,-17.75861 -1.07217,-2.14503 -1.8815,-4.1633 -1.7985,-4.48505 0.083,-0.32176 -0.18857,-0.58501 -0.6035,-0.58501 -0.41493,0 -0.75652,-0.43876 -0.75907,-0.97501 -0.003,-0.53626 -0.54205,-2.02803 -1.19889,-3.31505 -1.24795,-2.44527 -7.11972,-17.54844 -10.08332,-25.93597 -2.00497,-5.67442 -4.27898,-8.21013 -11.01602,-12.28373 -5.78279,-3.4966 -5.96171,-4.51148 -0.26961,-1.52925 4.40887,2.30992 4.39373,2.3103 16.84709,-0.42349 6.12837,-1.34531 7.64292,-1.45798 8.39697,-0.62469 1.68203,1.8588 10.19965,17.29061 13.66317,24.75427 4.02074,8.66442 8.0535,20.77232 10.08979,30.2934 0.80103,3.74535 1.46376,7.20051 1.47273,7.67815 0.009,0.47763 -2.10548,1.3061 -4.69881,1.84103 -8.24143,1.7 -10.02195,2.29621 -11.70832,3.92061 l -1.6474,1.58683 z"
       id="path5126"
       inkscape:connector-curvature="0" />
    <path
       style="display:inline;fill:#f6cf31;fill-opacity:1;stroke-width:0.54242772"
       d="m 85.988168,189.52865 c 0,0 -15.025473,0.98034 -18.817975,-0.81482 -1.145819,-0.54236 -2.549304,-0.98755 -3.117862,-0.98755 -0.900388,0 -1.009344,0.12712 -0.851652,0.98004 0.123134,0.66595 0.498001,1.05174 1.17306,1.20534 2.513565,0.57192 3.410401,1.06917 5.02817,2.79179 2.618001,2.7877 5.86372,8.49501 7.87548,13.84822 0.421726,1.12218 1.05107,2.26444 1.398223,2.53834 0.990098,0.78116 0.11166,1.74963 -2.026525,2.23607 -1.760111,0.40042 -1.596636,0.43556 3.239535,0.69278 14.627381,0.778 30.792308,5.53659 47.340008,13.93459 8.28623,4.20528 13.11863,7.42865 14.82666,9.89051 1.58195,2.28014 7.00549,13.86653 9.24647,19.75286 3.66849,9.63594 6.82258,20.66343 7.77015,27.17074 1.12729,7.74161 -0.0314,13.37469 -5.12078,24.88587 -4.30096,9.72802 -10.79336,21.40695 -15.56392,28.00059 -1.05466,1.4577 -1.91403,2.77402 -1.91031,2.9251 0.004,0.15107 1.32331,-1.17236 2.93265,-2.942 1.60936,-1.76965 3.13414,-3.21799 3.38843,-3.21799 0.25429,0 0.92945,0.88721 1.49992,1.97134 0.57047,1.08414 2.45743,4.28696 4.19469,7.11749 3.47863,5.66779 5.94241,10.60344 6.31382,12.6504 0.13256,0.73054 0.36715,1.1851 0.52115,1.0082 0.36182,-0.41562 8.46521,-13.91434 10.5085,-17.50553 1.84978,-3.25106 1.96399,-3.8336 0.46306,-2.34684 l -1.10225,1.09269 -0.76811,-1.55642 c -0.42257,-0.85639 -1.78059,-4.60627 -3.018,-8.33222 -2.90418,-8.74467 -4.54469,-13.32801 -4.90469,-13.70552 -0.15824,-0.16594 -1.00608,0.57835 -1.88489,1.65592 -1.70899,2.09551 -2.91947,2.62209 -2.4932,1.08331 0.1337,-0.48264 1.4129,-3.52066 2.84185,-6.75139 4.9355,-11.15869 6.37089,-17.30785 5.62741,-24.09357 -1.2646,-11.54203 -10.53876,-38.05098 -16.56083,-47.33477 -2.26654,-3.49418 -6.04069,-6.89016 -11.57986,-10.42184 -3.69189,-2.35388 -5.85629,-3.97406 -7.25445,-5.54417 1.10395,1.10387 4.09312,3.2868 7.19634,5.22876 8.52461,5.33463 11.14539,8.26652 15.31695,17.13003 3.76921,8.00864 7.89692,19.24792 10.49034,28.56383 4.3537,15.63895 3.88619,21.22895 -3.05795,36.55434 -1.76009,3.88449 -3.07694,7.18982 -2.92719,7.34466 0.14976,0.15484 1.18017,-0.7332 2.28983,-1.97322 l 2.01744,-2.25484 0.73361,1.80425 c 0.40369,0.99258 2.0189,5.65228 3.58819,10.35424 1.56927,4.70197 3.10907,9.23091 3.42293,10.06513 0.31387,0.83422 0.80561,1.51699 1.09135,1.51699 1.66699,0 5.60777,-8.21196 10.97155,-22.86195 4.55047,-12.4286 4.69955,-13.17249 4.62322,-23.09852 -0.037,-4.80509 -0.30412,-9.64582 -0.59379,-10.7579 -1.13708,-4.36541 -4.65688,-13.23587 -6.30474,-15.89091 -2.14067,-3.44908 -4.31692,-8.6172 -11.27661,-26.76708 -4.52479,-12.16457 -2.61363,-12.44078 -12.4751,-18.45741 -12.86222,-7.84652 -25.22011,-13.84572 -29.1467,-14.30444 l 0.36862,0.0206 c 4.01426,0.21785 14.34076,5.33238 30.28707,15.00099 7.09732,2.90297 7.85747,9.03539 10.50306,15.94911 6.5933,17.22846 9.6731,24.57846 11.82683,28.22964 1.95129,3.308 5.73939,13.13946 6.41005,16.63438 0.22017,1.14733 0.518,3.22807 0.66099,4.62233 0.25239,2.46099 0.27237,2.49686 0.67187,1.27856 0.66654,-2.0326 5.07902,-4.4027 7.77742,-4.53785 1.16259,-0.0582 3.503,-0.55728 5.6566,-1.10813 2.1536,-0.55087 4.1204,-1.15352 4.53577,-1.41894 0.47388,-0.30281 -2.00298,-16.13645 -8.31724,-31.89439 -6.31425,-15.75794 -16.4659,-31.44018 -16.4659,-31.44018 0,0 3.65547,-3.53267 -20.62642,3.18794 l -2.15727,-0.90119 c -1.18703,-0.49572 -5.70946,-2.85692 -10.04908,-5.24565 -9.19752,-5.06274 -12.3642,-6.60893 -19.54976,-9.55256 -6.95525,-2.84928 -14.20303,-6.22656 -15.65289,-7.29397 -2.56645,-3.12277 20.94067,-5.66064 20.94067,-5.66064 l -15.76478,-5.04041 z M 62.37082,188.08676 c -0.157338,0.0151 -0.352963,0.0629 -0.591978,0.13705 -19.149685,16.55958 -58.4923506,73.07272 -58.2552599,118.84573 0.7830843,0.30782 1.340114,1.12078 1.5761819,2.30177 0.200701,1.00408 0.9077055,2.69673 1.572556,3.76245 0.6648412,1.06572 1.3726639,2.47106 1.572556,3.12223 0.6644694,2.16457 1.5207886,2.44991 4.54696,1.52075 2.851103,-0.8754 4.310902,-0.50313 4.310902,1.09833 0,0.35721 0.277227,0.93624 0.615584,1.28606 0.438173,0.45302 0.914381,0.46949 1.65427,0.0601 0.814565,-0.4507 0.971113,-0.94971 0.728165,-2.3168 -0.17041,-0.95891 -0.694593,-6.33619 -1.165799,-11.94821 -15.041715,-57.16014 13.86397,-83.61357 58.582125,-95.10324 1.348742,-0.30797 2.111986,-1.41749 0.97513,-1.41749 -0.270645,0 -0.779496,-0.9314 -1.129484,-2.06898 -1.14659,-3.72685 -5.525343,-11.80073 -7.722939,-14.24061 -1.648227,-1.82995 -2.68179,-2.47838 -4.407138,-2.76363 -1.75072,-0.28945 -2.253509,-0.61085 -2.253509,-1.4419 0,-0.63907 -0.136299,-0.87895 -0.608323,-0.83359 z m 57.31282,15.43655 1.26204,0.0676 c -0.4599,-0.0295 -0.80009,0.0199 -0.95878,0.18399 -0.94107,0.97299 2.71858,13.96921 4.80663,17.13379 -0.57776,-0.72882 -1.02394,-1.46163 -1.37644,-2.26986 -1.305,-2.99225 -3.59332,-11.329 -3.66807,-13.36195 z M 1.5551653,305.00244 c -0.1072538,-0.0609 -0.062013,0.48337 0.074471,1.87183 0.3825935,3.89274 2.7337619,14.64573 4.319985,19.7585 2.5201934,8.12319 5.3703577,12.47029 13.6463387,20.81175 9.766431,9.8437 22.42944,19.8525 35.264401,27.8748 3.081342,1.92594 5.766609,3.5052 5.966985,3.50712 0.200375,0.002 -0.4959,-0.91843 -1.547137,-2.04457 -3.184468,-3.41134 -25.789134,-39.30574 -25.789134,-40.95137 0,-0.36722 0.439874,-0.30787 2.07555,0.28162 0.414929,0.14953 -0.264193,-0.65156 -1.508991,-1.77984 -8.908727,-8.07487 -11.987902,-12.73161 -13.771637,-20.82865 -0.378029,-1.71603 -0.69569,-2.76835 -0.706382,-2.33934 -0.02575,1.03421 0.562273,5.57806 0.891603,6.88844 0.195336,0.77724 0.06238,1.24412 -0.526609,1.85306 -1.263263,1.30611 -2.265652,1.05139 -2.948986,-0.74723 -0.514643,-1.35457 -0.746601,-1.55839 -1.761412,-1.55455 -0.642788,0.003 -2.075094,0.25265 -3.183231,0.55762 -1.108146,0.30494 -2.2715372,0.45439 -2.5840011,0.33043 C 9.154515,318.36809 8.5912747,317.52078 8.2140179,316.61084 7.8367614,315.70088 7.116313,314.27978 6.6124175,313.45105 6.1085313,312.62233 5.3974266,311.00965 5.0326003,309.86884 4.5634209,308.4017 4.0887561,307.66292 3.4110196,307.34365 2.8840388,307.09538 2.2152277,306.3627 1.9256258,305.714 1.7381642,305.2941 1.6195398,305.03899 1.5551839,305.00244 Z M 143.09579,332.77022 c -0.25048,-0.16005 -3.43564,2.8757 -7.0783,6.74574 -5.1122,5.43132 -7.64441,7.65767 -11.10411,9.76473 -2.4652,1.50138 -4.72929,3.13844 -5.02999,3.63666 -0.78952,1.30812 0.72361,5.03983 4.26913,10.52885 1.62021,2.50836 3.9113,6.54561 5.08991,8.97243 1.17862,2.42683 2.3846,4.72188 2.68025,5.10108 0.74543,0.95607 1.32265,0.87251 3.5446,-0.5163 3.8717,-2.41996 8.20276,-6.2682 11.33472,-10.07075 4.06391,-4.93403 7.9323,-10.90247 7.93177,-12.23735 -6.5e-4,-1.56675 -2.81711,-7.38669 -5.75453,-11.89001 -1.44631,-2.21732 -3.2583,-5.31731 -4.02762,-6.88844 -0.76931,-1.57113 -1.60536,-2.98658 -1.85583,-3.14664 z M 34.092118,335.838 c -0.709292,-0.11987 -0.243115,0.85563 0.998735,2.75989 0.854683,1.31057 2.348575,3.87049 3.319428,5.69061 0.970853,1.82012 5.978243,9.85485 11.127715,17.85474 6.689265,10.39201 9.973576,15.00354 11.501784,16.14812 2.226826,1.66781 6.148068,3.06343 10.730042,3.82064 3.147176,0.5201 24.646234,0.31991 25.182633,-0.23468 0.201668,-0.20856 0.310865,-1.51327 0.241507,-2.89881 -0.239712,-4.78791 1.235222,-4.88888 5.914328,-0.40741 1.38555,1.32703 3.18543,2.67672 4.00038,3.00019 4.81034,-0.67448 9.83494,-6.81295 9.75855,-11.02449 -0.32183,-6.55123 -0.56759,-7.99601 -1.93392,-11.36621 l -1.32741,-3.27243 c 0.45728,0.64956 0.85509,1.62258 1.41821,3.07717 1.61782,4.179 2.18005,7.41929 2.22263,12.82313 -6.41911,9.87338 -0.15017,3.74955 -0.0145,9.33477 8.07011,-0.41559 12.19372,-1.33404 15.08814,-2.57965 0,-0.1089 -0.31014,-0.66412 -0.69003,-1.23349 -0.3799,-0.56937 -1.65389,-2.93351 -2.83096,-5.25317 -1.17708,-2.31967 -3.34513,-6.15433 -4.81753,-8.52183 -3.33022,-5.35478 -4.57193,-8.10409 -4.41622,-9.77599 0.098,-1.05186 0.46837,-1.51293 2.11731,-2.63409 1.09915,-0.74733 1.85296,-1.40845 1.67425,-1.47006 -0.1787,-0.0616 -1.58774,0.48884 -3.13058,1.22411 -3.42121,1.63045 -6.16415,2.47523 -11.10411,3.417 l -3.77158,0.71907 3.01799,-0.19902 c 2.56596,-0.16871 3.80653,-0.20617 4.66863,0.45998 l -2.05376,-0.15207 c -1.31053,-0.0968 -5.38515,0.27612 -9.0558,0.82797 -9.064788,1.36279 -29.590762,1.37138 -34.528962,0.015 -5.874393,-1.61348 -11.712535,-5.01072 -23.889731,-13.90454 -5.649416,-4.12615 -8.505215,-6.09034 -9.41715,-6.24447 z m 64.360253,39.7085 c -0.793283,0.0172 -1.003412,1.08859 -0.926104,3.21986 0.07131,1.96663 -0.04946,2.817 -0.446708,3.1579 -0.360754,0.30955 -3.505467,0.57901 -9.339072,0.7998 -8.765567,0.33177 -8.754829,0.33287 3.086995,0.16897 6.535171,-0.0905 13.121528,-0.27645 14.635998,-0.41304 l 2.75288,-0.24783 -1.45634,-0.67401 c -0.80165,-0.37109 -2.54732,-1.67992 -3.87872,-2.9082 -2.25882,-2.08386 -3.635654,-3.1207 -4.428929,-3.10345 z"
       id="path4746"
       inkscape:connector-curvature="0"
       sodipodi:nodetypes="ccscsccccsscsccssssscccccccscccssccccsscccccccsscccccccccsscscssscccssccccccccccsscccccscccsccccccccccsscscscsscccccccccccccccccccccscccccccsscscccccccsccccccscsscccccccscccccssccccc" />
    <path
       style="fill:#f5d951;fill-opacity:1;stroke:#f5d951;stroke-width:0.54264021;stroke-miterlimit:4;stroke-dasharray:none;stroke-opacity:1"
       d="m 62.37082,188.08676 c -0.157338,0.0151 -0.352963,0.0629 -0.591978,0.13705 -3.248554,1.0084 -16.805973,8.17263 -16.805973,8.17263 L 1.6205439,239.21965 c 0,0 -1.23228378,3.17647 -1.33286206,14.34011 -0.058759,6.52208 0.0670336,19.92524 0.27783146,29.78419 0.41528286,19.41944 0.8479796,22.89612 2.9580688,23.72559 0.7830843,0.30782 1.340114,1.12078 1.5761819,2.30177 0.200701,1.00408 0.9077055,2.69673 1.572556,3.76245 0.6648412,1.06572 1.3726639,2.47106 1.572556,3.12223 0.6644694,2.16457 1.5207886,2.44991 4.54696,1.52075 2.851103,-0.8754 4.310902,-0.50313 4.310902,1.09833 0,0.35721 0.277227,0.93624 0.615584,1.28606 0.438173,0.45302 0.914381,0.46949 1.65427,0.0601 0.814565,-0.4507 0.971113,-0.94971 0.728165,-2.3168 -0.17041,-0.95891 -0.694593,-6.33619 -1.165799,-11.94821 -0.660202,-7.86264 -0.803603,-14.78342 -0.624658,-30.16344 l 0.23061,-19.9575 2.199037,-3.82629 c 2.587645,-4.50339 11.507232,-12.69732 11.507232,-12.69732 l 21.509108,-17.17698 c 0,0 16.808743,-9.69432 23.760796,-11.28171 1.348742,-0.30797 2.111986,-1.41749 0.97513,-1.41749 -0.270645,0 0.325545,-1.32141 -0.02445,-2.45898 -1.146591,-3.72685 -6.630385,-11.41073 -8.82798,-13.85061 -1.648227,-1.82995 -2.68179,-2.47838 -4.407138,-2.76363 -1.75072,-0.28945 -2.253509,-0.61085 -2.253509,-1.4419 0,-0.63907 -0.136299,-0.87895 -0.608323,-0.83359 z m 58.72013,15.50414 c -0.55082,-0.0573 -0.92674,6.7e-4 -1.10405,0.18399 -0.94927,0.98147 2.7848,14.21024 4.86292,17.22767 0.60484,0.87824 4.00209,3.41302 7.54862,5.63241 8.52461,5.33463 11.14539,8.26652 15.31695,17.13003 3.76921,8.00864 7.89692,19.24792 10.49034,28.56383 4.3537,15.63895 3.88618,21.22895 -3.05795,36.55434 -1.76009,3.88449 -2.92719,7.34466 -2.92719,7.34466 l 13.14335,21.43508 c 0,0 5.60777,-10.13449 10.97155,-24.78448 4.55047,-12.4286 4.69955,-13.17249 4.62322,-23.09852 -0.037,-4.80509 -0.30412,-9.64582 -0.59379,-10.7579 -1.13708,-4.36541 -4.65688,-13.23587 -6.30474,-15.89091 -2.14067,-3.44908 -4.31692,-8.6172 -11.27661,-26.76708 -4.52479,-12.16457 -2.61363,-12.44078 -12.4751,-18.45741 -12.93182,-7.88898 -25.36174,-13.91494 -29.21752,-14.31571 z m 22.00484,129.17932 c -0.25048,-0.16005 -3.43564,2.8757 -7.0783,6.74574 -5.1122,5.43131 -7.64441,7.65767 -11.10411,9.76473 -2.4652,1.50138 -4.72929,3.13844 -5.02999,3.63666 -0.78952,1.30812 0.72361,5.03983 4.26913,10.52885 1.62021,2.50836 3.9113,6.54561 5.08991,8.97243 1.17862,2.42683 2.3846,4.72188 2.68025,5.10108 0.74543,0.95607 1.32265,0.87251 3.5446,-0.5163 3.8717,-2.41996 8.20276,-6.2682 11.33472,-10.07075 4.06391,-4.93403 7.9323,-10.90247 7.93177,-12.23735 -6.5e-4,-1.56675 -2.81711,-7.38669 -5.75453,-11.89001 -1.44631,-2.21732 -3.2583,-5.31731 -4.02762,-6.88844 -0.76931,-1.57113 -1.60536,-2.98658 -1.85583,-3.14664 z M 34.092118,335.838 c -0.709292,-0.11987 -0.243115,0.85563 0.998735,2.75989 0.854683,1.31057 2.348575,3.87049 3.319428,5.69061 0.970853,1.82012 5.978243,9.85485 11.127715,17.85474 6.689265,10.39201 9.973576,15.00354 11.501784,16.14812 2.226826,1.66781 6.148068,3.06343 10.730042,3.82064 3.147176,0.52009 24.646234,0.31991 25.182633,-0.23468 0.201678,-0.20856 0.310865,-1.51327 0.241507,-2.89881 -0.239712,-4.78791 1.235222,-4.88888 5.914328,-0.40741 1.38555,1.32703 3.18543,3.30423 4.00038,3.62771 3.54858,-0.004 4.22509,-0.13932 10.12354,-1.08307 0.084,-7.99006 -0.0694,-16.37319 -2.29891,-21.93515 l -1.56529,-3.86008 -2.38425,-0.17648 c -1.31053,-0.0968 -5.38515,0.27611 -9.05579,0.82797 -9.064796,1.36279 -29.59077,1.37136 -34.528971,0.015 -5.874392,-1.61348 -11.712535,-5.01072 -23.88973,-13.90454 -5.649417,-4.12615 -8.505215,-6.09034 -9.417151,-6.24447 z"
       id="path4620"
       inkscape:connector-curvature="0"
       sodipodi:nodetypes="scccscscccsscccccccccsscccscscccsscccccccccccccccccscccccccssccccccccccccsccc" />
    <path
       style="fill:#f5d923;fill-opacity:1;stroke:none;stroke-width:0.287;stroke-miterlimit:4;stroke-dasharray:none;stroke-opacity:1"
       d="m 78.014038,263.72358 c 0,0 -3.600006,1.31971 -10.271622,3.8311 -5.175232,1.94811 -9.44897,3.4936 -9.497195,3.43443 -0.04823,-0.0592 -0.234146,-1.57009 -0.413156,-3.35759 l -0.325473,-3.25 22.830128,-15.89037 23.58013,-15.89038 -0.30957,5.39038 c -0.74023,22.18954 -0.52938,38.73146 -0.59376,61.79596 l -23.470317,16.45025 z"
       id="path5233"
       inkscape:connector-curvature="0"
       sodipodi:nodetypes="cscsccccccc" />
    <g
       aria-label="1"
       transform="matrix(0.90839083,-0.18574381,0.18110697,0.94681474,-103.34137,148.21127)"
       clip-path="url(#clipPath5063)"
       style="font-style:normal;font-weight:normal;font-size:175.24552917px;line-height:1.25;font-family:sans-serif;letter-spacing:0px;word-spacing:0px;fill:#f5d951;fill-opacity:1;stroke:none;stroke-width:4.38113832"
       id="text5061">
      <path
         d="m 205.44978,116.84816 q -17.62724,66.91504 -22.93252,118.94106 l -28.75122,7.53008 15.06016,-88.47845 -22.4191,3.42276 4.62073,-32.51626 z"
         style="font-style:normal;font-variant:normal;font-weight:normal;font-stretch:normal;font-family:'BadaBoom BB';-inkscape-font-specification:'BadaBoom BB';fill:#f5d951;fill-opacity:1;stroke-width:4.38113832"
         id="path5235"
         inkscape:connector-curvature="0" />
    </g>
  </g>
</svg>
