<?xml version="1.0" encoding="UTF-8" standalone="no"?>
<!-- Created with Inkscape (http://www.inkscape.org/) -->

<svg
   xmlns:dc="http://purl.org/dc/elements/1.1/"
   xmlns:cc="http://creativecommons.org/ns#"
   xmlns:rdf="http://www.w3.org/1999/02/22-rdf-syntax-ns#"
   xmlns:svg="http://www.w3.org/2000/svg"
   xmlns="http://www.w3.org/2000/svg"
   xmlns:sodipodi="http://sodipodi.sourceforge.net/DTD/sodipodi-0.dtd"
   xmlns:inkscape="http://www.inkscape.org/namespaces/inkscape"
   version="1.1"
   id="svg5693"
   width="95"
   height="95"
   viewBox="0 0 95 95"
   sodipodi:docname="plus.svg"
   inkscape:version="0.92.4 (f8dce91, 2019-08-02)">
  <metadata
     id="metadata5699">
    <rdf:RDF>
      <cc:Work
         rdf:about="">
        <dc:format>image/svg+xml</dc:format>
        <dc:type
           rdf:resource="http://purl.org/dc/dcmitype/StillImage" />
        <dc:title></dc:title>
      </cc:Work>
    </rdf:RDF>
  </metadata>
  <defs
     id="defs5697">
    <filter
       inkscape:collect="always"
       style="color-interpolation-filters:sRGB"
       id="filter834"
       x="-0.028974539"
       width="1.0579491"
       y="-0.028627552"
       height="1.0572551">
      <feGaussianBlur
         inkscape:collect="always"
         stdDeviation="5.5091032"
         id="feGaussianBlur836" />
    </filter>
    <filter
       inkscape:collect="always"
       style="color-interpolation-filters:sRGB"
       id="filter838"
       x="-0.044631183"
       width="1.0892624"
       y="-0.044171199"
       height="1.0883424">
      <feGaussianBlur
         inkscape:collect="always"
         stdDeviation="8.5511623"
         id="feGaussianBlur840" />
    </filter>
    <filter
       inkscape:collect="always"
       style="color-interpolation-filters:sRGB"
       id="filter1187"
       x="-0.0089157667"
       width="1.0178315"
       y="-0.010397985"
       height="1.020796">
      <feGaussianBlur
         inkscape:collect="always"
         stdDeviation="0.24608434"
         id="feGaussianBlur1189" />
    </filter>
  </defs>
  <sodipodi:namedview
     pagecolor="#ffffff"
     bordercolor="#666666"
     borderopacity="1"
     objecttolerance="10"
     gridtolerance="10"
     guidetolerance="10"
     inkscape:pageopacity="0"
     inkscape:pageshadow="2"
     inkscape:window-width="1533"
     inkscape:window-height="845"
     id="namedview5695"
     showgrid="false"
     inkscape:zoom="6.9894737"
     inkscape:cx="35.802936"
     inkscape:cy="47.5"
     inkscape:window-x="67"
     inkscape:window-y="27"
     inkscape:window-maximized="1"
     inkscape:current-layer="svg5693" />
  <g
     inkscape:groupmode="layer"
     id="layer1"
     inkscape:label="Layer 1"
     style="display:inline"
     transform="translate(0,-399)" />
  <g
     id="g1256"
     transform="matrix(1.0302811,0,0,1.1007103,1.4250705,-3.5476599)">
    <g
       transform="matrix(0.18851015,0,0,0.17266252,-3.5359447,73.013708)"
       id="g849">
      <path
         inkscape:connector-curvature="0"
         id="path5819"
         d="m 225.85363,78.58885 c -31.41445,-4.55818 -58.52146,-8.59603 -60.23782,-8.973 -1.71635,-0.37697 -3.93522,-1.72098 -4.93082,-2.98668 -1.70422,-2.16657 -1.81901,-6.38509 -1.96115,-72.07219 -0.10085,-46.60195 -0.49503,-70.11497 -1.18704,-70.80698 -0.81278,-0.81278 -59.25351,-7.66768 -120.32515,-14.11373 -7.02785,-0.74178 -9.44318,-2.13895 -10.15146,-5.8722 -0.76272,-4.02021 -3.69331,-132.24568 -3.06018,-133.89559 0.85413,-2.22584 3.59467,-3.22153 37.97079,-13.79549 l 30,-9.22788 30.97815,2.10558 c 24.56271,1.66953 31.2141,1.84959 32.11751,0.86945 0.84476,-0.91651 0.93222,-16.75017 0.33824,-61.23614 -0.75837,-56.79753 -0.70554,-60.13344 0.98971,-62.5 1.63968,-2.28897 4.27194,-2.99169 31.18362,-8.32491 l 29.39277,-5.82491 64.14535,2.32491 c 60.32234,2.18635 64.27337,2.44078 66.29336,4.26914 l 2.14802,1.94423 -0.70201,71.1487 c -0.55685,56.43646 -0.44362,71.3084 0.54757,71.92099 1.43501,0.88689 17.23162,2.20658 77.56771,6.48023 23.65,1.67515 46.68206,3.32499 51.18234,3.66631 10.04553,0.76191 12.33895,2.38448 12.27474,8.68427 -0.0236,2.31607 -0.86235,33.39112 -1.86386,69.05567 l -1.82093,64.84462 -2.88615,2.84639 c -1.58738,1.56552 -11.43614,9.83904 -21.88614,18.38561 -17.33948,14.18116 -19.34958,15.54385 -23,15.59215 -2.2,0.0291 -23.4753,-2.0642 -47.27844,-4.65179 -26.38357,-2.86811 -43.63633,-4.34497 -44.19522,-3.78317 -0.50993,0.51258 -1.23292,22.35137 -1.62915,49.20994 -0.3918,26.55861 -1.09145,48.52266 -1.55478,48.80902 -0.46333,0.28635 -0.84241,1.56671 -0.84241,2.84525 0,2.51936 -2.49737,4.97057 -15.85036,15.55735 -4.5091,3.575 -10.54991,8.65333 -13.42401,11.28518 -2.87409,2.63185 -6.91313,5.75221 -8.97563,6.93414 -2.0625,1.18193 -3.75,2.50695 -3.75,2.9445 0,1.92806 -8.10757,4.83251 -13.21016,4.7324 -2.90941,-0.0571 -30.99257,-3.83319 -62.40701,-8.39137 z M 265.4708,-155.916 c 0,-0.55 -0.8632,-1 -1.91821,-1 -1.05502,0 -2.74252,-0.28554 -3.75,-0.63453 -1.60979,-0.55763 -1.5894,-0.44029 0.16821,0.96819 2.24431,1.79852 5.5,2.19295 5.5,0.66634 z"
         style="fill:#71e423" />
      <path
         inkscape:connector-curvature="0"
         id="path5815"
         d="m 228.66305,76.65422 c -31.9,-4.62006 -59.575,-8.75852 -61.5,-9.19657 -6.99088,-1.59083 -6.78307,0.58245 -7.27523,-76.08294 -0.37379,-58.22686 -0.65481,-68.53741 -1.90202,-69.78462 -1.33715,-1.33715 -34.46434,-5.34068 -114.17049,-13.79788 -8.91388,-0.9458 -13.3303,-1.84577 -14.42376,-2.93923 -1.32475,-1.32474 -1.69967,-6.24605 -2.3515,-30.86655 -0.42651,-16.10978 -1.27989,-46.04906 -1.89642,-66.53171 -0.61652,-20.48266 -0.84739,-38.10309 -0.51305,-39.15651 0.80209,-2.52717 2.89714,-3.3049 38.03247,-14.11865 l 30,-9.23322 30.88968,2.1313 c 22.97959,1.58554 31.23652,1.84346 32.24414,1.00721 1.40363,-1.16491 1.40207,-2.29305 -0.12916,-93.09514 l -0.48408,-28.7062 c 7.94137,-5.27085 9.49749,-1.53967 10.64865,-1.62 6.44786,1.62292 38.30276,4.22176 62.33077,5.08516 38.25397,1.37459 59.7274,2.58278 62.5,3.51654 2.56683,0.86445 3.25268,0.69981 4.75,-1.14027 0.9625,-1.18283 1.75,-3.16617 1.75,-4.40742 0,-2.24749 -0.0858,-2.25971 -20.75,-2.95508 -11.4125,-0.38403 -29.3,-1.11249 -39.75,-1.6188 -10.45,-0.5063 -30.56094,-0.92666 -44.69098,-0.93414 -14.13004,-0.007 -25.93719,0.72754 -26.23811,0.24065 -0.30091,-0.48689 11.63298,-3.30564 26.54411,-6.13704 l 27.09122,-5.25178 63.36466,1.25103 c 55.21604,1.09015 63.57527,2.60114 64.9967,4.02258 1.46115,1.46115 1.62202,6.0681 1.53632,43.99651 -0.0527,23.30045 -0.38851,55.41714 -0.74635,71.37041 -0.54287,24.20167 -0.41932,29.18866 0.7459,30.10909 0.76809,0.60672 9.49653,1.63787 19.39653,2.29143 16.4727,1.08747 89.25724,6.17008 109.50884,7.6471 4.95166,0.36114 9.34126,1.22956 10.5,2.07728 2.26408,1.65636 2.25485,0.56948 0.50887,59.86915 -0.5182,17.6 -1.24174,42.76663 -1.60786,55.92585 l -0.66567,23.92585 -3.62209,3.74027 c -5.71598,5.90248 -39.20746,32.89216 -41.52854,33.46648 -1.15145,0.28492 -22.52348,-1.74832 -47.4934,-4.51829 -33.94321,-3.76541 -45.74056,-4.75356 -46.75,-3.9158 -1.0974,0.91076 -1.35015,9.65298 -1.35015,46.69861 0,58.21986 1.04672,53.67559 -15.5,67.29194 -6.6,5.43116 -14.1705,11.78747 -16.82333,14.12513 -2.65283,2.33766 -6.25283,5.13449 -8,6.21517 -1.74717,1.08069 -3.56043,2.58808 -4.02948,3.34976 -1.2541,2.03652 -8.68694,5.1586 -12.14719,5.10228 -1.65,-0.0269 -29.1,-3.82888 -61,-8.44894 z M 445.8486,-198.9784 c 1.27295,-1.19588 2.31445,-2.98432 2.31445,-3.97432 0,-1.00062 1.37359,-2.51032 3.09293,-3.39943 1.70111,-0.87968 2.86793,-1.82441 2.59293,-2.09941 -0.275,-0.275 -1.95488,0.25235 -3.73307,1.17188 -4.50711,2.33072 -10.8978,2.23149 -58.95279,-0.9154 -22.825,-1.4947 -50.03193,-1.8855 -57.73193,-2.11875 -7.7,-0.23325 -14.57914,-0.79619 -20.62914,-1.36465 -10.85552,-1.01998 -18.00503,-3.24832 -20.0298,2.082 -0.61181,1.83544 19.13258,2.07957 19.13258,2.07957 0,0 14.10834,0.50559 21.75829,1.12688 17.39042,1.33965 46.64153,3.58702 58.5,4.49458 6.875,0.52616 20.15,1.49701 29.5,2.15744 9.35,0.66044 17.9,1.56222 19,2.00397 2.79413,1.12209 2.62281,1.1632 5.18555,-1.24436 z m -289.68555,-22.70754 c 0,-0.57083 -1.6875,-1.49206 -3.75,-2.04718 -8.30491,-2.23526 -95.71551,-9.79547 -116,-10.03292 -5.00803,-0.0586 -3.84983,1.66758 1.95398,2.91228 6.4164,1.37607 28.39647,3.90993 43.79602,5.0488 19.49924,1.44206 51.43933,4.10706 51.64527,4.30916 0.10744,0.10544 5.18121,0.33931 11.27504,0.51971 7.19995,0.21315 11.07969,-0.0354 11.07969,-0.70985 z"
         style="fill:#66d21c;fill-opacity:1"
         sodipodi:nodetypes="ssssscsscscsssccscsscsccscsccscsscsscscssssscccscscscssscccscccssccscss" />
      <path
         inkscape:connector-curvature="0"
         id="path5809"
         d="M 230.64626,78.25222 C 159.58531,67.96484 161.2217,65.93968 161.2217,65.93968 l -3.18538,-143.74403 c 0,0 -6.35362,-1.73686 -85.89007,-10.43243 -30.83943,-3.37161 -42.39859,-4.98436 -43.5,-6.06917 -1.22186,-1.20346 -1.62126,-6.33829 -2.154,-27.69228 -0.35971,-14.41819 -1.21769,-44.5569 -1.90662,-66.97493 -0.68894,-22.41802 -1.02409,-40.98857 -0.74478,-41.26788 0.27932,-0.27931 1.81229,0.17244 3.40662,1.00388 29.872506,19.11211 23.53332,70.26188 26.98335,79.3154 76.80868,8.87625 112.41544,15.13063 217.8425,10.44336 0.59012,0.40408 7.26044,0.74158 14.82294,0.75 103.87496,16.68627 143.76164,63.86988 159.61544,-59.4847 1.1118,-1.91012 6.15897,-5.72469 13.89287,-10.5 6.68069,-4.125 13.40565,-8.61457 14.94436,-9.97682 2.47742,-2.1933 2.58488,-2.51888 0.93881,-2.84429 -1.02237,-0.2021 -3.72237,0.31391 -6,1.1467 -4.25106,1.55434 -23.9552,4.85934 -26.64115,4.46855 -2.6802,-0.38996 -15,1.41687 -15,2.19991 0,0.41858 0.675,1.32126 1.5,2.00595 0.825,0.68469 1.5,1.87394 1.5,2.64277 0,1.09239 -0.86545,0.95636 -3.96016,-0.62245 -4.4288,-2.2594 -8.84723,-2.55225 -14.04644,-0.93097 -5.53391,1.72565 -23.45634,1.83413 -50.4934,0.30563 -13.75,-0.77734 -25.5276,-1.6067 -26.17244,-1.84301 -15.67347,-0.007 -19.70213,-0.58225 -30.08691,-0.77279 l -13.74098,-0.27919 0.29558,-51.5 c 0.16257,-28.325 0.54316,-53.3591 0.84575,-55.63134 0.48127,-3.61397 0.81995,-4.06648 2.70442,-3.61339 l 2.15425,0.51795 -2.25,-2.17556 c -2.5126,-2.42948 -2.55696,-2.93197 -2.25717,-25.56929 0.2208,-16.67329 1.01214,-18.91664 7.26385,-20.59207 3.40968,-0.91378 18.01414,-5.1315 30.24332,-8.73417 3.77706,-1.1127 -2.55577,-1.88284 -8,-0.97288 -6.48173,1.08337 -52.62911,0.97473 -77,-0.18127 -16.01849,-0.75982 -19.17392,-0.67779 -20.10832,0.52276 -0.89196,1.14602 -1.73894,1.20417 -4.33878,0.29786 -2.97482,-1.03703 -8.87836,-0.78584 -15.0529,0.64048 -1.375,0.31763 -9.475,0.78148 -18,1.03079 -18.32649,0.53595 -17.45748,0.0364 9,-5.17383 l 18.5,-3.64317 32,1.15642 c 97.95675,3.53999 94.73972,3.36043 96.78126,5.40197 1.829,1.829 1.8819,4.32915 1.55605,73.5428 l -0.33731,71.64943 5,0.74787 c 2.75,0.41132 31.1,2.55156 63,4.75609 72.6217,5.01869 69.95331,4.76098 71.93168,6.94706 1.48677,1.64286 1.48841,6.95252 0.0206,66.68025 -0.87716,35.69238 -1.81438,66.80145 -2.08272,69.13127 -0.46578,4.04409 -1.08555,4.72638 -13.67871,15.05834 -30.40274,24.94368 -29.36693,24.20563 -33.97083,24.20563 -2.32101,0 -22.64505,-2.025 -45.16454,-4.5 -22.51949,-2.475 -42.17666,-4.5 -43.68261,-4.5 -1.75267,0 -2.91605,0.62982 -3.23257,1.75 -0.27196,0.9625 -0.76982,22.675 -1.10636,48.25 -0.41509,31.54544 -1.00135,47.90588 -1.82291,50.87147 -1.06739,3.85298 -2.63433,5.54254 -13.21103,14.24488 -6.6,5.43037 -14.1705,11.78603 -16.82333,14.12369 -2.65283,2.33766 -6.25283,5.13449 -8,6.21517 -1.74717,1.08069 -3.56043,2.58808 -4.02948,3.34976 -1.25469,2.03748 -8.68812,5.15882 -12.14719,5.10067 -1.65,-0.0277 -27.525,-3.60088 -57.5,-7.94031 z m 223.12207,-262.64033 c -0.87155,-1.49877 -1.06669,-1.54197 -1.09166,-0.24167 -0.0323,1.68408 1.01919,3.2004 1.72792,2.49167 0.23375,-0.23375 -0.0526,-1.24625 -0.63626,-2.25 z m 7.87793,1.23402 c 0,-0.79254 -0.45,-1.7191 -1,-2.05902 -0.55,-0.33992 -1,-0.40328 -1,-0.1408 0,0.26247 -0.27314,1.18903 -0.60699,2.05901 -0.39831,1.03799 -0.0545,1.58179 1,1.58179 0.88385,0 1.60699,-0.64844 1.60699,-1.44098 z m -305.48321,-38.53185 c -1.1654,-1.88565 -8.33568,-2.94458 -40.51679,-5.98364 -17.875,-1.68805 -36.77501,-3.51926 -42.00001,-4.06936 -5.225,-0.55011 -16.5875,-1.28979 -25.25,-1.64374 -8.6625,-0.35395 -15.74578,-0.9106 -15.74064,-1.23699 0.005,-0.32639 3.49265,-1.63422 7.75,-2.90628 6.96682,-2.08163 26.21518,-8.00425 43.01164,-13.23445 7.51108,-2.33885 11.96402,-2.39826 36.73896,-0.49011 10.44453,0.80444 22.14005,1.70247 25.99005,1.99563 3.85,0.29316 7.67011,0.10443 8.48913,-0.41941 1.29004,-0.8251 1.44381,-6.76016 1.15012,-44.39326 -0.18645,-23.89245 -0.0534,-44.34066 0.29566,-45.44047 0.45856,-1.4448 1.22146,-1.84621 2.74942,-1.44664 1.38646,0.36257 2.58876,-0.0952 3.49116,-1.32933 1.24166,-1.69808 1.36966,-1.4441 1.30746,2.59426 -0.0379,2.46214 0.22983,12.07995 0.59499,21.37291 0.69509,17.68892 2.23681,24.2814 6.19671,26.49747 2.46519,1.37959 0.80563,2.48716 -1.70967,1.14102 -3.14472,-1.68301 -4.36637,-0.36278 -3.54712,3.83333 0.99156,5.07866 0.85518,17.2449 -0.29294,26.13189 -1.07902,8.35216 -1.73137,10.41302 -4.39514,13.88486 -1.53623,2.00226 -1.82978,4.28835 -1.82978,14.25 0,10.75603 -0.69186,13.79078 -2.48321,10.89231 z m -0.39759,-129.34227 c -1.3563,-3.41147 -1.50771,-22.6849 -0.17822,-22.6849 0.51754,0 1.20022,0.41945 1.51706,0.9321 0.31683,0.51265 3.11106,1.49941 6.20938,2.19278 l 5.63332,1.26068 -3.23676,2.70217 c -2.41411,2.01539 -3.18787,3.42779 -3.0444,5.55721 0.30108,4.46909 0.0776,5.35506 -1.3506,5.35506 -1.245,0 -2.93058,2.5432 -3.97666,6 -0.30962,1.02314 -0.80973,0.60506 -1.57312,-1.3151 z"
         style="fill:#63cc1b"
         sodipodi:nodetypes="sccscssccccccsccccssscsscccsccccsscsssscsscsssccscsssssscscsscccsccscssscsscscscssssssccccsscsscsccscscscscc" />
      <path
         inkscape:connector-curvature="0"
         id="path5801"
         d="m 225.91713,77.53474 c -31.35,-4.54496 -58.42941,-8.57806 -60.17647,-8.96246 -4.51446,-0.99328 -6.35034,-4.34095 -6.18992,-11.2871 l 0.13362,-5.78518 0.65769,4.70797 c 0.36173,2.58938 0.95498,5.00526 1.31833,5.36861 0.36335,0.36335 9.79476,1.92481 20.95869,3.46991 18.82687,2.60565 80.55398,11.33855 99.582,14.08845 6.48546,0.93727 8.54794,0.9332 9.5,-0.0188 0.92746,-0.92738 1.27214,-18.11334 1.45235,-72.41606 l 0.23629,-71.20011 2.76371,0.22369 c 1.52004,0.12303 11.08871,1.13053 21.26371,2.2389 10.175,1.10836 24.125,2.46685 31,3.01887 6.875,0.55201 29.10957,2.807 49.41016,5.0111 42.43394,4.60717 43.19078,4.64564 44.42078,2.25744 1.99099,-3.86579 3.22583,-22.83564 4.18231,-64.25 1.23631,-53.5304 2.0538,-79.29948 2.54066,-80.08723 0.2041,-0.33025 4.77547,-3.19507 10.15859,-6.36626 5.38313,-3.1712 13.95851,-8.93297 19.05641,-12.80393 5.09789,-3.87095 9.49596,-6.81104 9.77348,-6.53352 0.57709,0.57708 -2.43006,128.07766 -3.17286,134.52697 -0.46578,4.04409 -1.08555,4.72638 -13.67871,15.05834 C 440.70524,-47.26195 441.74105,-48 437.13715,-48 c -2.32101,0 -22.64505,-2.025 -45.16454,-4.5 -45.65332,-5.01752 -46.13068,-5.0494 -46.86733,-3.12971 -0.28921,0.75365 -0.83168,22.46615 -1.20549,48.25 -0.629,43.38556 -0.82343,47.18698 -2.60863,51.00218 -1.38548,2.96097 -5.2318,6.84019 -13.6515,13.7683 -6.44739,5.3052 -12.62253,10.5008 -13.72253,11.54578 C 308.56529,74.0207 301.771,79 300.18546,79 c -0.97258,0 -1.76833,0.68161 -1.76833,1.5147 0,2.53745 -6.03179,5.48793 -11,5.38071 -2.475,-0.0534 -30.15,-3.81572 -61.5,-8.36067 z m -68.7741,-155.14218 c -0.60863,-0.60862 -7.17787,-1.37384 -85.20343,-9.92489 -23.08764,-2.53024 -42.55014,-5.07567 -43.25,-5.6565 -0.69986,-0.58083 -1.258789,-2.01346 -1.242064,-3.18361 0.02646,-1.85113 0.15626,-1.91195 0.999036,-0.46807 1.179168,2.02019 7.668624,3.14141 33.470555,5.78289 45.004283,4.60733 93.022513,10.26689 94.692683,11.16074 0.99402,0.53199 1.80732,1.40141 1.80732,1.93206 0,1.11004 -0.40722,1.22427 -1.2741,0.35738 z M 296.14384,-214.75 c -0.78837,-1.51097 1.37278,-101.83939 2.25277,-104.58198 0.54721,-1.70541 0.54379,-3.79172 -0.009,-5.24457 -1.08586,-2.85605 -1.16069,-38.49831 -0.0845,-40.23966 0.40797,-0.66011 7.23793,-2.95745 15.17768,-5.10521 7.93975,-2.14775 18.2547,-5.30141 22.92211,-7.00814 4.66741,-1.70673 9.09841,-2.86821 9.84665,-2.58109 1.13924,0.43717 1.24059,12.12344 0.62331,71.87051 -0.49007,47.43388 -0.40089,71.55627 0.26607,71.96847 0.55177,0.34101 8.60249,1.31119 17.89049,2.15596 18.88201,1.71736 27.37892,2.72827 25.88728,3.0799 -0.55,0.12966 -5.725,1.60781 -11.5,3.28478 -20.15988,5.85411 -33.1617,8.51363 -42.13863,8.61945 -5.36445,0.0632 -9.2176,0.58233 -10.16617,1.36957 -2.59257,2.15165 -29.99092,4.28559 -30.96849,2.41201 z m -143.80256,-9.65918 c -9.11018,-2.78398 -17.70549,-0.0881 -27.2525,-3.51479 -154.698548,-4.63774 17.75974,-20.03617 21.42512,-19.97762 l 7.75502,0.14094 0.65595,7.13033 c 0.80773,8.78013 0.34356,15.85963 -1.07024,16.32343 -0.58438,0.19171 -1.26538,0.14567 -1.51335,-0.10229 z"
         style="fill:#60b724;fill-opacity:1"
         sodipodi:nodetypes="scccsssscscsscscscsscsssscscsssscscssscscscccccsscssscsccccccccscc" />
      <path
         inkscape:connector-curvature="0"
         id="path5799"
         d="m 225.91713,77.53474 c -31.35,-4.54496 -58.46624,-8.58615 -60.25832,-8.98043 -2.81981,-0.6204 -5.24168,-2.96203 -5.24168,-5.06802 0,-0.35486 1.2375,-0.38331 2.75,-0.0632 1.5125,0.32009 9.5,1.50623 17.75,2.63587 8.25,1.12965 19.725,2.72347 25.5,3.54183 5.775,0.81835 15,2.10508 20.5,2.85939 5.5,0.75431 19.675,2.77946 31.5,4.50034 11.825,1.72087 24.38689,3.22126 27.91532,3.33419 l 6.41532,0.20532 0.89643,-3.37797 c 0.50205,-1.89183 0.75928,-33.67862 0.58468,-72.25034 -0.17146,-37.87982 -0.31175,-68.87223 -0.31175,-68.87204 0,0.29518 45.46279,4.99091 48.35699,4.99466 3.79404,0.005 4.25113,0.23177 3.53767,1.75566 -0.96977,2.07138 -2.09506,37.85319 -2.27009,72.18428 -0.15568,30.53621 0.40551,29.0379 -15.90204,42.45649 -6.44739,5.3052 -12.62253,10.5008 -13.72253,11.54578 C 308.56529,74.0207 301.771,79 300.18546,79 c -0.97258,0 -1.76833,0.68161 -1.76833,1.5147 0,2.53745 -6.03179,5.48793 -11,5.38071 -2.475,-0.0534 -30.15,-3.81572 -61.5,-8.36067 z m 199,-126.6604 c -3.85,-0.47997 -7.675,-1.07444 -8.5,-1.32105 -2.22408,-0.66482 14.77224,0.56873 20,1.45155 l 4.5,0.75992 -4.5,-0.009 c -2.475,-0.005 -7.65,-0.40158 -11.5,-0.88154 z m -17.23097,-2.56733 c 0.97297,-0.25354 2.32297,-0.23687 3,0.0371 0.67703,0.27393 -0.11903,0.48137 -1.76903,0.46099 -1.65,-0.0204 -2.20394,-0.2445 -1.23097,-0.49804 z m 36.41173,-2.01738 c 1.09618,-7.30575 4.81028,-20.26968 5.75693,-20.09432 2.45015,0.45387 6.31367,-1.68005 10.06231,-5.55768 2.2,-2.27569 5.17285,-5.03763 6.60632,-6.13763 4.2157,-3.23498 4.99384,-5.92439 5.4394,-18.79966 0.23221,-6.71019 0.90495,-15.12534 1.49497,-18.70034 0.59003,-3.575 1.19672,-8.975 1.3482,-12 0.15148,-3.025 0.63201,-10.25764 1.06784,-16.07252 0.46165,-15.58761 0.12701,-18.50677 0.40441,-29.18312 0.15157,-6.13611 0.5151,-11.54411 0.80784,-12.01777 -1.63666,-6.2578 -0.90171,-5.80081 -0.98562,-14.40665 -1.10003,-3.58421 -1.07532,-3.63098 4.72653,-8.94566 3.20779,-2.93843 6.24584,-5.08705 6.75124,-4.7747 0.51994,0.32134 0.6755,4.76479 0.3583,10.23417 -0.30833,5.31644 -0.99616,27.44125 -1.5285,49.16625 -0.53234,21.725 -1.26145,48.15339 -1.62024,58.72976 l -0.65236,19.22975 -19.30565,15.75241 c -10.6181,8.66382 -19.72074,15.89077 -20.22807,16.05988 -0.50733,0.16911 -0.73406,-0.94787 -0.50385,-2.48217 z m -44.43076,1.02104 c 0.9625,-0.25152 2.5375,-0.25152 3.5,0 0.9625,0.25153 0.175,0.45733 -1.75,0.45733 -1.925,0 -2.7125,-0.2058 -1.75,-0.45733 z m -10.5,-1.0164 c 1.2375,-0.23836 3.2625,-0.23836 4.5,0 1.2375,0.23835 0.225,0.43337 -2.25,0.43337 -2.475,0 -3.4875,-0.19502 -2.25,-0.43337 z m -8.98834,-1.00153 c 1.24391,-0.23919 3.04391,-0.23011 4,0.0202 0.95609,0.25029 -0.0617,0.446 -2.26166,0.4349 -2.2,-0.0111 -2.98225,-0.21589 -1.73834,-0.45508 z M 363.91713,-56 c -4.75073,-0.6516 -4.80059,-0.68869 -1,-0.744 2.2,-0.032 6.475,0.28393 9.5,0.7021 5.41399,0.74841 5.42963,0.76005 1,0.744 -2.475,-0.009 -6.75,-0.32491 -9.5,-0.7021 z m -9.23097,-1.69299 c 0.97297,-0.25354 2.32297,-0.23687 3,0.0371 0.67703,0.27393 -0.11903,0.48137 -1.76903,0.46099 -1.65,-0.0204 -2.20394,-0.2445 -1.23097,-0.49804 z M 146.91713,-79.65871 c -1.65,-0.19748 -28.54268,-3.1442 -59.761516,-6.54827 -31.218832,-3.40407 -57.3058,-6.5256 -57.971039,-6.93675 -2.175782,-1.3447 -0.354209,-1.69927 4.232552,-0.82386 2.475,0.47237 12.825,1.7787 23,2.90296 10.175,1.12425 34.939644,3.85548 55.032543,6.06939 36.00795,3.96748 49.58797,5.82351 41.96746,5.73584 -1.925,-0.0221 -4.85,-0.20184 -6.5,-0.39931 z m 150.00823,-135.32798 c -0.21145,-0.34213 0.1033,-12.52259 0.69945,-27.06769 0.79972,-19.51181 1.43897,-26.85955 2.43812,-28.02436 13.5352,-27.79959 44.3601,-63.83268 29.67917,-99.41259 -1.55373,-0.20398 -3.01731,-0.40188 -3.25239,-0.43977 -0.23508,-0.0379 3.7664,-2.11007 8.89217,-4.60484 5.12578,-2.49477 9.81321,-4.37141 10.41652,-4.1703 0.78649,0.26216 0.99983,20.48157 0.75383,71.4451 -0.33013,68.39217 -0.27301,71.11561 1.5109,72.03586 1.0197,0.52602 8.28978,1.54755 16.15574,2.27006 7.86596,0.72251 14.49887,1.6326 14.73979,2.02242 0.24093,0.38983 -1.69486,1.01301 -4.30174,1.38484 -2.60688,0.37184 -6.08979,1.06821 -7.73979,1.54749 -7.53014,2.18731 -11.74853,3.07041 -17.085,3.57665 -3.16288,0.30005 -6.67529,1.19315 -7.80535,1.98468 -1.16181,0.81376 -4.36328,1.43914 -7.36734,1.43914 -3.00518,0 -6.29327,0.64251 -7.57035,1.47928 -4.03983,2.647 -29.01025,6.40041 -30.16373,4.53403 z m -150.86849,-11.49877 c -3.53956,-0.77342 -6.79507,-2.21786 -8.22086,-3.64753 -2.06113,-2.06673 -2.20572,-2.67171 -1.13974,-4.76885 1.35689,-2.66946 1.77131,-2.92164 10.0211,-6.09788 3.19013,-1.22823 6.11513,-1.9185 6.5,-1.53395 0.38487,0.38456 0.85844,4.48695 1.05238,9.11643 0.39626,9.45906 1.00435,8.94582 -8.21288,6.93178 z"
         style="display:inline;fill:#59aa21;fill-opacity:1;filter:url(#filter838)"
         sodipodi:nodetypes="scscccsscccssccssssscsccsccccccccccsccscsccccccssscsscccscccscccscccccccccccccscssscccscccssscscccccsccscsscss" />
      <path
         inkscape:connector-curvature="0"
         id="path5793"
         d="m 225.41713,76.41387 c -53.04208,-7.63051 -65.68822,-9.87643 -62.39265,-11.08076 0.60904,-0.22257 29.56604,3.65344 64.34888,8.61337 41.72023,5.94917 64.89266,8.11107 64.89266,8.11107 0,-54.08987 2.02991,-77.36962 2.02991,-117.55755 -0.0243,-6.6 1.57212,-15.14142 1.10314,-18.98093 -0.52846,-4.32654 -0.48961,-7.20531 0.10217,-7.57105 0.66577,-0.41147 42.28504,3.85927 48.71538,4.9989 0.16472,0.0292 0.0729,4.66558 -0.20405,10.30308 -0.27695,5.6375 -0.79048,27.8 -1.14119,49.25 l -0.63764,39 -7.79196,7.62976 c -4.28557,4.19637 -10.43181,9.58873 -13.6583,11.98303 -3.22649,2.3943 -8.83013,6.94841 -12.45253,10.12024 -6.25584,3.359 -14.74984,13.52454 -21.06811,13.68174 -1.84014,-0.0469 -29.67071,-3.87229 -61.84571,-8.5009 z m 90.66504,-303.29138 c 16.67054,-9.55793 30.28627,-31.07794 30.28627,-31.07794 0,0 -0.68849,15.04704 -0.45131,23.84813 -8.5615,1.91212 -30.96262,9.09672 -29.83496,7.22981 z"
         style="display:inline;fill:#3a6e15;fill-opacity:1"
         sodipodi:nodetypes="scscccccssccsccscccc" />
      <path
         inkscape:connector-curvature="0"
         id="path5797"
         d="m 225.91713,77.53474 c -31.35,-4.54496 -58.46624,-8.58615 -60.25832,-8.98043 -2.8338,-0.62348 -6.66091,-4.50034 -4.52686,-4.58572 0.43185,-0.0173 29.93782,4.114 65.56883,9.18063 61.21982,8.70528 64.87807,9.11761 66.5,7.49532 1.58111,-1.58145 1.73147,-6.65925 1.90828,-64.44118 0.10557,-34.49845 -0.14526,-66.25459 -0.55739,-70.5692 -0.565,-5.91503 -0.44221,-7.9626 0.49919,-8.32385 1.03757,-0.39815 49.80603,4.51242 49.89512,5.02402 0.0159,0.0911 -0.27438,11.19067 -0.64499,24.66567 -0.37062,13.475 -0.7211,35.27042 -0.77885,48.43428 -0.13145,29.96061 0.39899,28.55937 -15.88248,41.95649 -6.44739,5.3052 -12.62253,10.5008 -13.72253,11.54578 C 308.56529,74.0207 301.771,79 300.18546,79 c -0.97258,0 -1.76833,0.68161 -1.76833,1.5147 0,2.53745 -6.03179,5.48793 -11,5.38071 -2.475,-0.0534 -30.15,-3.81572 -61.5,-8.36067 z M 445.7299,-53.33179 c 0.37798,-1.00748 0.68723,-2.25948 0.68723,-2.78222 0,-0.52274 0.84323,-1.27344 1.87385,-1.66821 2.66648,-1.02139 10.19943,-7.46572 19.27172,-16.48668 13.46944,-13.39324 13.65662,-14.26666 15.3722,-71.7311 0.28735,-9.625 0.96906,-26.01995 1.5149,-36.43322 0.74202,-14.15576 0.70139,-19.11311 -0.16103,-19.64611 -1.57373,-0.97262 -0.22103,-12.61423 1.78381,-15.35177 1.63826,-2.23699 1.56314,6.66851 -0.69956,82.9311 -0.50587,17.05 -0.9279,35.56338 -0.93783,41.14084 l -0.0181,10.14084 -9.25,7.47309 c -5.0875,4.11021 -13.3,10.75229 -18.25,14.76018 -12.70346,10.28568 -11.99232,9.79918 -11.18723,7.65326 z M 141.22963,-80.68311 c 0.72187,-0.28887 1.58437,-0.25335 1.91667,0.0789 0.33229,0.33229 -0.25834,0.56864 -1.3125,0.52522 -1.16495,-0.048 -1.4019,-0.28494 -0.60417,-0.60416 z m -17.54347,-2.00988 c 0.97297,-0.25354 2.32297,-0.23687 3,0.0371 0.67703,0.27393 -0.11903,0.48137 -1.76903,0.46099 -1.65,-0.0204 -2.20394,-0.2445 -1.23097,-0.49804 z m -16.45653,-1.99012 c 0.72187,-0.28887 1.58437,-0.25335 1.91667,0.0789 0.33229,0.33229 -0.25834,0.56864 -1.3125,0.52522 -1.16495,-0.048 -1.4019,-0.28494 -0.60417,-0.60416 z m -12,-1 c 0.72187,-0.28887 1.58437,-0.25335 1.91666,0.0789 0.3323,0.33229 -0.25833,0.56864 -1.3125,0.52522 -1.16494,-0.048 -1.4019,-0.28494 -0.60416,-0.60416 z m -17.000003,-2 c 0.721875,-0.28887 1.584375,-0.25335 1.916667,0.0789 0.332291,0.33229 -0.258334,0.56864 -1.3125,0.52522 -1.164943,-0.048 -1.4019,-0.28494 -0.604167,-0.60416 z m -47.0625,-4.97917 c 0.6875,-0.27741 1.8125,-0.27741 2.5,0 0.6875,0.27741 0.125,0.50439 -1.25,0.50439 -1.375,0 -1.9375,-0.22698 -1.25,-0.50439 z M 298.49454,-215.95215 c 24.3567,-45.46475 40.94827,-93.63141 45.22159,-152.41125 -0.76918,-4.85286 -0.6596,-6.13316 0.63582,-7.4287 1.42024,-1.42037 1.58836,4.95659 1.8155,68.86339 0.23032,64.80099 0.38543,70.52859 1.94113,71.67871 0.92995,0.6875 2.7298,1.25 3.99968,1.25 1.26988,0 2.30887,0.40114 2.30887,0.89142 -15.63687,4.02228 -42.34699,21.11399 -55.92259,17.15643 z m -147.61096,-11.36981 c -2.28796,-1.32542 -2.42853,-2.29254 -0.75262,-5.17804 1.60435,-2.76229 3.5333,-0.7143 3.10901,3.30088 -0.29225,2.76576 -0.51549,2.9436 -2.35639,1.87716 z"
         style="display:inline;fill:#4e951d;fill-opacity:1;filter:url(#filter834)"
         sodipodi:nodetypes="sccscssccsssssscscscssscsscccscccccccccccccccccccccccccccsssscccscscccscc" />
    </g>
    <path
       transform="matrix(0.9500306,0,0,1,-0.27882022,0)"
       inkscape:connector-curvature="0"
       id="path853"
       d="M 28.185241,77.974398 74.540663,37.914157 55.334,35.934432 55.368976,21.174699 8.2981928,57.51506 27.929969,59.579813 Z"
       style="fill:#ffffff;fill-opacity:0.05521474;stroke:none;stroke-width:1px;stroke-linecap:butt;stroke-linejoin:miter;stroke-opacity:1;filter:url(#filter1187)" />
    <path
       inkscape:connector-curvature="0"
       id="path1191"
       d="M -3.4050505,58.230422 66.323476,6.5813253 25.682483,3.4337349 -5.5798193,56.656627 Z"
       style="fill:none;stroke:none;stroke-width:0.97469515px;stroke-linecap:butt;stroke-linejoin:miter;stroke-opacity:1" />
    <path
       sodipodi:nodetypes="ccccccccc"
       inkscape:connector-curvature="0"
       id="path1193"
       d="M 4.2066405,56.942771 52.85616,17.167762 52.867093,9.5858434 25.682483,31.762048 25.181932,34.266653 22.760159,33.659781 1.6241026,49.789157 0.94448726,57.371988 Z"
       style="fill:#ffffff;fill-opacity:0.05521474;stroke:none;stroke-width:0.97469515px;stroke-linecap:butt;stroke-linejoin:miter;stroke-opacity:1" />
  </g>
</svg>
