<?xml version="1.0" encoding="UTF-8" standalone="no"?>
<svg
   xmlns:dc="http://purl.org/dc/elements/1.1/"
   xmlns:cc="http://creativecommons.org/ns#"
   xmlns:rdf="http://www.w3.org/1999/02/22-rdf-syntax-ns#"
   xmlns:svg="http://www.w3.org/2000/svg"
   xmlns="http://www.w3.org/2000/svg"
   viewBox="0 0 280 300"
   height="300"
   width="280"
   id="svg2"
   version="1.1">
  <metadata
     id="metadata8">
    <rdf:RDF>
      <cc:Work
         rdf:about="">
        <dc:format>image/svg+xml</dc:format>
        <dc:type
           rdf:resource="http://purl.org/dc/dcmitype/StillImage" />
        <dc:title></dc:title>
      </cc:Work>
    </rdf:RDF>
  </metadata>
  <defs
     id="defs6" />
  <path
     id="path4604"
     d="m 273.04141,30.181805 c 0.20053,26.10413 -42.73454,32.70108 -51.36038,8.45015 -8.94851,-22.07789 22.37276,-42.56658 40.08743,-27.86924 6.53766,4.14811 11.53989,11.45753 11.27295,19.41909 z"
     style="fill:#ebebeb;fill-opacity:1;stroke:none;stroke-width:0;stroke-miterlimit:4;stroke-dasharray:none;stroke-opacity:1;paint-order:markers stroke fill" />
  <path
     id="path4606"
     d="m 176.60464,166.51619 c -25.4946,-5.77054 -44.40382,-25.0365 -63.08862,-41.80188 -12.15928,-3.73816 -34.396323,-28.454215 -9.18137,-28.645535 15.66827,6.636265 28.54486,-3.03887 16.34801,-18.06195 -3.07746,-24.12312 27.30097,-4.09484 40.33089,-6.98401 11.62747,2.99828 31.25149,-9.66164 24.91182,10.03878 -2.98677,20.342645 21.66179,22.855695 32.10082,35.231095 9.54977,5.03463 15.11355,20.3645 -0.75419,14.67196 -24.82443,-4.01848 -46.16779,-18.48135 -68.00164,-29.80729 -17.01489,-10.050305 -21.53099,12.80671 -7.64633,20.51849 10.55278,15.61947 36.81385,27.90027 38.58823,44.95307 z"
     style="fill:#ebebeb;fill-opacity:1;stroke:#ebebeb;stroke-width:2;stroke-miterlimit:4;stroke-dasharray:none;stroke-opacity:1;paint-order:markers stroke fill" />
  <g
     transform="rotate(36.883725,246.02105,93.658239)"
     id="g817">
    <path
       id="path885"
       d="m 239.3254,433.40485 c -24.92924,-28.70754 -47.52408,-59.33452 -69.58127,-90.27306 -24.87568,0.67096 -53.46782,-18.66613 -50.39651,-45.99891 -0.64048,-20.36191 -7.52651,-41.72353 0.90004,-61.37792 -3.91602,-24.97762 5.28486,-49.73355 2.84851,-74.76671 0.83369,-25.14544 34.5844,3.13682 22.62169,14.59345 -17.54009,-2.48415 -25.688,23.24893 -5.02112,24.71367 14.20807,-4.64203 29.34742,-1.12911 44.03862,0.11308 13.85543,2.48728 27.66405,-1.46936 41.09202,-2.00128 14.30537,-4.62512 6.96557,-18.86076 -5.94198,-14.5977 -20.06776,-3.04657 -42.5456,-0.83941 -59.65582,-13.77265 10.06769,-22.1387 39.09167,-10.79963 57.48003,-18.90092 16.91558,-0.21869 36.17226,-25.22303 50.40495,-9.92407 11.68996,13.67732 9.60551,38.82421 -7.55625,47.09541 7.34966,15.99589 19.75967,33.96566 7.68513,51.09897 -14.10729,7.39821 -21.93376,20.33072 -3.92722,29.04254 15.21303,12.02609 31.63883,22.78913 44.80479,37.1032 22.48312,7.40691 13.48565,31.45264 14.91936,49.19315 0.0523,29.085 -0.17115,58.16997 -0.0405,87.2549 -25.6164,0 -51.2328,0 -76.8492,0 -2.60842,-2.86506 -5.21702,-5.73008 -7.82532,-8.59515 z m -47.89512,-186.7424 c 12.63634,-9.8725 -18.50621,-13.86215 -26.02159,-11.12366 -21.89163,14.56955 20.50116,10.63541 26.02159,11.12366 z m -59.74717,-4.84995 c -2.97761,-0.48376 3.72431,6.51675 0,0 z m 14.65266,-2.37987 c -6.16354,-2.19673 1.69616,7.18569 0,0 z m 3.3934,2.9632 c -3.60252,-3.80826 -1.57192,2.82273 0,0 z M 150.5,240 c -1.35236,-3.75051 -2.19315,3.24202 0,0 z m 50,-112.05633 c -11.48976,1.98525 -10.99161,-20.25029 -20.38099,-19.05543 -0.0222,-23.140518 -6.45696,-47.610897 3.57343,-69.630063 5.66009,12.836923 28.97797,23.311889 43.58585,12.156204 7.0467,-5.585757 -0.45178,-30.932132 9.38392,-12.139104 11.94963,28.10868 9.56773,59.397031 9.09744,89.224723 -15.08735,-0.0216 -30.18331,0.1417 -45.25965,-0.55633 z"
       style="fill:#e6e6e6;fill-opacity:1" />
    <path
       id="path883"
       d="m 242.89877,437.25 c -26.4283,-29.59216 -50.04126,-61.5496 -72.84363,-93.97628 -21.09726,-0.74058 -45.12092,-12.28814 -50.10153,-34.52299 2.01985,-22.82509 -9.65005,-46.47207 0.23492,-68.5393 1.04689,-14.91163 -8.98158,-49.59986 17.86352,-38.71882 28.45134,1.91322 57.1984,7.2996 85.61397,2.60511 13.45793,1.95943 26.40082,-20.28439 6.69284,-19.81091 -20.28216,-3.30077 -41.23428,-3.26833 -61.00681,-9.27525 -10.65268,-10.37653 19.1436,-13.00541 26.13553,-13.95665 21.60261,-0.8233 42.26565,-8.38846 59.08701,-21.92267 20.06674,-8.93906 25.14363,26.28103 16.83771,38.73533 -4.69045,10.20329 -20.55282,10.36883 -6.44622,19.32448 11.84199,15.36122 10.24223,42.09414 -8.23175,51.6295 -9.14966,22.56722 27.61882,26.30767 36.45347,43.03352 16.50353,12.8743 38.84023,23.70713 30.84221,48.56846 -0.13586,33.85872 0.0456,67.71767 -0.03,101.57647 -25.52506,0 -51.05012,0 -76.57518,0 -1.50868,-1.58333 -3.01737,-3.16667 -4.52605,-4.75 z m -71.81982,-184.5 c 10.26736,-4.25905 41.73961,9.61223 36.56894,-7.96761 -18.45811,-13.92952 -43.22609,-10.08228 -64.75359,-13.58016 -16.63156,-4.83473 -31.60501,19.09825 -8.41709,20.07383 12.14958,1.52793 24.44983,-0.0138 36.60174,1.47394 z M 209.5,207 c -0.41113,-4.08755 -2.66946,4.40425 0,0 z m -85.98886,-29.04373 c -3.70404,-7.82704 2.1972,-34.44461 8.68371,-15.30398 10.77725,6.56171 -8.41341,37.70785 -8.68371,15.30398 z M 220,128.02838 c -18.31022,5.77813 -26.78192,-10.8523 -36.33241,-21.2734 -8.57976,-16.82783 -5.12574,-37.638637 -3.87757,-55.911298 3.81557,-14.971981 4.99353,12.273546 15.77283,9.549745 19.71375,11.345812 46.12516,-3.968927 36.46228,-27.176431 8.63279,8.901301 11.82336,29.429998 13.2657,43.905731 0.39918,16.322534 2.61516,33.549523 -0.85034,49.375223 -6.54486,7.06475 -16.5345,-0.40787 -24.44049,1.53043 z"
       style="fill:#e1e1e1;fill-opacity:1" />
    <path
       id="path881"
       d="m 239.82094,433.75 c -25.19569,-28.64072 -47.65291,-59.52925 -69.87539,-90.49043 -22.16988,-0.41384 -47.94544,-14.1545 -50.26203,-38.31578 3.22761,-17.17302 -9.57171,-42.91944 0.42598,-54.70776 22.4131,11.06308 48.10698,2.81531 71.76327,8.03957 11.28271,6.08272 37.31368,-3.40857 18.57372,-15.41306 -19.71912,-8.57801 -42.42032,-11.70064 -63.40856,-14.02439 -14.87822,6.92577 -33.55004,3.40794 -28.02356,-16.99627 0.90648,-22.21324 24.1056,-1.27586 36.8297,-5.36643 26.204,2.76581 53.66013,9.15773 78.9503,-1.95555 15.11709,-0.98516 16.64451,-17.22994 1.89781,-20.44429 -19.80062,-2.91808 -39.86051,-3.75524 -59.63263,-7.04218 -15.4602,-8.73199 13.91961,-12.60919 21.2924,-12.86984 19.36505,-0.66958 38.84579,-5.86631 53.65354,-18.97325 18.11118,-17.87449 30.28464,15.61139 20.24179,28.97484 -6.43317,10.89821 -15.32395,19.9016 -3.20283,30.40254 10.54966,18.4505 -0.75623,37.0302 -15.31335,47.68458 -1.37437,16.59774 20.86962,19.59257 29.69743,31.03762 11.96995,10.78881 25.70955,19.73541 36.93732,31.18971 8.66789,18.40057 0.88549,39.57418 3.71002,59.2007 -0.004,22.77323 -0.24459,45.54653 -0.0759,68.31967 -25.58474,0 -51.16947,0 -76.75421,0 -2.47491,-2.74999 -4.95001,-5.50006 -7.42481,-8.25 z M 203.2117,307.20666 c -16.91324,-13.99602 -40.77693,-11.60959 -59.83674,-21.14365 -10.05574,-5.79042 -30.99373,6.03344 -13.18016,12.71133 20.42602,0.39786 39.69707,6.54441 59.42348,10.16247 4.58095,0.20277 9.23691,-0.23474 13.59342,-1.73015 z M 123.57116,177.5 c -2.38518,-8.2497 0.98168,-28.31062 8.38283,-11.4953 6.77481,7.20915 -11.24581,35.58812 -8.38283,11.4953 z m 99.01613,-49.24936 c -20.8839,6.24554 -27.3214,-23.80097 -42.15922,-30.549574 -3.85122,-13.308074 -1.55987,-38.847718 -0.17561,-45.167305 3.82156,22.170784 35.58765,18.083922 50.75477,11.960603 9.92394,-6.909493 -1.0632,-42.32413 7.97688,-18.05479 8.77513,26.208886 8.02228,54.304846 6.37479,81.532916 -7.51425,1.69143 -15.18915,-0.1743 -22.77161,0.27815 z"
       style="fill:#dddddd;fill-opacity:1" />
    <path
       id="path879"
       d="m 237.29149,430.75 c -24.26817,-28.27254 -46.46012,-58.24266 -68.12425,-88.53267 -26.66416,2.85533 -55.48864,-22.33323 -49.20959,-50.10938 -1.04697,-11.16838 -11.36166,-45.6856 10.93274,-33.01898 22.62829,6.80763 46.77778,-0.76896 69.43326,5.9224 14.35389,5.82042 36.91365,-10.97222 16.64512,-20.83075 -19.8788,-10.53151 -43.30439,-9.13405 -64.13046,-16.84826 -13.1602,1.18128 -42.71136,8.20731 -32.4415,-15.54246 12.29378,-13.33674 31.9218,1.96948 47.48996,0.46706 20.59642,4.10111 42.21277,6.06423 62.49287,-0.4123 18.18696,0.21886 30.34475,-28.28825 5.55809,-28.24523 -21.76035,-3.61064 -43.98948,-3.87521 -65.56988,-8.65577 19.5377,-14.71164 47.46957,-0.006 66.50749,-16.44159 10.37907,-6.29812 31.30265,-23.51959 38.02227,-5.10548 8.33586,18.96161 -22.91967,34.33828 -7.21184,51.14146 14.45796,17.0273 -1.74801,37.2468 -13.42398,49.60304 4.76053,19.68179 31.14399,24.90567 42.81331,40.97141 21.32648,11.52888 31.19396,34.0058 26.55656,57.58406 -0.56209,29.75744 0.69801,59.52482 0.38314,89.30344 -25.60392,0 -51.20785,0 -76.81177,0 -3.30385,-3.75 -6.60769,-7.5 -9.91154,-11.25 z M 201.09446,313.14479 c 12.14618,-22.20594 -28.51541,-15.42705 -40.13807,-24.49057 -12.56544,-11.79131 -52.93097,-7.44511 -35.02033,14.48836 15.98269,5.38215 33.44339,4.12043 49.67348,9.18668 8.43204,1.191 16.99407,1.48018 25.48492,0.81553 z M 161,262.39301 c -3.35711,-2.42191 -2.90817,4.5435 0,0 z M 123.69608,177.5 c -3.86778,-10.74427 4.08614,-21.71561 6.95644,-6.1218 2.28496,7.336 -11.00198,21.68303 -6.95644,6.1218 z M 233.75,128.2545 c -13.77519,-0.87787 8.02217,-28.846375 -12.76674,-22.72456 -13.62202,5.197 -29.39312,-11.315672 -39.94043,-7.847857 -2.93475,-8.705603 -3.5722,-30.977786 -0.74906,-31.777656 4.84189,20.450314 28.73458,7.836466 42.69266,6.901199 20.43286,4.233654 13.05854,-21.633468 14.28337,-31.60698 9.95997,27.66317 9.60105,57.585758 8.08539,86.546944 -3.28532,3.25641 -7.81209,-0.92374 -11.60519,0.50891 z m -12.9375,-0.93761 c 6.06466,-3.638 -0.15333,2.93395 0,0 z M 179.19495,56.5 c 1.25547,-5.18542 -0.21637,7.501331 0,0 z"
       style="fill:#d8d8d8;fill-opacity:1" />
    <path
       id="path877"
       d="m 237.72998,431.25 c -24.30275,-28.23945 -46.35355,-58.30849 -68.16398,-88.48469 -24.51231,1.038 -52.23339,-18.36037 -50.16856,-44.87211 10.29637,21.56555 39.7361,10.50947 58.06482,19.62838 11.93305,5.47033 43.2333,-5.65754 25.40575,-18.59349 -22.22089,-4.01852 -43.08055,-14.43643 -65.13164,-17.03634 -15.34022,6.62231 -33.03972,-20.93108 -13.52192,-23.1879 15.94429,10.72139 34.38693,10.14489 52.82478,8.52236 16.98646,-3.00166 44.02193,10.91849 51.80953,-11.35497 -4.30488,-13.40887 -21.99156,-16.18958 -34.13841,-19.9742 -15.04374,-3.02553 -30.33453,-5.31001 -44.91394,-10.01749 -11.65036,0.0557 -37.32793,10.15903 -29.3939,-11.61771 17.18333,-10.24194 37.29356,3.41039 56.01551,2.89632 23.20972,5.52363 48.86146,4.12596 69.80127,-7.64391 18.89853,-12.71856 0.3813,-28.36873 -15.61986,-27.28775 -18.02783,-3.0828 -36.64234,-1.69397 -54.42171,-6.39874 1.70908,-11.43362 28.88867,-2.22116 39.15647,-7.30409 21.10662,1.00024 36.72585,-23.29168 55.56631,-20.1878 11.69192,14.70406 0.74541,32.56104 -10.92194,41.61675 8.25382,15.02712 23.45669,36.40343 4.65571,50.76552 -26.15017,15.02329 4.82949,32.87215 18.67819,42.29223 13.51504,14.13518 34.71321,23.41609 41.38671,42.63888 -1.49899,38.61701 -0.33931,77.58754 -0.69914,116.35071 -25.60927,0 -51.21854,0 -76.82781,0 -3.14742,-3.58331 -6.29484,-7.16678 -9.44224,-10.74996 z M 123.71421,177.34315 c -4.73593,-8.20102 5.25591,-18.20762 4.09776,-4.48366 2.3547,6.7357 -5.91309,16.75805 -4.09776,4.48366 z M 241,128.32002 c -10.88936,-10.96251 -3.26899,-42.868355 -29.01515,-31.462594 -11.6561,3.770164 -28.38463,-13.066643 -9.30324,-15.853632 19.63134,2.69501 43.67746,-5.684702 36.89877,-29.255546 6.62202,15.443088 6.01818,34.35039 6.53317,51.356222 -2.38471,5.36909 4.25264,28.65362 -5.11355,25.21555 z M 195.38156,86.448062 c -0.64193,-4.397506 -2.2956,6.811412 0,0 z M 179.74159,89.5 c -2.17476,-28.775511 7.47455,13.24188 0,0 z m -1.54664,-22 c 1.25547,-5.18542 -0.21637,7.501331 0,0 z"
       style="fill:#d4d4d4;fill-opacity:1" />
    <path
       id="path875"
       d="m 238.32827,431.75 c -24.89559,-28.00583 -46.41984,-58.73984 -68.62001,-88.86311 -20.71928,-0.2442 -44.05076,-12.04784 -48.85785,-33.70138 14.95322,18.06973 41.45959,6.47748 61.34826,13.10556 14.86217,5.5662 45.2478,-12.83933 22.43068,-24.69052 -13.98042,-5.79052 -50.81404,0.29626 -45.26816,-22.77973 19.36273,-7.90422 40.87797,2.26552 60.88951,-3.44754 23.80385,-2.88911 11.40683,-27.1602 -5.09712,-29.97698 -15.58977,-7.40242 -33.60457,-6.11089 -49.48479,-11.84956 -15.73909,-8.26604 -1.001,-13.39351 8.81726,-9.38141 19.22465,2.70798 40.31009,9.42354 58.58979,-0.60496 19.01548,-0.82633 37.04832,-29.17259 10.72515,-34.88712 -21.54634,-7.59594 -44.97362,-3.4108 -66.89645,-9.08245 10.40827,-7.74426 29.4663,-1.28582 43.07532,-5.13095 19.61108,0.46437 34.66568,-21.15753 52.53157,-18.51904 11.78515,15.82003 -7.48082,29.37877 -12.11745,40.82769 11.97601,12.87436 19.63761,34.43528 4.44863,48.19831 -16.55553,9.56591 -10.41021,24.5844 3.93988,31.80997 12.04798,8.36276 24.0519,17.10675 33.86656,27.93639 12.33345,6.80944 25.04835,18.34175 21.35095,33.87562 0,35.80374 0,71.60747 0,107.41121 -25.54901,0 -51.09801,0 -76.64702,0 -3.00824,-3.41667 -6.01647,-6.83333 -9.02471,-10.25 z M 118.6489,276.25 c -14.66307,-23.78793 40.42239,-4.67967 14.74548,2.08816 -4.50368,0.47898 -12.30185,3.63677 -14.74548,-2.08816 z m 26.78299,2.63979 c 0.75605,-5.81206 4.43148,4.32097 0,0 z m -25.24084,-55.77082 c -3.17752,-20.18756 10.96639,14.70357 -0.29536,2.19814 0.0985,-0.73272 0.19691,-1.46543 0.29536,-2.19814 z m 19.72076,-1.14285 c -21.28185,-9.70628 21.9107,-7.45292 8.4386,1.95487 -2.91409,-0.1609 -5.64199,-1.24426 -8.4386,-1.95487 z m -15.81213,-45.05945 c 0.87061,-14.34847 1.2405,14.67045 -0.002,0.69299 z M 238.54542,118.75 c 1.07207,-15.83065 -8.90461,-33.028511 2.30808,-46.774362 -1.0019,-9.201672 1.45442,-19.231068 2.92341,-4.508792 3.12251,20.031211 1.79926,40.356844 1.72306,60.532864 -6.31784,3.78976 -8.99593,-4.55286 -6.95455,-9.24971 z M 180.07895,91.416667 c 1.42058,-3.410105 -0.22097,4.954318 0,0 z m -1,-9 c 1.42058,-3.410105 -0.22097,4.954318 0,0 z"
       style="fill:#cfcfcf;fill-opacity:1" />
    <path
       id="path873"
       d="m 238.82635,432.25 c -24.91313,-28.4108 -47.12381,-59.03416 -69.07315,-89.75 -16.44365,3.59985 -42.3432,-14.48303 -43.1357,-22.73895 21.71094,4.84794 44.67527,4.84811 66.74479,5.5453 17.49973,1.8099 32.88591,-22.86275 10.9088,-28.88784 -12.89303,-4.63525 -45.76274,0.29033 -42.63259,-17.69089 19.86418,-10.54558 43.67331,5.39846 64.15558,-6.45649 19.29499,-3.97914 13.41193,-24.89818 -3.1013,-27.46148 -16.41837,-12.19683 -41.93782,-6.08913 -56.03,-18.13129 12.25906,-12.02056 35.39338,6.20339 52.33694,-0.19797 16.99619,-1.19189 52.03332,-14.50266 37.0415,-36.01809 -24.8215,-15.15166 -55.43875,-8.86099 -82.7118,-15.10993 22.98811,-6.66796 48.70855,2.34725 70.32214,-10.22013 10.06918,-6.8074 38.40306,-19.97141 31.2064,3.9976 -7.7736,11.25034 -21.30477,25.92192 -5.19463,36.87294 8.95137,18.06713 -3.68,39.58388 -17.42809,47.55879 8.71355,22.45762 35.70219,28.67596 50.37016,46.50172 21.77153,10.92917 24.24768,33.91903 21.36871,55.24808 0.10454,28.89615 -0.028,57.79246 0.0259,86.68867 -25.51494,0 -51.02987,0 -76.54481,0 -2.87627,-3.25002 -5.7526,-6.49999 -8.62884,-9.75004 z M 119.5341,276.66621 c -7.45529,-16.27974 7.01786,-4.01896 0,0 z m 7.51174,-5.58056 c -1.9214,-7.63494 3.56759,5.18564 0,0 z M 121.15789,228 c 0.73881,-5.61037 0.73881,5.61037 0,0 z m -0.49122,-3.66667 c -6.85264,-8.51808 5.74904,-4.29989 0,0 z m 118.77841,-98.0508 c 1.93266,-20.81511 -1.57792,-42.059178 3.42642,-62.582639 2.38114,20.910924 5.1835,44.057019 0.37472,64.156279 -1.39401,1.41965 -3.64688,0.30013 -3.80114,-1.57364 z m 1.63387,-68.865863 c 1.42058,-3.410105 -0.22097,4.954318 0,0 z"
       style="fill:#cbcbcb;fill-opacity:1" />
    <path
       id="path871"
       d="m 245.79545,439.65071 c -28.39842,-29.96822 -51.59592,-64.25033 -76.4415,-97.09075 -15.86234,2.5707 -40.5344,-12.64766 -41.69577,-22.30743 21.3556,9.43831 45.297,5.27172 67.84498,7.88224 24.07531,0.5434 31.6036,-34.13093 3.56943,-33.56258 -10.03941,-1.43457 -41.18333,-0.87236 -33.86396,-14.65669 17.90121,-8.51569 39.45364,7.52627 56.16546,-5.62519 18.59382,5.58341 35.44611,-19.24822 11.25535,-24.90772 -17.0789,-10.3958 -36.90716,-16.12117 -56.87132,-16.77215 -17.41909,-10.40921 15.57899,-9.82281 21.73518,-4.84303 21.37156,4.74847 45.71828,-0.0229 61.97496,-14.74714 4.3686,-7.81899 6.40726,-19.01576 10.92382,-4.93479 6.45513,16.7599 -2.1674,39.16408 -20.21599,44.11899 2.14862,23.86358 30.54088,26.95125 44.03455,42.20126 17.44104,11.89266 36.25618,27.02718 29.79082,50.71915 0.0284,32.29179 -0.0291,64.58359 -0.001,96.87538 -25.30303,0 -50.60606,0 -75.90909,0 l -2.2955,-2.34955 z m 40.65176,-152.73612 c -4.87995,-2.95 0.62534,5.53801 0,0 z M 278,283.10699 c -1.44331,-5.99014 -3.64305,1.69245 0,0 z m -20.78943,-90.70785 c -2.01971,-4.95926 5.52596,5.29856 0,0 z m -6.84072,-5.4842 c -24.04239,-10.7853 -51.26366,-5.23246 -76.18906,-12.18216 30.35711,-2.21712 64.05588,2.67767 90.43693,-15.90789 20.55461,-7.87748 7.39322,27.91727 -5.35474,29.86102 -3.04821,0.79835 -6.31396,-0.0651 -8.89313,-1.77097 z M 241.12589,124.75 c 1.55042,-12.89063 -0.9013,-40.851433 3.6149,-44.086408 0.002,12.756618 5.80494,40.778958 -3.6149,44.086408 z m 2.06906,-54.25 c 1.25547,-5.18542 -0.21637,7.501331 0,0 z"
       style="fill:#c7c7c7;fill-opacity:1" />
    <path
       id="path869"
       d="M 241.87113,435.23139 C 215.40019,406.06381 192.52872,373.91794 169.54973,342 c -12.5099,3.08065 -39.79921,-9.28155 -37.18157,-18.03307 23.59445,5.86285 48.479,7.57622 72.57262,4.84158 20.19422,-4.12116 23.62625,-33.4653 -0.41428,-33.12935 -13.42182,-3.50708 -39.28741,-2.47998 -43.74055,-12.90493 20.77598,-7.62684 44.35291,5.66434 64.16152,-6.25609 16.39455,2.71364 37.5683,-17.67506 13.33939,-25.33255 -19.50195,-11.47757 -41.82151,-16.75241 -63.89843,-19.98184 -4.00072,-11.44447 23.57687,0.25288 32.04028,-0.73152 18.58901,3.02697 38.2007,-1.27925 52.59352,-13.78963 21.24191,-14.95114 14.84414,24.69854 1.24964,29.75865 -14.48687,12.40655 -3.87453,38.29417 13.44616,42.0322 14.67945,3.89329 26.27983,14.25038 40.67653,20.78514 12.41882,8.75644 9.71994,23.90726 9.60543,37.05009 0,31.8971 0,63.79419 0,95.69129 -25.25258,0 -50.50516,0 -75.75774,0 -2.12371,-2.25619 -4.24739,-4.51241 -6.37112,-6.76858 z m 41.41898,-141.23277 c -0.90639,-5.4673 -1.91918,7.97724 0,0 z m -26.10678,-12.21529 c -3.87208,-1.4581 3.45471,4.31513 0,0 z m 35.46733,15.7487 c 0.6877,-6.53991 8.12121,2.82879 0,0 z M 267,203 c -1.56422,-7.14149 4.60727,9.03812 0,0 z m -16.50442,-16.01403 c -23.38463,-10.9812 -50.02815,-5.74524 -74.52382,-11.84899 29.8294,-3.16303 63.69626,5.6658 89.51902,-13.98647 22.92912,-3.15292 -1.92392,39.563 -14.9952,25.83546 z m -8.01694,-59.95141 c 1.81482,-10.20285 -0.27389,-33.652525 2.73278,-35.547545 -0.30092,11.817765 3.77889,24.675735 -2.73278,35.547545 z m 1.60031,-49.617893 c 1.42058,-3.410105 -0.22097,4.954318 0,0 z"
       style="fill:#c2c2c2;fill-opacity:1" />
    <path
       id="path867"
       d="m 239.66688,432.75 c -25.3367,-27.8777 -46.76706,-58.94082 -68.99155,-89.27209 -11.48469,-0.3508 -38.65556,-8.62534 -36.09136,-17.56116 23.69365,4.31554 48.75476,9.73271 72.50026,3.87017 15.10784,-3.83702 30.95317,-25.23672 8.42785,-31.45743 -15.7116,-8.14269 -36.5203,-0.73073 -50.14646,-13.35066 3.09126,-8.68738 27.61055,-0.11198 39.04497,-1.39034 18.04616,1.05947 34.08624,-12.44762 51.83589,-10.25584 -8.13906,18.13102 9.85867,29.13116 23.71256,35.06514 13.12946,11.97299 41.96184,-3.33026 44.14186,18.78682 C 323.89119,365.40999 324.0469,403.72903 324,442 c -25.28028,0 -50.56056,0 -75.84084,0 -2.83076,-3.08333 -5.66152,-6.16667 -8.49228,-9.25 z m 76.86416,-116.69978 c -3.34344,-7.45911 -4.87733,3.03871 0,0 z M 311.5,315 c -0.41113,-4.08755 -2.66946,4.40425 0,0 z m -29,-5 c -3.1892,-5.95526 -3.41529,2.27615 0,0 z m -30.88182,-51.45998 c -21.68433,-14.71247 -47.1372,-23.73394 -73.20322,-26.25851 -8.92961,-9.34722 23.40614,-1.98559 30.42268,-0.14347 19.01366,2.92949 39.63589,-1.718 54.2552,-14.58942 20.86786,-2.43569 3.66348,29.55703 -8.20225,32.16346 -2.14977,0.68668 -0.40937,13.77908 -3.27241,8.82794 z m -1.99197,-72.0928 c -23.11771,-9.90066 -48.97292,-5.52556 -72.97513,-11.36903 30.98504,-1.31734 65.4251,6.91194 93.0091,-11.47897 15.23474,-0.35333 -8.51185,38.11779 -20.03397,22.848 z M 244.36523,111.5 c 0.52506,-12.255627 0.22611,12.77242 0,0 z m 0.34839,-18.25 c 0.22211,-13.706445 2.03543,9.24761 -0.0571,1.146509 l 0.0486,-0.975605 z"
       style="fill:#bebebe;fill-opacity:1" />
    <path
       id="path865"
       d="m 242.36466,435.7231 c -25.55731,-28.39124 -47.93627,-59.42505 -69.9419,-90.59168 -12.15661,-3.27847 -38.34459,-9.56451 -38.57703,-18.34406 22.40208,6.85804 46.67592,8.59204 69.76713,5.97791 14.76977,-2.10848 38.69411,-21.08189 16.7466,-32.07638 -15.48588,-11.48144 -44.74094,-3.03997 -54.71636,-16.84621 15.54225,-5.26675 33.08361,6.8137 49.44173,0.15949 11.26251,0.0383 35.46231,-14.31952 40.29709,-3.42847 -9.80634,12.9041 -2.88969,20.95989 8.85364,27.24434 14.50588,13.11865 32.98817,23.99295 53.25189,21.75041 15.9224,8.6415 1.26018,31.4689 6.18509,46.17668 0.18758,21.13836 0.86881,42.28971 -0.0363,63.42105 -9.57263,6.57021 -22.55891,1.3801 -33.82554,2.83382 -13.86049,0 -27.72098,0 -41.58147,0 -1.95484,-2.0923 -3.90992,-4.18466 -5.86455,-6.2769 z M 251.209,256.96305 c -21.81876,-13.40965 -46.60838,-22.13285 -72.12993,-24.64464 -8.29917,-8.38876 21.23496,-0.66693 27.52752,0.32288 19.06446,3.36699 40.4479,1.67696 56.13194,-10.71622 20.95503,-1.07298 -1.7509,27.75416 -10.22706,31.71262 -0.40812,1.26556 1.62809,6.49038 -1.30247,3.32536 z m -0.50208,-70.03706 c -21.45093,-10.32196 -45.95267,-6.31365 -68.63501,-11.19199 25.63046,-0.55403 51.67905,3.6801 76.95098,-2.33757 7.26284,-8.2091 22.34648,-9.71446 11.9211,3.98062 -3.56545,6.78629 -12.25839,16.08072 -20.23707,9.54894 z m -5.62797,-91.509323 c 1.42058,-3.410105 -0.22097,4.954313 0,0 z"
       style="fill:#b9b9b9;fill-opacity:1" />
    <path
       id="path863"
       d="m 239.7978,432.75 c -23.89903,-26.18829 -44.01264,-55.52264 -63.59644,-84.89522 -8.89021,-11.42011 -31.31452,-2.71449 -37.31776,-16.01799 22.95769,-0.0401 46.58168,8.39612 69.4668,1.37501 19.5101,-1.38935 32.87115,-26.75106 9.28469,-35.07635 -16.23064,-7.68623 -36.99182,-2.26067 -51.87029,-12.6825 14.53104,-6.41375 40.16869,6.91674 58.76453,-0.70408 9.57495,-2.23118 38.83874,-12.19366 24.18059,6.7384 -3.61487,22.50189 21.56871,33.32268 35.61065,45.66779 13.12992,13.1559 40.85471,11.30424 40.16733,34.14923 -0.38805,18.70492 -2.89072,37.30725 0.33944,55.88858 3.74984,15.24401 -11.82833,15.7192 -22.26611,14.80757 -18.10498,0 -36.20996,0 -54.31494,0 -2.81609,-3.08354 -5.63276,-6.16656 -8.44849,-9.25044 z m -58.72913,-79.5 c -1.85169,-9.06705 -2.82069,3.29546 0,0 z m 62.42425,-53.23855 c -2.28017,-2.74386 -2.22762,5.82089 0,0 z M 130.981,327.47711 c -1.06709,-5.21449 5.35196,7.51713 0,0 z m 118.50892,-73.49342 c -23.20431,-10.58626 -47.41606,-20.16404 -73.02364,-22.56768 6.54169,-6.47829 26.16257,3.2585 37.85761,3.11513 16.94464,2.05635 35.2006,0.36814 49.77821,-9.20925 17.82008,-2.21736 -2.6094,23.89972 -11.10324,27.02421 -1.0669,0.7327 -2.35619,1.0637 -3.50894,1.63759 z m 2.47634,-66.60373 c -22.88187,-11.17672 -49.09728,-7.01439 -73.36247,-12.12315 27.61754,1.062 55.65124,6.09082 83.03481,-0.0121 5.85719,-7.17672 18.77952,-11.15753 9.62476,1.44557 -3.62314,6.50073 -10.85972,15.71366 -19.2971,10.68968 z"
       style="fill:#b5b5b5;fill-opacity:1" />
    <path
       id="path861"
       d="m 247.27814,440.87814 c -15.71803,-20.24883 -32.15315,-39.89777 -45.71042,-61.70535 -7.7993,-11.3987 -15.58111,-22.85144 -22.12319,-35.03363 -10.15361,-0.43584 -38.24162,-5.32538 -34.3072,-10.24638 20.7426,2.94784 41.90425,2.80602 62.7466,3.04443 14.97563,-1.62924 31.68921,-21.46693 17.97411,-34.41434 -17.00892,-14.43429 -42.23305,-4.65667 -59.66507,-17.54795 21.67727,-0.69557 43.46313,5.31292 65.0083,0.79377 7.09899,2.00669 32.10442,-11.31361 18.83593,3.9427 -19.81025,14.74749 2.70319,36.50396 16.53584,45.5687 16.22501,10.23507 29.47448,23.61791 46.91637,31.2612 19.50738,12.87383 6.78237,37.42399 10.89086,56.21178 5.08576,19.98867 -10.85556,21.25416 -26.01312,19.25332 -17.03355,0.13101 -34.09686,0.26032 -51.08901,-1.12825 z m -2.88115,-6.71147 c -0.9048,-3.55449 -2.52833,3.37102 0,0 z m -3.85587,-4.10014 c -5.17783,-5.73119 1.20525,4.56155 0,0 z M 310,368 c -1.97403,-4.47105 -1.59209,4.10972 0,0 z m -34.1875,-27.68311 c 6.06466,-3.638 -0.15333,2.93395 0,0 z M 246.5,251.98382 c -22.41166,-9.02647 -45.20688,-18.74537 -69.62168,-20.29564 16.32523,-4.86796 33.28536,6.24227 50.31279,4.20743 14.69433,4.53424 32.43973,-9.54676 42.66691,-6.25203 1.00608,10.88814 -12.90463,22.96103 -23.35802,22.34024 z m 5.45038,-64.67421 c -7.27785,-3.50591 -29.33452,-10.08507 -8.51424,-7.26797 8.84924,-0.12876 37.97161,-13.68253 22.30559,4.59157 -3.48412,3.47478 -9.30497,5.61089 -13.79135,2.6764 z M 211.25,178.28375 c 3.87785,-1.5522 6.83985,2.18312 0,0 z M 273.03063,168.5 c -1.08829,-6.26413 4.10603,-0.3816 0,0 z"
       style="fill:#b0b0b0;fill-opacity:1" />
    <path
       id="path859"
       d="m 251.82015,441.27874 c -22.76492,-29.85106 -48.24755,-58.31344 -63.90189,-92.78448 -9.61906,-10.93242 -27.55893,-2.77362 -37.32482,-11.96015 22.52912,-0.11314 45.58189,4.48382 67.79669,0.11138 10.94983,-1.82554 15.19153,-26.06741 16.41815,-23.63196 4.61105,18.4559 17.08057,35.06918 34.0447,43.67453 11.8722,16.56264 31.39718,23.60124 47.44679,34.99597 10.20676,12.5975 14.94206,42.08854 -1.24237,51.6671 -20.7808,-2.4962 -42.14583,-0.84466 -63.23725,-2.07239 z M 321,399 c -1.97403,-4.47105 -1.59209,4.10972 0,0 z m -5,-3.01531 c -1.4575,-9.3533 -5.55014,5.00257 0,0 z m -21.27083,-13.58886 c -3.60252,-3.80826 -1.57192,2.82273 0,0 z M 281,373 c -1.31406,-3.54977 -1.95036,4.06259 0,0 z m -42,-43 c -2.33515,-4.55761 -2.137,4.52589 0,0 z m 67.58125,53.35113 c -1.34562,-6.7315 3.31912,4.31056 0,0 z m -8.01696,-5.64426 c 3.48315,-6.67245 -0.29786,4.09708 0,0 z m 0.24821,-3.38998 c 6.06466,-3.638 -0.15333,2.93395 0,0 z M 293,373.03138 c 2.92815,-2.70936 3.58324,4.727 0,0 z M 279,365 c 3.02447,-3.01638 2.97952,4.43286 0,0 z M 142,335 c -2.27215,-3.90126 6.44085,5.37046 0,0 z m 87.42621,-30.91859 c -18.31254,-12.43775 -41.46804,-10.43234 -61.95173,-16.43038 8.65734,-9.03324 29.85474,4.99618 43.2155,1.38209 14.1544,0.9209 28.96594,0.57853 42.07615,-5.46721 -1.34469,10.982 -12.75877,19.63211 -23.33992,20.5155 z m 8.49309,-55.83276 c -20.34219,-8.38147 -41.58508,-15.24148 -63.5985,-17.23855 27.98086,-1.72674 56.05526,14.25888 83.55441,2.70012 22.5769,-8.77208 3.06306,19.261 -8.54117,17.89374 -4.062,0.53557 -8.29457,-0.68978 -11.41474,-3.35531 z m 13.80561,-61.04306 c -7.69564,-1.30347 -18.82928,-10.7163 -4.45698,-6.46711 8.18256,1.9169 33.86845,-12.87182 17.96825,4.38644 -3.3643,3.44409 -9.46354,5.96926 -13.51127,2.08067 z"
       style="fill:#acacac;fill-opacity:1" />
    <path
       id="path857"
       d="m 255.5,441 c 0.71897,-4.73895 1.40787,4.04439 0,0 z m 2.07639,-1.33417 c -29.64862,-29.94707 -41.24124,-77.13905 -81.10845,-96.65503 -21.70059,-8.17842 11.00049,-0.396 18.39998,-2.43983 15.28795,-2.07013 33.19332,-3.44102 42.86879,11.30368 10.20019,11.71374 17.40733,27.56177 32.76615,33.488 13.00451,17.47107 39.5124,19.76663 49.10839,40.43213 2.65246,24.6234 -31.28495,16.26528 -46.43969,15.40839 -5.1899,-0.59157 -10.38125,-1.19652 -15.59517,-1.53734 z M 307,414.5 306.995,414.13474 Z M 255.5,413 c -0.8718,-6.05437 -3.31409,4.2483 0,0 z m -11.06476,-1.89522 c 0.48271,-9.31894 -6.89051,4.67949 0,0 z M 287.5,407 c -0.8718,-6.05437 -3.31409,4.2483 0,0 z m -58,-11 c -0.8718,-6.05437 -3.31409,4.2483 0,0 z m -1.95888,-3.93347 c 0.61096,-9.88445 -3.37581,2.08562 0,0 z M 266,384 c -0.94859,-7.39592 -4.10228,4.96102 0,0 z m -41.27083,-2.60417 c -0.0486,-4.71805 -3.31541,2.93869 0,0 z m 15,-23 c -0.0486,-4.71805 -3.31541,2.93869 0,0 z M 316,416 c 2.38093,-6.57985 1.19905,5.58054 0,0 z m -83,-6 c 2.38093,-6.57985 1.19905,5.58054 0,0 z m 63.8125,-8.68311 c 0.39388,-4.78239 3.26164,2.33904 0,0 z M 256.5,370 c 0.8718,-6.05437 3.31409,4.2483 0,0 z m -15,-16 c 0.71897,-4.73895 1.40787,4.04439 0,0 z m -19,-54.01243 c -9.72204,-5.75671 -37.31818,-8.66201 -36.98865,-11.19481 19.14654,0.94149 41.36196,-3.00018 58.04169,7.42665 -2.75575,6.47861 -15.09091,2.07554 -21.05304,3.76816 z M 248,252.03904 c -6.75388,-4.2284 -33.54676,-8.20769 -26.51318,-14.70935 12.32151,1.61334 38.85521,-6.85265 41.25004,7.48409 -4.28522,3.53299 -9.70717,5.10122 -14.73686,7.22526 z m -68.17227,-19.94167 c 6.03829,-6.01333 5.55649,8.43654 0,0 z M 251,186.80098 c -13.96723,-14.29947 30.6956,-2.77604 7.21858,1.38337 -2.31862,1.90165 -5.20471,-0.59419 -7.21858,-1.38337 z"
       style="fill:#a7a7a7;fill-opacity:1" />
    <path
       id="path855"
       d="m 199,346.90638 c 3.07062,-3.34154 5.03042,3.37302 0,0 z m -5.25,-2.56866 c 4.74681,-3.62529 2.02633,2.70488 0,0 z M 218,342.11803 c 0.4135,-6.34078 3.48049,2.05531 0,0 z m -61,-1.04165 c 4.94095,-6.74938 38.71757,-0.66965 19.48786,0.9675 -6.50735,-0.0514 -12.99181,-0.65163 -19.48786,-0.9675 z m 70.60322,-39.23862 c -18.91928,-10.43337 -41.30522,-8.89305 -61.54928,-14.98548 22.76681,-2.06825 44.62475,7.68473 67.44274,6.34078 22.79609,-1.32954 3.79507,12.96282 -5.89346,8.6447 z M 248,291.62244 c 2.81216,-6.65361 3.73139,0.0219 0,0 z m -7.5,-42.88036 c -7.77665,-3.82687 -31.46056,-9.60099 -27.43757,-11.68604 17.3036,4.49839 35.33918,-0.12798 52.78765,3.12705 -4.71822,8.52236 -16.41522,14.65014 -25.35008,8.55899 z m -59.67227,-16.64471 c -13.71829,-3.97416 19.92542,2.10063 0,0 z m 71.20794,-44.78494 c -21.86618,-6.02082 11.42658,-10.78231 15.96283,-5.43264 -3.51702,4.07288 -10.62759,9.66882 -15.96283,5.43264 z"
       style="fill:#a3a3a3;fill-opacity:1" />
    <path
       id="path853"
       d="m 160,340.72084 c 6.40595,-9.56776 34.52735,3.21364 10.77522,1.17769 -3.59039,0.29561 -7.47078,0.66357 -10.77522,-1.17769 z m 63.5,-40.73327 c -13.52815,-9.03474 -44.42505,-6.79613 -49.94568,-13.08971 21.56373,3.70499 45.28014,3.97742 65.32719,10.77436 2.17694,7.06364 -12.65238,5.21227 -15.38151,2.31535 z m 25.1669,-48.654 c -8.82338,-4.61754 -34.04994,-9.31542 -32.31665,-13.49796 12.1159,4.05041 42.55276,-1.22069 43.09014,10.11576 -3.11164,2.28781 -7.00637,3.099 -10.77349,3.3822 z M 176,231.22357 c 5.54093,-2.67749 9.75606,4.15115 0,0 z m 76.03567,-43.91114 c -8.8985,0.48031 -11.18262,-10.63174 -0.95191,-5.84118 15.67901,-7.95529 19.16281,9.06937 2.73057,6.95447 z"
       style="fill:#9e9e9e;fill-opacity:1" />
    <path
       id="path851"
       d="m 163,340.97856 c 13.68938,-8.796 15.2554,5.96313 0,0 z m 7.25,-0.64084 c -4.74681,-3.62529 -2.02633,2.70488 0,0 z M 224,299.98592 c -14.79393,-9.16453 -45.04921,-7.42421 -53.09754,-13.64856 22.83987,3.00147 45.53262,7.16922 67.90823,12.65543 -1.4402,5.68336 -11.4965,3.78066 -14.81069,0.99313 z m 22.5,-49.56861 c -5.72009,-3.813 -31.9298,-8.13334 -25.66903,-11.8338 11.78318,3.56758 33.35629,2.38227 39.25572,7.58414 -3.50617,3.19254 -8.7156,7.21832 -13.58669,4.24966 z m -68.23097,-19.1103 c 6.21908,-4.11939 2.54246,2.87067 0,0 z m 73.80073,-43.9707 c -21.27563,-9.27905 32.8559,-7.32507 6.35839,1.23665 -2.14504,0.56444 -4.64176,0.28543 -6.35839,-1.23665 z"
       style="fill:#9a9a9a;fill-opacity:1" />
    <path
       id="path849"
       d="m 165.75,341.33772 c 4.74681,-3.62529 2.02633,2.70488 0,0 z m 62.79051,-39.27217 c -7.15124,-4.36593 -33.87741,-11.37367 -11.04385,-8.24199 2.42632,0.38951 24.32963,7.94651 11.04385,8.24199 z m -32.27148,-10.75854 c 6.21908,-4.11939 2.54246,2.87067 0,0 z m -16.53691,-1.39522 c -10.36454,2.30814 -11.31823,-8.56805 -1.08132,-2.67327 7.61763,1.20708 15.9363,5.17373 1.08132,2.67327 z m 68.26734,-39.03423 c -7.45062,-4.14629 -29.03544,-8.04931 -27.9296,-11.55073 8.54062,2.59746 39.10521,0.88823 31.58777,11.72776 l -1.83292,0.14302 z M 253.45,188.07618 c -22.56734,-7.96128 24.87834,-10.43546 7.40587,-0.39717 -2.3705,0.84494 -4.96908,0.98307 -7.40587,0.39717 z"
       style="fill:#959595;fill-opacity:1" />
    <path
       id="path847"
       d="m 224.57556,299.79273 c -5.72259,-1.52757 -23.15016,-9.28325 -7.18571,-4.75127 6.02513,0.87623 24.30332,11.09999 7.18571,4.75127 z m -28.76306,-8.47584 c 6.06466,-3.638 -0.15333,2.93395 0,0 z m -8.0625,-0.97917 c 4.74681,-3.62529 2.02633,2.70488 0,0 z m -14.49526,-1.76428 c -14.72727,-6.08957 20.97406,3.336 0,0 z m 75.34983,-37.40425 c -6.96538,-4.60308 -26.38546,-7.07757 -26.43977,-11.23939 4.75556,1.46704 38.66089,3.77002 26.43977,11.23939 z m 0.79284,-65.49866 c -3.75737,-10.8945 29.23024,1.90501 6.73911,2.80267 -2.48105,0.0292 -5.13542,-0.79191 -6.73911,-2.80267 z"
       style="fill:#919191;fill-opacity:1" />
    <path
       id="path845"
       d="m 221,298 c -16.25495,-6.36823 14.93487,3.90172 0.50186,0.2251 z m -13.1875,-4.68311 c 6.06466,-3.638 -0.15333,2.93395 0,0 z M 177,289.2973 c -24.68772,-5.83833 16.51455,-0.005 0,0 z m 67,-40.17548 c -6.70617,-1.07031 -31.2304,-11.65526 -10.74172,-6.96901 5.03976,0.0611 27.77885,10.37521 10.74172,6.96901 z m 6.33183,-62.93601 c -3.67903,-10.69414 24.69877,3.59841 5.81314,2.61826 l -3.04128,-0.99237 z"
       style="fill:#8c8c8c;fill-opacity:1" />
    <path
       id="path843"
       d="m 211.8125,294.31689 c 6.06466,-3.638 -0.15333,2.93395 0,0 z m -37.02142,-5.70503 c -14.79198,-4.14224 16.6166,1.62003 2.1302,0.3593 z M 249.75,250.33772 c 4.74681,-3.62529 2.02633,2.70488 0,0 z m -16.02371,-5.06695 c -21.66148,-5.49688 10.56336,-4.77423 9.82474,2.94927 -3.43722,-0.37398 -6.51771,-2.05827 -9.82474,-2.94927 z M 250,185.86626 c -1.19643,-9.63538 24.19144,4.54472 5.76182,2.63427 l -3.10098,-0.83853 z"
       style="fill:#888888;fill-opacity:1" />
    <path
       id="path841"
       d="m 171.19925,288.01356 c -6.81487,-5.35953 14.01776,3.48642 0,0 z m 79.61325,-37.69667 c 6.06466,-3.638 -0.15333,2.93395 0,0 z M 235,245.5 c -19.42547,-9.56015 26.98287,8.2833 3.11398,1.09997 C 237.07291,246.24205 236.03791,245.8669 235,245.5 Z m 15.08189,-59.55702 c 5.51415,-10.04799 18.88421,9.03868 0.70447,0.43661 z"
       style="fill:#838383;fill-opacity:1" />
    <path
       id="path839"
       d="m 171,287.70052 c 3.55183,-3.87014 7.52556,4.87235 0,0 z m 63.65516,-42.31925 c -12.83726,-5.08022 14.04776,3.85255 0,0 z m 16.38936,-59.00572 c -2.85903,-9.04744 20.99786,5.2178 3.83004,2.03467 l -2.04139,-0.75197 z"
       style="fill:#7f7f7f;fill-opacity:1" />
    <path
       id="path837"
       d="m 172.15998,287.81626 c -7.72508,-4.40709 12.56064,3.68462 0,0 z M 234,245 c -1.63448,-3.55776 8.15884,5.85064 0,0 z m 17.00224,-58.65295 c 4.88277,-8.3616 16.34442,6.78963 1.96983,1.33767 -0.65661,-0.44589 -1.31322,-0.89178 -1.96983,-1.33767 z"
       style="fill:#7a7a7a;fill-opacity:1" />
    <path
       id="path835"
       d="m 169.5,287 c 4.17831,-3.43699 4.12681,5.41434 0,0 z m 82.75,-100.11505 c 3.22742,-8.91485 13.90647,7.76081 0,0 z"
       style="fill:#767676;fill-opacity:1" />
    <path
       id="path833"
       d="m 171.8125,287.31689 c 6.06466,-3.638 -0.15333,2.93395 0,0 z M 252.25,186.88495 c -3.77428,-7.05315 13.55554,4.90091 0.23732,0.0578 z"
       style="fill:#717171;fill-opacity:1" />
    <path
       id="path831"
       d="m 252.5,187 c 1.96951,-6.60691 8.52497,7.64397 0,0 z"
       style="fill:#6d6d6d;fill-opacity:1" />
    <path
       id="path829"
       d="m 252.5,186.88793 c 5.15619,-4.39247 6.14201,7.10429 0,0 z"
       style="fill:#686868;fill-opacity:1" />
    <path
       id="path827"
       d="m 253.44113,187.42578 c 3.01643,-5.37657 5.45236,6.63731 0,0 z"
       style="fill:#646464;fill-opacity:1" />
    <path
       id="path825"
       d="m 254.50411,188.00666 c 4.01103,-4.35918 4.61099,4.70211 0,0 z"
       style="fill:#606060;fill-opacity:1" />
    <path
       id="path823"
       d="m 254.5,188 c 0.91786,-4.40652 3.60978,6.3856 0,0 z"
       style="fill:#5b5b5b;fill-opacity:1" />
    <path
       id="path821"
       d="m 254.50708,188.01145 c 2.28017,-2.74386 2.22762,5.82089 0,0 z"
       style="fill:#575757;fill-opacity:1" />
    <path
       id="path819"
       d="m 254.50708,188.01145 c 2.28017,-2.74386 2.22762,5.82089 0,0 z"
       style="fill:#525252;fill-opacity:1" />
  </g>
  <path
     id="path4596"
     d="m 117.82633,190.7814 c -17.833253,-13.35468 -36.764263,-25.2876 -53.580143,-39.967 13.21508,-17.46181 32.89299,11.90741 45.872433,19.05337 4.04795,4.37382 18.61659,16.31771 7.70771,20.91363 z"
     style="fill:#ebebeb;fill-opacity:1;stroke:none;stroke-width:1px;stroke-linecap:butt;stroke-linejoin:miter;stroke-opacity:1" />
</svg>
